%TF.GenerationSoftware,KiCad,Pcbnew,(6.0.6-0)*%
%TF.CreationDate,2023-05-14T21:26:16-05:00*%
%TF.ProjectId,MHC_MAIN_REV_2,4d48435f-4d41-4494-9e5f-5245565f322e,rev?*%
%TF.SameCoordinates,Original*%
%TF.FileFunction,Copper,L2,Inr*%
%TF.FilePolarity,Positive*%
%FSLAX46Y46*%
G04 Gerber Fmt 4.6, Leading zero omitted, Abs format (unit mm)*
G04 Created by KiCad (PCBNEW (6.0.6-0)) date 2023-05-14 21:26:16*
%MOMM*%
%LPD*%
G01*
G04 APERTURE LIST*
%TA.AperFunction,ComponentPad*%
%ADD10C,1.778000*%
%TD*%
%TA.AperFunction,ComponentPad*%
%ADD11C,3.240000*%
%TD*%
%TA.AperFunction,ComponentPad*%
%ADD12R,1.350000X1.350000*%
%TD*%
%TA.AperFunction,ComponentPad*%
%ADD13O,1.350000X1.350000*%
%TD*%
%TA.AperFunction,ComponentPad*%
%ADD14R,2.000000X2.000000*%
%TD*%
%TA.AperFunction,ComponentPad*%
%ADD15C,2.000000*%
%TD*%
%TA.AperFunction,ComponentPad*%
%ADD16R,2.000000X3.200000*%
%TD*%
%TA.AperFunction,ComponentPad*%
%ADD17C,1.397000*%
%TD*%
%TA.AperFunction,ComponentPad*%
%ADD18R,1.700000X1.700000*%
%TD*%
%TA.AperFunction,ComponentPad*%
%ADD19O,1.700000X1.700000*%
%TD*%
%TA.AperFunction,ComponentPad*%
%ADD20R,1.750000X1.750000*%
%TD*%
%TA.AperFunction,ComponentPad*%
%ADD21C,1.750000*%
%TD*%
%TA.AperFunction,ComponentPad*%
%ADD22C,2.700000*%
%TD*%
%TA.AperFunction,ViaPad*%
%ADD23C,0.800000*%
%TD*%
G04 APERTURE END LIST*
D10*
%TO.N,P0.05{slash}AIN3*%
%TO.C,S1*%
X34420000Y-35007500D03*
%TO.N,P0.06*%
X38405000Y-35007500D03*
%TO.N,P0.07*%
X40920000Y-35007500D03*
%TO.N,GND*%
X40920000Y-24707500D03*
%TO.N,P0.28{slash}AIN4*%
X38405000Y-24707500D03*
%TO.N,P0.30{slash}AIN6*%
X34420000Y-24707500D03*
%TD*%
D11*
%TO.N,*%
%TO.C,U4*%
X68540000Y-36450000D03*
D12*
%TO.N,P0.29{slash}AIN5*%
X77790000Y-57050000D03*
D13*
%TO.N,GND*%
X75790000Y-57050000D03*
%TO.N,P0.23*%
X73790000Y-57050000D03*
%TO.N,P0.03{slash}AIN1*%
X71790000Y-57050000D03*
%TO.N,GND*%
X69790000Y-57050000D03*
%TO.N,+3.3V*%
X67790000Y-57050000D03*
%TD*%
D14*
%TO.N,P0.15*%
%TO.C,SW3*%
X47965000Y-37360000D03*
D15*
%TO.N,P0.17*%
X52965000Y-37360000D03*
%TO.N,GND*%
X50465000Y-37360000D03*
D16*
%TO.N,N/C*%
X44865000Y-29860000D03*
X56065000Y-29860000D03*
D15*
%TO.N,P0.31{slash}AIN7*%
X52965000Y-22860000D03*
%TO.N,GND*%
X47965000Y-22860000D03*
%TD*%
D17*
%TO.N,GND*%
%TO.C,SW5*%
X24930000Y-33657500D03*
X24930000Y-26037500D03*
%TO.N,P0.04{slash}AIN2*%
X30010000Y-33657500D03*
X30010000Y-26037500D03*
%TD*%
D18*
%TO.N,+BATT*%
%TO.C,J2*%
X61230000Y-56390000D03*
D19*
%TO.N,GND*%
X63770000Y-56390000D03*
%TD*%
D20*
%TO.N,+3.3V*%
%TO.C,RV1*%
X56660000Y-54077500D03*
D21*
%TO.N,P0.02{slash}AIN0*%
X56660000Y-50577500D03*
%TO.N,GND*%
X28160000Y-54077500D03*
D22*
%TO.N,N/C*%
X52510000Y-48127500D03*
X32310000Y-48127500D03*
X51310000Y-56527500D03*
X33510000Y-56527500D03*
%TD*%
D18*
%TO.N,GND*%
%TO.C,J3*%
X19850000Y-35960000D03*
D19*
%TO.N,+3.3V*%
X19850000Y-38500000D03*
%TO.N,SCL*%
X19850000Y-41040000D03*
%TO.N,SDA*%
X19850000Y-43580000D03*
%TD*%
D23*
%TO.N,GND*%
X25958800Y-23825200D03*
X23298491Y-52864263D03*
X73990200Y-54813200D03*
X21780000Y-30940000D03*
X46860000Y-45090000D03*
X58830000Y-31100000D03*
X25307800Y-40436800D03*
X74040000Y-32450000D03*
X38785800Y-42138600D03*
X73674500Y-23880000D03*
X58830000Y-27900000D03*
X36010000Y-47150000D03*
X44480983Y-39439443D03*
X25307800Y-39166800D03*
X43610000Y-43250000D03*
X58850000Y-24710000D03*
X58820000Y-26259500D03*
X33096200Y-43307000D03*
X74178749Y-23175205D03*
X46860000Y-41120000D03*
X58820000Y-29500000D03*
X38354541Y-38904214D03*
X63490000Y-32720000D03*
X38354000Y-45059600D03*
X62590000Y-22464500D03*
X25860734Y-35391723D03*
X25307800Y-41681400D03*
X27466800Y-39141400D03*
%TO.N,P0.03{slash}AIN1*%
X68888356Y-28438641D03*
X68889602Y-33410298D03*
%TO.N,P0.29{slash}AIN5*%
X68490000Y-21740000D03*
%TO.N,P0.02{slash}AIN0*%
X68090000Y-29040000D03*
X68090000Y-34010000D03*
%TO.N,P0.31{slash}AIN7*%
X65030000Y-21740000D03*
%TO.N,P0.28{slash}AIN4*%
X66686710Y-23377512D03*
%TO.N,P0.30{slash}AIN6*%
X66280000Y-22464500D03*
%TO.N,P0.04{slash}AIN2*%
X57124600Y-25501600D03*
X62590000Y-25510000D03*
%TO.N,P0.05{slash}AIN3*%
X65113912Y-25733912D03*
%TO.N,P0.06*%
X62601230Y-26509439D03*
%TO.N,P0.07*%
X65119112Y-26891354D03*
%TO.N,+3.3V*%
X58191400Y-44577000D03*
X58166000Y-40563800D03*
X44470000Y-38440000D03*
X33096200Y-44881800D03*
X26860000Y-35370000D03*
X62455000Y-29455000D03*
X26949400Y-43103800D03*
X26949400Y-46888400D03*
%TO.N,P0.13*%
X63965500Y-33599149D03*
X65814500Y-33600000D03*
%TO.N,P0.15*%
X65820000Y-34930000D03*
%TO.N,RESET*%
X61870500Y-33948931D03*
X67290000Y-29950000D03*
%TO.N,P0.17*%
X67365500Y-33262332D03*
%TO.N,P0.23*%
X70490000Y-29960498D03*
X70910000Y-33410000D03*
%TO.N,Net-(R3-Pad2)*%
X31220000Y-50307999D03*
X31220000Y-52157001D03*
%TO.N,+BATT*%
X39420800Y-50307999D03*
X36280000Y-43370500D03*
X36294977Y-44869500D03*
X39420800Y-52157001D03*
%TO.N,SDA*%
X62445023Y-28405023D03*
X30260800Y-41681400D03*
%TO.N,SCL*%
X65300000Y-28310000D03*
X30260800Y-40411400D03*
%TD*%
%TA.AperFunction,Conductor*%
%TO.N,GND*%
G36*
X46702314Y-21798502D02*
G01*
X46748807Y-21852158D01*
X46758911Y-21922432D01*
X46739648Y-21969910D01*
X46741230Y-21970879D01*
X46619795Y-22169042D01*
X46615313Y-22177837D01*
X46528266Y-22387988D01*
X46525217Y-22397373D01*
X46472115Y-22618554D01*
X46470572Y-22628301D01*
X46452725Y-22855070D01*
X46452725Y-22864930D01*
X46470572Y-23091699D01*
X46472115Y-23101446D01*
X46525217Y-23322627D01*
X46528266Y-23332012D01*
X46615313Y-23542163D01*
X46619795Y-23550958D01*
X46722432Y-23718445D01*
X46732890Y-23727907D01*
X46741666Y-23724124D01*
X47875905Y-22589885D01*
X47938217Y-22555859D01*
X48009032Y-22560924D01*
X48054095Y-22589885D01*
X49185290Y-23721080D01*
X49197670Y-23727840D01*
X49205320Y-23722113D01*
X49310205Y-23550958D01*
X49314687Y-23542163D01*
X49401734Y-23332012D01*
X49404783Y-23322627D01*
X49457885Y-23101446D01*
X49459428Y-23091699D01*
X49477275Y-22864930D01*
X49477275Y-22855070D01*
X49459428Y-22628301D01*
X49457885Y-22618554D01*
X49404783Y-22397373D01*
X49401734Y-22387988D01*
X49314687Y-22177837D01*
X49310205Y-22169042D01*
X49188770Y-21970879D01*
X49190700Y-21969696D01*
X49170010Y-21911657D01*
X49186111Y-21842510D01*
X49237039Y-21793045D01*
X49295807Y-21778500D01*
X51633572Y-21778500D01*
X51701693Y-21798502D01*
X51748186Y-21852158D01*
X51758290Y-21922432D01*
X51739154Y-21969561D01*
X51740824Y-21970584D01*
X51616760Y-22173037D01*
X51614867Y-22177607D01*
X51614865Y-22177611D01*
X51527789Y-22387833D01*
X51525895Y-22392406D01*
X51524740Y-22397218D01*
X51473616Y-22610166D01*
X51470465Y-22623289D01*
X51451835Y-22860000D01*
X51470465Y-23096711D01*
X51471619Y-23101518D01*
X51471620Y-23101524D01*
X51492316Y-23187728D01*
X51525895Y-23327594D01*
X51527788Y-23332165D01*
X51527789Y-23332167D01*
X51614772Y-23542163D01*
X51616760Y-23546963D01*
X51619346Y-23551183D01*
X51738241Y-23745202D01*
X51738245Y-23745208D01*
X51740824Y-23749416D01*
X51895031Y-23929969D01*
X52075584Y-24084176D01*
X52079792Y-24086755D01*
X52079798Y-24086759D01*
X52217781Y-24171315D01*
X52278037Y-24208240D01*
X52282607Y-24210133D01*
X52282611Y-24210135D01*
X52492833Y-24297211D01*
X52497406Y-24299105D01*
X52577609Y-24318360D01*
X52723476Y-24353380D01*
X52723482Y-24353381D01*
X52728289Y-24354535D01*
X52965000Y-24373165D01*
X53201711Y-24354535D01*
X53206518Y-24353381D01*
X53206524Y-24353380D01*
X53352391Y-24318360D01*
X53432594Y-24299105D01*
X53437167Y-24297211D01*
X53647389Y-24210135D01*
X53647393Y-24210133D01*
X53651963Y-24208240D01*
X53712219Y-24171315D01*
X53850202Y-24086759D01*
X53850208Y-24086755D01*
X53854416Y-24084176D01*
X54034969Y-23929969D01*
X54189176Y-23749416D01*
X54191755Y-23745208D01*
X54191759Y-23745202D01*
X54310654Y-23551183D01*
X54313240Y-23546963D01*
X54315229Y-23542163D01*
X54402211Y-23332167D01*
X54402212Y-23332165D01*
X54404105Y-23327594D01*
X54437684Y-23187728D01*
X54458380Y-23101524D01*
X54458381Y-23101518D01*
X54459535Y-23096711D01*
X54478165Y-22860000D01*
X54459535Y-22623289D01*
X54456385Y-22610166D01*
X54405260Y-22397218D01*
X54404105Y-22392406D01*
X54402211Y-22387833D01*
X54315135Y-22177611D01*
X54315133Y-22177607D01*
X54313240Y-22173037D01*
X54189176Y-21970584D01*
X54191208Y-21969339D01*
X54170635Y-21911723D01*
X54186699Y-21842568D01*
X54237601Y-21793076D01*
X54296428Y-21778500D01*
X64007091Y-21778500D01*
X64075212Y-21798502D01*
X64121705Y-21852158D01*
X64132401Y-21891329D01*
X64134545Y-21911723D01*
X64136458Y-21929928D01*
X64138498Y-21936205D01*
X64138498Y-21936207D01*
X64149449Y-21969910D01*
X64195473Y-22111556D01*
X64290960Y-22276944D01*
X64418747Y-22418866D01*
X64573248Y-22531118D01*
X64579276Y-22533802D01*
X64579278Y-22533803D01*
X64681440Y-22579288D01*
X64747712Y-22608794D01*
X64828589Y-22625985D01*
X64928056Y-22647128D01*
X64928061Y-22647128D01*
X64934513Y-22648500D01*
X65125487Y-22648500D01*
X65131939Y-22647128D01*
X65131944Y-22647128D01*
X65256826Y-22620583D01*
X65327617Y-22625985D01*
X65384249Y-22668802D01*
X65402855Y-22704892D01*
X65445473Y-22836056D01*
X65540960Y-23001444D01*
X65545378Y-23006351D01*
X65545379Y-23006352D01*
X65622226Y-23091699D01*
X65668747Y-23143366D01*
X65674089Y-23147247D01*
X65674091Y-23147249D01*
X65729806Y-23187728D01*
X65773160Y-23243950D01*
X65781055Y-23302835D01*
X65773206Y-23377512D01*
X65773896Y-23384077D01*
X65791436Y-23550958D01*
X65793168Y-23567440D01*
X65852183Y-23749068D01*
X65947670Y-23914456D01*
X65952088Y-23919363D01*
X65952089Y-23919364D01*
X66061382Y-24040746D01*
X66075457Y-24056378D01*
X66229958Y-24168630D01*
X66235986Y-24171314D01*
X66235988Y-24171315D01*
X66398391Y-24243621D01*
X66404422Y-24246306D01*
X66497822Y-24266159D01*
X66584766Y-24284640D01*
X66584771Y-24284640D01*
X66591223Y-24286012D01*
X66782197Y-24286012D01*
X66788649Y-24284640D01*
X66788654Y-24284640D01*
X66875598Y-24266159D01*
X66968998Y-24246306D01*
X66975029Y-24243621D01*
X67137432Y-24171315D01*
X67137434Y-24171314D01*
X67143462Y-24168630D01*
X67297963Y-24056378D01*
X67312038Y-24040746D01*
X67421331Y-23919364D01*
X67421332Y-23919363D01*
X67425750Y-23914456D01*
X67521237Y-23749068D01*
X67580252Y-23567440D01*
X67581985Y-23550958D01*
X67599524Y-23384077D01*
X67600214Y-23377512D01*
X67595432Y-23332012D01*
X67580942Y-23194147D01*
X67580942Y-23194145D01*
X67580252Y-23187584D01*
X67521237Y-23005956D01*
X67425750Y-22840568D01*
X67416029Y-22829771D01*
X67302385Y-22703557D01*
X67302384Y-22703556D01*
X67297963Y-22698646D01*
X67292621Y-22694765D01*
X67292619Y-22694763D01*
X67236904Y-22654284D01*
X67193550Y-22598062D01*
X67185655Y-22539177D01*
X67192814Y-22471065D01*
X67193504Y-22464500D01*
X67186449Y-22397373D01*
X67174232Y-22281135D01*
X67174232Y-22281133D01*
X67173542Y-22274572D01*
X67114527Y-22092944D01*
X67044053Y-21970879D01*
X67042102Y-21967500D01*
X67025364Y-21898505D01*
X67048584Y-21831413D01*
X67104392Y-21787526D01*
X67151221Y-21778500D01*
X67467091Y-21778500D01*
X67535212Y-21798502D01*
X67581705Y-21852158D01*
X67592401Y-21891329D01*
X67594545Y-21911723D01*
X67596458Y-21929928D01*
X67598498Y-21936205D01*
X67598498Y-21936207D01*
X67609449Y-21969910D01*
X67655473Y-22111556D01*
X67750960Y-22276944D01*
X67878747Y-22418866D01*
X68033248Y-22531118D01*
X68039276Y-22533802D01*
X68039278Y-22533803D01*
X68141440Y-22579288D01*
X68207712Y-22608794D01*
X68288589Y-22625985D01*
X68388056Y-22647128D01*
X68388061Y-22647128D01*
X68394513Y-22648500D01*
X68585487Y-22648500D01*
X68591939Y-22647128D01*
X68591944Y-22647128D01*
X68691411Y-22625985D01*
X68772288Y-22608794D01*
X68838560Y-22579288D01*
X68940722Y-22533803D01*
X68940724Y-22533802D01*
X68946752Y-22531118D01*
X69101253Y-22418866D01*
X69229040Y-22276944D01*
X69324527Y-22111556D01*
X69370551Y-21969910D01*
X69381502Y-21936207D01*
X69381502Y-21936205D01*
X69383542Y-21929928D01*
X69385456Y-21911723D01*
X69387599Y-21891329D01*
X69414612Y-21825672D01*
X69472834Y-21785043D01*
X69512909Y-21778500D01*
X74504000Y-21778500D01*
X74572121Y-21798502D01*
X74618614Y-21852158D01*
X74630000Y-21904500D01*
X74630000Y-55952031D01*
X74609998Y-56020152D01*
X74556342Y-56066645D01*
X74486068Y-56076749D01*
X74436768Y-56058594D01*
X74329599Y-55990976D01*
X74127572Y-55910376D01*
X73914239Y-55867941D01*
X73908464Y-55867865D01*
X73908460Y-55867865D01*
X73799419Y-55866438D01*
X73696746Y-55865094D01*
X73691049Y-55866073D01*
X73691048Y-55866073D01*
X73488065Y-55900952D01*
X73488062Y-55900953D01*
X73482375Y-55901930D01*
X73278307Y-55977214D01*
X73091376Y-56088427D01*
X72927842Y-56231842D01*
X72924270Y-56236372D01*
X72924269Y-56236374D01*
X72890007Y-56279834D01*
X72832125Y-56320947D01*
X72761205Y-56324239D01*
X72699763Y-56288667D01*
X72690100Y-56277215D01*
X72676737Y-56259319D01*
X72676730Y-56259312D01*
X72673280Y-56254691D01*
X72669044Y-56250775D01*
X72517796Y-56110963D01*
X72517793Y-56110961D01*
X72513556Y-56107044D01*
X72329599Y-55990976D01*
X72127572Y-55910376D01*
X71914239Y-55867941D01*
X71908464Y-55867865D01*
X71908460Y-55867865D01*
X71799419Y-55866438D01*
X71696746Y-55865094D01*
X71691049Y-55866073D01*
X71691048Y-55866073D01*
X71488065Y-55900952D01*
X71488062Y-55900953D01*
X71482375Y-55901930D01*
X71278307Y-55977214D01*
X71091376Y-56088427D01*
X70927842Y-56231842D01*
X70924270Y-56236373D01*
X70889688Y-56280240D01*
X70831807Y-56321353D01*
X70760887Y-56324647D01*
X70699444Y-56289075D01*
X70689780Y-56277622D01*
X70676364Y-56259655D01*
X70668671Y-56251111D01*
X70517490Y-56111361D01*
X70508365Y-56104360D01*
X70334255Y-55994505D01*
X70324008Y-55989284D01*
X70132793Y-55912997D01*
X70121767Y-55909730D01*
X70061770Y-55897797D01*
X70048894Y-55898949D01*
X70044000Y-55914102D01*
X70044000Y-57178000D01*
X70023998Y-57246121D01*
X69970342Y-57292614D01*
X69918000Y-57304000D01*
X69662000Y-57304000D01*
X69593879Y-57283998D01*
X69547386Y-57230342D01*
X69536000Y-57178000D01*
X69536000Y-55911337D01*
X69532194Y-55898375D01*
X69517278Y-55896439D01*
X69488202Y-55901435D01*
X69477082Y-55904415D01*
X69283940Y-55975669D01*
X69273562Y-55980619D01*
X69096639Y-56085877D01*
X69087327Y-56092643D01*
X68932547Y-56228381D01*
X68924629Y-56236725D01*
X68890317Y-56280249D01*
X68832436Y-56321361D01*
X68761516Y-56324655D01*
X68700073Y-56289083D01*
X68690410Y-56277631D01*
X68676733Y-56259315D01*
X68676732Y-56259314D01*
X68673280Y-56254691D01*
X68669044Y-56250775D01*
X68517796Y-56110963D01*
X68517793Y-56110961D01*
X68513556Y-56107044D01*
X68329599Y-55990976D01*
X68127572Y-55910376D01*
X67914239Y-55867941D01*
X67908464Y-55867865D01*
X67908460Y-55867865D01*
X67799419Y-55866438D01*
X67696746Y-55865094D01*
X67691049Y-55866073D01*
X67691048Y-55866073D01*
X67488065Y-55900952D01*
X67488062Y-55900953D01*
X67482375Y-55901930D01*
X67278307Y-55977214D01*
X67091376Y-56088427D01*
X66927842Y-56231842D01*
X66924270Y-56236373D01*
X66857271Y-56321361D01*
X66793181Y-56402658D01*
X66691905Y-56595154D01*
X66690192Y-56600671D01*
X66667784Y-56672837D01*
X66627403Y-56802882D01*
X66601837Y-57018887D01*
X66616063Y-57235933D01*
X66617484Y-57241529D01*
X66617485Y-57241534D01*
X66645113Y-57350316D01*
X66669605Y-57446753D01*
X66723593Y-57563861D01*
X66732300Y-57582749D01*
X66742655Y-57652986D01*
X66713392Y-57717672D01*
X66653804Y-57756269D01*
X66617874Y-57761500D01*
X64579521Y-57761500D01*
X64511400Y-57741498D01*
X64464907Y-57687842D01*
X64454803Y-57617568D01*
X64484297Y-57552988D01*
X64506353Y-57532921D01*
X64645327Y-57433792D01*
X64653200Y-57427139D01*
X64804052Y-57276812D01*
X64810730Y-57268965D01*
X64935003Y-57096020D01*
X64940313Y-57087183D01*
X65034670Y-56896267D01*
X65038469Y-56886672D01*
X65100377Y-56682910D01*
X65102555Y-56672837D01*
X65103986Y-56661962D01*
X65101775Y-56647778D01*
X65088617Y-56644000D01*
X63642000Y-56644000D01*
X63573879Y-56623998D01*
X63527386Y-56570342D01*
X63516000Y-56518000D01*
X63516000Y-56117885D01*
X64024000Y-56117885D01*
X64028475Y-56133124D01*
X64029865Y-56134329D01*
X64037548Y-56136000D01*
X65088344Y-56136000D01*
X65101875Y-56132027D01*
X65103180Y-56122947D01*
X65061214Y-55955875D01*
X65057894Y-55946124D01*
X64972972Y-55750814D01*
X64968105Y-55741739D01*
X64852426Y-55562926D01*
X64846136Y-55554757D01*
X64702806Y-55397240D01*
X64695273Y-55390215D01*
X64528139Y-55258222D01*
X64519552Y-55252517D01*
X64333117Y-55149599D01*
X64323705Y-55145369D01*
X64122959Y-55074280D01*
X64112988Y-55071646D01*
X64041837Y-55058972D01*
X64028540Y-55060432D01*
X64024000Y-55074989D01*
X64024000Y-56117885D01*
X63516000Y-56117885D01*
X63516000Y-55073102D01*
X63512082Y-55059758D01*
X63497806Y-55057771D01*
X63459324Y-55063660D01*
X63449288Y-55066051D01*
X63246868Y-55132212D01*
X63237359Y-55136209D01*
X63048463Y-55234542D01*
X63039738Y-55240036D01*
X62869433Y-55367905D01*
X62861726Y-55374748D01*
X62784478Y-55455584D01*
X62722954Y-55491014D01*
X62652042Y-55487557D01*
X62594255Y-55446311D01*
X62575402Y-55412763D01*
X62533767Y-55301703D01*
X62530615Y-55293295D01*
X62443261Y-55176739D01*
X62326705Y-55089385D01*
X62190316Y-55038255D01*
X62128134Y-55031500D01*
X60331866Y-55031500D01*
X60269684Y-55038255D01*
X60133295Y-55089385D01*
X60016739Y-55176739D01*
X59929385Y-55293295D01*
X59878255Y-55429684D01*
X59871500Y-55491866D01*
X59871500Y-57288134D01*
X59878255Y-57350316D01*
X59929385Y-57486705D01*
X59984268Y-57559935D01*
X60009116Y-57626441D01*
X59994063Y-57695824D01*
X59943889Y-57746054D01*
X59883442Y-57761500D01*
X52957904Y-57761500D01*
X52889783Y-57741498D01*
X52843290Y-57687842D01*
X52833186Y-57617568D01*
X52850992Y-57568823D01*
X52877255Y-57526712D01*
X52956674Y-57399369D01*
X52974224Y-57359673D01*
X53061295Y-57162719D01*
X53063093Y-57158652D01*
X53134534Y-56905343D01*
X53149038Y-56797361D01*
X53169143Y-56647676D01*
X53169144Y-56647668D01*
X53169570Y-56644494D01*
X53173247Y-56527500D01*
X53154659Y-56264966D01*
X53153444Y-56259319D01*
X53100201Y-56012023D01*
X53099264Y-56007671D01*
X53092316Y-55988836D01*
X53009710Y-55764924D01*
X53008169Y-55760747D01*
X52883191Y-55529122D01*
X52726824Y-55317418D01*
X52662935Y-55252517D01*
X52545318Y-55133039D01*
X52542187Y-55129858D01*
X52538647Y-55127157D01*
X52538641Y-55127151D01*
X52372864Y-55000634D01*
X55276500Y-55000634D01*
X55283255Y-55062816D01*
X55334385Y-55199205D01*
X55421739Y-55315761D01*
X55538295Y-55403115D01*
X55674684Y-55454245D01*
X55736866Y-55461000D01*
X57583134Y-55461000D01*
X57645316Y-55454245D01*
X57781705Y-55403115D01*
X57898261Y-55315761D01*
X57985615Y-55199205D01*
X58036745Y-55062816D01*
X58043500Y-55000634D01*
X58043500Y-53154366D01*
X58036745Y-53092184D01*
X57985615Y-52955795D01*
X57898261Y-52839239D01*
X57781705Y-52751885D01*
X57645316Y-52700755D01*
X57583134Y-52694000D01*
X55736866Y-52694000D01*
X55674684Y-52700755D01*
X55538295Y-52751885D01*
X55421739Y-52839239D01*
X55334385Y-52955795D01*
X55283255Y-53092184D01*
X55276500Y-53154366D01*
X55276500Y-55000634D01*
X52372864Y-55000634D01*
X52336506Y-54972886D01*
X52336502Y-54972883D01*
X52332965Y-54970184D01*
X52103332Y-54841584D01*
X51857870Y-54746622D01*
X51853545Y-54745619D01*
X51853540Y-54745618D01*
X51689539Y-54707605D01*
X51601476Y-54687193D01*
X51339267Y-54664483D01*
X51334832Y-54664727D01*
X51334828Y-54664727D01*
X51080916Y-54678700D01*
X51080909Y-54678701D01*
X51076473Y-54678945D01*
X50978596Y-54698414D01*
X50822711Y-54729421D01*
X50822706Y-54729422D01*
X50818339Y-54730291D01*
X50814136Y-54731767D01*
X50574223Y-54816018D01*
X50574220Y-54816019D01*
X50570015Y-54817496D01*
X50566062Y-54819549D01*
X50566056Y-54819552D01*
X50498662Y-54854561D01*
X50336456Y-54938821D01*
X50332841Y-54941404D01*
X50332835Y-54941408D01*
X50254739Y-54997217D01*
X50122322Y-55091844D01*
X50119095Y-55094922D01*
X50119093Y-55094924D01*
X49939219Y-55266515D01*
X49931885Y-55273511D01*
X49768945Y-55480200D01*
X49740529Y-55529122D01*
X49638987Y-55703938D01*
X49638984Y-55703944D01*
X49636753Y-55707785D01*
X49635083Y-55711908D01*
X49540216Y-55946124D01*
X49537947Y-55951725D01*
X49536876Y-55956038D01*
X49536874Y-55956043D01*
X49502943Y-56092643D01*
X49474498Y-56207154D01*
X49447672Y-56468974D01*
X49458005Y-56731962D01*
X49505290Y-56990871D01*
X49588584Y-57240534D01*
X49614066Y-57291531D01*
X49667950Y-57399369D01*
X49706225Y-57475970D01*
X49741295Y-57526712D01*
X49766970Y-57563861D01*
X49789246Y-57631273D01*
X49771541Y-57700026D01*
X49719475Y-57748293D01*
X49663317Y-57761500D01*
X35157904Y-57761500D01*
X35089783Y-57741498D01*
X35043290Y-57687842D01*
X35033186Y-57617568D01*
X35050992Y-57568823D01*
X35077255Y-57526712D01*
X35156674Y-57399369D01*
X35174224Y-57359673D01*
X35261295Y-57162719D01*
X35263093Y-57158652D01*
X35334534Y-56905343D01*
X35349038Y-56797361D01*
X35369143Y-56647676D01*
X35369144Y-56647668D01*
X35369570Y-56644494D01*
X35373247Y-56527500D01*
X35354659Y-56264966D01*
X35353444Y-56259319D01*
X35300201Y-56012023D01*
X35299264Y-56007671D01*
X35292316Y-55988836D01*
X35209710Y-55764924D01*
X35208169Y-55760747D01*
X35083191Y-55529122D01*
X34926824Y-55317418D01*
X34862935Y-55252517D01*
X34745318Y-55133039D01*
X34742187Y-55129858D01*
X34738647Y-55127157D01*
X34738641Y-55127151D01*
X34536506Y-54972886D01*
X34536502Y-54972883D01*
X34532965Y-54970184D01*
X34303332Y-54841584D01*
X34057870Y-54746622D01*
X34053545Y-54745619D01*
X34053540Y-54745618D01*
X33889539Y-54707605D01*
X33801476Y-54687193D01*
X33539267Y-54664483D01*
X33534832Y-54664727D01*
X33534828Y-54664727D01*
X33280916Y-54678700D01*
X33280909Y-54678701D01*
X33276473Y-54678945D01*
X33178596Y-54698414D01*
X33022711Y-54729421D01*
X33022706Y-54729422D01*
X33018339Y-54730291D01*
X33014136Y-54731767D01*
X32774223Y-54816018D01*
X32774220Y-54816019D01*
X32770015Y-54817496D01*
X32766062Y-54819549D01*
X32766056Y-54819552D01*
X32698662Y-54854561D01*
X32536456Y-54938821D01*
X32532841Y-54941404D01*
X32532835Y-54941408D01*
X32454739Y-54997217D01*
X32322322Y-55091844D01*
X32319095Y-55094922D01*
X32319093Y-55094924D01*
X32139219Y-55266515D01*
X32131885Y-55273511D01*
X31968945Y-55480200D01*
X31940529Y-55529122D01*
X31838987Y-55703938D01*
X31838984Y-55703944D01*
X31836753Y-55707785D01*
X31835083Y-55711908D01*
X31740216Y-55946124D01*
X31737947Y-55951725D01*
X31736876Y-55956038D01*
X31736874Y-55956043D01*
X31702943Y-56092643D01*
X31674498Y-56207154D01*
X31647672Y-56468974D01*
X31658005Y-56731962D01*
X31705290Y-56990871D01*
X31788584Y-57240534D01*
X31814066Y-57291531D01*
X31867950Y-57399369D01*
X31906225Y-57475970D01*
X31941295Y-57526712D01*
X31966970Y-57563861D01*
X31989246Y-57631273D01*
X31971541Y-57700026D01*
X31919475Y-57748293D01*
X31863317Y-57761500D01*
X18614500Y-57761500D01*
X18546379Y-57741498D01*
X18499886Y-57687842D01*
X18488500Y-57635500D01*
X18488500Y-55220630D01*
X27381700Y-55220630D01*
X27386981Y-55227684D01*
X27555919Y-55326404D01*
X27565202Y-55330851D01*
X27768002Y-55408293D01*
X27777900Y-55411169D01*
X27990625Y-55454448D01*
X28000853Y-55455667D01*
X28217788Y-55463622D01*
X28228074Y-55463155D01*
X28443400Y-55435572D01*
X28453477Y-55433430D01*
X28661401Y-55371049D01*
X28670999Y-55367288D01*
X28865947Y-55271784D01*
X28874785Y-55266515D01*
X28927172Y-55229148D01*
X28935572Y-55218448D01*
X28928585Y-55205295D01*
X28172812Y-54449522D01*
X28158868Y-54441908D01*
X28157035Y-54442039D01*
X28150420Y-54446290D01*
X27388460Y-55208250D01*
X27381700Y-55220630D01*
X18488500Y-55220630D01*
X18488500Y-54048750D01*
X26772971Y-54048750D01*
X26785467Y-54265467D01*
X26786903Y-54275688D01*
X26834627Y-54487448D01*
X26837706Y-54497277D01*
X26919379Y-54698414D01*
X26924022Y-54707605D01*
X27008279Y-54845101D01*
X27018735Y-54854561D01*
X27027513Y-54850777D01*
X27787978Y-54090312D01*
X27794356Y-54078632D01*
X28524408Y-54078632D01*
X28524539Y-54080465D01*
X28528790Y-54087080D01*
X29288388Y-54846678D01*
X29300398Y-54853236D01*
X29312138Y-54844268D01*
X29346507Y-54796440D01*
X29351816Y-54787603D01*
X29447994Y-54593003D01*
X29451792Y-54583410D01*
X29514897Y-54375708D01*
X29517074Y-54365638D01*
X29545646Y-54148613D01*
X29546165Y-54141938D01*
X29547658Y-54080864D01*
X29547464Y-54074146D01*
X29529530Y-53856007D01*
X29527845Y-53845827D01*
X29474962Y-53635291D01*
X29471642Y-53625540D01*
X29385080Y-53426459D01*
X29380213Y-53417384D01*
X29311144Y-53310618D01*
X29300458Y-53301415D01*
X29290891Y-53305819D01*
X28532022Y-54064688D01*
X28524408Y-54078632D01*
X27794356Y-54078632D01*
X27795592Y-54076368D01*
X27795461Y-54074535D01*
X27791210Y-54067920D01*
X27031858Y-53308568D01*
X27020322Y-53302268D01*
X27008039Y-53311891D01*
X26956279Y-53387768D01*
X26951191Y-53396724D01*
X26859795Y-53593621D01*
X26856232Y-53603308D01*
X26798223Y-53812479D01*
X26796292Y-53822600D01*
X26773222Y-54038462D01*
X26772971Y-54048750D01*
X18488500Y-54048750D01*
X18488500Y-52936069D01*
X27383365Y-52936069D01*
X27390111Y-52948401D01*
X28147188Y-53705478D01*
X28161132Y-53713092D01*
X28162965Y-53712961D01*
X28169580Y-53708710D01*
X28931190Y-52947100D01*
X28938211Y-52934244D01*
X28930718Y-52923961D01*
X28923435Y-52919122D01*
X28733398Y-52814215D01*
X28723989Y-52809987D01*
X28519364Y-52737526D01*
X28509401Y-52734894D01*
X28295687Y-52696826D01*
X28285434Y-52695856D01*
X28068366Y-52693203D01*
X28058082Y-52693923D01*
X27843507Y-52726758D01*
X27833479Y-52729147D01*
X27627147Y-52796587D01*
X27617637Y-52800584D01*
X27425095Y-52900815D01*
X27416370Y-52906309D01*
X27391819Y-52924743D01*
X27383365Y-52936069D01*
X18488500Y-52936069D01*
X18488500Y-52157001D01*
X30306496Y-52157001D01*
X30326458Y-52346929D01*
X30385473Y-52528557D01*
X30480960Y-52693945D01*
X30485378Y-52698852D01*
X30485379Y-52698853D01*
X30589251Y-52814215D01*
X30608747Y-52835867D01*
X30623271Y-52846419D01*
X30746663Y-52936069D01*
X30763248Y-52948119D01*
X30769276Y-52950803D01*
X30769278Y-52950804D01*
X30799373Y-52964203D01*
X30937712Y-53025795D01*
X31031112Y-53045648D01*
X31118056Y-53064129D01*
X31118061Y-53064129D01*
X31124513Y-53065501D01*
X31315487Y-53065501D01*
X31321939Y-53064129D01*
X31321944Y-53064129D01*
X31408888Y-53045648D01*
X31502288Y-53025795D01*
X31640627Y-52964203D01*
X31670722Y-52950804D01*
X31670724Y-52950803D01*
X31676752Y-52948119D01*
X31693338Y-52936069D01*
X31816729Y-52846419D01*
X31831253Y-52835867D01*
X31850749Y-52814215D01*
X31954621Y-52698853D01*
X31954622Y-52698852D01*
X31959040Y-52693945D01*
X32054527Y-52528557D01*
X32113542Y-52346929D01*
X32133504Y-52157001D01*
X38507296Y-52157001D01*
X38527258Y-52346929D01*
X38586273Y-52528557D01*
X38681760Y-52693945D01*
X38686178Y-52698852D01*
X38686179Y-52698853D01*
X38790051Y-52814215D01*
X38809547Y-52835867D01*
X38824071Y-52846419D01*
X38947463Y-52936069D01*
X38964048Y-52948119D01*
X38970076Y-52950803D01*
X38970078Y-52950804D01*
X39000173Y-52964203D01*
X39138512Y-53025795D01*
X39231912Y-53045648D01*
X39318856Y-53064129D01*
X39318861Y-53064129D01*
X39325313Y-53065501D01*
X39516287Y-53065501D01*
X39522739Y-53064129D01*
X39522744Y-53064129D01*
X39609688Y-53045648D01*
X39703088Y-53025795D01*
X39841427Y-52964203D01*
X39871522Y-52950804D01*
X39871524Y-52950803D01*
X39877552Y-52948119D01*
X39894138Y-52936069D01*
X40017529Y-52846419D01*
X40032053Y-52835867D01*
X40051549Y-52814215D01*
X40155421Y-52698853D01*
X40155422Y-52698852D01*
X40159840Y-52693945D01*
X40255327Y-52528557D01*
X40314342Y-52346929D01*
X40334304Y-52157001D01*
X40314342Y-51967073D01*
X40255327Y-51785445D01*
X40247691Y-51772218D01*
X40171835Y-51640833D01*
X40159840Y-51620057D01*
X40032053Y-51478135D01*
X39877552Y-51365883D01*
X39871526Y-51363200D01*
X39871519Y-51363196D01*
X39836504Y-51347607D01*
X39782408Y-51301627D01*
X39761758Y-51233700D01*
X39781110Y-51165392D01*
X39836504Y-51117393D01*
X39871519Y-51101804D01*
X39871526Y-51101800D01*
X39877552Y-51099117D01*
X40032053Y-50986865D01*
X40159840Y-50844943D01*
X40255327Y-50679555D01*
X40299508Y-50543582D01*
X55272172Y-50543582D01*
X55272469Y-50548734D01*
X55272469Y-50548738D01*
X55277845Y-50641963D01*
X55285268Y-50770706D01*
X55286405Y-50775752D01*
X55286406Y-50775758D01*
X55300709Y-50839225D01*
X55335283Y-50992641D01*
X55420875Y-51203427D01*
X55539744Y-51397404D01*
X55688698Y-51569361D01*
X55863737Y-51714681D01*
X55868189Y-51717283D01*
X55868194Y-51717286D01*
X56055702Y-51826857D01*
X56060160Y-51829462D01*
X56272693Y-51910620D01*
X56277759Y-51911651D01*
X56277760Y-51911651D01*
X56376861Y-51931813D01*
X56495627Y-51955976D01*
X56623437Y-51960663D01*
X56717811Y-51964124D01*
X56717815Y-51964124D01*
X56722975Y-51964313D01*
X56728095Y-51963657D01*
X56728097Y-51963657D01*
X56943504Y-51936063D01*
X56943505Y-51936063D01*
X56948632Y-51935406D01*
X57031248Y-51910620D01*
X57161591Y-51871515D01*
X57161592Y-51871514D01*
X57166537Y-51870031D01*
X57370839Y-51769944D01*
X57375043Y-51766946D01*
X57375047Y-51766943D01*
X57551847Y-51640833D01*
X57551849Y-51640831D01*
X57556051Y-51637834D01*
X57717199Y-51477247D01*
X57771764Y-51401312D01*
X57846938Y-51296698D01*
X57846942Y-51296692D01*
X57849956Y-51292497D01*
X57936498Y-51117393D01*
X57948461Y-51093188D01*
X57948462Y-51093186D01*
X57950755Y-51088546D01*
X58016890Y-50870870D01*
X58019657Y-50849851D01*
X58046148Y-50648636D01*
X58046148Y-50648632D01*
X58046585Y-50645315D01*
X58048242Y-50577500D01*
X58029601Y-50350764D01*
X57974178Y-50130117D01*
X57912529Y-49988334D01*
X57885522Y-49926222D01*
X57885520Y-49926219D01*
X57883462Y-49921485D01*
X57759890Y-49730471D01*
X57606779Y-49562204D01*
X57428241Y-49421204D01*
X57390537Y-49400390D01*
X57311535Y-49356779D01*
X57229072Y-49311257D01*
X57224203Y-49309533D01*
X57224199Y-49309531D01*
X57019496Y-49237041D01*
X57019492Y-49237040D01*
X57014621Y-49235315D01*
X57009528Y-49234408D01*
X57009525Y-49234407D01*
X56795734Y-49196325D01*
X56795728Y-49196324D01*
X56790645Y-49195419D01*
X56717196Y-49194522D01*
X56568331Y-49192703D01*
X56568329Y-49192703D01*
X56563161Y-49192640D01*
X56338278Y-49227052D01*
X56122035Y-49297731D01*
X56117447Y-49300119D01*
X56117443Y-49300121D01*
X56008604Y-49356779D01*
X55920239Y-49402779D01*
X55916106Y-49405882D01*
X55916103Y-49405884D01*
X55771845Y-49514196D01*
X55738310Y-49539375D01*
X55581133Y-49703851D01*
X55452931Y-49891789D01*
X55450758Y-49896471D01*
X55450756Y-49896474D01*
X55410835Y-49982478D01*
X55357145Y-50098143D01*
X55349592Y-50125378D01*
X55298947Y-50307999D01*
X55296348Y-50317369D01*
X55295799Y-50322506D01*
X55277753Y-50491364D01*
X55272172Y-50543582D01*
X40299508Y-50543582D01*
X40314342Y-50497927D01*
X40334304Y-50307999D01*
X40314342Y-50118071D01*
X40255327Y-49936443D01*
X40244187Y-49917147D01*
X40211912Y-49861246D01*
X40159840Y-49771055D01*
X40135029Y-49743499D01*
X40036475Y-49634044D01*
X40036474Y-49634043D01*
X40032053Y-49629133D01*
X39877552Y-49516881D01*
X39871524Y-49514197D01*
X39871522Y-49514196D01*
X39709119Y-49441890D01*
X39709118Y-49441890D01*
X39703088Y-49439205D01*
X39606653Y-49418707D01*
X39522744Y-49400871D01*
X39522739Y-49400871D01*
X39516287Y-49399499D01*
X39325313Y-49399499D01*
X39318861Y-49400871D01*
X39318856Y-49400871D01*
X39234947Y-49418707D01*
X39138512Y-49439205D01*
X39132482Y-49441890D01*
X39132481Y-49441890D01*
X38970078Y-49514196D01*
X38970076Y-49514197D01*
X38964048Y-49516881D01*
X38809547Y-49629133D01*
X38805126Y-49634043D01*
X38805125Y-49634044D01*
X38706572Y-49743499D01*
X38681760Y-49771055D01*
X38629688Y-49861246D01*
X38597414Y-49917147D01*
X38586273Y-49936443D01*
X38527258Y-50118071D01*
X38507296Y-50307999D01*
X38527258Y-50497927D01*
X38586273Y-50679555D01*
X38681760Y-50844943D01*
X38809547Y-50986865D01*
X38964048Y-51099117D01*
X38970074Y-51101800D01*
X38970081Y-51101804D01*
X39005096Y-51117393D01*
X39059192Y-51163373D01*
X39079842Y-51231300D01*
X39060490Y-51299608D01*
X39005096Y-51347607D01*
X38970081Y-51363196D01*
X38970074Y-51363200D01*
X38964048Y-51365883D01*
X38809547Y-51478135D01*
X38681760Y-51620057D01*
X38669765Y-51640833D01*
X38593910Y-51772218D01*
X38586273Y-51785445D01*
X38527258Y-51967073D01*
X38507296Y-52157001D01*
X32133504Y-52157001D01*
X32113542Y-51967073D01*
X32054527Y-51785445D01*
X32046891Y-51772218D01*
X31971035Y-51640833D01*
X31959040Y-51620057D01*
X31831253Y-51478135D01*
X31676752Y-51365883D01*
X31670726Y-51363200D01*
X31670719Y-51363196D01*
X31635704Y-51347607D01*
X31581608Y-51301627D01*
X31560958Y-51233700D01*
X31580310Y-51165392D01*
X31635704Y-51117393D01*
X31670719Y-51101804D01*
X31670726Y-51101800D01*
X31676752Y-51099117D01*
X31831253Y-50986865D01*
X31959040Y-50844943D01*
X32054527Y-50679555D01*
X32113542Y-50497927D01*
X32133504Y-50307999D01*
X32114530Y-50127469D01*
X32127302Y-50057631D01*
X32175804Y-50005784D01*
X32236871Y-49988334D01*
X32395177Y-49984603D01*
X32485347Y-49982478D01*
X32489745Y-49981746D01*
X32740576Y-49939996D01*
X32740580Y-49939995D01*
X32744966Y-49939265D01*
X32749207Y-49937924D01*
X32749210Y-49937923D01*
X32991661Y-49861246D01*
X32991663Y-49861245D01*
X32995907Y-49859903D01*
X32999918Y-49857977D01*
X32999923Y-49857975D01*
X33229143Y-49747905D01*
X33229144Y-49747904D01*
X33233162Y-49745975D01*
X33343187Y-49672458D01*
X33448289Y-49602232D01*
X33448293Y-49602229D01*
X33451997Y-49599754D01*
X33455314Y-49596783D01*
X33455318Y-49596780D01*
X33644729Y-49427129D01*
X33644730Y-49427128D01*
X33648047Y-49424157D01*
X33817398Y-49222689D01*
X33833841Y-49196325D01*
X33954320Y-49003143D01*
X33956674Y-48999369D01*
X34063093Y-48758652D01*
X34134534Y-48505343D01*
X34139757Y-48466455D01*
X34169143Y-48247676D01*
X34169144Y-48247668D01*
X34169570Y-48244494D01*
X34173247Y-48127500D01*
X34169103Y-48068974D01*
X50647672Y-48068974D01*
X50658005Y-48331962D01*
X50705290Y-48590871D01*
X50788584Y-48840534D01*
X50790577Y-48844522D01*
X50867950Y-48999369D01*
X50906225Y-49075970D01*
X50908754Y-49079629D01*
X51017548Y-49237041D01*
X51055865Y-49292482D01*
X51234520Y-49485749D01*
X51438623Y-49651915D01*
X51442431Y-49654208D01*
X51442433Y-49654209D01*
X51660288Y-49785368D01*
X51660292Y-49785370D01*
X51664104Y-49787665D01*
X51800026Y-49845221D01*
X51902359Y-49888554D01*
X51902364Y-49888556D01*
X51906462Y-49890291D01*
X51910760Y-49891430D01*
X51910764Y-49891432D01*
X52007750Y-49917147D01*
X52160862Y-49957744D01*
X52422229Y-49988679D01*
X52685347Y-49982478D01*
X52689745Y-49981746D01*
X52940576Y-49939996D01*
X52940580Y-49939995D01*
X52944966Y-49939265D01*
X52949207Y-49937924D01*
X52949210Y-49937923D01*
X53191661Y-49861246D01*
X53191663Y-49861245D01*
X53195907Y-49859903D01*
X53199918Y-49857977D01*
X53199923Y-49857975D01*
X53429143Y-49747905D01*
X53429144Y-49747904D01*
X53433162Y-49745975D01*
X53543187Y-49672458D01*
X53648289Y-49602232D01*
X53648293Y-49602229D01*
X53651997Y-49599754D01*
X53655314Y-49596783D01*
X53655318Y-49596780D01*
X53844729Y-49427129D01*
X53844730Y-49427128D01*
X53848047Y-49424157D01*
X54017398Y-49222689D01*
X54033841Y-49196325D01*
X54154320Y-49003143D01*
X54156674Y-48999369D01*
X54263093Y-48758652D01*
X54334534Y-48505343D01*
X54339757Y-48466455D01*
X54369143Y-48247676D01*
X54369144Y-48247668D01*
X54369570Y-48244494D01*
X54373247Y-48127500D01*
X54354659Y-47864966D01*
X54343167Y-47811585D01*
X54300201Y-47612023D01*
X54299264Y-47607671D01*
X54285791Y-47571149D01*
X54209710Y-47364924D01*
X54208169Y-47360747D01*
X54083191Y-47129122D01*
X53926824Y-46917418D01*
X53898259Y-46888400D01*
X53745318Y-46733039D01*
X53742187Y-46729858D01*
X53738647Y-46727157D01*
X53738641Y-46727151D01*
X53536506Y-46572886D01*
X53536502Y-46572883D01*
X53532965Y-46570184D01*
X53303332Y-46441584D01*
X53057870Y-46346622D01*
X53053545Y-46345619D01*
X53053540Y-46345618D01*
X52912794Y-46312995D01*
X52801476Y-46287193D01*
X52539267Y-46264483D01*
X52534832Y-46264727D01*
X52534828Y-46264727D01*
X52280916Y-46278700D01*
X52280909Y-46278701D01*
X52276473Y-46278945D01*
X52148369Y-46304427D01*
X52022711Y-46329421D01*
X52022706Y-46329422D01*
X52018339Y-46330291D01*
X52014136Y-46331767D01*
X51774223Y-46416018D01*
X51774220Y-46416019D01*
X51770015Y-46417496D01*
X51766062Y-46419549D01*
X51766056Y-46419552D01*
X51634615Y-46487831D01*
X51536456Y-46538821D01*
X51532841Y-46541404D01*
X51532835Y-46541408D01*
X51429585Y-46615192D01*
X51322322Y-46691844D01*
X51319095Y-46694922D01*
X51319093Y-46694924D01*
X51285311Y-46727151D01*
X51131885Y-46873511D01*
X50968945Y-47080200D01*
X50940529Y-47129122D01*
X50838987Y-47303938D01*
X50838984Y-47303944D01*
X50836753Y-47307785D01*
X50737947Y-47551725D01*
X50736876Y-47556038D01*
X50736874Y-47556043D01*
X50733122Y-47571149D01*
X50674498Y-47807154D01*
X50647672Y-48068974D01*
X34169103Y-48068974D01*
X34154659Y-47864966D01*
X34143167Y-47811585D01*
X34100201Y-47612023D01*
X34099264Y-47607671D01*
X34085791Y-47571149D01*
X34009710Y-47364924D01*
X34008169Y-47360747D01*
X33883191Y-47129122D01*
X33726824Y-46917418D01*
X33698259Y-46888400D01*
X33545318Y-46733039D01*
X33542187Y-46729858D01*
X33538647Y-46727157D01*
X33538641Y-46727151D01*
X33336506Y-46572886D01*
X33336502Y-46572883D01*
X33332965Y-46570184D01*
X33103332Y-46441584D01*
X32857870Y-46346622D01*
X32853545Y-46345619D01*
X32853540Y-46345618D01*
X32712794Y-46312995D01*
X32601476Y-46287193D01*
X32339267Y-46264483D01*
X32334832Y-46264727D01*
X32334828Y-46264727D01*
X32080916Y-46278700D01*
X32080909Y-46278701D01*
X32076473Y-46278945D01*
X31948369Y-46304427D01*
X31822711Y-46329421D01*
X31822706Y-46329422D01*
X31818339Y-46330291D01*
X31814136Y-46331767D01*
X31574223Y-46416018D01*
X31574220Y-46416019D01*
X31570015Y-46417496D01*
X31566062Y-46419549D01*
X31566056Y-46419552D01*
X31434615Y-46487831D01*
X31336456Y-46538821D01*
X31332841Y-46541404D01*
X31332835Y-46541408D01*
X31229585Y-46615192D01*
X31122322Y-46691844D01*
X31119095Y-46694922D01*
X31119093Y-46694924D01*
X31085311Y-46727151D01*
X30931885Y-46873511D01*
X30768945Y-47080200D01*
X30740529Y-47129122D01*
X30638987Y-47303938D01*
X30638984Y-47303944D01*
X30636753Y-47307785D01*
X30537947Y-47551725D01*
X30536876Y-47556038D01*
X30536874Y-47556043D01*
X30533122Y-47571149D01*
X30474498Y-47807154D01*
X30447672Y-48068974D01*
X30458005Y-48331962D01*
X30505290Y-48590871D01*
X30588584Y-48840534D01*
X30590577Y-48844522D01*
X30667950Y-48999369D01*
X30706225Y-49075970D01*
X30708754Y-49079629D01*
X30817548Y-49237041D01*
X30855865Y-49292482D01*
X30858893Y-49295757D01*
X30861672Y-49299226D01*
X30860117Y-49300472D01*
X30888020Y-49356779D01*
X30880147Y-49427338D01*
X30835377Y-49482439D01*
X30815181Y-49493759D01*
X30769281Y-49514194D01*
X30769274Y-49514198D01*
X30763248Y-49516881D01*
X30608747Y-49629133D01*
X30604326Y-49634043D01*
X30604325Y-49634044D01*
X30505772Y-49743499D01*
X30480960Y-49771055D01*
X30428888Y-49861246D01*
X30396614Y-49917147D01*
X30385473Y-49936443D01*
X30326458Y-50118071D01*
X30306496Y-50307999D01*
X30326458Y-50497927D01*
X30385473Y-50679555D01*
X30480960Y-50844943D01*
X30608747Y-50986865D01*
X30763248Y-51099117D01*
X30769274Y-51101800D01*
X30769281Y-51101804D01*
X30804296Y-51117393D01*
X30858392Y-51163373D01*
X30879042Y-51231300D01*
X30859690Y-51299608D01*
X30804296Y-51347607D01*
X30769281Y-51363196D01*
X30769274Y-51363200D01*
X30763248Y-51365883D01*
X30608747Y-51478135D01*
X30480960Y-51620057D01*
X30468965Y-51640833D01*
X30393110Y-51772218D01*
X30385473Y-51785445D01*
X30326458Y-51967073D01*
X30306496Y-52157001D01*
X18488500Y-52157001D01*
X18488500Y-46888400D01*
X26035896Y-46888400D01*
X26055858Y-47078328D01*
X26114873Y-47259956D01*
X26210360Y-47425344D01*
X26338147Y-47567266D01*
X26492648Y-47679518D01*
X26498676Y-47682202D01*
X26498678Y-47682203D01*
X26661081Y-47754509D01*
X26667112Y-47757194D01*
X26760513Y-47777047D01*
X26847456Y-47795528D01*
X26847461Y-47795528D01*
X26853913Y-47796900D01*
X27044887Y-47796900D01*
X27051339Y-47795528D01*
X27051344Y-47795528D01*
X27138287Y-47777047D01*
X27231688Y-47757194D01*
X27237719Y-47754509D01*
X27400122Y-47682203D01*
X27400124Y-47682202D01*
X27406152Y-47679518D01*
X27560653Y-47567266D01*
X27688440Y-47425344D01*
X27783927Y-47259956D01*
X27842942Y-47078328D01*
X27862904Y-46888400D01*
X27842942Y-46698472D01*
X27783927Y-46516844D01*
X27688440Y-46351456D01*
X27683184Y-46345618D01*
X27565075Y-46214445D01*
X27565074Y-46214444D01*
X27560653Y-46209534D01*
X27406152Y-46097282D01*
X27400124Y-46094598D01*
X27400122Y-46094597D01*
X27237719Y-46022291D01*
X27237718Y-46022291D01*
X27231688Y-46019606D01*
X27138288Y-45999753D01*
X27051344Y-45981272D01*
X27051339Y-45981272D01*
X27044887Y-45979900D01*
X26853913Y-45979900D01*
X26847461Y-45981272D01*
X26847456Y-45981272D01*
X26760512Y-45999753D01*
X26667112Y-46019606D01*
X26661082Y-46022291D01*
X26661081Y-46022291D01*
X26498678Y-46094597D01*
X26498676Y-46094598D01*
X26492648Y-46097282D01*
X26338147Y-46209534D01*
X26333726Y-46214444D01*
X26333725Y-46214445D01*
X26215617Y-46345618D01*
X26210360Y-46351456D01*
X26114873Y-46516844D01*
X26055858Y-46698472D01*
X26035896Y-46888400D01*
X18488500Y-46888400D01*
X18488500Y-44405143D01*
X18508502Y-44337022D01*
X18562158Y-44290529D01*
X18632432Y-44280425D01*
X18697012Y-44309919D01*
X18721933Y-44339308D01*
X18749987Y-44385088D01*
X18896250Y-44553938D01*
X18972846Y-44617529D01*
X19062393Y-44691872D01*
X19068126Y-44696632D01*
X19261000Y-44809338D01*
X19469692Y-44889030D01*
X19474760Y-44890061D01*
X19474763Y-44890062D01*
X19582017Y-44911883D01*
X19688597Y-44933567D01*
X19693772Y-44933757D01*
X19693774Y-44933757D01*
X19906673Y-44941564D01*
X19906677Y-44941564D01*
X19911837Y-44941753D01*
X19916957Y-44941097D01*
X19916959Y-44941097D01*
X20128288Y-44914025D01*
X20128289Y-44914025D01*
X20133416Y-44913368D01*
X20138366Y-44911883D01*
X20238638Y-44881800D01*
X32182696Y-44881800D01*
X32202658Y-45071728D01*
X32261673Y-45253356D01*
X32357160Y-45418744D01*
X32484947Y-45560666D01*
X32584043Y-45632664D01*
X32622519Y-45660618D01*
X32639448Y-45672918D01*
X32645476Y-45675602D01*
X32645478Y-45675603D01*
X32789367Y-45739666D01*
X32813912Y-45750594D01*
X32907312Y-45770447D01*
X32994256Y-45788928D01*
X32994261Y-45788928D01*
X33000713Y-45790300D01*
X33191687Y-45790300D01*
X33198139Y-45788928D01*
X33198144Y-45788928D01*
X33285088Y-45770447D01*
X33378488Y-45750594D01*
X33403033Y-45739666D01*
X33546922Y-45675603D01*
X33546924Y-45675602D01*
X33552952Y-45672918D01*
X33569882Y-45660618D01*
X33608357Y-45632664D01*
X33707453Y-45560666D01*
X33835240Y-45418744D01*
X33930727Y-45253356D01*
X33989742Y-45071728D01*
X34009704Y-44881800D01*
X34001814Y-44806731D01*
X33990432Y-44698435D01*
X33990432Y-44698433D01*
X33989742Y-44691872D01*
X33930727Y-44510244D01*
X33920322Y-44492221D01*
X33870047Y-44405143D01*
X33835240Y-44344856D01*
X33819751Y-44327653D01*
X33711875Y-44207845D01*
X33711874Y-44207844D01*
X33707453Y-44202934D01*
X33608357Y-44130936D01*
X33558294Y-44094563D01*
X33558293Y-44094562D01*
X33552952Y-44090682D01*
X33546924Y-44087998D01*
X33546922Y-44087997D01*
X33384519Y-44015691D01*
X33384518Y-44015691D01*
X33378488Y-44013006D01*
X33285087Y-43993153D01*
X33198144Y-43974672D01*
X33198139Y-43974672D01*
X33191687Y-43973300D01*
X33000713Y-43973300D01*
X32994261Y-43974672D01*
X32994256Y-43974672D01*
X32907313Y-43993153D01*
X32813912Y-44013006D01*
X32807882Y-44015691D01*
X32807881Y-44015691D01*
X32645478Y-44087997D01*
X32645476Y-44087998D01*
X32639448Y-44090682D01*
X32634107Y-44094562D01*
X32634106Y-44094563D01*
X32584043Y-44130936D01*
X32484947Y-44202934D01*
X32480526Y-44207844D01*
X32480525Y-44207845D01*
X32372650Y-44327653D01*
X32357160Y-44344856D01*
X32322353Y-44405143D01*
X32272079Y-44492221D01*
X32261673Y-44510244D01*
X32202658Y-44691872D01*
X32201968Y-44698433D01*
X32201968Y-44698435D01*
X32190586Y-44806731D01*
X32182696Y-44881800D01*
X20238638Y-44881800D01*
X20342429Y-44850661D01*
X20342434Y-44850659D01*
X20347384Y-44849174D01*
X20547994Y-44750896D01*
X20729860Y-44621173D01*
X20888096Y-44463489D01*
X21018453Y-44282077D01*
X21069660Y-44178468D01*
X21115136Y-44086453D01*
X21115137Y-44086451D01*
X21117430Y-44081811D01*
X21170407Y-43907444D01*
X21180865Y-43873023D01*
X21180865Y-43873021D01*
X21182370Y-43868069D01*
X21211529Y-43646590D01*
X21213156Y-43580000D01*
X21194852Y-43357361D01*
X21140431Y-43140702D01*
X21124385Y-43103800D01*
X26035896Y-43103800D01*
X26036586Y-43110365D01*
X26039775Y-43140702D01*
X26055858Y-43293728D01*
X26114873Y-43475356D01*
X26210360Y-43640744D01*
X26214778Y-43645651D01*
X26214779Y-43645652D01*
X26306735Y-43747779D01*
X26338147Y-43782666D01*
X26492648Y-43894918D01*
X26498676Y-43897602D01*
X26498678Y-43897603D01*
X26531794Y-43912347D01*
X26667112Y-43972594D01*
X26737893Y-43987639D01*
X26847456Y-44010928D01*
X26847461Y-44010928D01*
X26853913Y-44012300D01*
X27044887Y-44012300D01*
X27051339Y-44010928D01*
X27051344Y-44010928D01*
X27160907Y-43987639D01*
X27231688Y-43972594D01*
X27367006Y-43912347D01*
X27400122Y-43897603D01*
X27400124Y-43897602D01*
X27406152Y-43894918D01*
X27560653Y-43782666D01*
X27592065Y-43747779D01*
X27684021Y-43645652D01*
X27684022Y-43645651D01*
X27688440Y-43640744D01*
X27783927Y-43475356D01*
X27817997Y-43370500D01*
X35366496Y-43370500D01*
X35386458Y-43560428D01*
X35445473Y-43742056D01*
X35540960Y-43907444D01*
X35663923Y-44044009D01*
X35694639Y-44108014D01*
X35685875Y-44178468D01*
X35663926Y-44212622D01*
X35555937Y-44332556D01*
X35460450Y-44497944D01*
X35401435Y-44679572D01*
X35400745Y-44686133D01*
X35400745Y-44686135D01*
X35383849Y-44846895D01*
X35381473Y-44869500D01*
X35382163Y-44876065D01*
X35390384Y-44954279D01*
X35401435Y-45059428D01*
X35460450Y-45241056D01*
X35463753Y-45246778D01*
X35463754Y-45246779D01*
X35471242Y-45259749D01*
X35555937Y-45406444D01*
X35683724Y-45548366D01*
X35838225Y-45660618D01*
X35844253Y-45663302D01*
X35844255Y-45663303D01*
X36006658Y-45735609D01*
X36012689Y-45738294D01*
X36106090Y-45758147D01*
X36193033Y-45776628D01*
X36193038Y-45776628D01*
X36199490Y-45778000D01*
X36390464Y-45778000D01*
X36396916Y-45776628D01*
X36396921Y-45776628D01*
X36483864Y-45758147D01*
X36577265Y-45738294D01*
X36583296Y-45735609D01*
X36745699Y-45663303D01*
X36745701Y-45663302D01*
X36751729Y-45660618D01*
X36906230Y-45548366D01*
X37034017Y-45406444D01*
X37118712Y-45259749D01*
X37126200Y-45246779D01*
X37126201Y-45246778D01*
X37129504Y-45241056D01*
X37188519Y-45059428D01*
X37199571Y-44954279D01*
X37207791Y-44876065D01*
X37208481Y-44869500D01*
X37206105Y-44846895D01*
X37189209Y-44686135D01*
X37189209Y-44686133D01*
X37188519Y-44679572D01*
X37155191Y-44577000D01*
X57277896Y-44577000D01*
X57278586Y-44583565D01*
X57289310Y-44685594D01*
X57297858Y-44766928D01*
X57356873Y-44948556D01*
X57452360Y-45113944D01*
X57580147Y-45255866D01*
X57734648Y-45368118D01*
X57740676Y-45370802D01*
X57740678Y-45370803D01*
X57848356Y-45418744D01*
X57909112Y-45445794D01*
X58002513Y-45465647D01*
X58089456Y-45484128D01*
X58089461Y-45484128D01*
X58095913Y-45485500D01*
X58286887Y-45485500D01*
X58293339Y-45484128D01*
X58293344Y-45484128D01*
X58380288Y-45465647D01*
X58473688Y-45445794D01*
X58534444Y-45418744D01*
X58642122Y-45370803D01*
X58642124Y-45370802D01*
X58648152Y-45368118D01*
X58802653Y-45255866D01*
X58930440Y-45113944D01*
X59025927Y-44948556D01*
X59084942Y-44766928D01*
X59093491Y-44685594D01*
X59104214Y-44583565D01*
X59104904Y-44577000D01*
X59102480Y-44553938D01*
X59085632Y-44393635D01*
X59085632Y-44393633D01*
X59084942Y-44387072D01*
X59025927Y-44205444D01*
X59019676Y-44194616D01*
X58933741Y-44045774D01*
X58930440Y-44040056D01*
X58905449Y-44012300D01*
X58807075Y-43903045D01*
X58807074Y-43903044D01*
X58802653Y-43898134D01*
X58648152Y-43785882D01*
X58642124Y-43783198D01*
X58642122Y-43783197D01*
X58479719Y-43710891D01*
X58479718Y-43710891D01*
X58473688Y-43708206D01*
X58380288Y-43688353D01*
X58293344Y-43669872D01*
X58293339Y-43669872D01*
X58286887Y-43668500D01*
X58095913Y-43668500D01*
X58089461Y-43669872D01*
X58089456Y-43669872D01*
X58002512Y-43688353D01*
X57909112Y-43708206D01*
X57903082Y-43710891D01*
X57903081Y-43710891D01*
X57740678Y-43783197D01*
X57740676Y-43783198D01*
X57734648Y-43785882D01*
X57580147Y-43898134D01*
X57575726Y-43903044D01*
X57575725Y-43903045D01*
X57477352Y-44012300D01*
X57452360Y-44040056D01*
X57449059Y-44045774D01*
X57363125Y-44194616D01*
X57356873Y-44205444D01*
X57297858Y-44387072D01*
X57297168Y-44393633D01*
X57297168Y-44393635D01*
X57280320Y-44553938D01*
X57277896Y-44577000D01*
X37155191Y-44577000D01*
X37129504Y-44497944D01*
X37034017Y-44332556D01*
X36911054Y-44195991D01*
X36880338Y-44131986D01*
X36889102Y-44061532D01*
X36911051Y-44027378D01*
X37019040Y-43907444D01*
X37114527Y-43742056D01*
X37173542Y-43560428D01*
X37193504Y-43370500D01*
X37173542Y-43180572D01*
X37114527Y-42998944D01*
X37019040Y-42833556D01*
X36949877Y-42756742D01*
X36895675Y-42696545D01*
X36895674Y-42696544D01*
X36891253Y-42691634D01*
X36751229Y-42589900D01*
X36742094Y-42583263D01*
X36742093Y-42583262D01*
X36736752Y-42579382D01*
X36730724Y-42576698D01*
X36730722Y-42576697D01*
X36568319Y-42504391D01*
X36568318Y-42504391D01*
X36562288Y-42501706D01*
X36468888Y-42481853D01*
X36381944Y-42463372D01*
X36381939Y-42463372D01*
X36375487Y-42462000D01*
X36184513Y-42462000D01*
X36178061Y-42463372D01*
X36178056Y-42463372D01*
X36091112Y-42481853D01*
X35997712Y-42501706D01*
X35991682Y-42504391D01*
X35991681Y-42504391D01*
X35829278Y-42576697D01*
X35829276Y-42576698D01*
X35823248Y-42579382D01*
X35817907Y-42583262D01*
X35817906Y-42583263D01*
X35808771Y-42589900D01*
X35668747Y-42691634D01*
X35664326Y-42696544D01*
X35664325Y-42696545D01*
X35610124Y-42756742D01*
X35540960Y-42833556D01*
X35445473Y-42998944D01*
X35386458Y-43180572D01*
X35366496Y-43370500D01*
X27817997Y-43370500D01*
X27842942Y-43293728D01*
X27859026Y-43140702D01*
X27862214Y-43110365D01*
X27862904Y-43103800D01*
X27842942Y-42913872D01*
X27783927Y-42732244D01*
X27688440Y-42566856D01*
X27673438Y-42550194D01*
X27565075Y-42429845D01*
X27565074Y-42429844D01*
X27560653Y-42424934D01*
X27461557Y-42352936D01*
X27411494Y-42316563D01*
X27411493Y-42316562D01*
X27406152Y-42312682D01*
X27400124Y-42309998D01*
X27400122Y-42309997D01*
X27237719Y-42237691D01*
X27237718Y-42237691D01*
X27231688Y-42235006D01*
X27126399Y-42212626D01*
X27051344Y-42196672D01*
X27051339Y-42196672D01*
X27044887Y-42195300D01*
X26853913Y-42195300D01*
X26847461Y-42196672D01*
X26847456Y-42196672D01*
X26772401Y-42212626D01*
X26667112Y-42235006D01*
X26661082Y-42237691D01*
X26661081Y-42237691D01*
X26498678Y-42309997D01*
X26498676Y-42309998D01*
X26492648Y-42312682D01*
X26487307Y-42316562D01*
X26487306Y-42316563D01*
X26437243Y-42352936D01*
X26338147Y-42424934D01*
X26333726Y-42429844D01*
X26333725Y-42429845D01*
X26225363Y-42550194D01*
X26210360Y-42566856D01*
X26114873Y-42732244D01*
X26055858Y-42913872D01*
X26035896Y-43103800D01*
X21124385Y-43103800D01*
X21051354Y-42935840D01*
X20988883Y-42839274D01*
X20932822Y-42752617D01*
X20932820Y-42752614D01*
X20930014Y-42748277D01*
X20779670Y-42583051D01*
X20775619Y-42579852D01*
X20775615Y-42579848D01*
X20608414Y-42447800D01*
X20608410Y-42447798D01*
X20604359Y-42444598D01*
X20563053Y-42421796D01*
X20513084Y-42371364D01*
X20498312Y-42301921D01*
X20523428Y-42235516D01*
X20550780Y-42208909D01*
X20594603Y-42177650D01*
X20729860Y-42081173D01*
X20888096Y-41923489D01*
X21018453Y-41742077D01*
X21048442Y-41681400D01*
X29347296Y-41681400D01*
X29347986Y-41687965D01*
X29364038Y-41840688D01*
X29367258Y-41871328D01*
X29426273Y-42052956D01*
X29521760Y-42218344D01*
X29526178Y-42223251D01*
X29526179Y-42223252D01*
X29605905Y-42311797D01*
X29649547Y-42360266D01*
X29731801Y-42420027D01*
X29791460Y-42463372D01*
X29804048Y-42472518D01*
X29810076Y-42475202D01*
X29810078Y-42475203D01*
X29875636Y-42504391D01*
X29978512Y-42550194D01*
X30071912Y-42570047D01*
X30158856Y-42588528D01*
X30158861Y-42588528D01*
X30165313Y-42589900D01*
X30356287Y-42589900D01*
X30362739Y-42588528D01*
X30362744Y-42588528D01*
X30449688Y-42570047D01*
X30543088Y-42550194D01*
X30645964Y-42504391D01*
X30711522Y-42475203D01*
X30711524Y-42475202D01*
X30717552Y-42472518D01*
X30730141Y-42463372D01*
X30789799Y-42420027D01*
X30872053Y-42360266D01*
X30915695Y-42311797D01*
X30995421Y-42223252D01*
X30995422Y-42223251D01*
X30999840Y-42218344D01*
X31095327Y-42052956D01*
X31154342Y-41871328D01*
X31157563Y-41840688D01*
X31173614Y-41687965D01*
X31174304Y-41681400D01*
X31154342Y-41491472D01*
X31095327Y-41309844D01*
X30999840Y-41144456D01*
X30987462Y-41130709D01*
X30956746Y-41066703D01*
X30965510Y-40996250D01*
X30987461Y-40962093D01*
X30999840Y-40948344D01*
X31095327Y-40782956D01*
X31154342Y-40601328D01*
X31158286Y-40563800D01*
X57252496Y-40563800D01*
X57253186Y-40570365D01*
X57256375Y-40600702D01*
X57272458Y-40753728D01*
X57331473Y-40935356D01*
X57334776Y-40941078D01*
X57334777Y-40941079D01*
X57341802Y-40953247D01*
X57426960Y-41100744D01*
X57554747Y-41242666D01*
X57709248Y-41354918D01*
X57715276Y-41357602D01*
X57715278Y-41357603D01*
X57877681Y-41429909D01*
X57883712Y-41432594D01*
X57954493Y-41447639D01*
X58064056Y-41470928D01*
X58064061Y-41470928D01*
X58070513Y-41472300D01*
X58261487Y-41472300D01*
X58267939Y-41470928D01*
X58267944Y-41470928D01*
X58377507Y-41447639D01*
X58448288Y-41432594D01*
X58454319Y-41429909D01*
X58616722Y-41357603D01*
X58616724Y-41357602D01*
X58622752Y-41354918D01*
X58777253Y-41242666D01*
X58905040Y-41100744D01*
X58990198Y-40953247D01*
X58997223Y-40941079D01*
X58997224Y-40941078D01*
X59000527Y-40935356D01*
X59059542Y-40753728D01*
X59075626Y-40600702D01*
X59078814Y-40570365D01*
X59079504Y-40563800D01*
X59059542Y-40373872D01*
X59000527Y-40192244D01*
X58905040Y-40026856D01*
X58777253Y-39884934D01*
X58678157Y-39812936D01*
X58628094Y-39776563D01*
X58628093Y-39776562D01*
X58622752Y-39772682D01*
X58616724Y-39769998D01*
X58616722Y-39769997D01*
X58454319Y-39697691D01*
X58454318Y-39697691D01*
X58448288Y-39695006D01*
X58354887Y-39675153D01*
X58267944Y-39656672D01*
X58267939Y-39656672D01*
X58261487Y-39655300D01*
X58070513Y-39655300D01*
X58064061Y-39656672D01*
X58064056Y-39656672D01*
X57977113Y-39675153D01*
X57883712Y-39695006D01*
X57877682Y-39697691D01*
X57877681Y-39697691D01*
X57715278Y-39769997D01*
X57715276Y-39769998D01*
X57709248Y-39772682D01*
X57703907Y-39776562D01*
X57703906Y-39776563D01*
X57653843Y-39812936D01*
X57554747Y-39884934D01*
X57426960Y-40026856D01*
X57331473Y-40192244D01*
X57272458Y-40373872D01*
X57252496Y-40563800D01*
X31158286Y-40563800D01*
X31174304Y-40411400D01*
X31172212Y-40391492D01*
X31155032Y-40228035D01*
X31155032Y-40228033D01*
X31154342Y-40221472D01*
X31095327Y-40039844D01*
X31087829Y-40026856D01*
X31019091Y-39907800D01*
X30999840Y-39874456D01*
X30929773Y-39796638D01*
X30876475Y-39737445D01*
X30876474Y-39737444D01*
X30872053Y-39732534D01*
X30717552Y-39620282D01*
X30711524Y-39617598D01*
X30711522Y-39617597D01*
X30549119Y-39545291D01*
X30549118Y-39545291D01*
X30543088Y-39542606D01*
X30449688Y-39522753D01*
X30362744Y-39504272D01*
X30362739Y-39504272D01*
X30356287Y-39502900D01*
X30165313Y-39502900D01*
X30158861Y-39504272D01*
X30158856Y-39504272D01*
X30071912Y-39522753D01*
X29978512Y-39542606D01*
X29972482Y-39545291D01*
X29972481Y-39545291D01*
X29810078Y-39617597D01*
X29810076Y-39617598D01*
X29804048Y-39620282D01*
X29649547Y-39732534D01*
X29645126Y-39737444D01*
X29645125Y-39737445D01*
X29591828Y-39796638D01*
X29521760Y-39874456D01*
X29502509Y-39907800D01*
X29433772Y-40026856D01*
X29426273Y-40039844D01*
X29367258Y-40221472D01*
X29366568Y-40228033D01*
X29366568Y-40228035D01*
X29349388Y-40391492D01*
X29347296Y-40411400D01*
X29367258Y-40601328D01*
X29426273Y-40782956D01*
X29521760Y-40948344D01*
X29534138Y-40962091D01*
X29564854Y-41026097D01*
X29556090Y-41096550D01*
X29534139Y-41130707D01*
X29521760Y-41144456D01*
X29426273Y-41309844D01*
X29367258Y-41491472D01*
X29347296Y-41681400D01*
X21048442Y-41681400D01*
X21115136Y-41546453D01*
X21115137Y-41546451D01*
X21117430Y-41541811D01*
X21182370Y-41328069D01*
X21211529Y-41106590D01*
X21213156Y-41040000D01*
X21194852Y-40817361D01*
X21140431Y-40600702D01*
X21051354Y-40395840D01*
X20942796Y-40228035D01*
X20932822Y-40212617D01*
X20932820Y-40212614D01*
X20930014Y-40208277D01*
X20779670Y-40043051D01*
X20775619Y-40039852D01*
X20775615Y-40039848D01*
X20608414Y-39907800D01*
X20608410Y-39907798D01*
X20604359Y-39904598D01*
X20563053Y-39881796D01*
X20513084Y-39831364D01*
X20498312Y-39761921D01*
X20523428Y-39695516D01*
X20550780Y-39668909D01*
X20594603Y-39637650D01*
X20729860Y-39541173D01*
X20888096Y-39383489D01*
X20941770Y-39308794D01*
X21015435Y-39206277D01*
X21018453Y-39202077D01*
X21062006Y-39113955D01*
X21115136Y-39006453D01*
X21115137Y-39006451D01*
X21117430Y-39001811D01*
X21177144Y-38805271D01*
X21180865Y-38793023D01*
X21180865Y-38793021D01*
X21182370Y-38788069D01*
X21211529Y-38566590D01*
X21212040Y-38545684D01*
X21213074Y-38503365D01*
X21213074Y-38503361D01*
X21213156Y-38500000D01*
X21208223Y-38440000D01*
X43556496Y-38440000D01*
X43557186Y-38446565D01*
X43571607Y-38583770D01*
X43576458Y-38629928D01*
X43635473Y-38811556D01*
X43730960Y-38976944D01*
X43858747Y-39118866D01*
X44013248Y-39231118D01*
X44019276Y-39233802D01*
X44019278Y-39233803D01*
X44179388Y-39305088D01*
X44187712Y-39308794D01*
X44264628Y-39325143D01*
X44368056Y-39347128D01*
X44368061Y-39347128D01*
X44374513Y-39348500D01*
X44565487Y-39348500D01*
X44571939Y-39347128D01*
X44571944Y-39347128D01*
X44675372Y-39325143D01*
X44752288Y-39308794D01*
X44760612Y-39305088D01*
X44920722Y-39233803D01*
X44920724Y-39233802D01*
X44926752Y-39231118D01*
X45081253Y-39118866D01*
X45209040Y-38976944D01*
X45304527Y-38811556D01*
X45363542Y-38629928D01*
X45368394Y-38583770D01*
X45382814Y-38446565D01*
X45383504Y-38440000D01*
X45380155Y-38408134D01*
X46456500Y-38408134D01*
X46463255Y-38470316D01*
X46514385Y-38606705D01*
X46601739Y-38723261D01*
X46718295Y-38810615D01*
X46854684Y-38861745D01*
X46916866Y-38868500D01*
X49013134Y-38868500D01*
X49075316Y-38861745D01*
X49211705Y-38810615D01*
X49328261Y-38723261D01*
X49333643Y-38716080D01*
X49409026Y-38615497D01*
X49465885Y-38572982D01*
X49536704Y-38567956D01*
X49575017Y-38585176D01*
X49575879Y-38583770D01*
X49774042Y-38705205D01*
X49782837Y-38709687D01*
X49992988Y-38796734D01*
X50002373Y-38799783D01*
X50223554Y-38852885D01*
X50233301Y-38854428D01*
X50460070Y-38872275D01*
X50469930Y-38872275D01*
X50696699Y-38854428D01*
X50706446Y-38852885D01*
X50927627Y-38799783D01*
X50937012Y-38796734D01*
X51147163Y-38709687D01*
X51155958Y-38705205D01*
X51323445Y-38602568D01*
X51332907Y-38592110D01*
X51329124Y-38583334D01*
X50194885Y-37449095D01*
X50160859Y-37386783D01*
X50162694Y-37361132D01*
X50829408Y-37361132D01*
X50829539Y-37362965D01*
X50833790Y-37369580D01*
X51685290Y-38221080D01*
X51723648Y-38242026D01*
X51759072Y-38270782D01*
X51811361Y-38332004D01*
X51895031Y-38429969D01*
X52075584Y-38584176D01*
X52079792Y-38586755D01*
X52079798Y-38586759D01*
X52247807Y-38689715D01*
X52278037Y-38708240D01*
X52282607Y-38710133D01*
X52282611Y-38710135D01*
X52492833Y-38797211D01*
X52497406Y-38799105D01*
X52558478Y-38813767D01*
X52723476Y-38853380D01*
X52723482Y-38853381D01*
X52728289Y-38854535D01*
X52965000Y-38873165D01*
X53201711Y-38854535D01*
X53206518Y-38853381D01*
X53206524Y-38853380D01*
X53371522Y-38813767D01*
X53432594Y-38799105D01*
X53437167Y-38797211D01*
X53647389Y-38710135D01*
X53647393Y-38710133D01*
X53651963Y-38708240D01*
X53682193Y-38689715D01*
X53850202Y-38586759D01*
X53850208Y-38586755D01*
X53854416Y-38584176D01*
X54034969Y-38429969D01*
X54189176Y-38249416D01*
X54191755Y-38245208D01*
X54191759Y-38245202D01*
X54310654Y-38051183D01*
X54313240Y-38046963D01*
X54316899Y-38038131D01*
X54402211Y-37832167D01*
X54402212Y-37832165D01*
X54404105Y-37827594D01*
X54432599Y-37708909D01*
X54458380Y-37601524D01*
X54458381Y-37601518D01*
X54459535Y-37596711D01*
X54478165Y-37360000D01*
X54459535Y-37123289D01*
X54445936Y-37066642D01*
X54405260Y-36897218D01*
X54404105Y-36892406D01*
X54313240Y-36673037D01*
X54205453Y-36497145D01*
X54191759Y-36474798D01*
X54191755Y-36474792D01*
X54189176Y-36470584D01*
X54034969Y-36290031D01*
X53854416Y-36135824D01*
X53850208Y-36133245D01*
X53850202Y-36133241D01*
X53656183Y-36014346D01*
X53651963Y-36011760D01*
X53647393Y-36009867D01*
X53647389Y-36009865D01*
X53437167Y-35922789D01*
X53437165Y-35922788D01*
X53432594Y-35920895D01*
X53350667Y-35901226D01*
X53206524Y-35866620D01*
X53206518Y-35866619D01*
X53201711Y-35865465D01*
X52965000Y-35846835D01*
X52728289Y-35865465D01*
X52723482Y-35866619D01*
X52723476Y-35866620D01*
X52579333Y-35901226D01*
X52497406Y-35920895D01*
X52492835Y-35922788D01*
X52492833Y-35922789D01*
X52282611Y-36009865D01*
X52282607Y-36009867D01*
X52278037Y-36011760D01*
X52273817Y-36014346D01*
X52079798Y-36133241D01*
X52079792Y-36133245D01*
X52075584Y-36135824D01*
X51895031Y-36290031D01*
X51891823Y-36293787D01*
X51756247Y-36452526D01*
X51710314Y-36486402D01*
X51688332Y-36495878D01*
X50837022Y-37347188D01*
X50829408Y-37361132D01*
X50162694Y-37361132D01*
X50165924Y-37315968D01*
X50194885Y-37270905D01*
X51326080Y-36139710D01*
X51332840Y-36127330D01*
X51327113Y-36119680D01*
X51155958Y-36014795D01*
X51147163Y-36010313D01*
X50937012Y-35923266D01*
X50927627Y-35920217D01*
X50706446Y-35867115D01*
X50696699Y-35865572D01*
X50469930Y-35847725D01*
X50460070Y-35847725D01*
X50233301Y-35865572D01*
X50223554Y-35867115D01*
X50002373Y-35920217D01*
X49992988Y-35923266D01*
X49782837Y-36010313D01*
X49774042Y-36014795D01*
X49575879Y-36136230D01*
X49574604Y-36134149D01*
X49517261Y-36154720D01*
X49448082Y-36138758D01*
X49409026Y-36104503D01*
X49333643Y-36003920D01*
X49333642Y-36003919D01*
X49328261Y-35996739D01*
X49211705Y-35909385D01*
X49075316Y-35858255D01*
X49013134Y-35851500D01*
X46916866Y-35851500D01*
X46854684Y-35858255D01*
X46718295Y-35909385D01*
X46601739Y-35996739D01*
X46514385Y-36113295D01*
X46463255Y-36249684D01*
X46456500Y-36311866D01*
X46456500Y-38408134D01*
X45380155Y-38408134D01*
X45363542Y-38250072D01*
X45304527Y-38068444D01*
X45209040Y-37903056D01*
X45170804Y-37860590D01*
X45085675Y-37766045D01*
X45085674Y-37766044D01*
X45081253Y-37761134D01*
X44953447Y-37668277D01*
X44932094Y-37652763D01*
X44932093Y-37652762D01*
X44926752Y-37648882D01*
X44920724Y-37646198D01*
X44920722Y-37646197D01*
X44758319Y-37573891D01*
X44758318Y-37573891D01*
X44752288Y-37571206D01*
X44658888Y-37551353D01*
X44571944Y-37532872D01*
X44571939Y-37532872D01*
X44565487Y-37531500D01*
X44374513Y-37531500D01*
X44368061Y-37532872D01*
X44368056Y-37532872D01*
X44281112Y-37551353D01*
X44187712Y-37571206D01*
X44181682Y-37573891D01*
X44181681Y-37573891D01*
X44019278Y-37646197D01*
X44019276Y-37646198D01*
X44013248Y-37648882D01*
X44007907Y-37652762D01*
X44007906Y-37652763D01*
X43986553Y-37668277D01*
X43858747Y-37761134D01*
X43854326Y-37766044D01*
X43854325Y-37766045D01*
X43769197Y-37860590D01*
X43730960Y-37903056D01*
X43635473Y-38068444D01*
X43576458Y-38250072D01*
X43556496Y-38440000D01*
X21208223Y-38440000D01*
X21194852Y-38277361D01*
X21140431Y-38060702D01*
X21051354Y-37855840D01*
X20956300Y-37708909D01*
X20932822Y-37672617D01*
X20932820Y-37672614D01*
X20930014Y-37668277D01*
X20926540Y-37664459D01*
X20926533Y-37664450D01*
X20782435Y-37506088D01*
X20751383Y-37442242D01*
X20759779Y-37371744D01*
X20804956Y-37316976D01*
X20831400Y-37303307D01*
X20938052Y-37263325D01*
X20953649Y-37254786D01*
X21055724Y-37178285D01*
X21068285Y-37165724D01*
X21144786Y-37063649D01*
X21153324Y-37048054D01*
X21198478Y-36927606D01*
X21202105Y-36912351D01*
X21207631Y-36861486D01*
X21208000Y-36854672D01*
X21208000Y-36232115D01*
X21203525Y-36216876D01*
X21202135Y-36215671D01*
X21194452Y-36214000D01*
X19722000Y-36214000D01*
X19653879Y-36193998D01*
X19607386Y-36140342D01*
X19596000Y-36088000D01*
X19596000Y-35687885D01*
X20104000Y-35687885D01*
X20108475Y-35703124D01*
X20109865Y-35704329D01*
X20117548Y-35706000D01*
X21189884Y-35706000D01*
X21205123Y-35701525D01*
X21206328Y-35700135D01*
X21207999Y-35692452D01*
X21207999Y-35370000D01*
X25946496Y-35370000D01*
X25966458Y-35559928D01*
X26025473Y-35741556D01*
X26120960Y-35906944D01*
X26125378Y-35911851D01*
X26125379Y-35911852D01*
X26208277Y-36003920D01*
X26248747Y-36048866D01*
X26327535Y-36106109D01*
X26377769Y-36142606D01*
X26403248Y-36161118D01*
X26409276Y-36163802D01*
X26409278Y-36163803D01*
X26571681Y-36236109D01*
X26577712Y-36238794D01*
X26665905Y-36257540D01*
X26758056Y-36277128D01*
X26758061Y-36277128D01*
X26764513Y-36278500D01*
X26955487Y-36278500D01*
X26961939Y-36277128D01*
X26961944Y-36277128D01*
X27054095Y-36257540D01*
X27142288Y-36238794D01*
X27148319Y-36236109D01*
X27310722Y-36163803D01*
X27310724Y-36163802D01*
X27316752Y-36161118D01*
X27342232Y-36142606D01*
X27392465Y-36106109D01*
X27471253Y-36048866D01*
X27511723Y-36003920D01*
X27594621Y-35911852D01*
X27594622Y-35911851D01*
X27599040Y-35906944D01*
X27694527Y-35741556D01*
X27753542Y-35559928D01*
X27773504Y-35370000D01*
X27753542Y-35180072D01*
X27694527Y-34998444D01*
X27679975Y-34973239D01*
X33018129Y-34973239D01*
X33018426Y-34978392D01*
X33018426Y-34978395D01*
X33020104Y-35007500D01*
X33031357Y-35202661D01*
X33032492Y-35207698D01*
X33032493Y-35207704D01*
X33055274Y-35308791D01*
X33081878Y-35426842D01*
X33168336Y-35639761D01*
X33171033Y-35644162D01*
X33171034Y-35644164D01*
X33276432Y-35816157D01*
X33288408Y-35835700D01*
X33438869Y-36009398D01*
X33442844Y-36012698D01*
X33442847Y-36012701D01*
X33480493Y-36043955D01*
X33615679Y-36156189D01*
X33814090Y-36272131D01*
X33818910Y-36273971D01*
X33818915Y-36273974D01*
X33925296Y-36314596D01*
X34028774Y-36354110D01*
X34033842Y-36355141D01*
X34033845Y-36355142D01*
X34144534Y-36377662D01*
X34253963Y-36399926D01*
X34259136Y-36400116D01*
X34259139Y-36400116D01*
X34478448Y-36408157D01*
X34478452Y-36408157D01*
X34483612Y-36408346D01*
X34488732Y-36407690D01*
X34488734Y-36407690D01*
X34706425Y-36379804D01*
X34706428Y-36379803D01*
X34711552Y-36379147D01*
X34931663Y-36313110D01*
X35138033Y-36212011D01*
X35209383Y-36161118D01*
X35320916Y-36081562D01*
X35325119Y-36078564D01*
X35389562Y-36014346D01*
X35484237Y-35920000D01*
X35487898Y-35916352D01*
X35621997Y-35729733D01*
X35634553Y-35704329D01*
X35721522Y-35528358D01*
X35723816Y-35523717D01*
X35741065Y-35466944D01*
X35789117Y-35308791D01*
X35789118Y-35308785D01*
X35790621Y-35303839D01*
X35820616Y-35076002D01*
X35820877Y-35065331D01*
X35822208Y-35010865D01*
X35822208Y-35010861D01*
X35822290Y-35007500D01*
X35819473Y-34973239D01*
X37003129Y-34973239D01*
X37003426Y-34978392D01*
X37003426Y-34978395D01*
X37005104Y-35007500D01*
X37016357Y-35202661D01*
X37017492Y-35207698D01*
X37017493Y-35207704D01*
X37040274Y-35308791D01*
X37066878Y-35426842D01*
X37153336Y-35639761D01*
X37156033Y-35644162D01*
X37156034Y-35644164D01*
X37261432Y-35816157D01*
X37273408Y-35835700D01*
X37423869Y-36009398D01*
X37427844Y-36012698D01*
X37427847Y-36012701D01*
X37465493Y-36043955D01*
X37600679Y-36156189D01*
X37799090Y-36272131D01*
X37803910Y-36273971D01*
X37803915Y-36273974D01*
X37910296Y-36314596D01*
X38013774Y-36354110D01*
X38018842Y-36355141D01*
X38018845Y-36355142D01*
X38129534Y-36377662D01*
X38238963Y-36399926D01*
X38244136Y-36400116D01*
X38244139Y-36400116D01*
X38463448Y-36408157D01*
X38463452Y-36408157D01*
X38468612Y-36408346D01*
X38473732Y-36407690D01*
X38473734Y-36407690D01*
X38691425Y-36379804D01*
X38691428Y-36379803D01*
X38696552Y-36379147D01*
X38916663Y-36313110D01*
X39123033Y-36212011D01*
X39194383Y-36161118D01*
X39305916Y-36081562D01*
X39310119Y-36078564D01*
X39374562Y-36014346D01*
X39469237Y-35920000D01*
X39472898Y-35916352D01*
X39521525Y-35848680D01*
X39559195Y-35796257D01*
X39615190Y-35752609D01*
X39685893Y-35746163D01*
X39748858Y-35778966D01*
X39768950Y-35803947D01*
X39788408Y-35835700D01*
X39938869Y-36009398D01*
X39942844Y-36012698D01*
X39942847Y-36012701D01*
X39980493Y-36043955D01*
X40115679Y-36156189D01*
X40314090Y-36272131D01*
X40318910Y-36273971D01*
X40318915Y-36273974D01*
X40425296Y-36314596D01*
X40528774Y-36354110D01*
X40533842Y-36355141D01*
X40533845Y-36355142D01*
X40644534Y-36377662D01*
X40753963Y-36399926D01*
X40759136Y-36400116D01*
X40759139Y-36400116D01*
X40978448Y-36408157D01*
X40978452Y-36408157D01*
X40983612Y-36408346D01*
X40988732Y-36407690D01*
X40988734Y-36407690D01*
X41206425Y-36379804D01*
X41206428Y-36379803D01*
X41211552Y-36379147D01*
X41431663Y-36313110D01*
X41638033Y-36212011D01*
X41709383Y-36161118D01*
X41820916Y-36081562D01*
X41825119Y-36078564D01*
X41889562Y-36014346D01*
X41984237Y-35920000D01*
X41987898Y-35916352D01*
X42121997Y-35729733D01*
X42134553Y-35704329D01*
X42221522Y-35528358D01*
X42223816Y-35523717D01*
X42241065Y-35466944D01*
X42289117Y-35308791D01*
X42289118Y-35308785D01*
X42290621Y-35303839D01*
X42320616Y-35076002D01*
X42320877Y-35065331D01*
X42322208Y-35010865D01*
X42322208Y-35010861D01*
X42322290Y-35007500D01*
X42315918Y-34930000D01*
X42303884Y-34783621D01*
X42303883Y-34783615D01*
X42303460Y-34778470D01*
X42247477Y-34555590D01*
X42155843Y-34344847D01*
X42153037Y-34340509D01*
X42033830Y-34156243D01*
X42033828Y-34156240D01*
X42031020Y-34151900D01*
X42024867Y-34145137D01*
X41879837Y-33985752D01*
X41879835Y-33985751D01*
X41876359Y-33981930D01*
X41872308Y-33978731D01*
X41872304Y-33978727D01*
X41834575Y-33948931D01*
X60956996Y-33948931D01*
X60957686Y-33955496D01*
X60975952Y-34129283D01*
X60976958Y-34138859D01*
X61035973Y-34320487D01*
X61039276Y-34326209D01*
X61039277Y-34326210D01*
X61050037Y-34344847D01*
X61131460Y-34485875D01*
X61135878Y-34490782D01*
X61135879Y-34490783D01*
X61240136Y-34606572D01*
X61259247Y-34627797D01*
X61333534Y-34681770D01*
X61392504Y-34724614D01*
X61413748Y-34740049D01*
X61419776Y-34742733D01*
X61419778Y-34742734D01*
X61534293Y-34793719D01*
X61588212Y-34817725D01*
X61676630Y-34836519D01*
X61768556Y-34856059D01*
X61768561Y-34856059D01*
X61775013Y-34857431D01*
X61965987Y-34857431D01*
X61972439Y-34856059D01*
X61972444Y-34856059D01*
X62064370Y-34836519D01*
X62152788Y-34817725D01*
X62206707Y-34793719D01*
X62321222Y-34742734D01*
X62321224Y-34742733D01*
X62327252Y-34740049D01*
X62348497Y-34724614D01*
X62407466Y-34681770D01*
X62481753Y-34627797D01*
X62500864Y-34606572D01*
X62605121Y-34490783D01*
X62605122Y-34490782D01*
X62609540Y-34485875D01*
X62690963Y-34344847D01*
X62701723Y-34326210D01*
X62701724Y-34326209D01*
X62705027Y-34320487D01*
X62764042Y-34138859D01*
X62765049Y-34129283D01*
X62783314Y-33955496D01*
X62784004Y-33948931D01*
X62783191Y-33941198D01*
X62764732Y-33765566D01*
X62764732Y-33765564D01*
X62764042Y-33759003D01*
X62712102Y-33599149D01*
X63051996Y-33599149D01*
X63052686Y-33605714D01*
X63071168Y-33781556D01*
X63071958Y-33789077D01*
X63130973Y-33970705D01*
X63134276Y-33976427D01*
X63134277Y-33976428D01*
X63168186Y-34035159D01*
X63226460Y-34136093D01*
X63230878Y-34141000D01*
X63230879Y-34141001D01*
X63345278Y-34268054D01*
X63354247Y-34278015D01*
X63508748Y-34390267D01*
X63514776Y-34392951D01*
X63514778Y-34392952D01*
X63671822Y-34462872D01*
X63683212Y-34467943D01*
X63767575Y-34485875D01*
X63863556Y-34506277D01*
X63863561Y-34506277D01*
X63870013Y-34507649D01*
X64060987Y-34507649D01*
X64067439Y-34506277D01*
X64067444Y-34506277D01*
X64163425Y-34485875D01*
X64247788Y-34467943D01*
X64259178Y-34462872D01*
X64416222Y-34392952D01*
X64416224Y-34392951D01*
X64422252Y-34390267D01*
X64576753Y-34278015D01*
X64585722Y-34268054D01*
X64700121Y-34141001D01*
X64700122Y-34141000D01*
X64704540Y-34136093D01*
X64780636Y-34004291D01*
X64832017Y-33955299D01*
X64901731Y-33941863D01*
X64967642Y-33968249D01*
X64998873Y-34004292D01*
X65075460Y-34136944D01*
X65117600Y-34183745D01*
X65148316Y-34247751D01*
X65139552Y-34318205D01*
X65117602Y-34352361D01*
X65080960Y-34393056D01*
X65058593Y-34431797D01*
X64989856Y-34550853D01*
X64985473Y-34558444D01*
X64926458Y-34740072D01*
X64925768Y-34746633D01*
X64925768Y-34746635D01*
X64920575Y-34796042D01*
X64906496Y-34930000D01*
X64926458Y-35119928D01*
X64985473Y-35301556D01*
X65080960Y-35466944D01*
X65085378Y-35471851D01*
X65085379Y-35471852D01*
X65204325Y-35603955D01*
X65208747Y-35608866D01*
X65306077Y-35679581D01*
X65336281Y-35701525D01*
X65363248Y-35721118D01*
X65369276Y-35723802D01*
X65369278Y-35723803D01*
X65433978Y-35752609D01*
X65537712Y-35798794D01*
X65619398Y-35816157D01*
X65718056Y-35837128D01*
X65718061Y-35837128D01*
X65724513Y-35838500D01*
X65915487Y-35838500D01*
X65921939Y-35837128D01*
X65921944Y-35837128D01*
X66020602Y-35816157D01*
X66102288Y-35798794D01*
X66206022Y-35752609D01*
X66270722Y-35723803D01*
X66270724Y-35723802D01*
X66276752Y-35721118D01*
X66301085Y-35703439D01*
X66367953Y-35679581D01*
X66437104Y-35695661D01*
X66486584Y-35746575D01*
X66500684Y-35816157D01*
X66493470Y-35848680D01*
X66491238Y-35854780D01*
X66429413Y-36138336D01*
X66427803Y-36158799D01*
X66408215Y-36407690D01*
X66406643Y-36427659D01*
X66423349Y-36717395D01*
X66424174Y-36721600D01*
X66424175Y-36721608D01*
X66435528Y-36779472D01*
X66479222Y-37002184D01*
X66480609Y-37006234D01*
X66480610Y-37006239D01*
X66568631Y-37263324D01*
X66573229Y-37276754D01*
X66703629Y-37536027D01*
X66745279Y-37596628D01*
X66864205Y-37769666D01*
X66868010Y-37775203D01*
X67063331Y-37989857D01*
X67066620Y-37992607D01*
X67282683Y-38173265D01*
X67282688Y-38173269D01*
X67285975Y-38176017D01*
X67343187Y-38211906D01*
X67528185Y-38327955D01*
X67528189Y-38327957D01*
X67531825Y-38330238D01*
X67535735Y-38332003D01*
X67535736Y-38332004D01*
X67792419Y-38447901D01*
X67792423Y-38447903D01*
X67796331Y-38449667D01*
X67800451Y-38450887D01*
X67800450Y-38450887D01*
X68070484Y-38530875D01*
X68070488Y-38530876D01*
X68074597Y-38532093D01*
X68078834Y-38532741D01*
X68078837Y-38532742D01*
X68278141Y-38563240D01*
X68361475Y-38575992D01*
X68509275Y-38578314D01*
X68647366Y-38580483D01*
X68647372Y-38580483D01*
X68651657Y-38580550D01*
X68939773Y-38545684D01*
X69126695Y-38496646D01*
X69216348Y-38473126D01*
X69216349Y-38473126D01*
X69220491Y-38472039D01*
X69488618Y-38360978D01*
X69739190Y-38214555D01*
X69967573Y-38035480D01*
X70169539Y-37827067D01*
X70341352Y-37593173D01*
X70423301Y-37442242D01*
X70477782Y-37341900D01*
X70477783Y-37341898D01*
X70479832Y-37338124D01*
X70582416Y-37066642D01*
X70647207Y-36783749D01*
X70673006Y-36494680D01*
X70673474Y-36450000D01*
X70670634Y-36408346D01*
X70654027Y-36164731D01*
X70654026Y-36164725D01*
X70653735Y-36160454D01*
X70648719Y-36136230D01*
X70595753Y-35880473D01*
X70594882Y-35876267D01*
X70498006Y-35602695D01*
X70364897Y-35344803D01*
X70198021Y-35107361D01*
X70181955Y-35090072D01*
X70003384Y-34897907D01*
X70003381Y-34897905D01*
X70000463Y-34894764D01*
X69775881Y-34710946D01*
X69528430Y-34559308D01*
X69519961Y-34555590D01*
X69292953Y-34455940D01*
X69238618Y-34410244D01*
X69217613Y-34342426D01*
X69236608Y-34274017D01*
X69292350Y-34225460D01*
X69340324Y-34204101D01*
X69340326Y-34204100D01*
X69346354Y-34201416D01*
X69500855Y-34089164D01*
X69516404Y-34071895D01*
X69624223Y-33952150D01*
X69624224Y-33952149D01*
X69628642Y-33947242D01*
X69716334Y-33795355D01*
X69720825Y-33787577D01*
X69720826Y-33787576D01*
X69724129Y-33781854D01*
X69780017Y-33609851D01*
X69820090Y-33551246D01*
X69885486Y-33523609D01*
X69955443Y-33535716D01*
X70007749Y-33583722D01*
X70019682Y-33609851D01*
X70033385Y-33652025D01*
X70075473Y-33781556D01*
X70078776Y-33787278D01*
X70078777Y-33787279D01*
X70083440Y-33795355D01*
X70170960Y-33946944D01*
X70175378Y-33951851D01*
X70175379Y-33951852D01*
X70263364Y-34049569D01*
X70298747Y-34088866D01*
X70453248Y-34201118D01*
X70459276Y-34203802D01*
X70459278Y-34203803D01*
X70621681Y-34276109D01*
X70627712Y-34278794D01*
X70717725Y-34297927D01*
X70808056Y-34317128D01*
X70808061Y-34317128D01*
X70814513Y-34318500D01*
X71005487Y-34318500D01*
X71011939Y-34317128D01*
X71011944Y-34317128D01*
X71102275Y-34297927D01*
X71192288Y-34278794D01*
X71198319Y-34276109D01*
X71360722Y-34203803D01*
X71360724Y-34203802D01*
X71366752Y-34201118D01*
X71521253Y-34088866D01*
X71556636Y-34049569D01*
X71644621Y-33951852D01*
X71644622Y-33951851D01*
X71649040Y-33946944D01*
X71736560Y-33795355D01*
X71741223Y-33787279D01*
X71741224Y-33787278D01*
X71744527Y-33781556D01*
X71803542Y-33599928D01*
X71805913Y-33577375D01*
X71822814Y-33416565D01*
X71823504Y-33410000D01*
X71810756Y-33288710D01*
X71804232Y-33226635D01*
X71804232Y-33226633D01*
X71803542Y-33220072D01*
X71744527Y-33038444D01*
X71649040Y-32873056D01*
X71549113Y-32762075D01*
X71525675Y-32736045D01*
X71525674Y-32736044D01*
X71521253Y-32731134D01*
X71366752Y-32618882D01*
X71360724Y-32616198D01*
X71360722Y-32616197D01*
X71198319Y-32543891D01*
X71198318Y-32543891D01*
X71192288Y-32541206D01*
X71087620Y-32518958D01*
X71011944Y-32502872D01*
X71011939Y-32502872D01*
X71005487Y-32501500D01*
X70814513Y-32501500D01*
X70808061Y-32502872D01*
X70808056Y-32502872D01*
X70732380Y-32518958D01*
X70627712Y-32541206D01*
X70621682Y-32543891D01*
X70621681Y-32543891D01*
X70459278Y-32616197D01*
X70459276Y-32616198D01*
X70453248Y-32618882D01*
X70298747Y-32731134D01*
X70294326Y-32736044D01*
X70294325Y-32736045D01*
X70270888Y-32762075D01*
X70170960Y-32873056D01*
X70075473Y-33038444D01*
X70035427Y-33161694D01*
X70019586Y-33210446D01*
X69979512Y-33269052D01*
X69914116Y-33296689D01*
X69844159Y-33284582D01*
X69791853Y-33236576D01*
X69779920Y-33210447D01*
X69749944Y-33118192D01*
X69724129Y-33038742D01*
X69628642Y-32873354D01*
X69573320Y-32811912D01*
X69505277Y-32736343D01*
X69505276Y-32736342D01*
X69500855Y-32731432D01*
X69369722Y-32636158D01*
X69351696Y-32623061D01*
X69351695Y-32623060D01*
X69346354Y-32619180D01*
X69340326Y-32616496D01*
X69340324Y-32616495D01*
X69177921Y-32544189D01*
X69177920Y-32544189D01*
X69171890Y-32541504D01*
X69065820Y-32518958D01*
X68991546Y-32503170D01*
X68991541Y-32503170D01*
X68985089Y-32501798D01*
X68794115Y-32501798D01*
X68787663Y-32503170D01*
X68787658Y-32503170D01*
X68713384Y-32518958D01*
X68607314Y-32541504D01*
X68601284Y-32544189D01*
X68601283Y-32544189D01*
X68438880Y-32616495D01*
X68438878Y-32616496D01*
X68432850Y-32619180D01*
X68427509Y-32623060D01*
X68427508Y-32623061D01*
X68409482Y-32636158D01*
X68278349Y-32731432D01*
X68277619Y-32732242D01*
X68215454Y-32762075D01*
X68145001Y-32753310D01*
X68101517Y-32722031D01*
X68100121Y-32720480D01*
X67976753Y-32583466D01*
X67877657Y-32511468D01*
X67827594Y-32475095D01*
X67827593Y-32475094D01*
X67822252Y-32471214D01*
X67816224Y-32468530D01*
X67816222Y-32468529D01*
X67653819Y-32396223D01*
X67653818Y-32396223D01*
X67647788Y-32393538D01*
X67554387Y-32373685D01*
X67467444Y-32355204D01*
X67467439Y-32355204D01*
X67460987Y-32353832D01*
X67270013Y-32353832D01*
X67263561Y-32355204D01*
X67263556Y-32355204D01*
X67176613Y-32373685D01*
X67083212Y-32393538D01*
X67077182Y-32396223D01*
X67077181Y-32396223D01*
X66914778Y-32468529D01*
X66914776Y-32468530D01*
X66908748Y-32471214D01*
X66903407Y-32475094D01*
X66903406Y-32475095D01*
X66853343Y-32511468D01*
X66754247Y-32583466D01*
X66749826Y-32588376D01*
X66749825Y-32588377D01*
X66655738Y-32692872D01*
X66626460Y-32725388D01*
X66621551Y-32733891D01*
X66557500Y-32844830D01*
X66506117Y-32893823D01*
X66436404Y-32907259D01*
X66374321Y-32883766D01*
X66271252Y-32808882D01*
X66265224Y-32806198D01*
X66265222Y-32806197D01*
X66102819Y-32733891D01*
X66102818Y-32733891D01*
X66096788Y-32731206D01*
X66003388Y-32711353D01*
X65916444Y-32692872D01*
X65916439Y-32692872D01*
X65909987Y-32691500D01*
X65719013Y-32691500D01*
X65712561Y-32692872D01*
X65712556Y-32692872D01*
X65625612Y-32711353D01*
X65532212Y-32731206D01*
X65526182Y-32733891D01*
X65526181Y-32733891D01*
X65363778Y-32806197D01*
X65363776Y-32806198D01*
X65357748Y-32808882D01*
X65203247Y-32921134D01*
X65198826Y-32926044D01*
X65198825Y-32926045D01*
X65081205Y-33056676D01*
X65075460Y-33063056D01*
X65002921Y-33188698D01*
X64999365Y-33194857D01*
X64947983Y-33243850D01*
X64878269Y-33257286D01*
X64812358Y-33230900D01*
X64781127Y-33194857D01*
X64714101Y-33078765D01*
X64704540Y-33062205D01*
X64691021Y-33047190D01*
X64581175Y-32925194D01*
X64581174Y-32925193D01*
X64576753Y-32920283D01*
X64422252Y-32808031D01*
X64416224Y-32805347D01*
X64416222Y-32805346D01*
X64253819Y-32733040D01*
X64253818Y-32733040D01*
X64247788Y-32730355D01*
X64154387Y-32710502D01*
X64067444Y-32692021D01*
X64067439Y-32692021D01*
X64060987Y-32690649D01*
X63870013Y-32690649D01*
X63863561Y-32692021D01*
X63863556Y-32692021D01*
X63776613Y-32710502D01*
X63683212Y-32730355D01*
X63677182Y-32733040D01*
X63677181Y-32733040D01*
X63514778Y-32805346D01*
X63514776Y-32805347D01*
X63508748Y-32808031D01*
X63354247Y-32920283D01*
X63349826Y-32925193D01*
X63349825Y-32925194D01*
X63239980Y-33047190D01*
X63226460Y-33062205D01*
X63216899Y-33078765D01*
X63136456Y-33218097D01*
X63130973Y-33227593D01*
X63071958Y-33409221D01*
X63071268Y-33415782D01*
X63071268Y-33415784D01*
X63053624Y-33583660D01*
X63051996Y-33599149D01*
X62712102Y-33599149D01*
X62705027Y-33577375D01*
X62689942Y-33551246D01*
X62612841Y-33417705D01*
X62609540Y-33411987D01*
X62481753Y-33270065D01*
X62382657Y-33198067D01*
X62332594Y-33161694D01*
X62332593Y-33161693D01*
X62327252Y-33157813D01*
X62321224Y-33155129D01*
X62321222Y-33155128D01*
X62158819Y-33082822D01*
X62158818Y-33082822D01*
X62152788Y-33080137D01*
X62059387Y-33060284D01*
X61972444Y-33041803D01*
X61972439Y-33041803D01*
X61965987Y-33040431D01*
X61775013Y-33040431D01*
X61768561Y-33041803D01*
X61768556Y-33041803D01*
X61681613Y-33060284D01*
X61588212Y-33080137D01*
X61582182Y-33082822D01*
X61582181Y-33082822D01*
X61419778Y-33155128D01*
X61419776Y-33155129D01*
X61413748Y-33157813D01*
X61408407Y-33161693D01*
X61408406Y-33161694D01*
X61358343Y-33198067D01*
X61259247Y-33270065D01*
X61131460Y-33411987D01*
X61128159Y-33417705D01*
X61051059Y-33551246D01*
X61035973Y-33577375D01*
X60976958Y-33759003D01*
X60976268Y-33765564D01*
X60976268Y-33765566D01*
X60957809Y-33941198D01*
X60956996Y-33948931D01*
X41834575Y-33948931D01*
X41700073Y-33842708D01*
X41696015Y-33839503D01*
X41494831Y-33728443D01*
X41321548Y-33667080D01*
X41283084Y-33653459D01*
X41283080Y-33653458D01*
X41278209Y-33651733D01*
X41273116Y-33650826D01*
X41273113Y-33650825D01*
X41057056Y-33612339D01*
X41057050Y-33612338D01*
X41051967Y-33611433D01*
X40978784Y-33610539D01*
X40827351Y-33608689D01*
X40827349Y-33608689D01*
X40822181Y-33608626D01*
X40672384Y-33631548D01*
X40600131Y-33642604D01*
X40600128Y-33642605D01*
X40595022Y-33643386D01*
X40535090Y-33662975D01*
X40381504Y-33713175D01*
X40381502Y-33713176D01*
X40376591Y-33714781D01*
X40345538Y-33730946D01*
X40247745Y-33781854D01*
X40172753Y-33820892D01*
X40168620Y-33823995D01*
X40168617Y-33823997D01*
X39993118Y-33955765D01*
X39988983Y-33958870D01*
X39985411Y-33962608D01*
X39860761Y-34093047D01*
X39830216Y-34125010D01*
X39766894Y-34217836D01*
X39711985Y-34262837D01*
X39641460Y-34271008D01*
X39577713Y-34239754D01*
X39557016Y-34215270D01*
X39518830Y-34156243D01*
X39518828Y-34156240D01*
X39516020Y-34151900D01*
X39509867Y-34145137D01*
X39364837Y-33985752D01*
X39364835Y-33985751D01*
X39361359Y-33981930D01*
X39357308Y-33978731D01*
X39357304Y-33978727D01*
X39185073Y-33842708D01*
X39181015Y-33839503D01*
X38979831Y-33728443D01*
X38806548Y-33667080D01*
X38768084Y-33653459D01*
X38768080Y-33653458D01*
X38763209Y-33651733D01*
X38758116Y-33650826D01*
X38758113Y-33650825D01*
X38542056Y-33612339D01*
X38542050Y-33612338D01*
X38536967Y-33611433D01*
X38463784Y-33610539D01*
X38312351Y-33608689D01*
X38312349Y-33608689D01*
X38307181Y-33608626D01*
X38157384Y-33631548D01*
X38085131Y-33642604D01*
X38085128Y-33642605D01*
X38080022Y-33643386D01*
X38020090Y-33662975D01*
X37866504Y-33713175D01*
X37866502Y-33713176D01*
X37861591Y-33714781D01*
X37830538Y-33730946D01*
X37732745Y-33781854D01*
X37657753Y-33820892D01*
X37653620Y-33823995D01*
X37653617Y-33823997D01*
X37478118Y-33955765D01*
X37473983Y-33958870D01*
X37470411Y-33962608D01*
X37345761Y-34093047D01*
X37315216Y-34125010D01*
X37312307Y-34129275D01*
X37312301Y-34129283D01*
X37301674Y-34144862D01*
X37185716Y-34314850D01*
X37149414Y-34393056D01*
X37097967Y-34503891D01*
X37088961Y-34523292D01*
X37027548Y-34744737D01*
X37026999Y-34749871D01*
X37026999Y-34749873D01*
X37022065Y-34796042D01*
X37003129Y-34973239D01*
X35819473Y-34973239D01*
X35815918Y-34930000D01*
X35803884Y-34783621D01*
X35803883Y-34783615D01*
X35803460Y-34778470D01*
X35747477Y-34555590D01*
X35655843Y-34344847D01*
X35653037Y-34340509D01*
X35533830Y-34156243D01*
X35533828Y-34156240D01*
X35531020Y-34151900D01*
X35524867Y-34145137D01*
X35379837Y-33985752D01*
X35379835Y-33985751D01*
X35376359Y-33981930D01*
X35372308Y-33978731D01*
X35372304Y-33978727D01*
X35200073Y-33842708D01*
X35196015Y-33839503D01*
X34994831Y-33728443D01*
X34821548Y-33667080D01*
X34783084Y-33653459D01*
X34783080Y-33653458D01*
X34778209Y-33651733D01*
X34773116Y-33650826D01*
X34773113Y-33650825D01*
X34557056Y-33612339D01*
X34557050Y-33612338D01*
X34551967Y-33611433D01*
X34478784Y-33610539D01*
X34327351Y-33608689D01*
X34327349Y-33608689D01*
X34322181Y-33608626D01*
X34172384Y-33631548D01*
X34100131Y-33642604D01*
X34100128Y-33642605D01*
X34095022Y-33643386D01*
X34035090Y-33662975D01*
X33881504Y-33713175D01*
X33881502Y-33713176D01*
X33876591Y-33714781D01*
X33845538Y-33730946D01*
X33747745Y-33781854D01*
X33672753Y-33820892D01*
X33668620Y-33823995D01*
X33668617Y-33823997D01*
X33493118Y-33955765D01*
X33488983Y-33958870D01*
X33485411Y-33962608D01*
X33360761Y-34093047D01*
X33330216Y-34125010D01*
X33327307Y-34129275D01*
X33327301Y-34129283D01*
X33316674Y-34144862D01*
X33200716Y-34314850D01*
X33164414Y-34393056D01*
X33112967Y-34503891D01*
X33103961Y-34523292D01*
X33042548Y-34744737D01*
X33041999Y-34749871D01*
X33041999Y-34749873D01*
X33037065Y-34796042D01*
X33018129Y-34973239D01*
X27679975Y-34973239D01*
X27662615Y-34943170D01*
X27612321Y-34856059D01*
X27599040Y-34833056D01*
X27582819Y-34815040D01*
X27475675Y-34696045D01*
X27475674Y-34696044D01*
X27471253Y-34691134D01*
X27349079Y-34602369D01*
X27322094Y-34582763D01*
X27322093Y-34582762D01*
X27316752Y-34578882D01*
X27310724Y-34576198D01*
X27310722Y-34576197D01*
X27148319Y-34503891D01*
X27148318Y-34503891D01*
X27142288Y-34501206D01*
X27043261Y-34480157D01*
X26961944Y-34462872D01*
X26961939Y-34462872D01*
X26955487Y-34461500D01*
X26764513Y-34461500D01*
X26758061Y-34462872D01*
X26758056Y-34462872D01*
X26676739Y-34480157D01*
X26577712Y-34501206D01*
X26571682Y-34503891D01*
X26571681Y-34503891D01*
X26409278Y-34576197D01*
X26409276Y-34576198D01*
X26403248Y-34578882D01*
X26397907Y-34582762D01*
X26397906Y-34582763D01*
X26370921Y-34602369D01*
X26248747Y-34691134D01*
X26244326Y-34696044D01*
X26244325Y-34696045D01*
X26137182Y-34815040D01*
X26120960Y-34833056D01*
X26107679Y-34856059D01*
X26057386Y-34943170D01*
X26025473Y-34998444D01*
X25966458Y-35180072D01*
X25946496Y-35370000D01*
X21207999Y-35370000D01*
X21207999Y-35065331D01*
X21207629Y-35058510D01*
X21202105Y-35007648D01*
X21198479Y-34992396D01*
X21153324Y-34871946D01*
X21144786Y-34856351D01*
X21068285Y-34754276D01*
X21055724Y-34741715D01*
X20959787Y-34669814D01*
X24282046Y-34669814D01*
X24291928Y-34682303D01*
X24347041Y-34719127D01*
X24357146Y-34724614D01*
X24550267Y-34807586D01*
X24561210Y-34811141D01*
X24766209Y-34857528D01*
X24777618Y-34859030D01*
X24987645Y-34867281D01*
X24999129Y-34866679D01*
X25207145Y-34836519D01*
X25218328Y-34833834D01*
X25417362Y-34766271D01*
X25427865Y-34761595D01*
X25570404Y-34681770D01*
X25580266Y-34671694D01*
X25577311Y-34664022D01*
X24942811Y-34029521D01*
X24928868Y-34021908D01*
X24927034Y-34022039D01*
X24920420Y-34026290D01*
X24288239Y-34658472D01*
X24282046Y-34669814D01*
X20959787Y-34669814D01*
X20953649Y-34665214D01*
X20938054Y-34656676D01*
X20817606Y-34611522D01*
X20802351Y-34607895D01*
X20751486Y-34602369D01*
X20744672Y-34602000D01*
X20122115Y-34602000D01*
X20106876Y-34606475D01*
X20105671Y-34607865D01*
X20104000Y-34615548D01*
X20104000Y-35687885D01*
X19596000Y-35687885D01*
X19596000Y-34620116D01*
X19591525Y-34604877D01*
X19590135Y-34603672D01*
X19582452Y-34602001D01*
X18955331Y-34602001D01*
X18948510Y-34602371D01*
X18897648Y-34607895D01*
X18882396Y-34611521D01*
X18761946Y-34656676D01*
X18746351Y-34665214D01*
X18690065Y-34707398D01*
X18623558Y-34732246D01*
X18554176Y-34717193D01*
X18503946Y-34667018D01*
X18488500Y-34606572D01*
X18488500Y-33631548D01*
X23719124Y-33631548D01*
X23732871Y-33841279D01*
X23734672Y-33852649D01*
X23786409Y-34056363D01*
X23790250Y-34067210D01*
X23878247Y-34258092D01*
X23883996Y-34268049D01*
X23905112Y-34297927D01*
X23915702Y-34306316D01*
X23929001Y-34299288D01*
X24557979Y-33670311D01*
X24564356Y-33658632D01*
X25294408Y-33658632D01*
X25294539Y-33660466D01*
X25298790Y-33667080D01*
X25932611Y-34300900D01*
X25944986Y-34307657D01*
X25951566Y-34302731D01*
X26034095Y-34155365D01*
X26038771Y-34144862D01*
X26106334Y-33945828D01*
X26109019Y-33934645D01*
X26139475Y-33724588D01*
X26140105Y-33717205D01*
X26141572Y-33661204D01*
X26141450Y-33657500D01*
X28798389Y-33657500D01*
X28816796Y-33867894D01*
X28818220Y-33873207D01*
X28818220Y-33873209D01*
X28866516Y-34053450D01*
X28871458Y-34071895D01*
X28873780Y-34076876D01*
X28873781Y-34076877D01*
X28943067Y-34225460D01*
X28960714Y-34263305D01*
X29081852Y-34436309D01*
X29231191Y-34585648D01*
X29235699Y-34588805D01*
X29235702Y-34588807D01*
X29388854Y-34696045D01*
X29404194Y-34706786D01*
X29409176Y-34709109D01*
X29409181Y-34709112D01*
X29568968Y-34783621D01*
X29595605Y-34796042D01*
X29600913Y-34797464D01*
X29600915Y-34797465D01*
X29794291Y-34849280D01*
X29794293Y-34849280D01*
X29799606Y-34850704D01*
X30010000Y-34869111D01*
X30220394Y-34850704D01*
X30225707Y-34849280D01*
X30225709Y-34849280D01*
X30419085Y-34797465D01*
X30419087Y-34797464D01*
X30424395Y-34796042D01*
X30451032Y-34783621D01*
X30610819Y-34709112D01*
X30610824Y-34709109D01*
X30615806Y-34706786D01*
X30631146Y-34696045D01*
X30784298Y-34588807D01*
X30784301Y-34588805D01*
X30788809Y-34585648D01*
X30938148Y-34436309D01*
X31059286Y-34263305D01*
X31076934Y-34225460D01*
X31146219Y-34076877D01*
X31146220Y-34076876D01*
X31148542Y-34071895D01*
X31153485Y-34053450D01*
X31201780Y-33873209D01*
X31201780Y-33873207D01*
X31203204Y-33867894D01*
X31221611Y-33657500D01*
X31203204Y-33447106D01*
X31193794Y-33411987D01*
X31149965Y-33248415D01*
X31149964Y-33248413D01*
X31148542Y-33243105D01*
X31146219Y-33238123D01*
X31061609Y-33056676D01*
X31061607Y-33056673D01*
X31059286Y-33051695D01*
X30938148Y-32878691D01*
X30788809Y-32729352D01*
X30784301Y-32726195D01*
X30784298Y-32726193D01*
X30620315Y-32611371D01*
X30620312Y-32611369D01*
X30615806Y-32608214D01*
X30610824Y-32605891D01*
X30610819Y-32605888D01*
X30429377Y-32521281D01*
X30429376Y-32521281D01*
X30424395Y-32518958D01*
X30419087Y-32517536D01*
X30419085Y-32517535D01*
X30225709Y-32465720D01*
X30225707Y-32465720D01*
X30220394Y-32464296D01*
X30010000Y-32445889D01*
X29799606Y-32464296D01*
X29794293Y-32465720D01*
X29794291Y-32465720D01*
X29600915Y-32517535D01*
X29600913Y-32517536D01*
X29595605Y-32518958D01*
X29590624Y-32521280D01*
X29590623Y-32521281D01*
X29409176Y-32605891D01*
X29409173Y-32605893D01*
X29404195Y-32608214D01*
X29231191Y-32729352D01*
X29081852Y-32878691D01*
X28960714Y-33051695D01*
X28958393Y-33056673D01*
X28958391Y-33056676D01*
X28873781Y-33238123D01*
X28871458Y-33243105D01*
X28870036Y-33248413D01*
X28870035Y-33248415D01*
X28826206Y-33411987D01*
X28816796Y-33447106D01*
X28798389Y-33657500D01*
X26141450Y-33657500D01*
X26141329Y-33653805D01*
X26121908Y-33442445D01*
X26119811Y-33431130D01*
X26062758Y-33228836D01*
X26058636Y-33218097D01*
X25965671Y-33029583D01*
X25959665Y-33019781D01*
X25956510Y-33015556D01*
X25945251Y-33007106D01*
X25932834Y-33013877D01*
X25302021Y-33644689D01*
X25294408Y-33658632D01*
X24564356Y-33658632D01*
X24565592Y-33656368D01*
X24565461Y-33654534D01*
X24561210Y-33647920D01*
X23925603Y-33012314D01*
X23913228Y-33005557D01*
X23907262Y-33010023D01*
X23813256Y-33188698D01*
X23808851Y-33199332D01*
X23746522Y-33400063D01*
X23744130Y-33411317D01*
X23719425Y-33620047D01*
X23719124Y-33631548D01*
X18488500Y-33631548D01*
X18488500Y-32644308D01*
X24280921Y-32644308D01*
X24284407Y-32652696D01*
X24917189Y-33285479D01*
X24931132Y-33293092D01*
X24932966Y-33292961D01*
X24939580Y-33288710D01*
X25571700Y-32656589D01*
X25578457Y-32644214D01*
X25572427Y-32636158D01*
X25484972Y-32580978D01*
X25474721Y-32575754D01*
X25279497Y-32497868D01*
X25268469Y-32494601D01*
X25062322Y-32453596D01*
X25050875Y-32452393D01*
X24840716Y-32449642D01*
X24829236Y-32450545D01*
X24622087Y-32486140D01*
X24610979Y-32489117D01*
X24413782Y-32561866D01*
X24403400Y-32566818D01*
X24290519Y-32633975D01*
X24280921Y-32644308D01*
X18488500Y-32644308D01*
X18488500Y-31508134D01*
X43356500Y-31508134D01*
X43363255Y-31570316D01*
X43414385Y-31706705D01*
X43501739Y-31823261D01*
X43618295Y-31910615D01*
X43754684Y-31961745D01*
X43816866Y-31968500D01*
X45913134Y-31968500D01*
X45975316Y-31961745D01*
X46111705Y-31910615D01*
X46228261Y-31823261D01*
X46315615Y-31706705D01*
X46366745Y-31570316D01*
X46373500Y-31508134D01*
X54556500Y-31508134D01*
X54563255Y-31570316D01*
X54614385Y-31706705D01*
X54701739Y-31823261D01*
X54818295Y-31910615D01*
X54954684Y-31961745D01*
X55016866Y-31968500D01*
X57113134Y-31968500D01*
X57175316Y-31961745D01*
X57311705Y-31910615D01*
X57428261Y-31823261D01*
X57515615Y-31706705D01*
X57566745Y-31570316D01*
X57573500Y-31508134D01*
X57573500Y-28405023D01*
X61531519Y-28405023D01*
X61532209Y-28411588D01*
X61542424Y-28508774D01*
X61551481Y-28594951D01*
X61610496Y-28776579D01*
X61613799Y-28782301D01*
X61613800Y-28782302D01*
X61667696Y-28875652D01*
X61684434Y-28944647D01*
X61667696Y-29001651D01*
X61620473Y-29083444D01*
X61561458Y-29265072D01*
X61560768Y-29271633D01*
X61560768Y-29271635D01*
X61552832Y-29347141D01*
X61541496Y-29455000D01*
X61542186Y-29461565D01*
X61554829Y-29581852D01*
X61561458Y-29644928D01*
X61620473Y-29826556D01*
X61715960Y-29991944D01*
X61720378Y-29996851D01*
X61720379Y-29996852D01*
X61839325Y-30128955D01*
X61843747Y-30133866D01*
X61998248Y-30246118D01*
X62004276Y-30248802D01*
X62004278Y-30248803D01*
X62153569Y-30315271D01*
X62172712Y-30323794D01*
X62266113Y-30343647D01*
X62353056Y-30362128D01*
X62353061Y-30362128D01*
X62359513Y-30363500D01*
X62550487Y-30363500D01*
X62556939Y-30362128D01*
X62556944Y-30362128D01*
X62643887Y-30343647D01*
X62737288Y-30323794D01*
X62756431Y-30315271D01*
X62905722Y-30248803D01*
X62905724Y-30248802D01*
X62911752Y-30246118D01*
X63066253Y-30133866D01*
X63070675Y-30128955D01*
X63189621Y-29996852D01*
X63189622Y-29996851D01*
X63194040Y-29991944D01*
X63218256Y-29950000D01*
X66376496Y-29950000D01*
X66377186Y-29956565D01*
X66390266Y-30081011D01*
X66396458Y-30139928D01*
X66455473Y-30321556D01*
X66550960Y-30486944D01*
X66555378Y-30491851D01*
X66555379Y-30491852D01*
X66674325Y-30623955D01*
X66678747Y-30628866D01*
X66833248Y-30741118D01*
X66839276Y-30743802D01*
X66839278Y-30743803D01*
X67001681Y-30816109D01*
X67007712Y-30818794D01*
X67101113Y-30838647D01*
X67188056Y-30857128D01*
X67188061Y-30857128D01*
X67194513Y-30858500D01*
X67385487Y-30858500D01*
X67391939Y-30857128D01*
X67391944Y-30857128D01*
X67478887Y-30838647D01*
X67572288Y-30818794D01*
X67578319Y-30816109D01*
X67740722Y-30743803D01*
X67740724Y-30743802D01*
X67746752Y-30741118D01*
X67901253Y-30628866D01*
X67905675Y-30623955D01*
X68024621Y-30491852D01*
X68024622Y-30491851D01*
X68029040Y-30486944D01*
X68124527Y-30321556D01*
X68183542Y-30139928D01*
X68194508Y-30035592D01*
X68221521Y-29969935D01*
X68235044Y-29960498D01*
X69576496Y-29960498D01*
X69577186Y-29967063D01*
X69595355Y-30139928D01*
X69596458Y-30150426D01*
X69655473Y-30332054D01*
X69750960Y-30497442D01*
X69755378Y-30502349D01*
X69755379Y-30502350D01*
X69872791Y-30632749D01*
X69878747Y-30639364D01*
X70033248Y-30751616D01*
X70039276Y-30754300D01*
X70039278Y-30754301D01*
X70201681Y-30826607D01*
X70207712Y-30829292D01*
X70301112Y-30849145D01*
X70388056Y-30867626D01*
X70388061Y-30867626D01*
X70394513Y-30868998D01*
X70585487Y-30868998D01*
X70591939Y-30867626D01*
X70591944Y-30867626D01*
X70678888Y-30849145D01*
X70772288Y-30829292D01*
X70778319Y-30826607D01*
X70940722Y-30754301D01*
X70940724Y-30754300D01*
X70946752Y-30751616D01*
X71101253Y-30639364D01*
X71107209Y-30632749D01*
X71224621Y-30502350D01*
X71224622Y-30502349D01*
X71229040Y-30497442D01*
X71324527Y-30332054D01*
X71383542Y-30150426D01*
X71384646Y-30139928D01*
X71402814Y-29967063D01*
X71403504Y-29960498D01*
X71383542Y-29770570D01*
X71324527Y-29588942D01*
X71229040Y-29423554D01*
X71215169Y-29408148D01*
X71105675Y-29286543D01*
X71105674Y-29286542D01*
X71101253Y-29281632D01*
X70946752Y-29169380D01*
X70940724Y-29166696D01*
X70940722Y-29166695D01*
X70778319Y-29094389D01*
X70778318Y-29094389D01*
X70772288Y-29091704D01*
X70678887Y-29071851D01*
X70591944Y-29053370D01*
X70591939Y-29053370D01*
X70585487Y-29051998D01*
X70394513Y-29051998D01*
X70388061Y-29053370D01*
X70388056Y-29053370D01*
X70301113Y-29071851D01*
X70207712Y-29091704D01*
X70201682Y-29094389D01*
X70201681Y-29094389D01*
X70039278Y-29166695D01*
X70039276Y-29166696D01*
X70033248Y-29169380D01*
X69878747Y-29281632D01*
X69874326Y-29286542D01*
X69874325Y-29286543D01*
X69764832Y-29408148D01*
X69750960Y-29423554D01*
X69655473Y-29588942D01*
X69596458Y-29770570D01*
X69576496Y-29960498D01*
X68235044Y-29960498D01*
X68279743Y-29929305D01*
X68293615Y-29925517D01*
X68372288Y-29908794D01*
X68393464Y-29899366D01*
X68540722Y-29833803D01*
X68540724Y-29833802D01*
X68546752Y-29831118D01*
X68701253Y-29718866D01*
X68705675Y-29713955D01*
X68824621Y-29581852D01*
X68824622Y-29581851D01*
X68829040Y-29576944D01*
X68861512Y-29520700D01*
X68921224Y-29417278D01*
X68921226Y-29417273D01*
X68924527Y-29411556D01*
X68924592Y-29411355D01*
X68969034Y-29359067D01*
X69011965Y-29341163D01*
X69170644Y-29307435D01*
X69176675Y-29304750D01*
X69339078Y-29232444D01*
X69339080Y-29232443D01*
X69345108Y-29229759D01*
X69499609Y-29117507D01*
X69522842Y-29091704D01*
X69622977Y-28980493D01*
X69622978Y-28980492D01*
X69627396Y-28975585D01*
X69722883Y-28810197D01*
X69781898Y-28628569D01*
X69785432Y-28594951D01*
X69801170Y-28445206D01*
X69801860Y-28438641D01*
X69789831Y-28324190D01*
X69782588Y-28255276D01*
X69782588Y-28255274D01*
X69781898Y-28248713D01*
X69722883Y-28067085D01*
X69627396Y-27901697D01*
X69499609Y-27759775D01*
X69345108Y-27647523D01*
X69339080Y-27644839D01*
X69339078Y-27644838D01*
X69176675Y-27572532D01*
X69176674Y-27572532D01*
X69170644Y-27569847D01*
X69077243Y-27549994D01*
X68990300Y-27531513D01*
X68990295Y-27531513D01*
X68983843Y-27530141D01*
X68792869Y-27530141D01*
X68786417Y-27531513D01*
X68786412Y-27531513D01*
X68699468Y-27549994D01*
X68606068Y-27569847D01*
X68600038Y-27572532D01*
X68600037Y-27572532D01*
X68437634Y-27644838D01*
X68437632Y-27644839D01*
X68431604Y-27647523D01*
X68277103Y-27759775D01*
X68149316Y-27901697D01*
X68146015Y-27907415D01*
X68057132Y-28061363D01*
X68057130Y-28061368D01*
X68053829Y-28067085D01*
X68053764Y-28067286D01*
X68009322Y-28119574D01*
X67966391Y-28137478D01*
X67807712Y-28171206D01*
X67801682Y-28173891D01*
X67801681Y-28173891D01*
X67639278Y-28246197D01*
X67639276Y-28246198D01*
X67633248Y-28248882D01*
X67478747Y-28361134D01*
X67474326Y-28366044D01*
X67474325Y-28366045D01*
X67414871Y-28432076D01*
X67350960Y-28503056D01*
X67309082Y-28575591D01*
X67264875Y-28652160D01*
X67255473Y-28668444D01*
X67196458Y-28850072D01*
X67195768Y-28856633D01*
X67195768Y-28856635D01*
X67185492Y-28954408D01*
X67158479Y-29020065D01*
X67100257Y-29060695D01*
X67086385Y-29064483D01*
X67007712Y-29081206D01*
X67001682Y-29083891D01*
X67001681Y-29083891D01*
X66839278Y-29156197D01*
X66839276Y-29156198D01*
X66833248Y-29158882D01*
X66827907Y-29162762D01*
X66827906Y-29162763D01*
X66803953Y-29180166D01*
X66678747Y-29271134D01*
X66674326Y-29276044D01*
X66674325Y-29276045D01*
X66664404Y-29287064D01*
X66550960Y-29413056D01*
X66455473Y-29578444D01*
X66396458Y-29760072D01*
X66395768Y-29766633D01*
X66395768Y-29766635D01*
X66394665Y-29777133D01*
X66376496Y-29950000D01*
X63218256Y-29950000D01*
X63289527Y-29826556D01*
X63348542Y-29644928D01*
X63355172Y-29581852D01*
X63367814Y-29461565D01*
X63368504Y-29455000D01*
X63357168Y-29347141D01*
X63349232Y-29271635D01*
X63349232Y-29271633D01*
X63348542Y-29265072D01*
X63289527Y-29083444D01*
X63232327Y-28984371D01*
X63215589Y-28915376D01*
X63232327Y-28858371D01*
X63237119Y-28850072D01*
X63263769Y-28803912D01*
X63276246Y-28782302D01*
X63276247Y-28782301D01*
X63279550Y-28776579D01*
X63338565Y-28594951D01*
X63347623Y-28508774D01*
X63357837Y-28411588D01*
X63358527Y-28405023D01*
X63345553Y-28281585D01*
X63339255Y-28221658D01*
X63339255Y-28221656D01*
X63338565Y-28215095D01*
X63279550Y-28033467D01*
X63184063Y-27868079D01*
X63093854Y-27767891D01*
X63060698Y-27731068D01*
X63060697Y-27731067D01*
X63056276Y-27726157D01*
X62948046Y-27647523D01*
X62907117Y-27617786D01*
X62907116Y-27617785D01*
X62901775Y-27613905D01*
X62895745Y-27611220D01*
X62891791Y-27609460D01*
X62886518Y-27607112D01*
X62832422Y-27561133D01*
X62811772Y-27493207D01*
X62831123Y-27424898D01*
X62886517Y-27376898D01*
X63051952Y-27303242D01*
X63051954Y-27303241D01*
X63057982Y-27300557D01*
X63101922Y-27268633D01*
X63142666Y-27239030D01*
X63212483Y-27188305D01*
X63254541Y-27141595D01*
X63335851Y-27051291D01*
X63335852Y-27051290D01*
X63340270Y-27046383D01*
X63422239Y-26904409D01*
X63432453Y-26886718D01*
X63432454Y-26886717D01*
X63435757Y-26880995D01*
X63494772Y-26699367D01*
X63496521Y-26682731D01*
X63514044Y-26516004D01*
X63514734Y-26509439D01*
X63508128Y-26446585D01*
X63495462Y-26326074D01*
X63495462Y-26326072D01*
X63494772Y-26319511D01*
X63435757Y-26137883D01*
X63420347Y-26111191D01*
X63392520Y-26062994D01*
X63375782Y-25993998D01*
X63392520Y-25936994D01*
X63421223Y-25887279D01*
X63421224Y-25887278D01*
X63424527Y-25881556D01*
X63472500Y-25733912D01*
X64200408Y-25733912D01*
X64201098Y-25740477D01*
X64214493Y-25867920D01*
X64220370Y-25923840D01*
X64279385Y-26105468D01*
X64282688Y-26111190D01*
X64282689Y-26111191D01*
X64312876Y-26163477D01*
X64364684Y-26253209D01*
X64365219Y-26254136D01*
X64381957Y-26323131D01*
X64365219Y-26380136D01*
X64320913Y-26456877D01*
X64284585Y-26519798D01*
X64225570Y-26701426D01*
X64224880Y-26707987D01*
X64224880Y-26707989D01*
X64211796Y-26832474D01*
X64205608Y-26891354D01*
X64206298Y-26897919D01*
X64221071Y-27038472D01*
X64225570Y-27081282D01*
X64284585Y-27262910D01*
X64287888Y-27268632D01*
X64287889Y-27268633D01*
X64307870Y-27303241D01*
X64380072Y-27428298D01*
X64384490Y-27433205D01*
X64384491Y-27433206D01*
X64428877Y-27482502D01*
X64507859Y-27570220D01*
X64513199Y-27574100D01*
X64513207Y-27574107D01*
X64537690Y-27591894D01*
X64581045Y-27648116D01*
X64587121Y-27718852D01*
X64565566Y-27767891D01*
X64565380Y-27768147D01*
X64560960Y-27773056D01*
X64465473Y-27938444D01*
X64406458Y-28120072D01*
X64405768Y-28126633D01*
X64405768Y-28126635D01*
X64389457Y-28281823D01*
X64386496Y-28310000D01*
X64387186Y-28316565D01*
X64401092Y-28448870D01*
X64406458Y-28499928D01*
X64465473Y-28681556D01*
X64560960Y-28846944D01*
X64688747Y-28988866D01*
X64713314Y-29006715D01*
X64831534Y-29092607D01*
X64843248Y-29101118D01*
X64849276Y-29103802D01*
X64849278Y-29103803D01*
X65011681Y-29176109D01*
X65017712Y-29178794D01*
X65084245Y-29192936D01*
X65198056Y-29217128D01*
X65198061Y-29217128D01*
X65204513Y-29218500D01*
X65395487Y-29218500D01*
X65401939Y-29217128D01*
X65401944Y-29217128D01*
X65515755Y-29192936D01*
X65582288Y-29178794D01*
X65588319Y-29176109D01*
X65750722Y-29103803D01*
X65750724Y-29103802D01*
X65756752Y-29101118D01*
X65768467Y-29092607D01*
X65886686Y-29006715D01*
X65911253Y-28988866D01*
X66039040Y-28846944D01*
X66134527Y-28681556D01*
X66193542Y-28499928D01*
X66198909Y-28448870D01*
X66212814Y-28316565D01*
X66213504Y-28310000D01*
X66210543Y-28281823D01*
X66194232Y-28126635D01*
X66194232Y-28126633D01*
X66193542Y-28120072D01*
X66134527Y-27938444D01*
X66039040Y-27773056D01*
X66034390Y-27767891D01*
X65915675Y-27636045D01*
X65915674Y-27636044D01*
X65911253Y-27631134D01*
X65905913Y-27627254D01*
X65905905Y-27627247D01*
X65881422Y-27609460D01*
X65838067Y-27553238D01*
X65831991Y-27482502D01*
X65853546Y-27433463D01*
X65853733Y-27433206D01*
X65858152Y-27428298D01*
X65930354Y-27303241D01*
X65950335Y-27268633D01*
X65950336Y-27268632D01*
X65953639Y-27262910D01*
X66012654Y-27081282D01*
X66017154Y-27038472D01*
X66031926Y-26897919D01*
X66032616Y-26891354D01*
X66026428Y-26832474D01*
X66013344Y-26707989D01*
X66013344Y-26707987D01*
X66012654Y-26701426D01*
X65953639Y-26519798D01*
X65867805Y-26371129D01*
X65851067Y-26302135D01*
X65867805Y-26245130D01*
X65945135Y-26111191D01*
X65945136Y-26111190D01*
X65948439Y-26105468D01*
X66007454Y-25923840D01*
X66013332Y-25867920D01*
X66026726Y-25740477D01*
X66027416Y-25733912D01*
X66020327Y-25666461D01*
X66008144Y-25550547D01*
X66008144Y-25550545D01*
X66007454Y-25543984D01*
X65948439Y-25362356D01*
X65927816Y-25326635D01*
X65870969Y-25228175D01*
X65852952Y-25196968D01*
X65798353Y-25136329D01*
X65729587Y-25059957D01*
X65729586Y-25059956D01*
X65725165Y-25055046D01*
X65612316Y-24973056D01*
X65576006Y-24946675D01*
X65576005Y-24946674D01*
X65570664Y-24942794D01*
X65564636Y-24940110D01*
X65564634Y-24940109D01*
X65402231Y-24867803D01*
X65402230Y-24867803D01*
X65396200Y-24865118D01*
X65295987Y-24843817D01*
X65215856Y-24826784D01*
X65215851Y-24826784D01*
X65209399Y-24825412D01*
X65018425Y-24825412D01*
X65011973Y-24826784D01*
X65011968Y-24826784D01*
X64931837Y-24843817D01*
X64831624Y-24865118D01*
X64825594Y-24867803D01*
X64825593Y-24867803D01*
X64663190Y-24940109D01*
X64663188Y-24940110D01*
X64657160Y-24942794D01*
X64651819Y-24946674D01*
X64651818Y-24946675D01*
X64615508Y-24973056D01*
X64502659Y-25055046D01*
X64498238Y-25059956D01*
X64498237Y-25059957D01*
X64429472Y-25136329D01*
X64374872Y-25196968D01*
X64356855Y-25228175D01*
X64300009Y-25326635D01*
X64279385Y-25362356D01*
X64220370Y-25543984D01*
X64219680Y-25550545D01*
X64219680Y-25550547D01*
X64207497Y-25666461D01*
X64200408Y-25733912D01*
X63472500Y-25733912D01*
X63483542Y-25699928D01*
X63487060Y-25666461D01*
X63502814Y-25516565D01*
X63503504Y-25510000D01*
X63499842Y-25475156D01*
X63484232Y-25326635D01*
X63484232Y-25326633D01*
X63483542Y-25320072D01*
X63424527Y-25138444D01*
X63409980Y-25113247D01*
X63353925Y-25016158D01*
X63329040Y-24973056D01*
X63317058Y-24959748D01*
X63205675Y-24836045D01*
X63205674Y-24836044D01*
X63201253Y-24831134D01*
X63046752Y-24718882D01*
X63040724Y-24716198D01*
X63040722Y-24716197D01*
X62878319Y-24643891D01*
X62878318Y-24643891D01*
X62872288Y-24641206D01*
X62778887Y-24621353D01*
X62691944Y-24602872D01*
X62691939Y-24602872D01*
X62685487Y-24601500D01*
X62494513Y-24601500D01*
X62488061Y-24602872D01*
X62488056Y-24602872D01*
X62401112Y-24621353D01*
X62307712Y-24641206D01*
X62301682Y-24643891D01*
X62301681Y-24643891D01*
X62139278Y-24716197D01*
X62139276Y-24716198D01*
X62133248Y-24718882D01*
X61978747Y-24831134D01*
X61974326Y-24836044D01*
X61974325Y-24836045D01*
X61862943Y-24959748D01*
X61850960Y-24973056D01*
X61826075Y-25016158D01*
X61770021Y-25113247D01*
X61755473Y-25138444D01*
X61696458Y-25320072D01*
X61695768Y-25326633D01*
X61695768Y-25326635D01*
X61680158Y-25475156D01*
X61676496Y-25510000D01*
X61677186Y-25516565D01*
X61692941Y-25666461D01*
X61696458Y-25699928D01*
X61755473Y-25881556D01*
X61758776Y-25887278D01*
X61758777Y-25887279D01*
X61798710Y-25956445D01*
X61815448Y-26025441D01*
X61798710Y-26082445D01*
X61782114Y-26111191D01*
X61766703Y-26137883D01*
X61707688Y-26319511D01*
X61706998Y-26326072D01*
X61706998Y-26326074D01*
X61694332Y-26446585D01*
X61687726Y-26509439D01*
X61688416Y-26516004D01*
X61705940Y-26682731D01*
X61707688Y-26699367D01*
X61766703Y-26880995D01*
X61770006Y-26886717D01*
X61770007Y-26886718D01*
X61780221Y-26904409D01*
X61862190Y-27046383D01*
X61866608Y-27051290D01*
X61866609Y-27051291D01*
X61947919Y-27141595D01*
X61989977Y-27188305D01*
X62059794Y-27239030D01*
X62100539Y-27268633D01*
X62144478Y-27300557D01*
X62150505Y-27303240D01*
X62150506Y-27303241D01*
X62153432Y-27304544D01*
X62159735Y-27307350D01*
X62213831Y-27353329D01*
X62234481Y-27421255D01*
X62215130Y-27489564D01*
X62159736Y-27537564D01*
X61994301Y-27611220D01*
X61994299Y-27611221D01*
X61988271Y-27613905D01*
X61982930Y-27617785D01*
X61982929Y-27617786D01*
X61942000Y-27647523D01*
X61833770Y-27726157D01*
X61829349Y-27731067D01*
X61829348Y-27731068D01*
X61796193Y-27767891D01*
X61705983Y-27868079D01*
X61610496Y-28033467D01*
X61551481Y-28215095D01*
X61550791Y-28221656D01*
X61550791Y-28221658D01*
X61544493Y-28281585D01*
X61531519Y-28405023D01*
X57573500Y-28405023D01*
X57573500Y-28211866D01*
X57566745Y-28149684D01*
X57515615Y-28013295D01*
X57428261Y-27896739D01*
X57311705Y-27809385D01*
X57175316Y-27758255D01*
X57113134Y-27751500D01*
X55016866Y-27751500D01*
X54954684Y-27758255D01*
X54818295Y-27809385D01*
X54701739Y-27896739D01*
X54614385Y-28013295D01*
X54563255Y-28149684D01*
X54556500Y-28211866D01*
X54556500Y-31508134D01*
X46373500Y-31508134D01*
X46373500Y-28211866D01*
X46366745Y-28149684D01*
X46315615Y-28013295D01*
X46228261Y-27896739D01*
X46111705Y-27809385D01*
X45975316Y-27758255D01*
X45913134Y-27751500D01*
X43816866Y-27751500D01*
X43754684Y-27758255D01*
X43618295Y-27809385D01*
X43501739Y-27896739D01*
X43414385Y-28013295D01*
X43363255Y-28149684D01*
X43356500Y-28211866D01*
X43356500Y-31508134D01*
X18488500Y-31508134D01*
X18488500Y-29805389D01*
X18508502Y-29737268D01*
X18562158Y-29690775D01*
X18632432Y-29680671D01*
X18697012Y-29710165D01*
X18721585Y-29738990D01*
X18776674Y-29827840D01*
X18910466Y-29969322D01*
X18915696Y-29972984D01*
X18915697Y-29972985D01*
X18949783Y-29996852D01*
X19069975Y-30081011D01*
X19075838Y-30083548D01*
X19242825Y-30155810D01*
X19242829Y-30155811D01*
X19248684Y-30158345D01*
X19254931Y-30159650D01*
X19254934Y-30159651D01*
X19434557Y-30197176D01*
X19434562Y-30197177D01*
X19439293Y-30198165D01*
X19445685Y-30198500D01*
X19588663Y-30198500D01*
X19657951Y-30191462D01*
X19727378Y-30184410D01*
X19727379Y-30184410D01*
X19733727Y-30183765D01*
X19820080Y-30156704D01*
X19913451Y-30127444D01*
X19913456Y-30127442D01*
X19919541Y-30125535D01*
X20006475Y-30077346D01*
X20084271Y-30034223D01*
X20084274Y-30034221D01*
X20089850Y-30031130D01*
X20094691Y-30026981D01*
X20094695Y-30026978D01*
X20232855Y-29908560D01*
X20237698Y-29904409D01*
X20357046Y-29750547D01*
X20362732Y-29738993D01*
X20440200Y-29581556D01*
X20443018Y-29575829D01*
X20476202Y-29448435D01*
X20490492Y-29393575D01*
X20490492Y-29393572D01*
X20492102Y-29387393D01*
X20497848Y-29277749D01*
X20501959Y-29199317D01*
X20501959Y-29199313D01*
X20502293Y-29192936D01*
X20473175Y-29000401D01*
X20470972Y-28994415D01*
X20470971Y-28994409D01*
X20408140Y-28823640D01*
X20408138Y-28823635D01*
X20405937Y-28817654D01*
X20325101Y-28687279D01*
X20306688Y-28657582D01*
X20306687Y-28657581D01*
X20303326Y-28652160D01*
X20249227Y-28594951D01*
X20173919Y-28515315D01*
X20169534Y-28510678D01*
X20163148Y-28506206D01*
X20015259Y-28402654D01*
X20010025Y-28398989D01*
X19922547Y-28361134D01*
X19837175Y-28324190D01*
X19837171Y-28324189D01*
X19831316Y-28321655D01*
X19825069Y-28320350D01*
X19825066Y-28320349D01*
X19645443Y-28282824D01*
X19645438Y-28282823D01*
X19640707Y-28281835D01*
X19634315Y-28281500D01*
X19491337Y-28281500D01*
X19422049Y-28288538D01*
X19352622Y-28295590D01*
X19352621Y-28295590D01*
X19346273Y-28296235D01*
X19289939Y-28313889D01*
X19166549Y-28352556D01*
X19166544Y-28352558D01*
X19160459Y-28354465D01*
X19084713Y-28396452D01*
X18995729Y-28445777D01*
X18995726Y-28445779D01*
X18990150Y-28448870D01*
X18985309Y-28453019D01*
X18985305Y-28453022D01*
X18918037Y-28510678D01*
X18842302Y-28575591D01*
X18838391Y-28580633D01*
X18838390Y-28580634D01*
X18743095Y-28703487D01*
X18722954Y-28729453D01*
X18720893Y-28733642D01*
X18668289Y-28780403D01*
X18598149Y-28791396D01*
X18533200Y-28762723D01*
X18494063Y-28703487D01*
X18488500Y-28666461D01*
X18488500Y-26805389D01*
X18508502Y-26737268D01*
X18562158Y-26690775D01*
X18632432Y-26680671D01*
X18697012Y-26710165D01*
X18721585Y-26738990D01*
X18776674Y-26827840D01*
X18781055Y-26832473D01*
X18781056Y-26832474D01*
X18906081Y-26964685D01*
X18910466Y-26969322D01*
X19069975Y-27081011D01*
X19111839Y-27099127D01*
X19242825Y-27155810D01*
X19242829Y-27155811D01*
X19248684Y-27158345D01*
X19254931Y-27159650D01*
X19254934Y-27159651D01*
X19434557Y-27197176D01*
X19434562Y-27197177D01*
X19439293Y-27198165D01*
X19445685Y-27198500D01*
X19588663Y-27198500D01*
X19661111Y-27191141D01*
X19727378Y-27184410D01*
X19727379Y-27184410D01*
X19733727Y-27183765D01*
X19814843Y-27158345D01*
X19913451Y-27127444D01*
X19913456Y-27127442D01*
X19919541Y-27125535D01*
X20034575Y-27061770D01*
X20056144Y-27049814D01*
X24282046Y-27049814D01*
X24291928Y-27062303D01*
X24347041Y-27099127D01*
X24357146Y-27104614D01*
X24550267Y-27187586D01*
X24561210Y-27191141D01*
X24766209Y-27237528D01*
X24777618Y-27239030D01*
X24987645Y-27247281D01*
X24999129Y-27246679D01*
X25207145Y-27216519D01*
X25218328Y-27213834D01*
X25417362Y-27146271D01*
X25427865Y-27141595D01*
X25570404Y-27061770D01*
X25580266Y-27051694D01*
X25577311Y-27044022D01*
X24942811Y-26409521D01*
X24928868Y-26401908D01*
X24927034Y-26402039D01*
X24920420Y-26406290D01*
X24288239Y-27038472D01*
X24282046Y-27049814D01*
X20056144Y-27049814D01*
X20084271Y-27034223D01*
X20084274Y-27034221D01*
X20089850Y-27031130D01*
X20094691Y-27026981D01*
X20094695Y-27026978D01*
X20232855Y-26908560D01*
X20237698Y-26904409D01*
X20357046Y-26750547D01*
X20362732Y-26738993D01*
X20440200Y-26581556D01*
X20443018Y-26575829D01*
X20457613Y-26519798D01*
X20490492Y-26393575D01*
X20490492Y-26393572D01*
X20492102Y-26387393D01*
X20497360Y-26287064D01*
X20501959Y-26199317D01*
X20501959Y-26199313D01*
X20502293Y-26192936D01*
X20474861Y-26011548D01*
X23719124Y-26011548D01*
X23732871Y-26221279D01*
X23734672Y-26232649D01*
X23786409Y-26436363D01*
X23790250Y-26447210D01*
X23878247Y-26638092D01*
X23883996Y-26648049D01*
X23905112Y-26677927D01*
X23915702Y-26686316D01*
X23929001Y-26679288D01*
X24557979Y-26050311D01*
X24564356Y-26038632D01*
X25294408Y-26038632D01*
X25294539Y-26040466D01*
X25298790Y-26047080D01*
X25932611Y-26680900D01*
X25944986Y-26687657D01*
X25951566Y-26682731D01*
X26034095Y-26535365D01*
X26038771Y-26524862D01*
X26106334Y-26325828D01*
X26109019Y-26314645D01*
X26139475Y-26104588D01*
X26140105Y-26097205D01*
X26141572Y-26041204D01*
X26141450Y-26037500D01*
X28798389Y-26037500D01*
X28816796Y-26247894D01*
X28818220Y-26253207D01*
X28818220Y-26253209D01*
X28834917Y-26315521D01*
X28871458Y-26451895D01*
X28873780Y-26456876D01*
X28873781Y-26456877D01*
X28926368Y-26569649D01*
X28960714Y-26643305D01*
X29081852Y-26816309D01*
X29231191Y-26965648D01*
X29235699Y-26968805D01*
X29235702Y-26968807D01*
X29399685Y-27083629D01*
X29404194Y-27086786D01*
X29409176Y-27089109D01*
X29409181Y-27089112D01*
X29552217Y-27155810D01*
X29595605Y-27176042D01*
X29600913Y-27177464D01*
X29600915Y-27177465D01*
X29794291Y-27229280D01*
X29794293Y-27229280D01*
X29799606Y-27230704D01*
X30010000Y-27249111D01*
X30220394Y-27230704D01*
X30225707Y-27229280D01*
X30225709Y-27229280D01*
X30419085Y-27177465D01*
X30419087Y-27177464D01*
X30424395Y-27176042D01*
X30467783Y-27155810D01*
X30610819Y-27089112D01*
X30610824Y-27089109D01*
X30615806Y-27086786D01*
X30620315Y-27083629D01*
X30784298Y-26968807D01*
X30784301Y-26968805D01*
X30788809Y-26965648D01*
X30938148Y-26816309D01*
X31059286Y-26643305D01*
X31093633Y-26569649D01*
X31146219Y-26456877D01*
X31146220Y-26456876D01*
X31148542Y-26451895D01*
X31185084Y-26315521D01*
X31201780Y-26253209D01*
X31201780Y-26253207D01*
X31203204Y-26247894D01*
X31221611Y-26037500D01*
X31203204Y-25827106D01*
X31193636Y-25791396D01*
X31149965Y-25628415D01*
X31149964Y-25628413D01*
X31148542Y-25623105D01*
X31136881Y-25598097D01*
X31061609Y-25436676D01*
X31061607Y-25436673D01*
X31059286Y-25431695D01*
X30938148Y-25258691D01*
X30788809Y-25109352D01*
X30784301Y-25106195D01*
X30784298Y-25106193D01*
X30620315Y-24991371D01*
X30620312Y-24991369D01*
X30615806Y-24988214D01*
X30610824Y-24985891D01*
X30610819Y-24985888D01*
X30429377Y-24901281D01*
X30429376Y-24901281D01*
X30424395Y-24898958D01*
X30419087Y-24897536D01*
X30419085Y-24897535D01*
X30225709Y-24845720D01*
X30225707Y-24845720D01*
X30220394Y-24844296D01*
X30010000Y-24825889D01*
X29799606Y-24844296D01*
X29794293Y-24845720D01*
X29794291Y-24845720D01*
X29600915Y-24897535D01*
X29600913Y-24897536D01*
X29595605Y-24898958D01*
X29590624Y-24901280D01*
X29590623Y-24901281D01*
X29409176Y-24985891D01*
X29409173Y-24985893D01*
X29404195Y-24988214D01*
X29231191Y-25109352D01*
X29081852Y-25258691D01*
X28960714Y-25431695D01*
X28958393Y-25436673D01*
X28958391Y-25436676D01*
X28883119Y-25598097D01*
X28871458Y-25623105D01*
X28870036Y-25628413D01*
X28870035Y-25628415D01*
X28826364Y-25791396D01*
X28816796Y-25827106D01*
X28798389Y-26037500D01*
X26141450Y-26037500D01*
X26141329Y-26033805D01*
X26121908Y-25822445D01*
X26119811Y-25811130D01*
X26062758Y-25608836D01*
X26058636Y-25598097D01*
X25965671Y-25409583D01*
X25959665Y-25399781D01*
X25956510Y-25395556D01*
X25945251Y-25387106D01*
X25932834Y-25393877D01*
X25302021Y-26024689D01*
X25294408Y-26038632D01*
X24564356Y-26038632D01*
X24565592Y-26036368D01*
X24565461Y-26034534D01*
X24561210Y-26027920D01*
X23925603Y-25392314D01*
X23913228Y-25385557D01*
X23907262Y-25390023D01*
X23813256Y-25568698D01*
X23808851Y-25579332D01*
X23746522Y-25780063D01*
X23744130Y-25791317D01*
X23719425Y-26000047D01*
X23719124Y-26011548D01*
X20474861Y-26011548D01*
X20473175Y-26000401D01*
X20470972Y-25994415D01*
X20470971Y-25994409D01*
X20408140Y-25823640D01*
X20408138Y-25823635D01*
X20405937Y-25817654D01*
X20323666Y-25684965D01*
X20306688Y-25657582D01*
X20306687Y-25657581D01*
X20303326Y-25652160D01*
X20265496Y-25612155D01*
X20173919Y-25515315D01*
X20169534Y-25510678D01*
X20156570Y-25501600D01*
X20015259Y-25402654D01*
X20010025Y-25398989D01*
X19925371Y-25362356D01*
X19837175Y-25324190D01*
X19837171Y-25324189D01*
X19831316Y-25321655D01*
X19825069Y-25320350D01*
X19825066Y-25320349D01*
X19645443Y-25282824D01*
X19645438Y-25282823D01*
X19640707Y-25281835D01*
X19634315Y-25281500D01*
X19491337Y-25281500D01*
X19422049Y-25288538D01*
X19352622Y-25295590D01*
X19352621Y-25295590D01*
X19346273Y-25296235D01*
X19297013Y-25311672D01*
X19166549Y-25352556D01*
X19166544Y-25352558D01*
X19160459Y-25354465D01*
X19089359Y-25393877D01*
X18995729Y-25445777D01*
X18995726Y-25445779D01*
X18990150Y-25448870D01*
X18985309Y-25453019D01*
X18985305Y-25453022D01*
X18871521Y-25550547D01*
X18842302Y-25575591D01*
X18838391Y-25580633D01*
X18838390Y-25580634D01*
X18752372Y-25691528D01*
X18722954Y-25729453D01*
X18720893Y-25733642D01*
X18668289Y-25780403D01*
X18598149Y-25791396D01*
X18533200Y-25762723D01*
X18494063Y-25703487D01*
X18488500Y-25666461D01*
X18488500Y-25024308D01*
X24280921Y-25024308D01*
X24284407Y-25032696D01*
X24917189Y-25665479D01*
X24931132Y-25673092D01*
X24932966Y-25672961D01*
X24939580Y-25668710D01*
X25571700Y-25036589D01*
X25578457Y-25024214D01*
X25572427Y-25016158D01*
X25484972Y-24960978D01*
X25474721Y-24955754D01*
X25279497Y-24877868D01*
X25268469Y-24874601D01*
X25062322Y-24833596D01*
X25050875Y-24832393D01*
X24840716Y-24829642D01*
X24829236Y-24830545D01*
X24622087Y-24866140D01*
X24610979Y-24869117D01*
X24413782Y-24941866D01*
X24403400Y-24946818D01*
X24290519Y-25013975D01*
X24280921Y-25024308D01*
X18488500Y-25024308D01*
X18488500Y-24673239D01*
X33018129Y-24673239D01*
X33018426Y-24678392D01*
X33018426Y-24678395D01*
X33020170Y-24708632D01*
X33031357Y-24902661D01*
X33032492Y-24907698D01*
X33032493Y-24907704D01*
X33077936Y-25109352D01*
X33081878Y-25126842D01*
X33168336Y-25339761D01*
X33171033Y-25344162D01*
X33171034Y-25344164D01*
X33220628Y-25425094D01*
X33288408Y-25535700D01*
X33438869Y-25709398D01*
X33442844Y-25712698D01*
X33442847Y-25712701D01*
X33468396Y-25733912D01*
X33615679Y-25856189D01*
X33814090Y-25972131D01*
X33818910Y-25973971D01*
X33818915Y-25973974D01*
X33960177Y-26027916D01*
X34028774Y-26054110D01*
X34033842Y-26055141D01*
X34033845Y-26055142D01*
X34144534Y-26077662D01*
X34253963Y-26099926D01*
X34259136Y-26100116D01*
X34259139Y-26100116D01*
X34478448Y-26108157D01*
X34478452Y-26108157D01*
X34483612Y-26108346D01*
X34488732Y-26107690D01*
X34488734Y-26107690D01*
X34706425Y-26079804D01*
X34706428Y-26079803D01*
X34711552Y-26079147D01*
X34718139Y-26077171D01*
X34926710Y-26014596D01*
X34931663Y-26013110D01*
X35138033Y-25912011D01*
X35142845Y-25908579D01*
X35320916Y-25781562D01*
X35325119Y-25778564D01*
X35341016Y-25762723D01*
X35484237Y-25620000D01*
X35487898Y-25616352D01*
X35514500Y-25579332D01*
X35618979Y-25433933D01*
X35621997Y-25429733D01*
X35638446Y-25396452D01*
X35676195Y-25320072D01*
X35723816Y-25223717D01*
X35751463Y-25132721D01*
X35789117Y-25008791D01*
X35789118Y-25008785D01*
X35790621Y-25003839D01*
X35813869Y-24827251D01*
X35820179Y-24779323D01*
X35820179Y-24779319D01*
X35820616Y-24776002D01*
X35822056Y-24717080D01*
X35822208Y-24710865D01*
X35822208Y-24710861D01*
X35822290Y-24707500D01*
X35819473Y-24673239D01*
X37003129Y-24673239D01*
X37003426Y-24678392D01*
X37003426Y-24678395D01*
X37005170Y-24708632D01*
X37016357Y-24902661D01*
X37017492Y-24907698D01*
X37017493Y-24907704D01*
X37062936Y-25109352D01*
X37066878Y-25126842D01*
X37153336Y-25339761D01*
X37156033Y-25344162D01*
X37156034Y-25344164D01*
X37205628Y-25425094D01*
X37273408Y-25535700D01*
X37423869Y-25709398D01*
X37427844Y-25712698D01*
X37427847Y-25712701D01*
X37453396Y-25733912D01*
X37600679Y-25856189D01*
X37799090Y-25972131D01*
X37803910Y-25973971D01*
X37803915Y-25973974D01*
X37945177Y-26027916D01*
X38013774Y-26054110D01*
X38018842Y-26055141D01*
X38018845Y-26055142D01*
X38129534Y-26077662D01*
X38238963Y-26099926D01*
X38244136Y-26100116D01*
X38244139Y-26100116D01*
X38463448Y-26108157D01*
X38463452Y-26108157D01*
X38468612Y-26108346D01*
X38473732Y-26107690D01*
X38473734Y-26107690D01*
X38691425Y-26079804D01*
X38691428Y-26079803D01*
X38696552Y-26079147D01*
X38703139Y-26077171D01*
X38911710Y-26014596D01*
X38916663Y-26013110D01*
X39123033Y-25912011D01*
X39127845Y-25908579D01*
X39194737Y-25860865D01*
X40131464Y-25860865D01*
X40136745Y-25867920D01*
X40309846Y-25969071D01*
X40319132Y-25973521D01*
X40524083Y-26051783D01*
X40533981Y-26054659D01*
X40748962Y-26098397D01*
X40759190Y-26099616D01*
X40978425Y-26107656D01*
X40988711Y-26107189D01*
X41206320Y-26079313D01*
X41216398Y-26077171D01*
X41426527Y-26014129D01*
X41436125Y-26010368D01*
X41633138Y-25913852D01*
X41641983Y-25908579D01*
X41697209Y-25869186D01*
X41705609Y-25858487D01*
X41698622Y-25845333D01*
X41354889Y-25501600D01*
X56211096Y-25501600D01*
X56211786Y-25508165D01*
X56229107Y-25672961D01*
X56231058Y-25691528D01*
X56290073Y-25873156D01*
X56293376Y-25878878D01*
X56293377Y-25878879D01*
X56310774Y-25909011D01*
X56385560Y-26038544D01*
X56389978Y-26043451D01*
X56389979Y-26043452D01*
X56469852Y-26132160D01*
X56513347Y-26180466D01*
X56667848Y-26292718D01*
X56673876Y-26295402D01*
X56673878Y-26295403D01*
X56742767Y-26326074D01*
X56842312Y-26370394D01*
X56922286Y-26387393D01*
X57022656Y-26408728D01*
X57022661Y-26408728D01*
X57029113Y-26410100D01*
X57220087Y-26410100D01*
X57226539Y-26408728D01*
X57226544Y-26408728D01*
X57326914Y-26387393D01*
X57406888Y-26370394D01*
X57506433Y-26326074D01*
X57575322Y-26295403D01*
X57575324Y-26295402D01*
X57581352Y-26292718D01*
X57735853Y-26180466D01*
X57779348Y-26132160D01*
X57859221Y-26043452D01*
X57859222Y-26043451D01*
X57863640Y-26038544D01*
X57938426Y-25909011D01*
X57955823Y-25878879D01*
X57955824Y-25878878D01*
X57959127Y-25873156D01*
X58018142Y-25691528D01*
X58020094Y-25672961D01*
X58037414Y-25508165D01*
X58038104Y-25501600D01*
X58028433Y-25409583D01*
X58018832Y-25318235D01*
X58018832Y-25318233D01*
X58018142Y-25311672D01*
X57959127Y-25130044D01*
X57949431Y-25113249D01*
X57889121Y-25008791D01*
X57863640Y-24964656D01*
X57843956Y-24942794D01*
X57740275Y-24827645D01*
X57740274Y-24827644D01*
X57735853Y-24822734D01*
X57598255Y-24722763D01*
X57586694Y-24714363D01*
X57586693Y-24714362D01*
X57581352Y-24710482D01*
X57575324Y-24707798D01*
X57575322Y-24707797D01*
X57412919Y-24635491D01*
X57412918Y-24635491D01*
X57406888Y-24632806D01*
X57313487Y-24612953D01*
X57226544Y-24594472D01*
X57226539Y-24594472D01*
X57220087Y-24593100D01*
X57029113Y-24593100D01*
X57022661Y-24594472D01*
X57022656Y-24594472D01*
X56935713Y-24612953D01*
X56842312Y-24632806D01*
X56836282Y-24635491D01*
X56836281Y-24635491D01*
X56673878Y-24707797D01*
X56673876Y-24707798D01*
X56667848Y-24710482D01*
X56662507Y-24714362D01*
X56662506Y-24714363D01*
X56650945Y-24722763D01*
X56513347Y-24822734D01*
X56508926Y-24827644D01*
X56508925Y-24827645D01*
X56405245Y-24942794D01*
X56385560Y-24964656D01*
X56360079Y-25008791D01*
X56299770Y-25113249D01*
X56290073Y-25130044D01*
X56231058Y-25311672D01*
X56230368Y-25318233D01*
X56230368Y-25318235D01*
X56220767Y-25409583D01*
X56211096Y-25501600D01*
X41354889Y-25501600D01*
X40932811Y-25079521D01*
X40918868Y-25071908D01*
X40917034Y-25072039D01*
X40910420Y-25076290D01*
X40138221Y-25848490D01*
X40131464Y-25860865D01*
X39194737Y-25860865D01*
X39305916Y-25781562D01*
X39310119Y-25778564D01*
X39326016Y-25762723D01*
X39469237Y-25620000D01*
X39472898Y-25616352D01*
X39499500Y-25579332D01*
X39507141Y-25568698D01*
X39560052Y-25495064D01*
X39616046Y-25451417D01*
X39686749Y-25444971D01*
X39746907Y-25475156D01*
X39768555Y-25494741D01*
X39777331Y-25490958D01*
X40547979Y-24720311D01*
X40554356Y-24708632D01*
X41284408Y-24708632D01*
X41284539Y-24710466D01*
X41288790Y-24717080D01*
X42058425Y-25486714D01*
X42070431Y-25493270D01*
X42082170Y-25484302D01*
X42118549Y-25433674D01*
X42123860Y-25424835D01*
X42221056Y-25228175D01*
X42224854Y-25218582D01*
X42288628Y-25008677D01*
X42290805Y-24998607D01*
X42319677Y-24779299D01*
X42320196Y-24772624D01*
X42321706Y-24710864D01*
X42321512Y-24704146D01*
X42303389Y-24483703D01*
X42301706Y-24473541D01*
X42248261Y-24260763D01*
X42244943Y-24251016D01*
X42176092Y-24092670D01*
X47097160Y-24092670D01*
X47102887Y-24100320D01*
X47274042Y-24205205D01*
X47282837Y-24209687D01*
X47492988Y-24296734D01*
X47502373Y-24299783D01*
X47723554Y-24352885D01*
X47733301Y-24354428D01*
X47960070Y-24372275D01*
X47969930Y-24372275D01*
X48196699Y-24354428D01*
X48206446Y-24352885D01*
X48427627Y-24299783D01*
X48437012Y-24296734D01*
X48647163Y-24209687D01*
X48655958Y-24205205D01*
X48823445Y-24102568D01*
X48832907Y-24092110D01*
X48829124Y-24083334D01*
X47977812Y-23232022D01*
X47963868Y-23224408D01*
X47962035Y-23224539D01*
X47955420Y-23228790D01*
X47103920Y-24080290D01*
X47097160Y-24092670D01*
X42176092Y-24092670D01*
X42157462Y-24049823D01*
X42152595Y-24040746D01*
X42081268Y-23930493D01*
X42070582Y-23921291D01*
X42061017Y-23925694D01*
X41292021Y-24694689D01*
X41284408Y-24708632D01*
X40554356Y-24708632D01*
X40555592Y-24706368D01*
X40555461Y-24704534D01*
X40551210Y-24697920D01*
X39781778Y-23928489D01*
X39770246Y-23922192D01*
X39742590Y-23943860D01*
X39740009Y-23940566D01*
X39712271Y-23963295D01*
X39641746Y-23971462D01*
X39578001Y-23940203D01*
X39557310Y-23915725D01*
X39552790Y-23908738D01*
X39516020Y-23851900D01*
X39427658Y-23754791D01*
X39364837Y-23685752D01*
X39364835Y-23685751D01*
X39361359Y-23681930D01*
X39357308Y-23678731D01*
X39357304Y-23678727D01*
X39201992Y-23556070D01*
X40133365Y-23556070D01*
X40140108Y-23568397D01*
X40907189Y-24335479D01*
X40921132Y-24343092D01*
X40922966Y-24342961D01*
X40929580Y-24338710D01*
X41701162Y-23567127D01*
X41708179Y-23554276D01*
X41700405Y-23543607D01*
X41699796Y-23543125D01*
X41691210Y-23537421D01*
X41499151Y-23431400D01*
X41489752Y-23427175D01*
X41282950Y-23353943D01*
X41272993Y-23351313D01*
X41057008Y-23312839D01*
X41046757Y-23311870D01*
X40827386Y-23309190D01*
X40817102Y-23309910D01*
X40600251Y-23343092D01*
X40590224Y-23345481D01*
X40381704Y-23413635D01*
X40372195Y-23417632D01*
X40177603Y-23518931D01*
X40168890Y-23524418D01*
X40141819Y-23544744D01*
X40133365Y-23556070D01*
X39201992Y-23556070D01*
X39195804Y-23551183D01*
X39181015Y-23539503D01*
X38979831Y-23428443D01*
X38862611Y-23386933D01*
X38768084Y-23353459D01*
X38768080Y-23353458D01*
X38763209Y-23351733D01*
X38758116Y-23350826D01*
X38758113Y-23350825D01*
X38542056Y-23312339D01*
X38542050Y-23312338D01*
X38536967Y-23311433D01*
X38463784Y-23310539D01*
X38312351Y-23308689D01*
X38312349Y-23308689D01*
X38307181Y-23308626D01*
X38183224Y-23327594D01*
X38085131Y-23342604D01*
X38085128Y-23342605D01*
X38080022Y-23343386D01*
X38057263Y-23350825D01*
X37866504Y-23413175D01*
X37866502Y-23413176D01*
X37861591Y-23414781D01*
X37657753Y-23520892D01*
X37653620Y-23523995D01*
X37653617Y-23523997D01*
X37594482Y-23568397D01*
X37473983Y-23658870D01*
X37315216Y-23825010D01*
X37312302Y-23829282D01*
X37312301Y-23829283D01*
X37236637Y-23940203D01*
X37185716Y-24014850D01*
X37164637Y-24060261D01*
X37097357Y-24205205D01*
X37088961Y-24223292D01*
X37027548Y-24444737D01*
X37003129Y-24673239D01*
X35819473Y-24673239D01*
X35812997Y-24594472D01*
X35803884Y-24483621D01*
X35803883Y-24483615D01*
X35803460Y-24478470D01*
X35747477Y-24255590D01*
X35655843Y-24044847D01*
X35653037Y-24040509D01*
X35533830Y-23856243D01*
X35533828Y-23856240D01*
X35531020Y-23851900D01*
X35442658Y-23754791D01*
X35379837Y-23685752D01*
X35379835Y-23685751D01*
X35376359Y-23681930D01*
X35372308Y-23678731D01*
X35372304Y-23678727D01*
X35210804Y-23551183D01*
X35196015Y-23539503D01*
X34994831Y-23428443D01*
X34877611Y-23386933D01*
X34783084Y-23353459D01*
X34783080Y-23353458D01*
X34778209Y-23351733D01*
X34773116Y-23350826D01*
X34773113Y-23350825D01*
X34557056Y-23312339D01*
X34557050Y-23312338D01*
X34551967Y-23311433D01*
X34478784Y-23310539D01*
X34327351Y-23308689D01*
X34327349Y-23308689D01*
X34322181Y-23308626D01*
X34198224Y-23327594D01*
X34100131Y-23342604D01*
X34100128Y-23342605D01*
X34095022Y-23343386D01*
X34072263Y-23350825D01*
X33881504Y-23413175D01*
X33881502Y-23413176D01*
X33876591Y-23414781D01*
X33672753Y-23520892D01*
X33668620Y-23523995D01*
X33668617Y-23523997D01*
X33609482Y-23568397D01*
X33488983Y-23658870D01*
X33330216Y-23825010D01*
X33327302Y-23829282D01*
X33327301Y-23829283D01*
X33251637Y-23940203D01*
X33200716Y-24014850D01*
X33179637Y-24060261D01*
X33112357Y-24205205D01*
X33103961Y-24223292D01*
X33042548Y-24444737D01*
X33018129Y-24673239D01*
X18488500Y-24673239D01*
X18488500Y-21904500D01*
X18508502Y-21836379D01*
X18562158Y-21789886D01*
X18614500Y-21778500D01*
X46634193Y-21778500D01*
X46702314Y-21798502D01*
G37*
%TD.AperFunction*%
%TD*%
M02*
