%TF.GenerationSoftware,KiCad,Pcbnew,(6.0.6-0)*%
%TF.CreationDate,2023-05-14T21:26:16-05:00*%
%TF.ProjectId,MHC_MAIN_REV_2,4d48435f-4d41-4494-9e5f-5245565f322e,rev?*%
%TF.SameCoordinates,Original*%
%TF.FileFunction,Legend,Top*%
%TF.FilePolarity,Positive*%
%FSLAX46Y46*%
G04 Gerber Fmt 4.6, Leading zero omitted, Abs format (unit mm)*
G04 Created by KiCad (PCBNEW (6.0.6-0)) date 2023-05-14 21:26:16*
%MOMM*%
%LPD*%
G01*
G04 APERTURE LIST*
%ADD10C,0.062500*%
%ADD11C,0.150000*%
%ADD12C,0.120000*%
%ADD13C,0.100000*%
G04 APERTURE END LIST*
D10*
%TO.C,U6*%
X28841723Y-42687495D02*
X28841723Y-42889876D01*
X28853628Y-42913685D01*
X28865533Y-42925590D01*
X28889342Y-42937495D01*
X28936961Y-42937495D01*
X28960771Y-42925590D01*
X28972676Y-42913685D01*
X28984580Y-42889876D01*
X28984580Y-42687495D01*
X29210771Y-42687495D02*
X29163152Y-42687495D01*
X29139342Y-42699400D01*
X29127438Y-42711304D01*
X29103628Y-42747019D01*
X29091723Y-42794638D01*
X29091723Y-42889876D01*
X29103628Y-42913685D01*
X29115533Y-42925590D01*
X29139342Y-42937495D01*
X29186961Y-42937495D01*
X29210771Y-42925590D01*
X29222676Y-42913685D01*
X29234580Y-42889876D01*
X29234580Y-42830352D01*
X29222676Y-42806542D01*
X29210771Y-42794638D01*
X29186961Y-42782733D01*
X29139342Y-42782733D01*
X29115533Y-42794638D01*
X29103628Y-42806542D01*
X29091723Y-42830352D01*
D11*
%TO.C,C9*%
X24146133Y-22760342D02*
X24098514Y-22807961D01*
X23955657Y-22855580D01*
X23860419Y-22855580D01*
X23717561Y-22807961D01*
X23622323Y-22712723D01*
X23574704Y-22617485D01*
X23527085Y-22427009D01*
X23527085Y-22284152D01*
X23574704Y-22093676D01*
X23622323Y-21998438D01*
X23717561Y-21903200D01*
X23860419Y-21855580D01*
X23955657Y-21855580D01*
X24098514Y-21903200D01*
X24146133Y-21950819D01*
X24622323Y-22855580D02*
X24812800Y-22855580D01*
X24908038Y-22807961D01*
X24955657Y-22760342D01*
X25050895Y-22617485D01*
X25098514Y-22427009D01*
X25098514Y-22046057D01*
X25050895Y-21950819D01*
X25003276Y-21903200D01*
X24908038Y-21855580D01*
X24717561Y-21855580D01*
X24622323Y-21903200D01*
X24574704Y-21950819D01*
X24527085Y-22046057D01*
X24527085Y-22284152D01*
X24574704Y-22379390D01*
X24622323Y-22427009D01*
X24717561Y-22474628D01*
X24908038Y-22474628D01*
X25003276Y-22427009D01*
X25050895Y-22379390D01*
X25098514Y-22284152D01*
D10*
%TO.C,S1*%
X33210523Y-23418390D02*
X33246238Y-23430295D01*
X33305761Y-23430295D01*
X33329571Y-23418390D01*
X33341476Y-23406485D01*
X33353380Y-23382676D01*
X33353380Y-23358866D01*
X33341476Y-23335057D01*
X33329571Y-23323152D01*
X33305761Y-23311247D01*
X33258142Y-23299342D01*
X33234333Y-23287438D01*
X33222428Y-23275533D01*
X33210523Y-23251723D01*
X33210523Y-23227914D01*
X33222428Y-23204104D01*
X33234333Y-23192200D01*
X33258142Y-23180295D01*
X33317666Y-23180295D01*
X33353380Y-23192200D01*
X33591476Y-23430295D02*
X33448619Y-23430295D01*
X33520047Y-23430295D02*
X33520047Y-23180295D01*
X33496238Y-23216009D01*
X33472428Y-23239819D01*
X33448619Y-23251723D01*
%TO.C,U4*%
X69826904Y-44259523D02*
X69624523Y-44259523D01*
X69600714Y-44271428D01*
X69588809Y-44283333D01*
X69576904Y-44307142D01*
X69576904Y-44354761D01*
X69588809Y-44378571D01*
X69600714Y-44390476D01*
X69624523Y-44402380D01*
X69826904Y-44402380D01*
X69743571Y-44628571D02*
X69576904Y-44628571D01*
X69838809Y-44569047D02*
X69660238Y-44509523D01*
X69660238Y-44664285D01*
%TO.C,SW4*%
X18183266Y-23215190D02*
X18218980Y-23227095D01*
X18278504Y-23227095D01*
X18302314Y-23215190D01*
X18314219Y-23203285D01*
X18326123Y-23179476D01*
X18326123Y-23155666D01*
X18314219Y-23131857D01*
X18302314Y-23119952D01*
X18278504Y-23108047D01*
X18230885Y-23096142D01*
X18207076Y-23084238D01*
X18195171Y-23072333D01*
X18183266Y-23048523D01*
X18183266Y-23024714D01*
X18195171Y-23000904D01*
X18207076Y-22989000D01*
X18230885Y-22977095D01*
X18290409Y-22977095D01*
X18326123Y-22989000D01*
X18409457Y-22977095D02*
X18468980Y-23227095D01*
X18516600Y-23048523D01*
X18564219Y-23227095D01*
X18623742Y-22977095D01*
X18826123Y-23060428D02*
X18826123Y-23227095D01*
X18766600Y-22965190D02*
X18707076Y-23143761D01*
X18861838Y-23143761D01*
%TO.C,SW3*%
X56867466Y-37743990D02*
X56903180Y-37755895D01*
X56962704Y-37755895D01*
X56986514Y-37743990D01*
X56998419Y-37732085D01*
X57010323Y-37708276D01*
X57010323Y-37684466D01*
X56998419Y-37660657D01*
X56986514Y-37648752D01*
X56962704Y-37636847D01*
X56915085Y-37624942D01*
X56891276Y-37613038D01*
X56879371Y-37601133D01*
X56867466Y-37577323D01*
X56867466Y-37553514D01*
X56879371Y-37529704D01*
X56891276Y-37517800D01*
X56915085Y-37505895D01*
X56974609Y-37505895D01*
X57010323Y-37517800D01*
X57093657Y-37505895D02*
X57153180Y-37755895D01*
X57200800Y-37577323D01*
X57248419Y-37755895D01*
X57307942Y-37505895D01*
X57379371Y-37505895D02*
X57534133Y-37505895D01*
X57450800Y-37601133D01*
X57486514Y-37601133D01*
X57510323Y-37613038D01*
X57522228Y-37624942D01*
X57534133Y-37648752D01*
X57534133Y-37708276D01*
X57522228Y-37732085D01*
X57510323Y-37743990D01*
X57486514Y-37755895D01*
X57415085Y-37755895D01*
X57391276Y-37743990D01*
X57379371Y-37732085D01*
%TO.C,D3*%
X34588076Y-39711695D02*
X34588076Y-39461695D01*
X34647600Y-39461695D01*
X34683314Y-39473600D01*
X34707123Y-39497409D01*
X34719028Y-39521219D01*
X34730933Y-39568838D01*
X34730933Y-39604552D01*
X34719028Y-39652171D01*
X34707123Y-39675980D01*
X34683314Y-39699790D01*
X34647600Y-39711695D01*
X34588076Y-39711695D01*
X34814266Y-39461695D02*
X34969028Y-39461695D01*
X34885695Y-39556933D01*
X34921409Y-39556933D01*
X34945219Y-39568838D01*
X34957123Y-39580742D01*
X34969028Y-39604552D01*
X34969028Y-39664076D01*
X34957123Y-39687885D01*
X34945219Y-39699790D01*
X34921409Y-39711695D01*
X34849980Y-39711695D01*
X34826171Y-39699790D01*
X34814266Y-39687885D01*
%TO.C,U3*%
X26189523Y-36718495D02*
X26189523Y-36920876D01*
X26201428Y-36944685D01*
X26213333Y-36956590D01*
X26237142Y-36968495D01*
X26284761Y-36968495D01*
X26308571Y-36956590D01*
X26320476Y-36944685D01*
X26332380Y-36920876D01*
X26332380Y-36718495D01*
X26427619Y-36718495D02*
X26582380Y-36718495D01*
X26499047Y-36813733D01*
X26534761Y-36813733D01*
X26558571Y-36825638D01*
X26570476Y-36837542D01*
X26582380Y-36861352D01*
X26582380Y-36920876D01*
X26570476Y-36944685D01*
X26558571Y-36956590D01*
X26534761Y-36968495D01*
X26463333Y-36968495D01*
X26439523Y-36956590D01*
X26427619Y-36944685D01*
%TO.C,SW5*%
X23568066Y-24967790D02*
X23603780Y-24979695D01*
X23663304Y-24979695D01*
X23687114Y-24967790D01*
X23699019Y-24955885D01*
X23710923Y-24932076D01*
X23710923Y-24908266D01*
X23699019Y-24884457D01*
X23687114Y-24872552D01*
X23663304Y-24860647D01*
X23615685Y-24848742D01*
X23591876Y-24836838D01*
X23579971Y-24824933D01*
X23568066Y-24801123D01*
X23568066Y-24777314D01*
X23579971Y-24753504D01*
X23591876Y-24741600D01*
X23615685Y-24729695D01*
X23675209Y-24729695D01*
X23710923Y-24741600D01*
X23794257Y-24729695D02*
X23853780Y-24979695D01*
X23901400Y-24801123D01*
X23949019Y-24979695D01*
X24008542Y-24729695D01*
X24222828Y-24729695D02*
X24103780Y-24729695D01*
X24091876Y-24848742D01*
X24103780Y-24836838D01*
X24127590Y-24824933D01*
X24187114Y-24824933D01*
X24210923Y-24836838D01*
X24222828Y-24848742D01*
X24234733Y-24872552D01*
X24234733Y-24932076D01*
X24222828Y-24955885D01*
X24210923Y-24967790D01*
X24187114Y-24979695D01*
X24127590Y-24979695D01*
X24103780Y-24967790D01*
X24091876Y-24955885D01*
%TO.C,J2*%
X59581266Y-54295295D02*
X59581266Y-54473866D01*
X59569361Y-54509580D01*
X59545552Y-54533390D01*
X59509838Y-54545295D01*
X59486028Y-54545295D01*
X59688409Y-54319104D02*
X59700314Y-54307200D01*
X59724123Y-54295295D01*
X59783647Y-54295295D01*
X59807457Y-54307200D01*
X59819361Y-54319104D01*
X59831266Y-54342914D01*
X59831266Y-54366723D01*
X59819361Y-54402438D01*
X59676504Y-54545295D01*
X59831266Y-54545295D01*
%TO.C,Y1*%
X59443952Y-25165447D02*
X59443952Y-25284495D01*
X59360619Y-25034495D02*
X59443952Y-25165447D01*
X59527285Y-25034495D01*
X59741571Y-25284495D02*
X59598714Y-25284495D01*
X59670142Y-25284495D02*
X59670142Y-25034495D01*
X59646333Y-25070209D01*
X59622523Y-25094019D01*
X59598714Y-25105923D01*
%TO.C,C7*%
X37982133Y-47130085D02*
X37970228Y-47141990D01*
X37934514Y-47153895D01*
X37910704Y-47153895D01*
X37874990Y-47141990D01*
X37851180Y-47118180D01*
X37839276Y-47094371D01*
X37827371Y-47046752D01*
X37827371Y-47011038D01*
X37839276Y-46963419D01*
X37851180Y-46939609D01*
X37874990Y-46915800D01*
X37910704Y-46903895D01*
X37934514Y-46903895D01*
X37970228Y-46915800D01*
X37982133Y-46927704D01*
X38065466Y-46903895D02*
X38232133Y-46903895D01*
X38124990Y-47153895D01*
%TO.C,C11*%
X31665485Y-42481885D02*
X31653580Y-42493790D01*
X31617866Y-42505695D01*
X31594057Y-42505695D01*
X31558342Y-42493790D01*
X31534533Y-42469980D01*
X31522628Y-42446171D01*
X31510723Y-42398552D01*
X31510723Y-42362838D01*
X31522628Y-42315219D01*
X31534533Y-42291409D01*
X31558342Y-42267600D01*
X31594057Y-42255695D01*
X31617866Y-42255695D01*
X31653580Y-42267600D01*
X31665485Y-42279504D01*
X31903580Y-42505695D02*
X31760723Y-42505695D01*
X31832152Y-42505695D02*
X31832152Y-42255695D01*
X31808342Y-42291409D01*
X31784533Y-42315219D01*
X31760723Y-42327123D01*
X32141676Y-42505695D02*
X31998819Y-42505695D01*
X32070247Y-42505695D02*
X32070247Y-42255695D01*
X32046438Y-42291409D01*
X32022628Y-42315219D01*
X31998819Y-42327123D01*
%TO.C,J1*%
X23079866Y-46522895D02*
X23079866Y-46701466D01*
X23067961Y-46737180D01*
X23044152Y-46760990D01*
X23008438Y-46772895D01*
X22984628Y-46772895D01*
X23329866Y-46772895D02*
X23187009Y-46772895D01*
X23258438Y-46772895D02*
X23258438Y-46522895D01*
X23234628Y-46558609D01*
X23210819Y-46582419D01*
X23187009Y-46594323D01*
%TO.C,R7*%
X24266133Y-45553695D02*
X24182800Y-45434647D01*
X24123276Y-45553695D02*
X24123276Y-45303695D01*
X24218514Y-45303695D01*
X24242323Y-45315600D01*
X24254228Y-45327504D01*
X24266133Y-45351314D01*
X24266133Y-45387028D01*
X24254228Y-45410838D01*
X24242323Y-45422742D01*
X24218514Y-45434647D01*
X24123276Y-45434647D01*
X24349466Y-45303695D02*
X24516133Y-45303695D01*
X24408990Y-45553695D01*
%TO.C,D2*%
X35121476Y-43801095D02*
X35121476Y-43551095D01*
X35181000Y-43551095D01*
X35216714Y-43563000D01*
X35240523Y-43586809D01*
X35252428Y-43610619D01*
X35264333Y-43658238D01*
X35264333Y-43693952D01*
X35252428Y-43741571D01*
X35240523Y-43765380D01*
X35216714Y-43789190D01*
X35181000Y-43801095D01*
X35121476Y-43801095D01*
X35359571Y-43574904D02*
X35371476Y-43563000D01*
X35395285Y-43551095D01*
X35454809Y-43551095D01*
X35478619Y-43563000D01*
X35490523Y-43574904D01*
X35502428Y-43598714D01*
X35502428Y-43622523D01*
X35490523Y-43658238D01*
X35347666Y-43801095D01*
X35502428Y-43801095D01*
%TO.C,C6*%
X58175133Y-26708485D02*
X58163228Y-26720390D01*
X58127514Y-26732295D01*
X58103704Y-26732295D01*
X58067990Y-26720390D01*
X58044180Y-26696580D01*
X58032276Y-26672771D01*
X58020371Y-26625152D01*
X58020371Y-26589438D01*
X58032276Y-26541819D01*
X58044180Y-26518009D01*
X58067990Y-26494200D01*
X58103704Y-26482295D01*
X58127514Y-26482295D01*
X58163228Y-26494200D01*
X58175133Y-26506104D01*
X58389419Y-26482295D02*
X58341800Y-26482295D01*
X58317990Y-26494200D01*
X58306085Y-26506104D01*
X58282276Y-26541819D01*
X58270371Y-26589438D01*
X58270371Y-26684676D01*
X58282276Y-26708485D01*
X58294180Y-26720390D01*
X58317990Y-26732295D01*
X58365609Y-26732295D01*
X58389419Y-26720390D01*
X58401323Y-26708485D01*
X58413228Y-26684676D01*
X58413228Y-26625152D01*
X58401323Y-26601342D01*
X58389419Y-26589438D01*
X58365609Y-26577533D01*
X58317990Y-26577533D01*
X58294180Y-26589438D01*
X58282276Y-26601342D01*
X58270371Y-26625152D01*
%TO.C,U2*%
X38595323Y-43017695D02*
X38595323Y-43220076D01*
X38607228Y-43243885D01*
X38619133Y-43255790D01*
X38642942Y-43267695D01*
X38690561Y-43267695D01*
X38714371Y-43255790D01*
X38726276Y-43243885D01*
X38738180Y-43220076D01*
X38738180Y-43017695D01*
X38845323Y-43041504D02*
X38857228Y-43029600D01*
X38881038Y-43017695D01*
X38940561Y-43017695D01*
X38964371Y-43029600D01*
X38976276Y-43041504D01*
X38988180Y-43065314D01*
X38988180Y-43089123D01*
X38976276Y-43124838D01*
X38833419Y-43267695D01*
X38988180Y-43267695D01*
%TO.C,SW2*%
X50974666Y-43662190D02*
X51010380Y-43674095D01*
X51069904Y-43674095D01*
X51093714Y-43662190D01*
X51105619Y-43650285D01*
X51117523Y-43626476D01*
X51117523Y-43602666D01*
X51105619Y-43578857D01*
X51093714Y-43566952D01*
X51069904Y-43555047D01*
X51022285Y-43543142D01*
X50998476Y-43531238D01*
X50986571Y-43519333D01*
X50974666Y-43495523D01*
X50974666Y-43471714D01*
X50986571Y-43447904D01*
X50998476Y-43436000D01*
X51022285Y-43424095D01*
X51081809Y-43424095D01*
X51117523Y-43436000D01*
X51200857Y-43424095D02*
X51260380Y-43674095D01*
X51308000Y-43495523D01*
X51355619Y-43674095D01*
X51415142Y-43424095D01*
X51498476Y-43447904D02*
X51510380Y-43436000D01*
X51534190Y-43424095D01*
X51593714Y-43424095D01*
X51617523Y-43436000D01*
X51629428Y-43447904D01*
X51641333Y-43471714D01*
X51641333Y-43495523D01*
X51629428Y-43531238D01*
X51486571Y-43674095D01*
X51641333Y-43674095D01*
%TO.C,RV1*%
X58677590Y-54189695D02*
X58594257Y-54070647D01*
X58534733Y-54189695D02*
X58534733Y-53939695D01*
X58629971Y-53939695D01*
X58653780Y-53951600D01*
X58665685Y-53963504D01*
X58677590Y-53987314D01*
X58677590Y-54023028D01*
X58665685Y-54046838D01*
X58653780Y-54058742D01*
X58629971Y-54070647D01*
X58534733Y-54070647D01*
X58749019Y-53939695D02*
X58832352Y-54189695D01*
X58915685Y-53939695D01*
X59129971Y-54189695D02*
X58987114Y-54189695D01*
X59058542Y-54189695D02*
X59058542Y-53939695D01*
X59034733Y-53975409D01*
X59010923Y-53999219D01*
X58987114Y-54011123D01*
%TO.C,C10*%
X42943085Y-40729285D02*
X42931180Y-40741190D01*
X42895466Y-40753095D01*
X42871657Y-40753095D01*
X42835942Y-40741190D01*
X42812133Y-40717380D01*
X42800228Y-40693571D01*
X42788323Y-40645952D01*
X42788323Y-40610238D01*
X42800228Y-40562619D01*
X42812133Y-40538809D01*
X42835942Y-40515000D01*
X42871657Y-40503095D01*
X42895466Y-40503095D01*
X42931180Y-40515000D01*
X42943085Y-40526904D01*
X43181180Y-40753095D02*
X43038323Y-40753095D01*
X43109752Y-40753095D02*
X43109752Y-40503095D01*
X43085942Y-40538809D01*
X43062133Y-40562619D01*
X43038323Y-40574523D01*
X43335942Y-40503095D02*
X43359752Y-40503095D01*
X43383561Y-40515000D01*
X43395466Y-40526904D01*
X43407371Y-40550714D01*
X43419276Y-40598333D01*
X43419276Y-40657857D01*
X43407371Y-40705476D01*
X43395466Y-40729285D01*
X43383561Y-40741190D01*
X43359752Y-40753095D01*
X43335942Y-40753095D01*
X43312133Y-40741190D01*
X43300228Y-40729285D01*
X43288323Y-40705476D01*
X43276419Y-40657857D01*
X43276419Y-40598333D01*
X43288323Y-40550714D01*
X43300228Y-40526904D01*
X43312133Y-40515000D01*
X43335942Y-40503095D01*
%TO.C,R6*%
X54720733Y-44131295D02*
X54637400Y-44012247D01*
X54577876Y-44131295D02*
X54577876Y-43881295D01*
X54673114Y-43881295D01*
X54696923Y-43893200D01*
X54708828Y-43905104D01*
X54720733Y-43928914D01*
X54720733Y-43964628D01*
X54708828Y-43988438D01*
X54696923Y-44000342D01*
X54673114Y-44012247D01*
X54577876Y-44012247D01*
X54935019Y-43881295D02*
X54887400Y-43881295D01*
X54863590Y-43893200D01*
X54851685Y-43905104D01*
X54827876Y-43940819D01*
X54815971Y-43988438D01*
X54815971Y-44083676D01*
X54827876Y-44107485D01*
X54839780Y-44119390D01*
X54863590Y-44131295D01*
X54911209Y-44131295D01*
X54935019Y-44119390D01*
X54946923Y-44107485D01*
X54958828Y-44083676D01*
X54958828Y-44024152D01*
X54946923Y-44000342D01*
X54935019Y-43988438D01*
X54911209Y-43976533D01*
X54863590Y-43976533D01*
X54839780Y-43988438D01*
X54827876Y-44000342D01*
X54815971Y-44024152D01*
%TO.C,C8*%
X25104333Y-35903285D02*
X25092428Y-35915190D01*
X25056714Y-35927095D01*
X25032904Y-35927095D01*
X24997190Y-35915190D01*
X24973380Y-35891380D01*
X24961476Y-35867571D01*
X24949571Y-35819952D01*
X24949571Y-35784238D01*
X24961476Y-35736619D01*
X24973380Y-35712809D01*
X24997190Y-35689000D01*
X25032904Y-35677095D01*
X25056714Y-35677095D01*
X25092428Y-35689000D01*
X25104333Y-35700904D01*
X25247190Y-35784238D02*
X25223380Y-35772333D01*
X25211476Y-35760428D01*
X25199571Y-35736619D01*
X25199571Y-35724714D01*
X25211476Y-35700904D01*
X25223380Y-35689000D01*
X25247190Y-35677095D01*
X25294809Y-35677095D01*
X25318619Y-35689000D01*
X25330523Y-35700904D01*
X25342428Y-35724714D01*
X25342428Y-35736619D01*
X25330523Y-35760428D01*
X25318619Y-35772333D01*
X25294809Y-35784238D01*
X25247190Y-35784238D01*
X25223380Y-35796142D01*
X25211476Y-35808047D01*
X25199571Y-35831857D01*
X25199571Y-35879476D01*
X25211476Y-35903285D01*
X25223380Y-35915190D01*
X25247190Y-35927095D01*
X25294809Y-35927095D01*
X25318619Y-35915190D01*
X25330523Y-35903285D01*
X25342428Y-35879476D01*
X25342428Y-35831857D01*
X25330523Y-35808047D01*
X25318619Y-35796142D01*
X25294809Y-35784238D01*
%TO.C,R2*%
X26196533Y-49592295D02*
X26113200Y-49473247D01*
X26053676Y-49592295D02*
X26053676Y-49342295D01*
X26148914Y-49342295D01*
X26172723Y-49354200D01*
X26184628Y-49366104D01*
X26196533Y-49389914D01*
X26196533Y-49425628D01*
X26184628Y-49449438D01*
X26172723Y-49461342D01*
X26148914Y-49473247D01*
X26053676Y-49473247D01*
X26291771Y-49366104D02*
X26303676Y-49354200D01*
X26327485Y-49342295D01*
X26387009Y-49342295D01*
X26410819Y-49354200D01*
X26422723Y-49366104D01*
X26434628Y-49389914D01*
X26434628Y-49413723D01*
X26422723Y-49449438D01*
X26279866Y-49592295D01*
X26434628Y-49592295D01*
%TO.C,U1*%
X70751723Y-26964895D02*
X70751723Y-27167276D01*
X70763628Y-27191085D01*
X70775533Y-27202990D01*
X70799342Y-27214895D01*
X70846961Y-27214895D01*
X70870771Y-27202990D01*
X70882676Y-27191085D01*
X70894580Y-27167276D01*
X70894580Y-26964895D01*
X71144580Y-27214895D02*
X71001723Y-27214895D01*
X71073152Y-27214895D02*
X71073152Y-26964895D01*
X71049342Y-27000609D01*
X71025533Y-27024419D01*
X71001723Y-27036323D01*
%TO.C,C2*%
X58657733Y-31788485D02*
X58645828Y-31800390D01*
X58610114Y-31812295D01*
X58586304Y-31812295D01*
X58550590Y-31800390D01*
X58526780Y-31776580D01*
X58514876Y-31752771D01*
X58502971Y-31705152D01*
X58502971Y-31669438D01*
X58514876Y-31621819D01*
X58526780Y-31598009D01*
X58550590Y-31574200D01*
X58586304Y-31562295D01*
X58610114Y-31562295D01*
X58645828Y-31574200D01*
X58657733Y-31586104D01*
X58752971Y-31586104D02*
X58764876Y-31574200D01*
X58788685Y-31562295D01*
X58848209Y-31562295D01*
X58872019Y-31574200D01*
X58883923Y-31586104D01*
X58895828Y-31609914D01*
X58895828Y-31633723D01*
X58883923Y-31669438D01*
X58741066Y-31812295D01*
X58895828Y-31812295D01*
%TO.C,C4*%
X44586133Y-46495085D02*
X44574228Y-46506990D01*
X44538514Y-46518895D01*
X44514704Y-46518895D01*
X44478990Y-46506990D01*
X44455180Y-46483180D01*
X44443276Y-46459371D01*
X44431371Y-46411752D01*
X44431371Y-46376038D01*
X44443276Y-46328419D01*
X44455180Y-46304609D01*
X44478990Y-46280800D01*
X44514704Y-46268895D01*
X44538514Y-46268895D01*
X44574228Y-46280800D01*
X44586133Y-46292704D01*
X44800419Y-46352228D02*
X44800419Y-46518895D01*
X44740895Y-46256990D02*
X44681371Y-46435561D01*
X44836133Y-46435561D01*
%TO.C,D1*%
X20846676Y-56348695D02*
X20846676Y-56098695D01*
X20906200Y-56098695D01*
X20941914Y-56110600D01*
X20965723Y-56134409D01*
X20977628Y-56158219D01*
X20989533Y-56205838D01*
X20989533Y-56241552D01*
X20977628Y-56289171D01*
X20965723Y-56312980D01*
X20941914Y-56336790D01*
X20906200Y-56348695D01*
X20846676Y-56348695D01*
X21227628Y-56348695D02*
X21084771Y-56348695D01*
X21156200Y-56348695D02*
X21156200Y-56098695D01*
X21132390Y-56134409D01*
X21108580Y-56158219D01*
X21084771Y-56170123D01*
%TO.C,R1*%
X26247333Y-53148295D02*
X26164000Y-53029247D01*
X26104476Y-53148295D02*
X26104476Y-52898295D01*
X26199714Y-52898295D01*
X26223523Y-52910200D01*
X26235428Y-52922104D01*
X26247333Y-52945914D01*
X26247333Y-52981628D01*
X26235428Y-53005438D01*
X26223523Y-53017342D01*
X26199714Y-53029247D01*
X26104476Y-53029247D01*
X26485428Y-53148295D02*
X26342571Y-53148295D01*
X26414000Y-53148295D02*
X26414000Y-52898295D01*
X26390190Y-52934009D01*
X26366380Y-52957819D01*
X26342571Y-52969723D01*
%TO.C,R4*%
X41792133Y-41311895D02*
X41708800Y-41192847D01*
X41649276Y-41311895D02*
X41649276Y-41061895D01*
X41744514Y-41061895D01*
X41768323Y-41073800D01*
X41780228Y-41085704D01*
X41792133Y-41109514D01*
X41792133Y-41145228D01*
X41780228Y-41169038D01*
X41768323Y-41180942D01*
X41744514Y-41192847D01*
X41649276Y-41192847D01*
X42006419Y-41145228D02*
X42006419Y-41311895D01*
X41946895Y-41049990D02*
X41887371Y-41228561D01*
X42042133Y-41228561D01*
%TO.C,C3*%
X58683133Y-30213685D02*
X58671228Y-30225590D01*
X58635514Y-30237495D01*
X58611704Y-30237495D01*
X58575990Y-30225590D01*
X58552180Y-30201780D01*
X58540276Y-30177971D01*
X58528371Y-30130352D01*
X58528371Y-30094638D01*
X58540276Y-30047019D01*
X58552180Y-30023209D01*
X58575990Y-29999400D01*
X58611704Y-29987495D01*
X58635514Y-29987495D01*
X58671228Y-29999400D01*
X58683133Y-30011304D01*
X58766466Y-29987495D02*
X58921228Y-29987495D01*
X58837895Y-30082733D01*
X58873609Y-30082733D01*
X58897419Y-30094638D01*
X58909323Y-30106542D01*
X58921228Y-30130352D01*
X58921228Y-30189876D01*
X58909323Y-30213685D01*
X58897419Y-30225590D01*
X58873609Y-30237495D01*
X58802180Y-30237495D01*
X58778371Y-30225590D01*
X58766466Y-30213685D01*
%TO.C,U5*%
X40389523Y-36563095D02*
X40389523Y-36765476D01*
X40401428Y-36789285D01*
X40413333Y-36801190D01*
X40437142Y-36813095D01*
X40484761Y-36813095D01*
X40508571Y-36801190D01*
X40520476Y-36789285D01*
X40532380Y-36765476D01*
X40532380Y-36563095D01*
X40770476Y-36563095D02*
X40651428Y-36563095D01*
X40639523Y-36682142D01*
X40651428Y-36670238D01*
X40675238Y-36658333D01*
X40734761Y-36658333D01*
X40758571Y-36670238D01*
X40770476Y-36682142D01*
X40782380Y-36705952D01*
X40782380Y-36765476D01*
X40770476Y-36789285D01*
X40758571Y-36801190D01*
X40734761Y-36813095D01*
X40675238Y-36813095D01*
X40651428Y-36801190D01*
X40639523Y-36789285D01*
%TO.C,C5*%
X58001285Y-22088866D02*
X58013190Y-22100771D01*
X58025095Y-22136485D01*
X58025095Y-22160295D01*
X58013190Y-22196009D01*
X57989380Y-22219819D01*
X57965571Y-22231723D01*
X57917952Y-22243628D01*
X57882238Y-22243628D01*
X57834619Y-22231723D01*
X57810809Y-22219819D01*
X57787000Y-22196009D01*
X57775095Y-22160295D01*
X57775095Y-22136485D01*
X57787000Y-22100771D01*
X57798904Y-22088866D01*
X57775095Y-21862676D02*
X57775095Y-21981723D01*
X57894142Y-21993628D01*
X57882238Y-21981723D01*
X57870333Y-21957914D01*
X57870333Y-21898390D01*
X57882238Y-21874580D01*
X57894142Y-21862676D01*
X57917952Y-21850771D01*
X57977476Y-21850771D01*
X58001285Y-21862676D01*
X58013190Y-21874580D01*
X58025095Y-21898390D01*
X58025095Y-21957914D01*
X58013190Y-21981723D01*
X58001285Y-21993628D01*
%TO.C,C1*%
X58708533Y-28588085D02*
X58696628Y-28599990D01*
X58660914Y-28611895D01*
X58637104Y-28611895D01*
X58601390Y-28599990D01*
X58577580Y-28576180D01*
X58565676Y-28552371D01*
X58553771Y-28504752D01*
X58553771Y-28469038D01*
X58565676Y-28421419D01*
X58577580Y-28397609D01*
X58601390Y-28373800D01*
X58637104Y-28361895D01*
X58660914Y-28361895D01*
X58696628Y-28373800D01*
X58708533Y-28385704D01*
X58946628Y-28611895D02*
X58803771Y-28611895D01*
X58875200Y-28611895D02*
X58875200Y-28361895D01*
X58851390Y-28397609D01*
X58827580Y-28421419D01*
X58803771Y-28433323D01*
%TO.C,J3*%
X19766666Y-33772095D02*
X19766666Y-33950666D01*
X19754761Y-33986380D01*
X19730952Y-34010190D01*
X19695238Y-34022095D01*
X19671428Y-34022095D01*
X19861904Y-33772095D02*
X20016666Y-33772095D01*
X19933333Y-33867333D01*
X19969047Y-33867333D01*
X19992857Y-33879238D01*
X20004761Y-33891142D01*
X20016666Y-33914952D01*
X20016666Y-33974476D01*
X20004761Y-33998285D01*
X19992857Y-34010190D01*
X19969047Y-34022095D01*
X19897619Y-34022095D01*
X19873809Y-34010190D01*
X19861904Y-33998285D01*
%TO.C,SW1*%
X51000066Y-39674390D02*
X51035780Y-39686295D01*
X51095304Y-39686295D01*
X51119114Y-39674390D01*
X51131019Y-39662485D01*
X51142923Y-39638676D01*
X51142923Y-39614866D01*
X51131019Y-39591057D01*
X51119114Y-39579152D01*
X51095304Y-39567247D01*
X51047685Y-39555342D01*
X51023876Y-39543438D01*
X51011971Y-39531533D01*
X51000066Y-39507723D01*
X51000066Y-39483914D01*
X51011971Y-39460104D01*
X51023876Y-39448200D01*
X51047685Y-39436295D01*
X51107209Y-39436295D01*
X51142923Y-39448200D01*
X51226257Y-39436295D02*
X51285780Y-39686295D01*
X51333400Y-39507723D01*
X51381019Y-39686295D01*
X51440542Y-39436295D01*
X51666733Y-39686295D02*
X51523876Y-39686295D01*
X51595304Y-39686295D02*
X51595304Y-39436295D01*
X51571495Y-39472009D01*
X51547685Y-39495819D01*
X51523876Y-39507723D01*
%TO.C,R5*%
X54720733Y-40118095D02*
X54637400Y-39999047D01*
X54577876Y-40118095D02*
X54577876Y-39868095D01*
X54673114Y-39868095D01*
X54696923Y-39880000D01*
X54708828Y-39891904D01*
X54720733Y-39915714D01*
X54720733Y-39951428D01*
X54708828Y-39975238D01*
X54696923Y-39987142D01*
X54673114Y-39999047D01*
X54577876Y-39999047D01*
X54946923Y-39868095D02*
X54827876Y-39868095D01*
X54815971Y-39987142D01*
X54827876Y-39975238D01*
X54851685Y-39963333D01*
X54911209Y-39963333D01*
X54935019Y-39975238D01*
X54946923Y-39987142D01*
X54958828Y-40010952D01*
X54958828Y-40070476D01*
X54946923Y-40094285D01*
X54935019Y-40106190D01*
X54911209Y-40118095D01*
X54851685Y-40118095D01*
X54827876Y-40106190D01*
X54815971Y-40094285D01*
%TO.C,R3*%
X24266133Y-56399495D02*
X24182800Y-56280447D01*
X24123276Y-56399495D02*
X24123276Y-56149495D01*
X24218514Y-56149495D01*
X24242323Y-56161400D01*
X24254228Y-56173304D01*
X24266133Y-56197114D01*
X24266133Y-56232828D01*
X24254228Y-56256638D01*
X24242323Y-56268542D01*
X24218514Y-56280447D01*
X24123276Y-56280447D01*
X24349466Y-56149495D02*
X24504228Y-56149495D01*
X24420895Y-56244733D01*
X24456609Y-56244733D01*
X24480419Y-56256638D01*
X24492323Y-56268542D01*
X24504228Y-56292352D01*
X24504228Y-56351876D01*
X24492323Y-56375685D01*
X24480419Y-56387590D01*
X24456609Y-56399495D01*
X24385180Y-56399495D01*
X24361371Y-56387590D01*
X24349466Y-56375685D01*
%TO.C,R8*%
X24291533Y-43547095D02*
X24208200Y-43428047D01*
X24148676Y-43547095D02*
X24148676Y-43297095D01*
X24243914Y-43297095D01*
X24267723Y-43309000D01*
X24279628Y-43320904D01*
X24291533Y-43344714D01*
X24291533Y-43380428D01*
X24279628Y-43404238D01*
X24267723Y-43416142D01*
X24243914Y-43428047D01*
X24148676Y-43428047D01*
X24434390Y-43404238D02*
X24410580Y-43392333D01*
X24398676Y-43380428D01*
X24386771Y-43356619D01*
X24386771Y-43344714D01*
X24398676Y-43320904D01*
X24410580Y-43309000D01*
X24434390Y-43297095D01*
X24482009Y-43297095D01*
X24505819Y-43309000D01*
X24517723Y-43320904D01*
X24529628Y-43344714D01*
X24529628Y-43356619D01*
X24517723Y-43380428D01*
X24505819Y-43392333D01*
X24482009Y-43404238D01*
X24434390Y-43404238D01*
X24410580Y-43416142D01*
X24398676Y-43428047D01*
X24386771Y-43451857D01*
X24386771Y-43499476D01*
X24398676Y-43523285D01*
X24410580Y-43535190D01*
X24434390Y-43547095D01*
X24482009Y-43547095D01*
X24505819Y-43535190D01*
X24517723Y-43523285D01*
X24529628Y-43499476D01*
X24529628Y-43451857D01*
X24517723Y-43428047D01*
X24505819Y-43416142D01*
X24482009Y-43404238D01*
D12*
%TO.C,U6*%
X30589200Y-45399600D02*
X31014200Y-45399600D01*
X30589200Y-43179600D02*
X31014200Y-43179600D01*
X29219200Y-45399600D02*
X28794200Y-45399600D01*
%TO.C,C9*%
X24172220Y-24343200D02*
X24453380Y-24343200D01*
X24172220Y-23323200D02*
X24453380Y-23323200D01*
%TO.C,S1*%
X32680000Y-23622500D02*
X32680000Y-36097500D01*
X42680000Y-36097500D02*
X32680000Y-36097500D01*
X42680000Y-23622500D02*
X32680000Y-23622500D01*
X42680000Y-36097500D02*
X42680000Y-23622500D01*
X39980000Y-29847500D02*
G75*
G03*
X39980000Y-29847500I-2000000J0D01*
G01*
%TO.C,U4*%
X62840000Y-36450000D02*
X66840000Y-36450000D01*
D13*
X78290000Y-53500000D02*
X59040000Y-53500000D01*
X59040000Y-53500000D02*
X59040000Y-36450000D01*
X78290000Y-36450000D02*
X70215000Y-36450000D01*
X78290000Y-53500000D02*
X78290000Y-36450000D01*
D12*
%TO.C,SW4*%
X20990000Y-29140000D02*
X20990000Y-29340000D01*
X19150000Y-31190000D02*
X19940000Y-31190000D01*
X18140000Y-24890000D02*
X18140000Y-30590000D01*
X20990000Y-26140000D02*
X20990000Y-27840000D01*
X19940000Y-24290000D02*
X19150000Y-24290000D01*
%TO.C,SW3*%
X46665000Y-37360000D02*
X46365000Y-37660000D01*
X44565000Y-31860000D02*
X44565000Y-35960000D01*
X56365000Y-23760000D02*
X56365000Y-27860000D01*
X46365000Y-37660000D02*
X46365000Y-37060000D01*
X44565000Y-27860000D02*
X44565000Y-23760000D01*
X46365000Y-37060000D02*
X46665000Y-37360000D01*
X56365000Y-31860000D02*
X56365000Y-35960000D01*
X49965000Y-29860000D02*
X50965000Y-29860000D01*
X49165000Y-23760000D02*
X51765000Y-23760000D01*
X44565000Y-35960000D02*
X56365000Y-35960000D01*
X50465000Y-30360000D02*
X50465000Y-29360000D01*
X53965000Y-23760000D02*
X56365000Y-23760000D01*
X44565000Y-23760000D02*
X46965000Y-23760000D01*
X53465000Y-29860000D02*
G75*
G03*
X53465000Y-29860000I-3000000J0D01*
G01*
%TO.C,D3*%
X38180000Y-41210000D02*
X35630000Y-41210000D01*
X38180000Y-41210000D02*
X38180000Y-39510000D01*
X38180000Y-39510000D02*
X35630000Y-39510000D01*
%TO.C,U3*%
X26390600Y-42336400D02*
X24440600Y-42336400D01*
X26390600Y-37216400D02*
X22940600Y-37216400D01*
X26390600Y-37216400D02*
X28340600Y-37216400D01*
X26390600Y-42336400D02*
X28340600Y-42336400D01*
%TO.C,SW5*%
X23660000Y-33657500D02*
X23960000Y-33657500D01*
X31280000Y-26037500D02*
X31280000Y-33657500D01*
X23660000Y-33657500D02*
X23660000Y-26037500D01*
X30980000Y-26037500D02*
X31280000Y-26037500D01*
X23660000Y-26037500D02*
X23960000Y-26037500D01*
X30980000Y-33657500D02*
X31280000Y-33657500D01*
X25900000Y-33657500D02*
X29040000Y-33657500D01*
X25900000Y-26037500D02*
X29040000Y-26037500D01*
X30010000Y-29847500D02*
G75*
G03*
X30010000Y-29847500I-2540000J0D01*
G01*
%TO.C,J2*%
X62500000Y-57720000D02*
X62500000Y-55060000D01*
X59900000Y-56390000D02*
X59900000Y-55060000D01*
X62500000Y-55060000D02*
X65100000Y-55060000D01*
X65100000Y-57720000D02*
X65100000Y-55060000D01*
X62500000Y-57720000D02*
X65100000Y-57720000D01*
X59900000Y-55060000D02*
X61230000Y-55060000D01*
%TO.C,Y1*%
X61865000Y-24035000D02*
X61865000Y-22685000D01*
X60115000Y-24035000D02*
X60115000Y-22685000D01*
%TO.C,C7*%
X36920580Y-45555000D02*
X36639420Y-45555000D01*
X36920580Y-46575000D02*
X36639420Y-46575000D01*
%TO.C,C11*%
X32713200Y-44234980D02*
X32713200Y-43953820D01*
X31693200Y-44234980D02*
X31693200Y-43953820D01*
%TO.C,J1*%
X22440000Y-55370000D02*
X20670000Y-55370000D01*
X22440000Y-55370000D02*
X22440000Y-54990000D01*
X20670000Y-47750000D02*
X22440000Y-47750000D01*
X18130000Y-47750000D02*
X18390000Y-47750000D01*
X22440000Y-47750000D02*
X22440000Y-48130000D01*
X18390000Y-55370000D02*
X18130000Y-55370000D01*
%TO.C,R7*%
X26351258Y-45464900D02*
X25876742Y-45464900D01*
X26351258Y-46509900D02*
X25876742Y-46509900D01*
%TO.C,D2*%
X38180000Y-43360000D02*
X38180000Y-41660000D01*
X38180000Y-43360000D02*
X35630000Y-43360000D01*
X38180000Y-41660000D02*
X35630000Y-41660000D01*
%TO.C,C6*%
X60800580Y-26770000D02*
X60519420Y-26770000D01*
X60800580Y-25750000D02*
X60519420Y-25750000D01*
%TO.C,U2*%
X40585000Y-43510000D02*
X38785000Y-43510000D01*
X40585000Y-46630000D02*
X41385000Y-46630000D01*
X40585000Y-43510000D02*
X41385000Y-43510000D01*
X40585000Y-46630000D02*
X39785000Y-46630000D01*
%TO.C,SW2*%
X46070000Y-43810000D02*
X46070000Y-43510000D01*
X46070000Y-43510000D02*
X50210000Y-43510000D01*
X50210000Y-46350000D02*
X50210000Y-46650000D01*
X46070000Y-46650000D02*
X46070000Y-46350000D01*
X50210000Y-43510000D02*
X50210000Y-43810000D01*
X50210000Y-46650000D02*
X46070000Y-46650000D01*
%TO.C,RV1*%
X57835000Y-54077500D02*
X58335000Y-54577500D01*
X27290000Y-53254500D02*
X27290000Y-47707500D01*
X50874000Y-47707500D02*
X33945000Y-47707500D01*
X49910000Y-52327500D02*
X49160000Y-51577500D01*
X30674000Y-47707500D02*
X27290000Y-47707500D01*
X57530000Y-56947500D02*
X52945000Y-56947500D01*
X57530000Y-49754500D02*
X57530000Y-47707500D01*
X57530000Y-52902500D02*
X57530000Y-51399500D01*
X58335000Y-54577500D02*
X58335000Y-53577500D01*
X57530000Y-47707500D02*
X54145000Y-47707500D01*
X27290000Y-56947500D02*
X27290000Y-54900500D01*
X31874000Y-56947500D02*
X27290000Y-56947500D01*
X49160000Y-53077500D02*
X49910000Y-52327500D01*
X49674000Y-56947500D02*
X35145000Y-56947500D01*
X49910000Y-53827500D02*
X49910000Y-50827500D01*
X58335000Y-53577500D02*
X57835000Y-54077500D01*
X35660000Y-53077500D02*
X34910000Y-52327500D01*
X57530000Y-56947500D02*
X57530000Y-55252500D01*
X49910000Y-52327500D02*
X34910000Y-52327500D01*
X34910000Y-52327500D02*
X35660000Y-51577500D01*
X34910000Y-53827500D02*
X34910000Y-50827500D01*
%TO.C,C10*%
X44120000Y-38784420D02*
X44120000Y-39065580D01*
X43100000Y-38784420D02*
X43100000Y-39065580D01*
%TO.C,R6*%
X56773658Y-45116900D02*
X56299142Y-45116900D01*
X56773658Y-44071900D02*
X56299142Y-44071900D01*
%TO.C,C8*%
X26487836Y-35750000D02*
X26272164Y-35750000D01*
X26487836Y-36470000D02*
X26272164Y-36470000D01*
%TO.C,R2*%
X25252258Y-50932500D02*
X24777742Y-50932500D01*
X25252258Y-49887500D02*
X24777742Y-49887500D01*
%TO.C,U1*%
X78490000Y-32460000D02*
X77390000Y-32460000D01*
X62790000Y-21760000D02*
X62790000Y-22860000D01*
X74940000Y-21510000D02*
X73840000Y-21510000D01*
X78490000Y-31360000D02*
X78490000Y-32460000D01*
X78490000Y-21760000D02*
X73840000Y-21760000D01*
X63890000Y-32460000D02*
X62790000Y-32460000D01*
X62790000Y-32460000D02*
X62790000Y-31360000D01*
X63890000Y-21760000D02*
X62790000Y-21760000D01*
X78490000Y-22860000D02*
X78490000Y-21760000D01*
%TO.C,C2*%
X60795580Y-30590000D02*
X60514420Y-30590000D01*
X60795580Y-31610000D02*
X60514420Y-31610000D01*
%TO.C,C4*%
X43105000Y-45220580D02*
X43105000Y-44939420D01*
X44125000Y-45220580D02*
X44125000Y-44939420D01*
%TO.C,D1*%
X21265000Y-56485000D02*
X18980000Y-56485000D01*
X18980000Y-57955000D02*
X21265000Y-57955000D01*
X21265000Y-57955000D02*
X21265000Y-56485000D01*
%TO.C,R1*%
X25247258Y-52582500D02*
X24772742Y-52582500D01*
X25247258Y-51537500D02*
X24772742Y-51537500D01*
%TO.C,R4*%
X40832258Y-41617500D02*
X40357742Y-41617500D01*
X40832258Y-42662500D02*
X40357742Y-42662500D01*
%TO.C,C3*%
X60795580Y-28990000D02*
X60514420Y-28990000D01*
X60795580Y-30010000D02*
X60514420Y-30010000D01*
%TO.C,U5*%
X40580000Y-37540000D02*
X38780000Y-37540000D01*
X40580000Y-40660000D02*
X41380000Y-40660000D01*
X40580000Y-37540000D02*
X41380000Y-37540000D01*
X40580000Y-40660000D02*
X39780000Y-40660000D01*
%TO.C,C5*%
X58350000Y-23025580D02*
X58350000Y-22744420D01*
X59370000Y-23025580D02*
X59370000Y-22744420D01*
%TO.C,C1*%
X60800580Y-27390000D02*
X60519420Y-27390000D01*
X60800580Y-28410000D02*
X60519420Y-28410000D01*
%TO.C,J3*%
X18520000Y-37230000D02*
X21180000Y-37230000D01*
X18520000Y-44910000D02*
X21180000Y-44910000D01*
X18520000Y-35960000D02*
X18520000Y-34630000D01*
X18520000Y-37230000D02*
X18520000Y-44910000D01*
X21180000Y-37230000D02*
X21180000Y-44910000D01*
X18520000Y-34630000D02*
X19850000Y-34630000D01*
%TO.C,SW1*%
X50210000Y-42370000D02*
X50210000Y-42670000D01*
X46070000Y-42670000D02*
X46070000Y-42370000D01*
X50210000Y-39530000D02*
X50210000Y-39830000D01*
X50210000Y-42670000D02*
X46070000Y-42670000D01*
X46070000Y-39830000D02*
X46070000Y-39530000D01*
X46070000Y-39530000D02*
X50210000Y-39530000D01*
%TO.C,R5*%
X56765458Y-41086300D02*
X56290942Y-41086300D01*
X56765458Y-40041300D02*
X56290942Y-40041300D01*
%TO.C,R3*%
X22837742Y-56697500D02*
X23312258Y-56697500D01*
X22837742Y-57742500D02*
X23312258Y-57742500D01*
%TO.C,R8*%
X26355058Y-44511300D02*
X25880542Y-44511300D01*
X26355058Y-43466300D02*
X25880542Y-43466300D01*
%TD*%
M02*
