M48
; DRILL file {KiCad (6.0.6-0)} date Sunday, May 14, 2023 at 09:26:11 PM
; FORMAT={-:-/ absolute / metric / decimal}
; #@! TF.CreationDate,2023-05-14T21:26:11-05:00
; #@! TF.GenerationSoftware,Kicad,Pcbnew,(6.0.6-0)
; #@! TF.FileFunction,Plated,1,4,PTH
FMAT,2
METRIC
; #@! TA.AperFunction,Plated,PTH,ViaDrill
T1C0.400
; #@! TA.AperFunction,Plated,PTH,ComponentDrill
T2C0.800
; #@! TA.AperFunction,Plated,PTH,ComponentDrill
T3C0.813
; #@! TA.AperFunction,Plated,PTH,ComponentDrill
T4C1.000
; #@! TA.AperFunction,Plated,PTH,ComponentDrill
T5C1.143
; #@! TA.AperFunction,Plated,PTH,ComponentDrill
T6C1.200
; #@! TA.AperFunction,Plated,PTH,ComponentDrill
T7C1.500
; #@! TA.AperFunction,Plated,PTH,ComponentDrill
T8C1.700
; #@! TA.AperFunction,Plated,PTH,ComponentDrill
T9C1.800
%
G90
G05
T1
X21.78Y-30.94
X23.298Y-52.864
X25.308Y-39.167
X25.308Y-40.437
X25.308Y-41.681
X25.861Y-35.392
X25.959Y-23.825
X26.86Y-35.37
X26.949Y-43.104
X26.949Y-46.888
X27.467Y-39.141
X30.261Y-40.411
X30.261Y-41.681
X31.22Y-50.308
X31.22Y-52.157
X33.096Y-43.307
X33.096Y-44.882
X36.01Y-47.15
X36.28Y-43.37
X36.295Y-44.869
X38.354Y-45.06
X38.355Y-38.904
X38.786Y-42.139
X39.421Y-50.308
X39.421Y-52.157
X43.61Y-43.25
X44.47Y-38.44
X44.481Y-39.439
X46.86Y-41.12
X46.86Y-45.09
X57.125Y-25.502
X58.166Y-40.564
X58.191Y-44.577
X58.82Y-26.259
X58.82Y-29.5
X58.83Y-27.9
X58.83Y-31.1
X58.85Y-24.71
X61.87Y-33.949
X62.445Y-28.405
X62.455Y-29.455
X62.59Y-22.464
X62.59Y-25.51
X62.601Y-26.509
X63.49Y-32.72
X63.965Y-33.599
X65.03Y-21.74
X65.114Y-25.734
X65.119Y-26.891
X65.3Y-28.31
X65.814Y-33.6
X65.82Y-34.93
X66.28Y-22.464
X66.687Y-23.378
X67.29Y-29.95
X67.365Y-33.262
X68.09Y-29.04
X68.09Y-34.01
X68.49Y-21.74
X68.888Y-28.439
X68.89Y-33.41
X70.49Y-29.96
X70.91Y-33.41
X73.674Y-23.88
X73.99Y-54.813
X74.04Y-32.45
X74.179Y-23.175
T2
X67.79Y-57.05
X69.79Y-57.05
X71.79Y-57.05
X73.79Y-57.05
X75.79Y-57.05
X77.79Y-57.05
T3
X24.93Y-26.037
X24.93Y-33.657
X30.01Y-26.037
X30.01Y-33.657
T4
X19.85Y-35.96
X19.85Y-38.5
X19.85Y-41.04
X19.85Y-43.58
X47.965Y-22.86
X47.965Y-37.36
X50.465Y-37.36
X52.965Y-22.86
X52.965Y-37.36
X61.23Y-56.39
X63.77Y-56.39
T5
X34.42Y-24.707
X34.42Y-35.008
X38.405Y-24.707
X38.405Y-35.008
X40.92Y-24.707
X40.92Y-35.008
T6
X28.16Y-54.078
X56.66Y-50.578
X56.66Y-54.078
T8
X32.31Y-48.127
X33.51Y-56.527
X51.31Y-56.527
X52.51Y-48.127
T9
X68.54Y-36.45
T7
G00X44.865Y-30.51
M15
G01X44.865Y-29.21
M16
G05
G00X56.065Y-30.51
M15
G01X56.065Y-29.21
M16
G05
T0
M30
