%TF.GenerationSoftware,KiCad,Pcbnew,(6.0.6-0)*%
%TF.CreationDate,2023-05-14T21:26:16-05:00*%
%TF.ProjectId,MHC_MAIN_REV_2,4d48435f-4d41-4494-9e5f-5245565f322e,rev?*%
%TF.SameCoordinates,Original*%
%TF.FileFunction,Copper,L4,Bot*%
%TF.FilePolarity,Positive*%
%FSLAX46Y46*%
G04 Gerber Fmt 4.6, Leading zero omitted, Abs format (unit mm)*
G04 Created by KiCad (PCBNEW (6.0.6-0)) date 2023-05-14 21:26:16*
%MOMM*%
%LPD*%
G01*
G04 APERTURE LIST*
%TA.AperFunction,ComponentPad*%
%ADD10C,1.778000*%
%TD*%
%TA.AperFunction,ComponentPad*%
%ADD11C,3.240000*%
%TD*%
%TA.AperFunction,ComponentPad*%
%ADD12R,1.350000X1.350000*%
%TD*%
%TA.AperFunction,ComponentPad*%
%ADD13O,1.350000X1.350000*%
%TD*%
%TA.AperFunction,ComponentPad*%
%ADD14R,2.000000X2.000000*%
%TD*%
%TA.AperFunction,ComponentPad*%
%ADD15C,2.000000*%
%TD*%
%TA.AperFunction,ComponentPad*%
%ADD16R,2.000000X3.200000*%
%TD*%
%TA.AperFunction,ComponentPad*%
%ADD17C,1.397000*%
%TD*%
%TA.AperFunction,ComponentPad*%
%ADD18R,1.700000X1.700000*%
%TD*%
%TA.AperFunction,ComponentPad*%
%ADD19O,1.700000X1.700000*%
%TD*%
%TA.AperFunction,ComponentPad*%
%ADD20R,1.750000X1.750000*%
%TD*%
%TA.AperFunction,ComponentPad*%
%ADD21C,1.750000*%
%TD*%
%TA.AperFunction,ComponentPad*%
%ADD22C,2.700000*%
%TD*%
%TA.AperFunction,ViaPad*%
%ADD23C,0.800000*%
%TD*%
%TA.AperFunction,Conductor*%
%ADD24C,0.250000*%
%TD*%
%TA.AperFunction,Conductor*%
%ADD25C,0.300000*%
%TD*%
G04 APERTURE END LIST*
D10*
%TO.P,S1,1*%
%TO.N,P0.05{slash}AIN3*%
X34420000Y-35007500D03*
%TO.P,S1,2*%
%TO.N,P0.06*%
X38405000Y-35007500D03*
%TO.P,S1,3*%
%TO.N,P0.07*%
X40920000Y-35007500D03*
%TO.P,S1,4*%
%TO.N,GND*%
X40920000Y-24707500D03*
%TO.P,S1,5*%
%TO.N,P0.28{slash}AIN4*%
X38405000Y-24707500D03*
%TO.P,S1,6*%
%TO.N,P0.30{slash}AIN6*%
X34420000Y-24707500D03*
%TD*%
D11*
%TO.P,U4,*%
%TO.N,*%
X68540000Y-36450000D03*
D12*
%TO.P,U4,1,AD1*%
%TO.N,P0.29{slash}AIN5*%
X77790000Y-57050000D03*
D13*
%TO.P,U4,2,GND*%
%TO.N,GND*%
X75790000Y-57050000D03*
%TO.P,U4,3,SW*%
%TO.N,P0.23*%
X73790000Y-57050000D03*
%TO.P,U4,4,AD2*%
%TO.N,P0.03{slash}AIN1*%
X71790000Y-57050000D03*
%TO.P,U4,5,GND*%
%TO.N,GND*%
X69790000Y-57050000D03*
%TO.P,U4,6,VDD*%
%TO.N,+3.3V*%
X67790000Y-57050000D03*
%TD*%
D14*
%TO.P,SW3,A,A*%
%TO.N,P0.15*%
X47965000Y-37360000D03*
D15*
%TO.P,SW3,B,B*%
%TO.N,P0.17*%
X52965000Y-37360000D03*
%TO.P,SW3,C,C*%
%TO.N,GND*%
X50465000Y-37360000D03*
D16*
%TO.P,SW3,MP*%
%TO.N,N/C*%
X44865000Y-29860000D03*
X56065000Y-29860000D03*
D15*
%TO.P,SW3,S1,S1*%
%TO.N,P0.31{slash}AIN7*%
X52965000Y-22860000D03*
%TO.P,SW3,S2,S2*%
%TO.N,GND*%
X47965000Y-22860000D03*
%TD*%
D17*
%TO.P,SW5,1,1*%
%TO.N,GND*%
X24930000Y-33657500D03*
X24930000Y-26037500D03*
%TO.P,SW5,2,2*%
%TO.N,P0.04{slash}AIN2*%
X30010000Y-33657500D03*
X30010000Y-26037500D03*
%TD*%
D18*
%TO.P,J2,1,Pin_1*%
%TO.N,+BATT*%
X61230000Y-56390000D03*
D19*
%TO.P,J2,2,Pin_2*%
%TO.N,GND*%
X63770000Y-56390000D03*
%TD*%
D20*
%TO.P,RV1,1,1*%
%TO.N,+3.3V*%
X56660000Y-54077500D03*
D21*
%TO.P,RV1,2,2*%
%TO.N,P0.02{slash}AIN0*%
X56660000Y-50577500D03*
%TO.P,RV1,3,3*%
%TO.N,GND*%
X28160000Y-54077500D03*
D22*
%TO.P,RV1,MP*%
%TO.N,N/C*%
X52510000Y-48127500D03*
X32310000Y-48127500D03*
X51310000Y-56527500D03*
X33510000Y-56527500D03*
%TD*%
D18*
%TO.P,J3,1,Pin_1*%
%TO.N,GND*%
X19850000Y-35960000D03*
D19*
%TO.P,J3,2,Pin_2*%
%TO.N,+3.3V*%
X19850000Y-38500000D03*
%TO.P,J3,3,Pin_3*%
%TO.N,SCL*%
X19850000Y-41040000D03*
%TO.P,J3,4,Pin_4*%
%TO.N,SDA*%
X19850000Y-43580000D03*
%TD*%
D23*
%TO.N,GND*%
X25958800Y-23825200D03*
X23298491Y-52864263D03*
X73990200Y-54813200D03*
X21780000Y-30940000D03*
X46860000Y-45090000D03*
X58830000Y-31100000D03*
X25307800Y-40436800D03*
X74040000Y-32450000D03*
X38785800Y-42138600D03*
X73674500Y-23880000D03*
X58830000Y-27900000D03*
X36010000Y-47150000D03*
X44480983Y-39439443D03*
X25307800Y-39166800D03*
X43610000Y-43250000D03*
X58850000Y-24710000D03*
X58820000Y-26259500D03*
X33096200Y-43307000D03*
X74178749Y-23175205D03*
X46860000Y-41120000D03*
X58820000Y-29500000D03*
X38354541Y-38904214D03*
X63490000Y-32720000D03*
X38354000Y-45059600D03*
X62590000Y-22464500D03*
X25860734Y-35391723D03*
X25307800Y-41681400D03*
X27466800Y-39141400D03*
%TO.N,P0.03{slash}AIN1*%
X68888356Y-28438641D03*
X68889602Y-33410298D03*
%TO.N,P0.29{slash}AIN5*%
X68490000Y-21740000D03*
%TO.N,P0.02{slash}AIN0*%
X68090000Y-29040000D03*
X68090000Y-34010000D03*
%TO.N,P0.31{slash}AIN7*%
X65030000Y-21740000D03*
%TO.N,P0.28{slash}AIN4*%
X66686710Y-23377512D03*
%TO.N,P0.30{slash}AIN6*%
X66280000Y-22464500D03*
%TO.N,P0.04{slash}AIN2*%
X57124600Y-25501600D03*
X62590000Y-25510000D03*
%TO.N,P0.05{slash}AIN3*%
X65113912Y-25733912D03*
%TO.N,P0.06*%
X62601230Y-26509439D03*
%TO.N,P0.07*%
X65119112Y-26891354D03*
%TO.N,+3.3V*%
X58191400Y-44577000D03*
X58166000Y-40563800D03*
X44470000Y-38440000D03*
X33096200Y-44881800D03*
X26860000Y-35370000D03*
X62455000Y-29455000D03*
X26949400Y-43103800D03*
X26949400Y-46888400D03*
%TO.N,P0.13*%
X63965500Y-33599149D03*
X65814500Y-33600000D03*
%TO.N,P0.15*%
X65820000Y-34930000D03*
%TO.N,RESET*%
X61870500Y-33948931D03*
X67290000Y-29950000D03*
%TO.N,P0.17*%
X67365500Y-33262332D03*
%TO.N,P0.23*%
X70490000Y-29960498D03*
X70910000Y-33410000D03*
%TO.N,Net-(R3-Pad2)*%
X31220000Y-50307999D03*
X31220000Y-52157001D03*
%TO.N,+BATT*%
X39420800Y-50307999D03*
X36280000Y-43370500D03*
X36294977Y-44869500D03*
X39420800Y-52157001D03*
%TO.N,SDA*%
X62445023Y-28405023D03*
X30260800Y-41681400D03*
%TO.N,SCL*%
X65300000Y-28310000D03*
X30260800Y-40411400D03*
%TD*%
D24*
%TO.N,P0.03{slash}AIN1*%
X68888356Y-33409052D02*
X68889602Y-33410298D01*
X68888356Y-28438641D02*
X68888356Y-33409052D01*
%TO.N,P0.29{slash}AIN5*%
X71590000Y-21740000D02*
X68490000Y-21740000D01*
X77790000Y-57050000D02*
X72950000Y-52210000D01*
X72950000Y-23100000D02*
X71590000Y-21740000D01*
X72950000Y-52210000D02*
X72950000Y-23100000D01*
%TO.N,P0.02{slash}AIN0*%
X68090000Y-29040000D02*
X68090000Y-34010000D01*
%TO.N,P0.31{slash}AIN7*%
X65030000Y-21740000D02*
X54085000Y-21740000D01*
X54085000Y-21740000D02*
X52965000Y-22860000D01*
D25*
%TO.N,P0.28{slash}AIN4*%
X57128600Y-23110000D02*
X54483000Y-25755600D01*
X66686710Y-23377512D02*
X66682488Y-23377512D01*
X46431200Y-25755600D02*
X43561000Y-22885400D01*
X60350000Y-23110000D02*
X57128600Y-23110000D01*
X61140000Y-23900000D02*
X60350000Y-23110000D01*
X38405000Y-23672600D02*
X38405000Y-24707500D01*
X39192200Y-22885400D02*
X38405000Y-23672600D01*
X66160000Y-23900000D02*
X61140000Y-23900000D01*
X54483000Y-25755600D02*
X46431200Y-25755600D01*
X43561000Y-22885400D02*
X39192200Y-22885400D01*
X66682488Y-23377512D02*
X66160000Y-23900000D01*
%TO.N,P0.30{slash}AIN6*%
X62279339Y-23214500D02*
X61474839Y-22410000D01*
X53975000Y-24993600D02*
X46863000Y-24993600D01*
X46863000Y-24993600D02*
X44043600Y-22174200D01*
X44043600Y-22174200D02*
X35915600Y-22174200D01*
X62925661Y-23189500D02*
X62900661Y-23214500D01*
X66280000Y-22464500D02*
X65555000Y-23189500D01*
X34420000Y-23669800D02*
X34420000Y-24707500D01*
X35915600Y-22174200D02*
X34420000Y-23669800D01*
X56558600Y-22410000D02*
X53975000Y-24993600D01*
X65555000Y-23189500D02*
X62925661Y-23189500D01*
X62900661Y-23214500D02*
X62279339Y-23214500D01*
X61474839Y-22410000D02*
X56558600Y-22410000D01*
%TO.N,P0.04{slash}AIN2*%
X62590000Y-25510000D02*
X57133000Y-25510000D01*
X57133000Y-25510000D02*
X57124600Y-25501600D01*
%TO.N,P0.05{slash}AIN3*%
X54889400Y-26466800D02*
X42960700Y-26466800D01*
X57556200Y-23800000D02*
X54889400Y-26466800D01*
X64075000Y-24695000D02*
X60675000Y-24695000D01*
X42960700Y-26466800D02*
X34420000Y-35007500D01*
X60675000Y-24695000D02*
X59780000Y-23800000D01*
X59780000Y-23800000D02*
X57556200Y-23800000D01*
X65113912Y-25733912D02*
X64075000Y-24695000D01*
%TO.N,P0.06*%
X62601230Y-26509439D02*
X62110469Y-27000200D01*
X59130661Y-27009500D02*
X58509339Y-27009500D01*
X58509339Y-27009500D02*
X58500039Y-27000200D01*
X38405000Y-32232400D02*
X38405000Y-35007500D01*
X59139961Y-27000200D02*
X59130661Y-27009500D01*
X58500039Y-27000200D02*
X43637200Y-27000200D01*
X43637200Y-27000200D02*
X38405000Y-32232400D01*
X62110469Y-27000200D02*
X59139961Y-27000200D01*
%TO.N,P0.07*%
X65119112Y-26891354D02*
X63405646Y-26891354D01*
X60434200Y-27551400D02*
X59580000Y-28405600D01*
X59580000Y-28405600D02*
X59580000Y-31479000D01*
D24*
X43415500Y-32512000D02*
X40920000Y-35007500D01*
D25*
X62745600Y-27551400D02*
X60434200Y-27551400D01*
X59580000Y-31479000D02*
X59555000Y-31504000D01*
D24*
X58547000Y-32512000D02*
X43415500Y-32512000D01*
X59555000Y-31504000D02*
X58547000Y-32512000D01*
D25*
X63405646Y-26891354D02*
X62745600Y-27551400D01*
%TO.N,P0.13*%
X65814500Y-33600000D02*
X63966351Y-33600000D01*
X63966351Y-33600000D02*
X63965500Y-33599149D01*
D24*
%TO.N,P0.15*%
X49042400Y-34930000D02*
X47965000Y-36007400D01*
X47965000Y-36007400D02*
X47965000Y-37360000D01*
X65820000Y-34930000D02*
X49042400Y-34930000D01*
D25*
%TO.N,RESET*%
X61870500Y-33948931D02*
X61870500Y-32349500D01*
X61870500Y-32349500D02*
X64270000Y-29950000D01*
X64270000Y-29950000D02*
X67290000Y-29950000D01*
D24*
%TO.N,P0.17*%
X67365500Y-33262332D02*
X67365500Y-34409805D01*
X67365500Y-34409805D02*
X66037505Y-35737800D01*
X66037505Y-35737800D02*
X54587200Y-35737800D01*
X54587200Y-35737800D02*
X52965000Y-37360000D01*
%TO.N,P0.23*%
X70490000Y-29960498D02*
X70910000Y-30380498D01*
X70910000Y-30380498D02*
X70910000Y-33410000D01*
D25*
%TO.N,Net-(R3-Pad2)*%
X31220000Y-50307999D02*
X31220000Y-52157001D01*
%TO.N,+BATT*%
X36294977Y-43385477D02*
X36280000Y-43370500D01*
X36294977Y-44869500D02*
X36294977Y-43385477D01*
X39420800Y-52157001D02*
X39420800Y-50307999D01*
%TO.N,SDA*%
X59029600Y-33070800D02*
X46482000Y-33070800D01*
X62445023Y-28405023D02*
X60629800Y-30220246D01*
X32038800Y-36753800D02*
X29321000Y-39471600D01*
X60629800Y-31470600D02*
X59029600Y-33070800D01*
X29321000Y-40741600D02*
X30260800Y-41681400D01*
X46482000Y-33070800D02*
X42799000Y-36753800D01*
X29321000Y-39471600D02*
X29321000Y-40741600D01*
X60629800Y-30220246D02*
X60629800Y-31470600D01*
X42799000Y-36753800D02*
X32038800Y-36753800D01*
%TO.N,SCL*%
X65300000Y-28310000D02*
X64849339Y-28310000D01*
X33283400Y-37388800D02*
X30260800Y-40411400D01*
X46786800Y-33782000D02*
X43180000Y-37388800D01*
X43180000Y-37388800D02*
X33283400Y-37388800D01*
X64849339Y-28310000D02*
X64849339Y-28330661D01*
X64734939Y-28330661D02*
X59283600Y-33782000D01*
X64849339Y-28330661D02*
X64734939Y-28330661D01*
X59283600Y-33782000D02*
X46786800Y-33782000D01*
%TD*%
M02*
