%TF.GenerationSoftware,KiCad,Pcbnew,(6.0.6-0)*%
%TF.CreationDate,2023-05-14T21:26:16-05:00*%
%TF.ProjectId,MHC_MAIN_REV_2,4d48435f-4d41-4494-9e5f-5245565f322e,rev?*%
%TF.SameCoordinates,Original*%
%TF.FileFunction,Paste,Top*%
%TF.FilePolarity,Positive*%
%FSLAX46Y46*%
G04 Gerber Fmt 4.6, Leading zero omitted, Abs format (unit mm)*
G04 Created by KiCad (PCBNEW (6.0.6-0)) date 2023-05-14 21:26:16*
%MOMM*%
%LPD*%
G01*
G04 APERTURE LIST*
G04 Aperture macros list*
%AMRoundRect*
0 Rectangle with rounded corners*
0 $1 Rounding radius*
0 $2 $3 $4 $5 $6 $7 $8 $9 X,Y pos of 4 corners*
0 Add a 4 corners polygon primitive as box body*
4,1,4,$2,$3,$4,$5,$6,$7,$8,$9,$2,$3,0*
0 Add four circle primitives for the rounded corners*
1,1,$1+$1,$2,$3*
1,1,$1+$1,$4,$5*
1,1,$1+$1,$6,$7*
1,1,$1+$1,$8,$9*
0 Add four rect primitives between the rounded corners*
20,1,$1+$1,$2,$3,$4,$5,0*
20,1,$1+$1,$4,$5,$6,$7,0*
20,1,$1+$1,$6,$7,$8,$9,0*
20,1,$1+$1,$8,$9,$2,$3,0*%
G04 Aperture macros list end*
%ADD10R,0.275000X0.250000*%
%ADD11R,0.250000X0.275000*%
%ADD12RoundRect,0.225000X-0.225000X-0.250000X0.225000X-0.250000X0.225000X0.250000X-0.225000X0.250000X0*%
%ADD13R,0.800000X1.000000*%
%ADD14R,1.500000X0.700000*%
%ADD15R,0.600000X0.450000*%
%ADD16RoundRect,0.150000X-0.825000X-0.150000X0.825000X-0.150000X0.825000X0.150000X-0.825000X0.150000X0*%
%ADD17R,1.800000X1.000000*%
%ADD18RoundRect,0.225000X0.225000X0.250000X-0.225000X0.250000X-0.225000X-0.250000X0.225000X-0.250000X0*%
%ADD19RoundRect,0.225000X0.250000X-0.225000X0.250000X0.225000X-0.250000X0.225000X-0.250000X-0.225000X0*%
%ADD20R,1.300000X1.650000*%
%ADD21R,1.900000X1.000000*%
%ADD22R,1.550000X1.425000*%
%ADD23R,1.900000X1.800000*%
%ADD24R,1.380000X0.450000*%
%ADD25RoundRect,0.200000X0.200000X0.275000X-0.200000X0.275000X-0.200000X-0.275000X0.200000X-0.275000X0*%
%ADD26RoundRect,0.150000X-0.512500X-0.150000X0.512500X-0.150000X0.512500X0.150000X-0.512500X0.150000X0*%
%ADD27RoundRect,0.200000X-0.200000X-0.800000X0.200000X-0.800000X0.200000X0.800000X-0.200000X0.800000X0*%
%ADD28RoundRect,0.225000X-0.250000X0.225000X-0.250000X-0.225000X0.250000X-0.225000X0.250000X0.225000X0*%
%ADD29RoundRect,0.140000X0.140000X0.170000X-0.140000X0.170000X-0.140000X-0.170000X0.140000X-0.170000X0*%
%ADD30R,0.400000X0.600000*%
%ADD31R,0.600000X0.400000*%
%ADD32RoundRect,0.218750X0.218750X0.256250X-0.218750X0.256250X-0.218750X-0.256250X0.218750X-0.256250X0*%
%ADD33RoundRect,0.200000X-0.200000X-0.275000X0.200000X-0.275000X0.200000X0.275000X-0.200000X0.275000X0*%
G04 APERTURE END LIST*
D10*
%TO.C,U6*%
X29141700Y-43539600D03*
X29141700Y-44039600D03*
X29141700Y-44539600D03*
X29141700Y-45039600D03*
D11*
X29654200Y-45052100D03*
X30154200Y-45052100D03*
D10*
X30666700Y-45039600D03*
X30666700Y-44539600D03*
X30666700Y-44039600D03*
X30666700Y-43539600D03*
D11*
X30154200Y-43527100D03*
X29654200Y-43527100D03*
%TD*%
D12*
%TO.C,C9*%
X23537800Y-23833200D03*
X25087800Y-23833200D03*
%TD*%
D13*
%TO.C,SW4*%
X18440000Y-31390000D03*
X18440000Y-24090000D03*
X20650000Y-24090000D03*
X20650000Y-31390000D03*
D14*
X21300000Y-25490000D03*
X21300000Y-28490000D03*
X21300000Y-29990000D03*
%TD*%
D15*
%TO.C,D3*%
X37730000Y-40360000D03*
X35630000Y-40360000D03*
%TD*%
D16*
%TO.C,U3*%
X23915600Y-37871400D03*
X23915600Y-39141400D03*
X23915600Y-40411400D03*
X23915600Y-41681400D03*
X28865600Y-41681400D03*
X28865600Y-40411400D03*
X28865600Y-39141400D03*
X28865600Y-37871400D03*
%TD*%
D17*
%TO.C,Y1*%
X60990000Y-22110000D03*
X60990000Y-24610000D03*
%TD*%
D18*
%TO.C,C7*%
X37555000Y-46065000D03*
X36005000Y-46065000D03*
%TD*%
D19*
%TO.C,C11*%
X32203200Y-44869400D03*
X32203200Y-43319400D03*
%TD*%
D20*
%TO.C,J1*%
X19530000Y-48185000D03*
X19530000Y-54935000D03*
D21*
X19530000Y-53110000D03*
D22*
X22105000Y-54047500D03*
D23*
X19530000Y-50410000D03*
D22*
X22105000Y-49072500D03*
D24*
X22190000Y-50260000D03*
X22190000Y-50910000D03*
X22190000Y-51560000D03*
X22190000Y-52210000D03*
X22190000Y-52860000D03*
%TD*%
D25*
%TO.C,R7*%
X26939000Y-45987400D03*
X25289000Y-45987400D03*
%TD*%
D15*
%TO.C,D2*%
X37730000Y-42510000D03*
X35630000Y-42510000D03*
%TD*%
D18*
%TO.C,C6*%
X61435000Y-26260000D03*
X59885000Y-26260000D03*
%TD*%
D26*
%TO.C,U2*%
X39447500Y-44120000D03*
X39447500Y-45070000D03*
X39447500Y-46020000D03*
X41722500Y-46020000D03*
X41722500Y-44120000D03*
%TD*%
D27*
%TO.C,SW2*%
X46040000Y-45080000D03*
X50240000Y-45080000D03*
%TD*%
D28*
%TO.C,C10*%
X43610000Y-38150000D03*
X43610000Y-39700000D03*
%TD*%
D25*
%TO.C,R6*%
X57361400Y-44594400D03*
X55711400Y-44594400D03*
%TD*%
D29*
%TO.C,C8*%
X26860000Y-36110000D03*
X25900000Y-36110000D03*
%TD*%
D25*
%TO.C,R2*%
X25840000Y-50410000D03*
X24190000Y-50410000D03*
%TD*%
D30*
%TO.C,U1*%
X74390000Y-22460000D03*
X73290000Y-22460000D03*
X72490000Y-22460000D03*
X70890000Y-22460000D03*
X70490000Y-23360000D03*
X70090000Y-22460000D03*
X69690000Y-23360000D03*
X69290000Y-22460000D03*
X68890000Y-23360000D03*
X68490000Y-22460000D03*
X68090000Y-23360000D03*
X67690000Y-22460000D03*
X67290000Y-23360000D03*
X66890000Y-22460000D03*
D31*
X63490000Y-22310000D03*
X63490000Y-23110000D03*
X63490000Y-23910000D03*
X63490000Y-24710000D03*
X64390000Y-25110000D03*
X63490000Y-25510000D03*
X64390000Y-25910000D03*
X63490000Y-26310000D03*
X64390000Y-26710000D03*
X63490000Y-27110000D03*
X64390000Y-27510000D03*
X63490000Y-27910000D03*
X64390000Y-28310000D03*
X63490000Y-28710000D03*
X64390000Y-29110000D03*
X63490000Y-29510000D03*
X63490000Y-30310000D03*
X63490000Y-31110000D03*
X63490000Y-31910000D03*
D30*
X64490000Y-31760000D03*
X65290000Y-31760000D03*
X65690000Y-30860000D03*
X66090000Y-31760000D03*
X66490000Y-30860000D03*
X66890000Y-31760000D03*
X67290000Y-30860000D03*
X67690000Y-31760000D03*
X68090000Y-30860000D03*
X68890000Y-30860000D03*
X69290000Y-31760000D03*
X69690000Y-30860000D03*
X70090000Y-31760000D03*
X70490000Y-30860000D03*
X70890000Y-31760000D03*
X71290000Y-30860000D03*
X72090000Y-30860000D03*
X72490000Y-31760000D03*
X72890000Y-30860000D03*
X73290000Y-31760000D03*
X73690000Y-30860000D03*
X74390000Y-31760000D03*
D31*
X70090000Y-25110000D03*
X70090000Y-25910000D03*
X70090000Y-26710000D03*
X70090000Y-27510000D03*
X70090000Y-28310000D03*
X70090000Y-29110000D03*
%TD*%
D18*
%TO.C,C2*%
X61430000Y-31100000D03*
X59880000Y-31100000D03*
%TD*%
D19*
%TO.C,C4*%
X43615000Y-45855000D03*
X43615000Y-44305000D03*
%TD*%
D32*
%TO.C,D1*%
X20567500Y-57220000D03*
X18992500Y-57220000D03*
%TD*%
D25*
%TO.C,R1*%
X25835000Y-52060000D03*
X24185000Y-52060000D03*
%TD*%
%TO.C,R4*%
X41420000Y-42140000D03*
X39770000Y-42140000D03*
%TD*%
D18*
%TO.C,C3*%
X61430000Y-29500000D03*
X59880000Y-29500000D03*
%TD*%
D26*
%TO.C,U5*%
X39442500Y-38150000D03*
X39442500Y-39100000D03*
X39442500Y-40050000D03*
X41717500Y-40050000D03*
X41717500Y-38150000D03*
%TD*%
D19*
%TO.C,C5*%
X58860000Y-23660000D03*
X58860000Y-22110000D03*
%TD*%
D18*
%TO.C,C1*%
X61435000Y-27900000D03*
X59885000Y-27900000D03*
%TD*%
D27*
%TO.C,SW1*%
X46040000Y-41100000D03*
X50240000Y-41100000D03*
%TD*%
D25*
%TO.C,R5*%
X57353200Y-40563800D03*
X55703200Y-40563800D03*
%TD*%
D33*
%TO.C,R3*%
X22250000Y-57220000D03*
X23900000Y-57220000D03*
%TD*%
D25*
%TO.C,R8*%
X26942800Y-43988800D03*
X25292800Y-43988800D03*
%TD*%
M02*
