%TF.GenerationSoftware,KiCad,Pcbnew,(6.0.6-0)*%
%TF.CreationDate,2023-05-14T21:26:16-05:00*%
%TF.ProjectId,MHC_MAIN_REV_2,4d48435f-4d41-4494-9e5f-5245565f322e,rev?*%
%TF.SameCoordinates,Original*%
%TF.FileFunction,Copper,L3,Inr*%
%TF.FilePolarity,Positive*%
%FSLAX46Y46*%
G04 Gerber Fmt 4.6, Leading zero omitted, Abs format (unit mm)*
G04 Created by KiCad (PCBNEW (6.0.6-0)) date 2023-05-14 21:26:16*
%MOMM*%
%LPD*%
G01*
G04 APERTURE LIST*
%TA.AperFunction,ComponentPad*%
%ADD10C,1.778000*%
%TD*%
%TA.AperFunction,ComponentPad*%
%ADD11C,3.240000*%
%TD*%
%TA.AperFunction,ComponentPad*%
%ADD12R,1.350000X1.350000*%
%TD*%
%TA.AperFunction,ComponentPad*%
%ADD13O,1.350000X1.350000*%
%TD*%
%TA.AperFunction,ComponentPad*%
%ADD14R,2.000000X2.000000*%
%TD*%
%TA.AperFunction,ComponentPad*%
%ADD15C,2.000000*%
%TD*%
%TA.AperFunction,ComponentPad*%
%ADD16R,2.000000X3.200000*%
%TD*%
%TA.AperFunction,ComponentPad*%
%ADD17C,1.397000*%
%TD*%
%TA.AperFunction,ComponentPad*%
%ADD18R,1.700000X1.700000*%
%TD*%
%TA.AperFunction,ComponentPad*%
%ADD19O,1.700000X1.700000*%
%TD*%
%TA.AperFunction,ComponentPad*%
%ADD20R,1.750000X1.750000*%
%TD*%
%TA.AperFunction,ComponentPad*%
%ADD21C,1.750000*%
%TD*%
%TA.AperFunction,ComponentPad*%
%ADD22C,2.700000*%
%TD*%
%TA.AperFunction,ViaPad*%
%ADD23C,0.800000*%
%TD*%
G04 APERTURE END LIST*
D10*
%TO.N,P0.05{slash}AIN3*%
%TO.C,S1*%
X34420000Y-35007500D03*
%TO.N,P0.06*%
X38405000Y-35007500D03*
%TO.N,P0.07*%
X40920000Y-35007500D03*
%TO.N,GND*%
X40920000Y-24707500D03*
%TO.N,P0.28{slash}AIN4*%
X38405000Y-24707500D03*
%TO.N,P0.30{slash}AIN6*%
X34420000Y-24707500D03*
%TD*%
D11*
%TO.N,*%
%TO.C,U4*%
X68540000Y-36450000D03*
D12*
%TO.N,P0.29{slash}AIN5*%
X77790000Y-57050000D03*
D13*
%TO.N,GND*%
X75790000Y-57050000D03*
%TO.N,P0.23*%
X73790000Y-57050000D03*
%TO.N,P0.03{slash}AIN1*%
X71790000Y-57050000D03*
%TO.N,GND*%
X69790000Y-57050000D03*
%TO.N,+3.3V*%
X67790000Y-57050000D03*
%TD*%
D14*
%TO.N,P0.15*%
%TO.C,SW3*%
X47965000Y-37360000D03*
D15*
%TO.N,P0.17*%
X52965000Y-37360000D03*
%TO.N,GND*%
X50465000Y-37360000D03*
D16*
%TO.N,N/C*%
X44865000Y-29860000D03*
X56065000Y-29860000D03*
D15*
%TO.N,P0.31{slash}AIN7*%
X52965000Y-22860000D03*
%TO.N,GND*%
X47965000Y-22860000D03*
%TD*%
D17*
%TO.N,GND*%
%TO.C,SW5*%
X24930000Y-33657500D03*
X24930000Y-26037500D03*
%TO.N,P0.04{slash}AIN2*%
X30010000Y-33657500D03*
X30010000Y-26037500D03*
%TD*%
D18*
%TO.N,+BATT*%
%TO.C,J2*%
X61230000Y-56390000D03*
D19*
%TO.N,GND*%
X63770000Y-56390000D03*
%TD*%
D20*
%TO.N,+3.3V*%
%TO.C,RV1*%
X56660000Y-54077500D03*
D21*
%TO.N,P0.02{slash}AIN0*%
X56660000Y-50577500D03*
%TO.N,GND*%
X28160000Y-54077500D03*
D22*
%TO.N,N/C*%
X52510000Y-48127500D03*
X32310000Y-48127500D03*
X51310000Y-56527500D03*
X33510000Y-56527500D03*
%TD*%
D18*
%TO.N,GND*%
%TO.C,J3*%
X19850000Y-35960000D03*
D19*
%TO.N,+3.3V*%
X19850000Y-38500000D03*
%TO.N,SCL*%
X19850000Y-41040000D03*
%TO.N,SDA*%
X19850000Y-43580000D03*
%TD*%
D23*
%TO.N,GND*%
X25958800Y-23825200D03*
X23298491Y-52864263D03*
X73990200Y-54813200D03*
X21780000Y-30940000D03*
X46860000Y-45090000D03*
X58830000Y-31100000D03*
X25307800Y-40436800D03*
X74040000Y-32450000D03*
X38785800Y-42138600D03*
X73674500Y-23880000D03*
X58830000Y-27900000D03*
X36010000Y-47150000D03*
X44480983Y-39439443D03*
X25307800Y-39166800D03*
X43610000Y-43250000D03*
X58850000Y-24710000D03*
X58820000Y-26259500D03*
X33096200Y-43307000D03*
X74178749Y-23175205D03*
X46860000Y-41120000D03*
X58820000Y-29500000D03*
X38354541Y-38904214D03*
X63490000Y-32720000D03*
X38354000Y-45059600D03*
X62590000Y-22464500D03*
X25860734Y-35391723D03*
X25307800Y-41681400D03*
X27466800Y-39141400D03*
%TO.N,P0.03{slash}AIN1*%
X68888356Y-28438641D03*
X68889602Y-33410298D03*
%TO.N,P0.29{slash}AIN5*%
X68490000Y-21740000D03*
%TO.N,P0.02{slash}AIN0*%
X68090000Y-29040000D03*
X68090000Y-34010000D03*
%TO.N,P0.31{slash}AIN7*%
X65030000Y-21740000D03*
%TO.N,P0.28{slash}AIN4*%
X66686710Y-23377512D03*
%TO.N,P0.30{slash}AIN6*%
X66280000Y-22464500D03*
%TO.N,P0.04{slash}AIN2*%
X57124600Y-25501600D03*
X62590000Y-25510000D03*
%TO.N,P0.05{slash}AIN3*%
X65113912Y-25733912D03*
%TO.N,P0.06*%
X62601230Y-26509439D03*
%TO.N,P0.07*%
X65119112Y-26891354D03*
%TO.N,+3.3V*%
X58191400Y-44577000D03*
X58166000Y-40563800D03*
X44470000Y-38440000D03*
X33096200Y-44881800D03*
X26860000Y-35370000D03*
X62455000Y-29455000D03*
X26949400Y-43103800D03*
X26949400Y-46888400D03*
%TO.N,P0.13*%
X63965500Y-33599149D03*
X65814500Y-33600000D03*
%TO.N,P0.15*%
X65820000Y-34930000D03*
%TO.N,RESET*%
X61870500Y-33948931D03*
X67290000Y-29950000D03*
%TO.N,P0.17*%
X67365500Y-33262332D03*
%TO.N,P0.23*%
X70490000Y-29960498D03*
X70910000Y-33410000D03*
%TO.N,Net-(R3-Pad2)*%
X31220000Y-50307999D03*
X31220000Y-52157001D03*
%TO.N,+BATT*%
X39420800Y-50307999D03*
X36280000Y-43370500D03*
X36294977Y-44869500D03*
X39420800Y-52157001D03*
%TO.N,SDA*%
X62445023Y-28405023D03*
X30260800Y-41681400D03*
%TO.N,SCL*%
X65300000Y-28310000D03*
X30260800Y-40411400D03*
%TD*%
%TA.AperFunction,Conductor*%
%TO.N,+3.3V*%
G36*
X46701693Y-21798502D02*
G01*
X46748186Y-21852158D01*
X46758290Y-21922432D01*
X46739154Y-21969561D01*
X46740824Y-21970584D01*
X46616760Y-22173037D01*
X46614867Y-22177607D01*
X46614865Y-22177611D01*
X46562834Y-22303226D01*
X46525895Y-22392406D01*
X46524740Y-22397218D01*
X46473616Y-22610166D01*
X46470465Y-22623289D01*
X46451835Y-22860000D01*
X46470465Y-23096711D01*
X46471619Y-23101518D01*
X46471620Y-23101524D01*
X46492316Y-23187728D01*
X46525895Y-23327594D01*
X46527788Y-23332165D01*
X46527789Y-23332167D01*
X46604972Y-23518503D01*
X46616760Y-23546963D01*
X46619346Y-23551183D01*
X46738241Y-23745202D01*
X46738245Y-23745208D01*
X46740824Y-23749416D01*
X46895031Y-23929969D01*
X47075584Y-24084176D01*
X47079792Y-24086755D01*
X47079798Y-24086759D01*
X47217781Y-24171315D01*
X47278037Y-24208240D01*
X47282607Y-24210133D01*
X47282611Y-24210135D01*
X47462484Y-24284640D01*
X47497406Y-24299105D01*
X47577609Y-24318360D01*
X47723476Y-24353380D01*
X47723482Y-24353381D01*
X47728289Y-24354535D01*
X47965000Y-24373165D01*
X48201711Y-24354535D01*
X48206518Y-24353381D01*
X48206524Y-24353380D01*
X48352391Y-24318360D01*
X48432594Y-24299105D01*
X48467516Y-24284640D01*
X48647389Y-24210135D01*
X48647393Y-24210133D01*
X48651963Y-24208240D01*
X48712219Y-24171315D01*
X48850202Y-24086759D01*
X48850208Y-24086755D01*
X48854416Y-24084176D01*
X49034969Y-23929969D01*
X49189176Y-23749416D01*
X49191755Y-23745208D01*
X49191759Y-23745202D01*
X49310654Y-23551183D01*
X49313240Y-23546963D01*
X49325029Y-23518503D01*
X49402211Y-23332167D01*
X49402212Y-23332165D01*
X49404105Y-23327594D01*
X49437684Y-23187728D01*
X49458380Y-23101524D01*
X49458381Y-23101518D01*
X49459535Y-23096711D01*
X49478165Y-22860000D01*
X49459535Y-22623289D01*
X49456385Y-22610166D01*
X49405260Y-22397218D01*
X49404105Y-22392406D01*
X49367166Y-22303226D01*
X49315135Y-22177611D01*
X49315133Y-22177607D01*
X49313240Y-22173037D01*
X49189176Y-21970584D01*
X49191208Y-21969339D01*
X49170635Y-21911723D01*
X49186699Y-21842568D01*
X49237601Y-21793076D01*
X49296428Y-21778500D01*
X51633572Y-21778500D01*
X51701693Y-21798502D01*
X51748186Y-21852158D01*
X51758290Y-21922432D01*
X51739154Y-21969561D01*
X51740824Y-21970584D01*
X51616760Y-22173037D01*
X51614867Y-22177607D01*
X51614865Y-22177611D01*
X51562834Y-22303226D01*
X51525895Y-22392406D01*
X51524740Y-22397218D01*
X51473616Y-22610166D01*
X51470465Y-22623289D01*
X51451835Y-22860000D01*
X51470465Y-23096711D01*
X51471619Y-23101518D01*
X51471620Y-23101524D01*
X51492316Y-23187728D01*
X51525895Y-23327594D01*
X51527788Y-23332165D01*
X51527789Y-23332167D01*
X51604972Y-23518503D01*
X51616760Y-23546963D01*
X51619346Y-23551183D01*
X51738241Y-23745202D01*
X51738245Y-23745208D01*
X51740824Y-23749416D01*
X51895031Y-23929969D01*
X52075584Y-24084176D01*
X52079792Y-24086755D01*
X52079798Y-24086759D01*
X52217781Y-24171315D01*
X52278037Y-24208240D01*
X52282607Y-24210133D01*
X52282611Y-24210135D01*
X52462484Y-24284640D01*
X52497406Y-24299105D01*
X52577609Y-24318360D01*
X52723476Y-24353380D01*
X52723482Y-24353381D01*
X52728289Y-24354535D01*
X52965000Y-24373165D01*
X53201711Y-24354535D01*
X53206518Y-24353381D01*
X53206524Y-24353380D01*
X53352391Y-24318360D01*
X53432594Y-24299105D01*
X53467516Y-24284640D01*
X53647389Y-24210135D01*
X53647393Y-24210133D01*
X53651963Y-24208240D01*
X53712219Y-24171315D01*
X53850202Y-24086759D01*
X53850208Y-24086755D01*
X53854416Y-24084176D01*
X54034969Y-23929969D01*
X54189176Y-23749416D01*
X54191755Y-23745208D01*
X54191759Y-23745202D01*
X54310654Y-23551183D01*
X54313240Y-23546963D01*
X54325029Y-23518503D01*
X54402211Y-23332167D01*
X54402212Y-23332165D01*
X54404105Y-23327594D01*
X54437684Y-23187728D01*
X54458380Y-23101524D01*
X54458381Y-23101518D01*
X54459535Y-23096711D01*
X54478165Y-22860000D01*
X54459535Y-22623289D01*
X54456385Y-22610166D01*
X54405260Y-22397218D01*
X54404105Y-22392406D01*
X54367166Y-22303226D01*
X54315135Y-22177611D01*
X54315133Y-22177607D01*
X54313240Y-22173037D01*
X54189176Y-21970584D01*
X54191208Y-21969339D01*
X54170635Y-21911723D01*
X54186699Y-21842568D01*
X54237601Y-21793076D01*
X54296428Y-21778500D01*
X61718779Y-21778500D01*
X61786900Y-21798502D01*
X61833393Y-21852158D01*
X61843497Y-21922432D01*
X61827898Y-21967500D01*
X61758777Y-22087221D01*
X61755473Y-22092944D01*
X61696458Y-22274572D01*
X61695768Y-22281133D01*
X61695768Y-22281135D01*
X61681808Y-22413955D01*
X61676496Y-22464500D01*
X61677186Y-22471065D01*
X61693469Y-22625985D01*
X61696458Y-22654428D01*
X61755473Y-22836056D01*
X61850960Y-23001444D01*
X61855378Y-23006351D01*
X61855379Y-23006352D01*
X61877930Y-23031397D01*
X61978747Y-23143366D01*
X62133248Y-23255618D01*
X62139276Y-23258302D01*
X62139278Y-23258303D01*
X62301681Y-23330609D01*
X62307712Y-23333294D01*
X62394460Y-23351733D01*
X62488056Y-23371628D01*
X62488061Y-23371628D01*
X62494513Y-23373000D01*
X62685487Y-23373000D01*
X62691939Y-23371628D01*
X62691944Y-23371628D01*
X62785540Y-23351733D01*
X62872288Y-23333294D01*
X62878319Y-23330609D01*
X63040722Y-23258303D01*
X63040724Y-23258302D01*
X63046752Y-23255618D01*
X63201253Y-23143366D01*
X63302070Y-23031397D01*
X63324621Y-23006352D01*
X63324622Y-23006351D01*
X63329040Y-23001444D01*
X63424527Y-22836056D01*
X63483542Y-22654428D01*
X63486532Y-22625985D01*
X63502814Y-22471065D01*
X63503504Y-22464500D01*
X63498192Y-22413955D01*
X63484232Y-22281135D01*
X63484232Y-22281133D01*
X63483542Y-22274572D01*
X63424527Y-22092944D01*
X63421223Y-22087221D01*
X63352102Y-21967500D01*
X63335364Y-21898505D01*
X63358584Y-21831413D01*
X63414392Y-21787526D01*
X63461221Y-21778500D01*
X64007091Y-21778500D01*
X64075212Y-21798502D01*
X64121705Y-21852158D01*
X64132401Y-21891329D01*
X64134545Y-21911723D01*
X64136458Y-21929928D01*
X64138498Y-21936205D01*
X64138498Y-21936207D01*
X64149336Y-21969561D01*
X64195473Y-22111556D01*
X64290960Y-22276944D01*
X64418747Y-22418866D01*
X64573248Y-22531118D01*
X64579276Y-22533802D01*
X64579278Y-22533803D01*
X64681440Y-22579288D01*
X64747712Y-22608794D01*
X64828589Y-22625985D01*
X64928056Y-22647128D01*
X64928061Y-22647128D01*
X64934513Y-22648500D01*
X65125487Y-22648500D01*
X65131939Y-22647128D01*
X65131944Y-22647128D01*
X65256826Y-22620583D01*
X65327617Y-22625985D01*
X65384249Y-22668802D01*
X65402855Y-22704892D01*
X65445473Y-22836056D01*
X65540960Y-23001444D01*
X65545378Y-23006351D01*
X65545379Y-23006352D01*
X65567930Y-23031397D01*
X65668747Y-23143366D01*
X65674089Y-23147247D01*
X65674091Y-23147249D01*
X65729806Y-23187728D01*
X65773160Y-23243950D01*
X65781055Y-23302835D01*
X65773206Y-23377512D01*
X65773896Y-23384077D01*
X65790569Y-23542708D01*
X65793168Y-23567440D01*
X65852183Y-23749068D01*
X65947670Y-23914456D01*
X65952088Y-23919363D01*
X65952089Y-23919364D01*
X66065074Y-24044847D01*
X66075457Y-24056378D01*
X66229958Y-24168630D01*
X66235986Y-24171314D01*
X66235988Y-24171315D01*
X66398391Y-24243621D01*
X66404422Y-24246306D01*
X66497822Y-24266159D01*
X66584766Y-24284640D01*
X66584771Y-24284640D01*
X66591223Y-24286012D01*
X66782197Y-24286012D01*
X66788649Y-24284640D01*
X66788654Y-24284640D01*
X66875598Y-24266159D01*
X66968998Y-24246306D01*
X66975029Y-24243621D01*
X67137432Y-24171315D01*
X67137434Y-24171314D01*
X67143462Y-24168630D01*
X67297963Y-24056378D01*
X67308346Y-24044847D01*
X67421331Y-23919364D01*
X67421332Y-23919363D01*
X67425750Y-23914456D01*
X67521237Y-23749068D01*
X67580252Y-23567440D01*
X67582852Y-23542708D01*
X67599524Y-23384077D01*
X67600214Y-23377512D01*
X67595284Y-23330609D01*
X67580942Y-23194147D01*
X67580942Y-23194145D01*
X67580252Y-23187584D01*
X67521237Y-23005956D01*
X67516650Y-22998010D01*
X67436969Y-22860000D01*
X67425750Y-22840568D01*
X67416029Y-22829771D01*
X67302385Y-22703557D01*
X67302384Y-22703556D01*
X67297963Y-22698646D01*
X67292621Y-22694765D01*
X67292619Y-22694763D01*
X67236904Y-22654284D01*
X67193550Y-22598062D01*
X67185655Y-22539177D01*
X67192814Y-22471065D01*
X67193504Y-22464500D01*
X67188192Y-22413955D01*
X67174232Y-22281135D01*
X67174232Y-22281133D01*
X67173542Y-22274572D01*
X67114527Y-22092944D01*
X67111223Y-22087221D01*
X67042102Y-21967500D01*
X67025364Y-21898505D01*
X67048584Y-21831413D01*
X67104392Y-21787526D01*
X67151221Y-21778500D01*
X67467091Y-21778500D01*
X67535212Y-21798502D01*
X67581705Y-21852158D01*
X67592401Y-21891329D01*
X67594545Y-21911723D01*
X67596458Y-21929928D01*
X67598498Y-21936205D01*
X67598498Y-21936207D01*
X67609336Y-21969561D01*
X67655473Y-22111556D01*
X67750960Y-22276944D01*
X67878747Y-22418866D01*
X68033248Y-22531118D01*
X68039276Y-22533802D01*
X68039278Y-22533803D01*
X68141440Y-22579288D01*
X68207712Y-22608794D01*
X68288589Y-22625985D01*
X68388056Y-22647128D01*
X68388061Y-22647128D01*
X68394513Y-22648500D01*
X68585487Y-22648500D01*
X68591939Y-22647128D01*
X68591944Y-22647128D01*
X68691411Y-22625985D01*
X68772288Y-22608794D01*
X68838560Y-22579288D01*
X68940722Y-22533803D01*
X68940724Y-22533802D01*
X68946752Y-22531118D01*
X69101253Y-22418866D01*
X69229040Y-22276944D01*
X69324527Y-22111556D01*
X69370664Y-21969561D01*
X69381502Y-21936207D01*
X69381502Y-21936205D01*
X69383542Y-21929928D01*
X69385456Y-21911723D01*
X69387599Y-21891329D01*
X69414612Y-21825672D01*
X69472834Y-21785043D01*
X69512909Y-21778500D01*
X74504000Y-21778500D01*
X74572121Y-21798502D01*
X74618614Y-21852158D01*
X74630000Y-21904500D01*
X74630000Y-22188612D01*
X74609998Y-22256733D01*
X74556342Y-22303226D01*
X74486068Y-22313330D01*
X74466196Y-22308708D01*
X74461037Y-22306411D01*
X74435376Y-22300957D01*
X74280693Y-22268077D01*
X74280688Y-22268077D01*
X74274236Y-22266705D01*
X74083262Y-22266705D01*
X74076810Y-22268077D01*
X74076805Y-22268077D01*
X74012001Y-22281852D01*
X73896461Y-22306411D01*
X73890431Y-22309096D01*
X73890430Y-22309096D01*
X73728027Y-22381402D01*
X73728025Y-22381403D01*
X73721997Y-22384087D01*
X73567496Y-22496339D01*
X73563075Y-22501249D01*
X73563074Y-22501250D01*
X73528925Y-22539177D01*
X73439709Y-22638261D01*
X73344222Y-22803649D01*
X73285207Y-22985277D01*
X73284517Y-22991841D01*
X73283143Y-22998305D01*
X73281755Y-22998010D01*
X73257583Y-23056765D01*
X73222762Y-23086649D01*
X73217748Y-23088882D01*
X73063247Y-23201134D01*
X73058826Y-23206044D01*
X73058825Y-23206045D01*
X72979654Y-23293974D01*
X72935460Y-23343056D01*
X72839973Y-23508444D01*
X72780958Y-23690072D01*
X72780268Y-23696633D01*
X72780268Y-23696635D01*
X72763949Y-23851900D01*
X72760996Y-23880000D01*
X72761686Y-23886565D01*
X72779018Y-24051467D01*
X72780958Y-24069928D01*
X72839973Y-24251556D01*
X72935460Y-24416944D01*
X73063247Y-24558866D01*
X73217748Y-24671118D01*
X73223776Y-24673802D01*
X73223778Y-24673803D01*
X73358310Y-24733700D01*
X73392212Y-24748794D01*
X73485613Y-24768647D01*
X73572556Y-24787128D01*
X73572561Y-24787128D01*
X73579013Y-24788500D01*
X73769987Y-24788500D01*
X73776439Y-24787128D01*
X73776444Y-24787128D01*
X73863387Y-24768647D01*
X73956788Y-24748794D01*
X73990690Y-24733700D01*
X74125222Y-24673803D01*
X74125224Y-24673802D01*
X74131252Y-24671118D01*
X74285753Y-24558866D01*
X74410365Y-24420471D01*
X74470810Y-24383231D01*
X74541793Y-24384583D01*
X74600778Y-24424096D01*
X74629036Y-24489227D01*
X74630000Y-24504781D01*
X74630000Y-31524185D01*
X74609998Y-31592306D01*
X74556342Y-31638799D01*
X74486068Y-31648903D01*
X74452754Y-31639293D01*
X74322288Y-31581206D01*
X74228887Y-31561353D01*
X74141944Y-31542872D01*
X74141939Y-31542872D01*
X74135487Y-31541500D01*
X73944513Y-31541500D01*
X73938061Y-31542872D01*
X73938056Y-31542872D01*
X73851113Y-31561353D01*
X73757712Y-31581206D01*
X73751682Y-31583891D01*
X73751681Y-31583891D01*
X73589278Y-31656197D01*
X73589276Y-31656198D01*
X73583248Y-31658882D01*
X73428747Y-31771134D01*
X73424326Y-31776044D01*
X73424325Y-31776045D01*
X73324208Y-31887237D01*
X73300960Y-31913056D01*
X73205473Y-32078444D01*
X73146458Y-32260072D01*
X73145768Y-32266633D01*
X73145768Y-32266635D01*
X73132430Y-32393538D01*
X73126496Y-32450000D01*
X73127186Y-32456565D01*
X73143457Y-32611371D01*
X73146458Y-32639928D01*
X73205473Y-32821556D01*
X73300960Y-32986944D01*
X73428747Y-33128866D01*
X73468589Y-33157813D01*
X73564633Y-33227593D01*
X73583248Y-33241118D01*
X73589276Y-33243802D01*
X73589278Y-33243803D01*
X73680870Y-33284582D01*
X73757712Y-33318794D01*
X73851112Y-33338647D01*
X73938056Y-33357128D01*
X73938061Y-33357128D01*
X73944513Y-33358500D01*
X74135487Y-33358500D01*
X74141939Y-33357128D01*
X74141944Y-33357128D01*
X74228888Y-33338647D01*
X74322288Y-33318794D01*
X74452752Y-33260708D01*
X74523118Y-33251274D01*
X74587415Y-33281380D01*
X74625229Y-33341469D01*
X74630000Y-33375815D01*
X74630000Y-53910323D01*
X74609998Y-53978444D01*
X74556342Y-54024937D01*
X74486068Y-54035041D01*
X74447175Y-54021580D01*
X74446952Y-54022082D01*
X74272488Y-53944406D01*
X74179087Y-53924553D01*
X74092144Y-53906072D01*
X74092139Y-53906072D01*
X74085687Y-53904700D01*
X73894713Y-53904700D01*
X73888261Y-53906072D01*
X73888256Y-53906072D01*
X73801313Y-53924553D01*
X73707912Y-53944406D01*
X73701882Y-53947091D01*
X73701881Y-53947091D01*
X73539478Y-54019397D01*
X73539476Y-54019398D01*
X73533448Y-54022082D01*
X73528107Y-54025962D01*
X73528106Y-54025963D01*
X73510919Y-54038450D01*
X73378947Y-54134334D01*
X73251160Y-54276256D01*
X73155673Y-54441644D01*
X73096658Y-54623272D01*
X73095968Y-54629833D01*
X73095968Y-54629835D01*
X73083525Y-54748225D01*
X73076696Y-54813200D01*
X73096658Y-55003128D01*
X73155673Y-55184756D01*
X73158976Y-55190478D01*
X73158977Y-55190479D01*
X73187344Y-55239612D01*
X73251160Y-55350144D01*
X73255578Y-55355051D01*
X73255579Y-55355052D01*
X73350524Y-55460499D01*
X73378947Y-55492066D01*
X73533448Y-55604318D01*
X73539474Y-55607001D01*
X73539481Y-55607005D01*
X73622075Y-55643777D01*
X73676171Y-55689757D01*
X73696821Y-55757684D01*
X73677469Y-55825992D01*
X73624259Y-55872994D01*
X73592166Y-55883064D01*
X73556608Y-55889174D01*
X73482375Y-55901930D01*
X73278307Y-55977214D01*
X73091376Y-56088427D01*
X72927842Y-56231842D01*
X72924270Y-56236372D01*
X72924269Y-56236374D01*
X72890007Y-56279834D01*
X72832125Y-56320947D01*
X72761205Y-56324239D01*
X72699763Y-56288667D01*
X72690100Y-56277215D01*
X72676737Y-56259319D01*
X72676730Y-56259312D01*
X72673280Y-56254691D01*
X72669044Y-56250775D01*
X72517796Y-56110963D01*
X72517793Y-56110961D01*
X72513556Y-56107044D01*
X72329599Y-55990976D01*
X72127572Y-55910376D01*
X71914239Y-55867941D01*
X71908464Y-55867865D01*
X71908460Y-55867865D01*
X71799419Y-55866438D01*
X71696746Y-55865094D01*
X71691049Y-55866073D01*
X71691048Y-55866073D01*
X71488065Y-55900952D01*
X71488062Y-55900953D01*
X71482375Y-55901930D01*
X71278307Y-55977214D01*
X71091376Y-56088427D01*
X70927842Y-56231842D01*
X70924270Y-56236372D01*
X70924269Y-56236374D01*
X70890007Y-56279834D01*
X70832125Y-56320947D01*
X70761205Y-56324239D01*
X70699763Y-56288667D01*
X70690100Y-56277215D01*
X70676737Y-56259319D01*
X70676730Y-56259312D01*
X70673280Y-56254691D01*
X70669044Y-56250775D01*
X70517796Y-56110963D01*
X70517793Y-56110961D01*
X70513556Y-56107044D01*
X70329599Y-55990976D01*
X70127572Y-55910376D01*
X69914239Y-55867941D01*
X69908464Y-55867865D01*
X69908460Y-55867865D01*
X69799419Y-55866438D01*
X69696746Y-55865094D01*
X69691049Y-55866073D01*
X69691048Y-55866073D01*
X69488065Y-55900952D01*
X69488062Y-55900953D01*
X69482375Y-55901930D01*
X69278307Y-55977214D01*
X69091376Y-56088427D01*
X68927842Y-56231842D01*
X68924270Y-56236373D01*
X68889688Y-56280240D01*
X68831807Y-56321353D01*
X68760887Y-56324647D01*
X68699444Y-56289075D01*
X68689780Y-56277622D01*
X68676364Y-56259655D01*
X68668671Y-56251111D01*
X68517490Y-56111361D01*
X68508365Y-56104360D01*
X68334255Y-55994505D01*
X68324008Y-55989284D01*
X68132793Y-55912997D01*
X68121767Y-55909730D01*
X68061770Y-55897797D01*
X68048894Y-55898949D01*
X68044000Y-55914102D01*
X68044000Y-57178000D01*
X68023998Y-57246121D01*
X67970342Y-57292614D01*
X67918000Y-57304000D01*
X66651981Y-57304000D01*
X66638450Y-57307973D01*
X66637158Y-57316962D01*
X66668656Y-57440985D01*
X66672497Y-57451832D01*
X66732850Y-57582749D01*
X66743205Y-57652987D01*
X66713942Y-57717672D01*
X66654353Y-57756269D01*
X66618424Y-57761500D01*
X64580382Y-57761500D01*
X64512261Y-57741498D01*
X64465768Y-57687842D01*
X64455664Y-57617568D01*
X64485158Y-57552988D01*
X64507214Y-57532921D01*
X64561932Y-57493891D01*
X64649860Y-57431173D01*
X64808096Y-57273489D01*
X64831777Y-57240534D01*
X64935435Y-57096277D01*
X64938453Y-57092077D01*
X65028625Y-56909628D01*
X65035136Y-56896453D01*
X65035137Y-56896451D01*
X65037430Y-56891811D01*
X65067512Y-56792799D01*
X66635218Y-56792799D01*
X66641950Y-56796000D01*
X67517885Y-56796000D01*
X67533124Y-56791525D01*
X67534329Y-56790135D01*
X67536000Y-56782452D01*
X67536000Y-55911337D01*
X67532194Y-55898375D01*
X67517278Y-55896439D01*
X67488202Y-55901435D01*
X67477082Y-55904415D01*
X67283940Y-55975669D01*
X67273562Y-55980619D01*
X67096639Y-56085877D01*
X67087327Y-56092643D01*
X66932547Y-56228381D01*
X66924630Y-56236724D01*
X66797180Y-56398394D01*
X66790909Y-56408050D01*
X66695060Y-56590229D01*
X66690655Y-56600863D01*
X66635436Y-56778700D01*
X66635218Y-56792799D01*
X65067512Y-56792799D01*
X65102370Y-56678069D01*
X65131529Y-56456590D01*
X65133156Y-56390000D01*
X65114852Y-56167361D01*
X65060431Y-55950702D01*
X64971354Y-55745840D01*
X64921804Y-55669248D01*
X64852822Y-55562617D01*
X64852820Y-55562614D01*
X64850014Y-55558277D01*
X64699670Y-55393051D01*
X64695619Y-55389852D01*
X64695615Y-55389848D01*
X64528414Y-55257800D01*
X64528410Y-55257798D01*
X64524359Y-55254598D01*
X64328789Y-55146638D01*
X64323920Y-55144914D01*
X64323916Y-55144912D01*
X64123087Y-55073795D01*
X64123083Y-55073794D01*
X64118212Y-55072069D01*
X64113119Y-55071162D01*
X64113116Y-55071161D01*
X63903373Y-55033800D01*
X63903367Y-55033799D01*
X63898284Y-55032894D01*
X63824452Y-55031992D01*
X63680081Y-55030228D01*
X63680079Y-55030228D01*
X63674911Y-55030165D01*
X63454091Y-55063955D01*
X63241756Y-55133357D01*
X63211443Y-55149137D01*
X63091874Y-55211381D01*
X63043607Y-55236507D01*
X63039474Y-55239610D01*
X63039471Y-55239612D01*
X62869100Y-55367530D01*
X62864965Y-55370635D01*
X62784396Y-55454946D01*
X62784283Y-55455064D01*
X62722759Y-55490494D01*
X62651846Y-55487037D01*
X62594060Y-55445791D01*
X62575207Y-55412243D01*
X62533767Y-55301703D01*
X62530615Y-55293295D01*
X62443261Y-55176739D01*
X62326705Y-55089385D01*
X62190316Y-55038255D01*
X62128134Y-55031500D01*
X60331866Y-55031500D01*
X60269684Y-55038255D01*
X60133295Y-55089385D01*
X60016739Y-55176739D01*
X59929385Y-55293295D01*
X59878255Y-55429684D01*
X59871500Y-55491866D01*
X59871500Y-57288134D01*
X59878255Y-57350316D01*
X59929385Y-57486705D01*
X59984268Y-57559935D01*
X60009116Y-57626441D01*
X59994063Y-57695824D01*
X59943889Y-57746054D01*
X59883442Y-57761500D01*
X52957904Y-57761500D01*
X52889783Y-57741498D01*
X52843290Y-57687842D01*
X52833186Y-57617568D01*
X52850992Y-57568823D01*
X52906619Y-57479629D01*
X52956674Y-57399369D01*
X52993106Y-57316962D01*
X53061295Y-57162719D01*
X53063093Y-57158652D01*
X53134534Y-56905343D01*
X53148296Y-56802882D01*
X53169143Y-56647676D01*
X53169144Y-56647668D01*
X53169570Y-56644494D01*
X53171121Y-56595154D01*
X53173146Y-56530722D01*
X53173146Y-56530717D01*
X53173247Y-56527500D01*
X53154659Y-56264966D01*
X53153444Y-56259319D01*
X53100201Y-56012023D01*
X53099264Y-56007671D01*
X53092316Y-55988836D01*
X53009710Y-55764924D01*
X53008169Y-55760747D01*
X52965676Y-55681994D01*
X52885304Y-55533038D01*
X52883191Y-55529122D01*
X52726824Y-55317418D01*
X52717774Y-55308224D01*
X52625688Y-55214681D01*
X52542187Y-55129858D01*
X52538647Y-55127157D01*
X52538641Y-55127151D01*
X52368324Y-54997169D01*
X55277001Y-54997169D01*
X55277371Y-55003990D01*
X55282895Y-55054852D01*
X55286521Y-55070104D01*
X55331676Y-55190554D01*
X55340214Y-55206149D01*
X55416715Y-55308224D01*
X55429276Y-55320785D01*
X55531351Y-55397286D01*
X55546946Y-55405824D01*
X55667394Y-55450978D01*
X55682649Y-55454605D01*
X55733514Y-55460131D01*
X55740328Y-55460500D01*
X56387885Y-55460500D01*
X56403124Y-55456025D01*
X56404329Y-55454635D01*
X56406000Y-55446952D01*
X56406000Y-55442384D01*
X56914000Y-55442384D01*
X56918475Y-55457623D01*
X56919865Y-55458828D01*
X56927548Y-55460499D01*
X57579669Y-55460499D01*
X57586490Y-55460129D01*
X57637352Y-55454605D01*
X57652604Y-55450979D01*
X57773054Y-55405824D01*
X57788649Y-55397286D01*
X57890724Y-55320785D01*
X57903285Y-55308224D01*
X57979786Y-55206149D01*
X57988324Y-55190554D01*
X58033478Y-55070106D01*
X58037105Y-55054851D01*
X58042631Y-55003986D01*
X58043000Y-54997172D01*
X58043000Y-54349615D01*
X58038525Y-54334376D01*
X58037135Y-54333171D01*
X58029452Y-54331500D01*
X56932115Y-54331500D01*
X56916876Y-54335975D01*
X56915671Y-54337365D01*
X56914000Y-54345048D01*
X56914000Y-55442384D01*
X56406000Y-55442384D01*
X56406000Y-54349615D01*
X56401525Y-54334376D01*
X56400135Y-54333171D01*
X56392452Y-54331500D01*
X55295116Y-54331500D01*
X55279877Y-54335975D01*
X55278672Y-54337365D01*
X55277001Y-54345048D01*
X55277001Y-54997169D01*
X52368324Y-54997169D01*
X52336506Y-54972886D01*
X52336502Y-54972883D01*
X52332965Y-54970184D01*
X52103332Y-54841584D01*
X51857870Y-54746622D01*
X51853545Y-54745619D01*
X51853540Y-54745618D01*
X51671514Y-54703427D01*
X51601476Y-54687193D01*
X51339267Y-54664483D01*
X51334832Y-54664727D01*
X51334828Y-54664727D01*
X51080916Y-54678700D01*
X51080909Y-54678701D01*
X51076473Y-54678945D01*
X50953394Y-54703427D01*
X50822711Y-54729421D01*
X50822706Y-54729422D01*
X50818339Y-54730291D01*
X50814136Y-54731767D01*
X50574223Y-54816018D01*
X50574220Y-54816019D01*
X50570015Y-54817496D01*
X50566062Y-54819549D01*
X50566056Y-54819552D01*
X50434615Y-54887831D01*
X50336456Y-54938821D01*
X50332841Y-54941404D01*
X50332835Y-54941408D01*
X50255651Y-54996565D01*
X50122322Y-55091844D01*
X50119095Y-55094922D01*
X50119093Y-55094924D01*
X49954329Y-55252101D01*
X49931885Y-55273511D01*
X49768945Y-55480200D01*
X49740529Y-55529122D01*
X49638987Y-55703938D01*
X49638984Y-55703944D01*
X49636753Y-55707785D01*
X49635083Y-55711908D01*
X49555152Y-55909249D01*
X49537947Y-55951725D01*
X49536876Y-55956038D01*
X49536874Y-55956043D01*
X49502943Y-56092643D01*
X49474498Y-56207154D01*
X49447672Y-56468974D01*
X49447847Y-56473426D01*
X49455888Y-56678069D01*
X49458005Y-56731962D01*
X49458805Y-56736342D01*
X49487199Y-56891811D01*
X49505290Y-56990871D01*
X49588584Y-57240534D01*
X49626773Y-57316962D01*
X49667950Y-57399369D01*
X49706225Y-57475970D01*
X49708754Y-57479629D01*
X49766970Y-57563861D01*
X49789246Y-57631273D01*
X49771541Y-57700026D01*
X49719475Y-57748293D01*
X49663317Y-57761500D01*
X35157904Y-57761500D01*
X35089783Y-57741498D01*
X35043290Y-57687842D01*
X35033186Y-57617568D01*
X35050992Y-57568823D01*
X35106619Y-57479629D01*
X35156674Y-57399369D01*
X35193106Y-57316962D01*
X35261295Y-57162719D01*
X35263093Y-57158652D01*
X35334534Y-56905343D01*
X35348296Y-56802882D01*
X35369143Y-56647676D01*
X35369144Y-56647668D01*
X35369570Y-56644494D01*
X35371121Y-56595154D01*
X35373146Y-56530722D01*
X35373146Y-56530717D01*
X35373247Y-56527500D01*
X35354659Y-56264966D01*
X35353444Y-56259319D01*
X35300201Y-56012023D01*
X35299264Y-56007671D01*
X35292316Y-55988836D01*
X35209710Y-55764924D01*
X35208169Y-55760747D01*
X35165676Y-55681994D01*
X35085304Y-55533038D01*
X35083191Y-55529122D01*
X34926824Y-55317418D01*
X34917774Y-55308224D01*
X34825688Y-55214681D01*
X34742187Y-55129858D01*
X34738647Y-55127157D01*
X34738641Y-55127151D01*
X34536506Y-54972886D01*
X34536502Y-54972883D01*
X34532965Y-54970184D01*
X34303332Y-54841584D01*
X34057870Y-54746622D01*
X34053545Y-54745619D01*
X34053540Y-54745618D01*
X33871514Y-54703427D01*
X33801476Y-54687193D01*
X33539267Y-54664483D01*
X33534832Y-54664727D01*
X33534828Y-54664727D01*
X33280916Y-54678700D01*
X33280909Y-54678701D01*
X33276473Y-54678945D01*
X33153394Y-54703427D01*
X33022711Y-54729421D01*
X33022706Y-54729422D01*
X33018339Y-54730291D01*
X33014136Y-54731767D01*
X32774223Y-54816018D01*
X32774220Y-54816019D01*
X32770015Y-54817496D01*
X32766062Y-54819549D01*
X32766056Y-54819552D01*
X32634615Y-54887831D01*
X32536456Y-54938821D01*
X32532841Y-54941404D01*
X32532835Y-54941408D01*
X32455651Y-54996565D01*
X32322322Y-55091844D01*
X32319095Y-55094922D01*
X32319093Y-55094924D01*
X32154329Y-55252101D01*
X32131885Y-55273511D01*
X31968945Y-55480200D01*
X31940529Y-55529122D01*
X31838987Y-55703938D01*
X31838984Y-55703944D01*
X31836753Y-55707785D01*
X31835083Y-55711908D01*
X31755152Y-55909249D01*
X31737947Y-55951725D01*
X31736876Y-55956038D01*
X31736874Y-55956043D01*
X31702943Y-56092643D01*
X31674498Y-56207154D01*
X31647672Y-56468974D01*
X31647847Y-56473426D01*
X31655888Y-56678069D01*
X31658005Y-56731962D01*
X31658805Y-56736342D01*
X31687199Y-56891811D01*
X31705290Y-56990871D01*
X31788584Y-57240534D01*
X31826773Y-57316962D01*
X31867950Y-57399369D01*
X31906225Y-57475970D01*
X31908754Y-57479629D01*
X31966970Y-57563861D01*
X31989246Y-57631273D01*
X31971541Y-57700026D01*
X31919475Y-57748293D01*
X31863317Y-57761500D01*
X18614500Y-57761500D01*
X18546379Y-57741498D01*
X18499886Y-57687842D01*
X18488500Y-57635500D01*
X18488500Y-54043582D01*
X26772172Y-54043582D01*
X26772469Y-54048734D01*
X26772469Y-54048738D01*
X26777181Y-54130451D01*
X26785268Y-54270706D01*
X26786405Y-54275752D01*
X26786406Y-54275758D01*
X26803051Y-54349615D01*
X26835283Y-54492641D01*
X26920875Y-54703427D01*
X27039744Y-54897404D01*
X27188698Y-55069361D01*
X27271174Y-55137834D01*
X27334586Y-55190479D01*
X27363737Y-55214681D01*
X27368189Y-55217283D01*
X27368194Y-55217286D01*
X27534104Y-55314236D01*
X27560160Y-55329462D01*
X27772693Y-55410620D01*
X27777759Y-55411651D01*
X27777760Y-55411651D01*
X27780670Y-55412243D01*
X27995627Y-55455976D01*
X28123437Y-55460663D01*
X28217811Y-55464124D01*
X28217815Y-55464124D01*
X28222975Y-55464313D01*
X28228095Y-55463657D01*
X28228097Y-55463657D01*
X28443504Y-55436063D01*
X28443505Y-55436063D01*
X28448632Y-55435406D01*
X28453582Y-55433921D01*
X28661591Y-55371515D01*
X28661592Y-55371514D01*
X28666537Y-55370031D01*
X28870839Y-55269944D01*
X28875043Y-55266946D01*
X28875047Y-55266943D01*
X29051847Y-55140833D01*
X29051849Y-55140831D01*
X29056051Y-55137834D01*
X29217199Y-54977247D01*
X29271764Y-54901312D01*
X29346938Y-54796698D01*
X29346942Y-54796692D01*
X29349956Y-54792497D01*
X29450755Y-54588546D01*
X29516890Y-54370870D01*
X29522073Y-54331500D01*
X29546148Y-54148636D01*
X29546148Y-54148632D01*
X29546585Y-54145315D01*
X29548242Y-54077500D01*
X29529601Y-53850764D01*
X29518203Y-53805385D01*
X55277000Y-53805385D01*
X55281475Y-53820624D01*
X55282865Y-53821829D01*
X55290548Y-53823500D01*
X56387885Y-53823500D01*
X56403124Y-53819025D01*
X56404329Y-53817635D01*
X56406000Y-53809952D01*
X56406000Y-53805385D01*
X56914000Y-53805385D01*
X56918475Y-53820624D01*
X56919865Y-53821829D01*
X56927548Y-53823500D01*
X58024884Y-53823500D01*
X58040123Y-53819025D01*
X58041328Y-53817635D01*
X58042999Y-53809952D01*
X58042999Y-53157831D01*
X58042629Y-53151010D01*
X58037105Y-53100148D01*
X58033479Y-53084896D01*
X57988324Y-52964446D01*
X57979786Y-52948851D01*
X57903285Y-52846776D01*
X57890724Y-52834215D01*
X57788649Y-52757714D01*
X57773054Y-52749176D01*
X57652606Y-52704022D01*
X57637351Y-52700395D01*
X57586486Y-52694869D01*
X57579672Y-52694500D01*
X56932115Y-52694500D01*
X56916876Y-52698975D01*
X56915671Y-52700365D01*
X56914000Y-52708048D01*
X56914000Y-53805385D01*
X56406000Y-53805385D01*
X56406000Y-52712616D01*
X56401525Y-52697377D01*
X56400135Y-52696172D01*
X56392452Y-52694501D01*
X55740331Y-52694501D01*
X55733510Y-52694871D01*
X55682648Y-52700395D01*
X55667396Y-52704021D01*
X55546946Y-52749176D01*
X55531351Y-52757714D01*
X55429276Y-52834215D01*
X55416715Y-52846776D01*
X55340214Y-52948851D01*
X55331676Y-52964446D01*
X55286522Y-53084894D01*
X55282895Y-53100149D01*
X55277369Y-53151014D01*
X55277000Y-53157828D01*
X55277000Y-53805385D01*
X29518203Y-53805385D01*
X29474178Y-53630117D01*
X29383462Y-53421485D01*
X29259890Y-53230471D01*
X29106779Y-53062204D01*
X28928241Y-52921204D01*
X28890537Y-52900390D01*
X28825092Y-52864263D01*
X28729072Y-52811257D01*
X28724203Y-52809533D01*
X28724199Y-52809531D01*
X28519496Y-52737041D01*
X28519492Y-52737040D01*
X28514621Y-52735315D01*
X28509528Y-52734408D01*
X28509525Y-52734407D01*
X28295734Y-52696325D01*
X28295728Y-52696324D01*
X28290645Y-52695419D01*
X28215417Y-52694500D01*
X28068331Y-52692703D01*
X28068329Y-52692703D01*
X28063161Y-52692640D01*
X27838278Y-52727052D01*
X27622035Y-52797731D01*
X27617447Y-52800119D01*
X27617443Y-52800121D01*
X27424828Y-52900390D01*
X27420239Y-52902779D01*
X27416106Y-52905882D01*
X27416103Y-52905884D01*
X27242445Y-53036270D01*
X27238310Y-53039375D01*
X27081133Y-53203851D01*
X26952931Y-53391789D01*
X26950758Y-53396471D01*
X26950756Y-53396474D01*
X26882682Y-53543129D01*
X26857145Y-53598143D01*
X26796348Y-53817369D01*
X26795799Y-53822506D01*
X26773085Y-54035041D01*
X26772172Y-54043582D01*
X18488500Y-54043582D01*
X18488500Y-52864263D01*
X22384987Y-52864263D01*
X22385677Y-52870828D01*
X22403785Y-53043113D01*
X22404949Y-53054191D01*
X22463964Y-53235819D01*
X22559451Y-53401207D01*
X22563869Y-53406114D01*
X22563870Y-53406115D01*
X22682816Y-53538218D01*
X22687238Y-53543129D01*
X22756496Y-53593448D01*
X22813865Y-53635129D01*
X22841739Y-53655381D01*
X22847767Y-53658065D01*
X22847769Y-53658066D01*
X23010172Y-53730372D01*
X23016203Y-53733057D01*
X23109603Y-53752910D01*
X23196547Y-53771391D01*
X23196552Y-53771391D01*
X23203004Y-53772763D01*
X23393978Y-53772763D01*
X23400430Y-53771391D01*
X23400435Y-53771391D01*
X23487379Y-53752910D01*
X23580779Y-53733057D01*
X23586810Y-53730372D01*
X23749213Y-53658066D01*
X23749215Y-53658065D01*
X23755243Y-53655381D01*
X23783118Y-53635129D01*
X23840486Y-53593448D01*
X23909744Y-53543129D01*
X23914166Y-53538218D01*
X24033112Y-53406115D01*
X24033113Y-53406114D01*
X24037531Y-53401207D01*
X24133018Y-53235819D01*
X24192033Y-53054191D01*
X24193198Y-53043113D01*
X24211305Y-52870828D01*
X24211995Y-52864263D01*
X24209419Y-52839750D01*
X24192723Y-52680898D01*
X24192723Y-52680896D01*
X24192033Y-52674335D01*
X24133018Y-52492707D01*
X24037531Y-52327319D01*
X23909744Y-52185397D01*
X23870660Y-52157001D01*
X30306496Y-52157001D01*
X30307186Y-52163566D01*
X30309481Y-52185397D01*
X30326458Y-52346929D01*
X30385473Y-52528557D01*
X30480960Y-52693945D01*
X30485378Y-52698852D01*
X30485379Y-52698853D01*
X30517392Y-52734407D01*
X30608747Y-52835867D01*
X30763248Y-52948119D01*
X30769276Y-52950803D01*
X30769278Y-52950804D01*
X30799919Y-52964446D01*
X30937712Y-53025795D01*
X31031112Y-53045648D01*
X31118056Y-53064129D01*
X31118061Y-53064129D01*
X31124513Y-53065501D01*
X31315487Y-53065501D01*
X31321939Y-53064129D01*
X31321944Y-53064129D01*
X31408888Y-53045648D01*
X31502288Y-53025795D01*
X31640081Y-52964446D01*
X31670722Y-52950804D01*
X31670724Y-52950803D01*
X31676752Y-52948119D01*
X31831253Y-52835867D01*
X31922608Y-52734407D01*
X31954621Y-52698853D01*
X31954622Y-52698852D01*
X31959040Y-52693945D01*
X32054527Y-52528557D01*
X32113542Y-52346929D01*
X32130520Y-52185397D01*
X32132814Y-52163566D01*
X32133504Y-52157001D01*
X38507296Y-52157001D01*
X38507986Y-52163566D01*
X38510281Y-52185397D01*
X38527258Y-52346929D01*
X38586273Y-52528557D01*
X38681760Y-52693945D01*
X38686178Y-52698852D01*
X38686179Y-52698853D01*
X38718192Y-52734407D01*
X38809547Y-52835867D01*
X38964048Y-52948119D01*
X38970076Y-52950803D01*
X38970078Y-52950804D01*
X39000719Y-52964446D01*
X39138512Y-53025795D01*
X39231912Y-53045648D01*
X39318856Y-53064129D01*
X39318861Y-53064129D01*
X39325313Y-53065501D01*
X39516287Y-53065501D01*
X39522739Y-53064129D01*
X39522744Y-53064129D01*
X39609688Y-53045648D01*
X39703088Y-53025795D01*
X39840881Y-52964446D01*
X39871522Y-52950804D01*
X39871524Y-52950803D01*
X39877552Y-52948119D01*
X40032053Y-52835867D01*
X40123408Y-52734407D01*
X40155421Y-52698853D01*
X40155422Y-52698852D01*
X40159840Y-52693945D01*
X40255327Y-52528557D01*
X40314342Y-52346929D01*
X40331320Y-52185397D01*
X40333614Y-52163566D01*
X40334304Y-52157001D01*
X40325898Y-52077026D01*
X40315032Y-51973636D01*
X40315032Y-51973634D01*
X40314342Y-51967073D01*
X40255327Y-51785445D01*
X40247691Y-51772218D01*
X40171835Y-51640833D01*
X40159840Y-51620057D01*
X40032053Y-51478135D01*
X39877552Y-51365883D01*
X39871526Y-51363200D01*
X39871519Y-51363196D01*
X39836504Y-51347607D01*
X39782408Y-51301627D01*
X39761758Y-51233700D01*
X39781110Y-51165392D01*
X39836504Y-51117393D01*
X39871519Y-51101804D01*
X39871526Y-51101800D01*
X39877552Y-51099117D01*
X40032053Y-50986865D01*
X40159840Y-50844943D01*
X40255327Y-50679555D01*
X40299508Y-50543582D01*
X55272172Y-50543582D01*
X55272469Y-50548734D01*
X55272469Y-50548738D01*
X55277845Y-50641963D01*
X55285268Y-50770706D01*
X55286405Y-50775752D01*
X55286406Y-50775758D01*
X55300709Y-50839225D01*
X55335283Y-50992641D01*
X55420875Y-51203427D01*
X55539744Y-51397404D01*
X55688698Y-51569361D01*
X55863737Y-51714681D01*
X55868189Y-51717283D01*
X55868194Y-51717286D01*
X56055702Y-51826857D01*
X56060160Y-51829462D01*
X56272693Y-51910620D01*
X56277759Y-51911651D01*
X56277760Y-51911651D01*
X56376861Y-51931813D01*
X56495627Y-51955976D01*
X56623437Y-51960663D01*
X56717811Y-51964124D01*
X56717815Y-51964124D01*
X56722975Y-51964313D01*
X56728095Y-51963657D01*
X56728097Y-51963657D01*
X56943504Y-51936063D01*
X56943505Y-51936063D01*
X56948632Y-51935406D01*
X57031248Y-51910620D01*
X57161591Y-51871515D01*
X57161592Y-51871514D01*
X57166537Y-51870031D01*
X57370839Y-51769944D01*
X57375043Y-51766946D01*
X57375047Y-51766943D01*
X57551847Y-51640833D01*
X57551849Y-51640831D01*
X57556051Y-51637834D01*
X57717199Y-51477247D01*
X57771764Y-51401312D01*
X57846938Y-51296698D01*
X57846942Y-51296692D01*
X57849956Y-51292497D01*
X57936498Y-51117393D01*
X57948461Y-51093188D01*
X57948462Y-51093186D01*
X57950755Y-51088546D01*
X58016890Y-50870870D01*
X58019657Y-50849851D01*
X58046148Y-50648636D01*
X58046148Y-50648632D01*
X58046585Y-50645315D01*
X58048242Y-50577500D01*
X58029601Y-50350764D01*
X57974178Y-50130117D01*
X57912529Y-49988334D01*
X57885522Y-49926222D01*
X57885520Y-49926219D01*
X57883462Y-49921485D01*
X57759890Y-49730471D01*
X57606779Y-49562204D01*
X57428241Y-49421204D01*
X57390537Y-49400390D01*
X57311535Y-49356779D01*
X57229072Y-49311257D01*
X57224203Y-49309533D01*
X57224199Y-49309531D01*
X57019496Y-49237041D01*
X57019492Y-49237040D01*
X57014621Y-49235315D01*
X57009528Y-49234408D01*
X57009525Y-49234407D01*
X56795734Y-49196325D01*
X56795728Y-49196324D01*
X56790645Y-49195419D01*
X56717196Y-49194522D01*
X56568331Y-49192703D01*
X56568329Y-49192703D01*
X56563161Y-49192640D01*
X56338278Y-49227052D01*
X56122035Y-49297731D01*
X56117447Y-49300119D01*
X56117443Y-49300121D01*
X56008604Y-49356779D01*
X55920239Y-49402779D01*
X55916106Y-49405882D01*
X55916103Y-49405884D01*
X55771845Y-49514196D01*
X55738310Y-49539375D01*
X55581133Y-49703851D01*
X55452931Y-49891789D01*
X55450758Y-49896471D01*
X55450756Y-49896474D01*
X55410835Y-49982478D01*
X55357145Y-50098143D01*
X55349592Y-50125378D01*
X55298947Y-50307999D01*
X55296348Y-50317369D01*
X55295799Y-50322506D01*
X55277753Y-50491364D01*
X55272172Y-50543582D01*
X40299508Y-50543582D01*
X40314342Y-50497927D01*
X40334304Y-50307999D01*
X40314342Y-50118071D01*
X40255327Y-49936443D01*
X40244187Y-49917147D01*
X40211912Y-49861246D01*
X40159840Y-49771055D01*
X40135029Y-49743499D01*
X40036475Y-49634044D01*
X40036474Y-49634043D01*
X40032053Y-49629133D01*
X39877552Y-49516881D01*
X39871524Y-49514197D01*
X39871522Y-49514196D01*
X39709119Y-49441890D01*
X39709118Y-49441890D01*
X39703088Y-49439205D01*
X39606653Y-49418707D01*
X39522744Y-49400871D01*
X39522739Y-49400871D01*
X39516287Y-49399499D01*
X39325313Y-49399499D01*
X39318861Y-49400871D01*
X39318856Y-49400871D01*
X39234947Y-49418707D01*
X39138512Y-49439205D01*
X39132482Y-49441890D01*
X39132481Y-49441890D01*
X38970078Y-49514196D01*
X38970076Y-49514197D01*
X38964048Y-49516881D01*
X38809547Y-49629133D01*
X38805126Y-49634043D01*
X38805125Y-49634044D01*
X38706572Y-49743499D01*
X38681760Y-49771055D01*
X38629688Y-49861246D01*
X38597414Y-49917147D01*
X38586273Y-49936443D01*
X38527258Y-50118071D01*
X38507296Y-50307999D01*
X38527258Y-50497927D01*
X38586273Y-50679555D01*
X38681760Y-50844943D01*
X38809547Y-50986865D01*
X38964048Y-51099117D01*
X38970074Y-51101800D01*
X38970081Y-51101804D01*
X39005096Y-51117393D01*
X39059192Y-51163373D01*
X39079842Y-51231300D01*
X39060490Y-51299608D01*
X39005096Y-51347607D01*
X38970081Y-51363196D01*
X38970074Y-51363200D01*
X38964048Y-51365883D01*
X38809547Y-51478135D01*
X38681760Y-51620057D01*
X38669765Y-51640833D01*
X38593910Y-51772218D01*
X38586273Y-51785445D01*
X38527258Y-51967073D01*
X38526568Y-51973634D01*
X38526568Y-51973636D01*
X38515702Y-52077026D01*
X38507296Y-52157001D01*
X32133504Y-52157001D01*
X32125098Y-52077026D01*
X32114232Y-51973636D01*
X32114232Y-51973634D01*
X32113542Y-51967073D01*
X32054527Y-51785445D01*
X32046891Y-51772218D01*
X31971035Y-51640833D01*
X31959040Y-51620057D01*
X31831253Y-51478135D01*
X31676752Y-51365883D01*
X31670726Y-51363200D01*
X31670719Y-51363196D01*
X31635704Y-51347607D01*
X31581608Y-51301627D01*
X31560958Y-51233700D01*
X31580310Y-51165392D01*
X31635704Y-51117393D01*
X31670719Y-51101804D01*
X31670726Y-51101800D01*
X31676752Y-51099117D01*
X31831253Y-50986865D01*
X31959040Y-50844943D01*
X32054527Y-50679555D01*
X32113542Y-50497927D01*
X32133504Y-50307999D01*
X32114530Y-50127469D01*
X32127302Y-50057631D01*
X32175804Y-50005784D01*
X32236871Y-49988334D01*
X32395177Y-49984603D01*
X32485347Y-49982478D01*
X32489745Y-49981746D01*
X32740576Y-49939996D01*
X32740580Y-49939995D01*
X32744966Y-49939265D01*
X32749207Y-49937924D01*
X32749210Y-49937923D01*
X32991661Y-49861246D01*
X32991663Y-49861245D01*
X32995907Y-49859903D01*
X32999918Y-49857977D01*
X32999923Y-49857975D01*
X33229143Y-49747905D01*
X33229144Y-49747904D01*
X33233162Y-49745975D01*
X33343187Y-49672458D01*
X33448289Y-49602232D01*
X33448293Y-49602229D01*
X33451997Y-49599754D01*
X33455314Y-49596783D01*
X33455318Y-49596780D01*
X33644729Y-49427129D01*
X33644730Y-49427128D01*
X33648047Y-49424157D01*
X33817398Y-49222689D01*
X33833841Y-49196325D01*
X33954320Y-49003143D01*
X33956674Y-48999369D01*
X34063093Y-48758652D01*
X34134534Y-48505343D01*
X34139757Y-48466455D01*
X34169143Y-48247676D01*
X34169144Y-48247668D01*
X34169570Y-48244494D01*
X34173247Y-48127500D01*
X34169103Y-48068974D01*
X50647672Y-48068974D01*
X50658005Y-48331962D01*
X50705290Y-48590871D01*
X50788584Y-48840534D01*
X50790577Y-48844522D01*
X50867950Y-48999369D01*
X50906225Y-49075970D01*
X50908754Y-49079629D01*
X51017548Y-49237041D01*
X51055865Y-49292482D01*
X51234520Y-49485749D01*
X51438623Y-49651915D01*
X51442431Y-49654208D01*
X51442433Y-49654209D01*
X51660288Y-49785368D01*
X51660292Y-49785370D01*
X51664104Y-49787665D01*
X51800026Y-49845221D01*
X51902359Y-49888554D01*
X51902364Y-49888556D01*
X51906462Y-49890291D01*
X51910760Y-49891430D01*
X51910764Y-49891432D01*
X52007750Y-49917147D01*
X52160862Y-49957744D01*
X52422229Y-49988679D01*
X52685347Y-49982478D01*
X52689745Y-49981746D01*
X52940576Y-49939996D01*
X52940580Y-49939995D01*
X52944966Y-49939265D01*
X52949207Y-49937924D01*
X52949210Y-49937923D01*
X53191661Y-49861246D01*
X53191663Y-49861245D01*
X53195907Y-49859903D01*
X53199918Y-49857977D01*
X53199923Y-49857975D01*
X53429143Y-49747905D01*
X53429144Y-49747904D01*
X53433162Y-49745975D01*
X53543187Y-49672458D01*
X53648289Y-49602232D01*
X53648293Y-49602229D01*
X53651997Y-49599754D01*
X53655314Y-49596783D01*
X53655318Y-49596780D01*
X53844729Y-49427129D01*
X53844730Y-49427128D01*
X53848047Y-49424157D01*
X54017398Y-49222689D01*
X54033841Y-49196325D01*
X54154320Y-49003143D01*
X54156674Y-48999369D01*
X54263093Y-48758652D01*
X54334534Y-48505343D01*
X54339757Y-48466455D01*
X54369143Y-48247676D01*
X54369144Y-48247668D01*
X54369570Y-48244494D01*
X54373247Y-48127500D01*
X54354659Y-47864966D01*
X54345830Y-47823955D01*
X54300201Y-47612023D01*
X54299264Y-47607671D01*
X54280218Y-47556043D01*
X54209710Y-47364924D01*
X54208169Y-47360747D01*
X54196936Y-47339928D01*
X54085304Y-47133038D01*
X54083191Y-47129122D01*
X53926824Y-46917418D01*
X53742187Y-46729858D01*
X53738647Y-46727157D01*
X53738641Y-46727151D01*
X53536506Y-46572886D01*
X53536502Y-46572883D01*
X53532965Y-46570184D01*
X53303332Y-46441584D01*
X53057870Y-46346622D01*
X53053545Y-46345619D01*
X53053540Y-46345618D01*
X52912794Y-46312995D01*
X52801476Y-46287193D01*
X52539267Y-46264483D01*
X52534832Y-46264727D01*
X52534828Y-46264727D01*
X52280916Y-46278700D01*
X52280909Y-46278701D01*
X52276473Y-46278945D01*
X52148369Y-46304427D01*
X52022711Y-46329421D01*
X52022706Y-46329422D01*
X52018339Y-46330291D01*
X52014136Y-46331767D01*
X51774223Y-46416018D01*
X51774220Y-46416019D01*
X51770015Y-46417496D01*
X51766062Y-46419549D01*
X51766056Y-46419552D01*
X51674233Y-46467251D01*
X51536456Y-46538821D01*
X51532841Y-46541404D01*
X51532835Y-46541408D01*
X51439443Y-46608148D01*
X51322322Y-46691844D01*
X51319095Y-46694922D01*
X51319093Y-46694924D01*
X51237541Y-46772721D01*
X51131885Y-46873511D01*
X50968945Y-47080200D01*
X50940529Y-47129122D01*
X50838987Y-47303938D01*
X50838984Y-47303944D01*
X50836753Y-47307785D01*
X50835083Y-47311908D01*
X50747849Y-47527279D01*
X50737947Y-47551725D01*
X50674498Y-47807154D01*
X50647672Y-48068974D01*
X34169103Y-48068974D01*
X34154659Y-47864966D01*
X34145830Y-47823955D01*
X34100201Y-47612023D01*
X34099264Y-47607671D01*
X34080218Y-47556043D01*
X34009710Y-47364924D01*
X34008169Y-47360747D01*
X33996936Y-47339928D01*
X33894456Y-47150000D01*
X35096496Y-47150000D01*
X35097186Y-47156565D01*
X35113080Y-47307785D01*
X35116458Y-47339928D01*
X35175473Y-47521556D01*
X35270960Y-47686944D01*
X35398747Y-47828866D01*
X35553248Y-47941118D01*
X35559276Y-47943802D01*
X35559278Y-47943803D01*
X35721681Y-48016109D01*
X35727712Y-48018794D01*
X35821113Y-48038647D01*
X35908056Y-48057128D01*
X35908061Y-48057128D01*
X35914513Y-48058500D01*
X36105487Y-48058500D01*
X36111939Y-48057128D01*
X36111944Y-48057128D01*
X36198887Y-48038647D01*
X36292288Y-48018794D01*
X36298319Y-48016109D01*
X36460722Y-47943803D01*
X36460724Y-47943802D01*
X36466752Y-47941118D01*
X36621253Y-47828866D01*
X36749040Y-47686944D01*
X36844527Y-47521556D01*
X36903542Y-47339928D01*
X36906921Y-47307785D01*
X36922814Y-47156565D01*
X36923504Y-47150000D01*
X36903542Y-46960072D01*
X36844527Y-46778444D01*
X36749040Y-46613056D01*
X36621253Y-46471134D01*
X36466752Y-46358882D01*
X36460724Y-46356198D01*
X36460722Y-46356197D01*
X36298319Y-46283891D01*
X36298318Y-46283891D01*
X36292288Y-46281206D01*
X36198888Y-46261353D01*
X36111944Y-46242872D01*
X36111939Y-46242872D01*
X36105487Y-46241500D01*
X35914513Y-46241500D01*
X35908061Y-46242872D01*
X35908056Y-46242872D01*
X35821112Y-46261353D01*
X35727712Y-46281206D01*
X35721682Y-46283891D01*
X35721681Y-46283891D01*
X35559278Y-46356197D01*
X35559276Y-46356198D01*
X35553248Y-46358882D01*
X35398747Y-46471134D01*
X35270960Y-46613056D01*
X35175473Y-46778444D01*
X35116458Y-46960072D01*
X35096496Y-47150000D01*
X33894456Y-47150000D01*
X33885304Y-47133038D01*
X33883191Y-47129122D01*
X33726824Y-46917418D01*
X33542187Y-46729858D01*
X33538647Y-46727157D01*
X33538641Y-46727151D01*
X33336506Y-46572886D01*
X33336502Y-46572883D01*
X33332965Y-46570184D01*
X33103332Y-46441584D01*
X32857870Y-46346622D01*
X32853545Y-46345619D01*
X32853540Y-46345618D01*
X32712794Y-46312995D01*
X32601476Y-46287193D01*
X32339267Y-46264483D01*
X32334832Y-46264727D01*
X32334828Y-46264727D01*
X32080916Y-46278700D01*
X32080909Y-46278701D01*
X32076473Y-46278945D01*
X31948369Y-46304427D01*
X31822711Y-46329421D01*
X31822706Y-46329422D01*
X31818339Y-46330291D01*
X31814136Y-46331767D01*
X31574223Y-46416018D01*
X31574220Y-46416019D01*
X31570015Y-46417496D01*
X31566062Y-46419549D01*
X31566056Y-46419552D01*
X31474233Y-46467251D01*
X31336456Y-46538821D01*
X31332841Y-46541404D01*
X31332835Y-46541408D01*
X31239443Y-46608148D01*
X31122322Y-46691844D01*
X31119095Y-46694922D01*
X31119093Y-46694924D01*
X31037541Y-46772721D01*
X30931885Y-46873511D01*
X30768945Y-47080200D01*
X30740529Y-47129122D01*
X30638987Y-47303938D01*
X30638984Y-47303944D01*
X30636753Y-47307785D01*
X30635083Y-47311908D01*
X30547849Y-47527279D01*
X30537947Y-47551725D01*
X30474498Y-47807154D01*
X30447672Y-48068974D01*
X30458005Y-48331962D01*
X30505290Y-48590871D01*
X30588584Y-48840534D01*
X30590577Y-48844522D01*
X30667950Y-48999369D01*
X30706225Y-49075970D01*
X30708754Y-49079629D01*
X30817548Y-49237041D01*
X30855865Y-49292482D01*
X30858893Y-49295757D01*
X30861672Y-49299226D01*
X30860117Y-49300472D01*
X30888020Y-49356779D01*
X30880147Y-49427338D01*
X30835377Y-49482439D01*
X30815181Y-49493759D01*
X30769281Y-49514194D01*
X30769274Y-49514198D01*
X30763248Y-49516881D01*
X30608747Y-49629133D01*
X30604326Y-49634043D01*
X30604325Y-49634044D01*
X30505772Y-49743499D01*
X30480960Y-49771055D01*
X30428888Y-49861246D01*
X30396614Y-49917147D01*
X30385473Y-49936443D01*
X30326458Y-50118071D01*
X30306496Y-50307999D01*
X30326458Y-50497927D01*
X30385473Y-50679555D01*
X30480960Y-50844943D01*
X30608747Y-50986865D01*
X30763248Y-51099117D01*
X30769274Y-51101800D01*
X30769281Y-51101804D01*
X30804296Y-51117393D01*
X30858392Y-51163373D01*
X30879042Y-51231300D01*
X30859690Y-51299608D01*
X30804296Y-51347607D01*
X30769281Y-51363196D01*
X30769274Y-51363200D01*
X30763248Y-51365883D01*
X30608747Y-51478135D01*
X30480960Y-51620057D01*
X30468965Y-51640833D01*
X30393110Y-51772218D01*
X30385473Y-51785445D01*
X30326458Y-51967073D01*
X30325768Y-51973634D01*
X30325768Y-51973636D01*
X30314902Y-52077026D01*
X30306496Y-52157001D01*
X23870660Y-52157001D01*
X23755243Y-52073145D01*
X23749215Y-52070461D01*
X23749213Y-52070460D01*
X23586810Y-51998154D01*
X23586809Y-51998154D01*
X23580779Y-51995469D01*
X23487378Y-51975616D01*
X23400435Y-51957135D01*
X23400430Y-51957135D01*
X23393978Y-51955763D01*
X23203004Y-51955763D01*
X23196552Y-51957135D01*
X23196547Y-51957135D01*
X23109604Y-51975616D01*
X23016203Y-51995469D01*
X23010173Y-51998154D01*
X23010172Y-51998154D01*
X22847769Y-52070460D01*
X22847767Y-52070461D01*
X22841739Y-52073145D01*
X22687238Y-52185397D01*
X22559451Y-52327319D01*
X22463964Y-52492707D01*
X22404949Y-52674335D01*
X22404259Y-52680896D01*
X22404259Y-52680898D01*
X22387563Y-52839750D01*
X22384987Y-52864263D01*
X18488500Y-52864263D01*
X18488500Y-44405143D01*
X18508502Y-44337022D01*
X18562158Y-44290529D01*
X18632432Y-44280425D01*
X18697012Y-44309919D01*
X18721933Y-44339308D01*
X18749987Y-44385088D01*
X18896250Y-44553938D01*
X19068126Y-44696632D01*
X19261000Y-44809338D01*
X19469692Y-44889030D01*
X19474760Y-44890061D01*
X19474763Y-44890062D01*
X19582017Y-44911883D01*
X19688597Y-44933567D01*
X19693772Y-44933757D01*
X19693774Y-44933757D01*
X19906673Y-44941564D01*
X19906677Y-44941564D01*
X19911837Y-44941753D01*
X19916957Y-44941097D01*
X19916959Y-44941097D01*
X20128288Y-44914025D01*
X20128289Y-44914025D01*
X20133416Y-44913368D01*
X20177734Y-44900072D01*
X20342429Y-44850661D01*
X20342434Y-44850659D01*
X20347384Y-44849174D01*
X20547994Y-44750896D01*
X20729860Y-44621173D01*
X20888096Y-44463489D01*
X21018453Y-44282077D01*
X21052036Y-44214128D01*
X21115136Y-44086453D01*
X21115137Y-44086451D01*
X21117430Y-44081811D01*
X21163898Y-43928866D01*
X21180865Y-43873023D01*
X21180865Y-43873021D01*
X21182370Y-43868069D01*
X21211529Y-43646590D01*
X21213156Y-43580000D01*
X21194852Y-43357361D01*
X21182202Y-43307000D01*
X32182696Y-43307000D01*
X32183386Y-43313565D01*
X32188532Y-43362522D01*
X32202658Y-43496928D01*
X32261673Y-43678556D01*
X32357160Y-43843944D01*
X32361578Y-43848851D01*
X32361579Y-43848852D01*
X32418750Y-43912347D01*
X32484947Y-43985866D01*
X32542075Y-44027372D01*
X32623393Y-44086453D01*
X32639448Y-44098118D01*
X32645476Y-44100802D01*
X32645478Y-44100803D01*
X32807881Y-44173109D01*
X32813912Y-44175794D01*
X32902462Y-44194616D01*
X32994256Y-44214128D01*
X32994261Y-44214128D01*
X33000713Y-44215500D01*
X33191687Y-44215500D01*
X33198139Y-44214128D01*
X33198144Y-44214128D01*
X33289938Y-44194616D01*
X33378488Y-44175794D01*
X33384519Y-44173109D01*
X33546922Y-44100803D01*
X33546924Y-44100802D01*
X33552952Y-44098118D01*
X33569008Y-44086453D01*
X33650325Y-44027372D01*
X33707453Y-43985866D01*
X33773650Y-43912347D01*
X33830821Y-43848852D01*
X33830822Y-43848851D01*
X33835240Y-43843944D01*
X33930727Y-43678556D01*
X33989742Y-43496928D01*
X34003030Y-43370500D01*
X35366496Y-43370500D01*
X35386458Y-43560428D01*
X35445473Y-43742056D01*
X35540960Y-43907444D01*
X35663923Y-44044009D01*
X35694639Y-44108014D01*
X35685875Y-44178468D01*
X35663926Y-44212622D01*
X35555937Y-44332556D01*
X35460450Y-44497944D01*
X35401435Y-44679572D01*
X35400745Y-44686133D01*
X35400745Y-44686135D01*
X35383849Y-44846895D01*
X35381473Y-44869500D01*
X35401435Y-45059428D01*
X35460450Y-45241056D01*
X35555937Y-45406444D01*
X35683724Y-45548366D01*
X35838225Y-45660618D01*
X35844253Y-45663302D01*
X35844255Y-45663303D01*
X36002045Y-45733555D01*
X36012689Y-45738294D01*
X36106090Y-45758147D01*
X36193033Y-45776628D01*
X36193038Y-45776628D01*
X36199490Y-45778000D01*
X36390464Y-45778000D01*
X36396916Y-45776628D01*
X36396921Y-45776628D01*
X36483864Y-45758147D01*
X36577265Y-45738294D01*
X36587909Y-45733555D01*
X36745699Y-45663303D01*
X36745701Y-45663302D01*
X36751729Y-45660618D01*
X36906230Y-45548366D01*
X37034017Y-45406444D01*
X37129504Y-45241056D01*
X37188519Y-45059428D01*
X37189876Y-45046516D01*
X37216889Y-44980860D01*
X37232533Y-44969943D01*
X37400988Y-44969943D01*
X37407200Y-44973609D01*
X37439130Y-45037020D01*
X37440862Y-45056116D01*
X37440496Y-45059600D01*
X37441186Y-45066165D01*
X37459568Y-45241056D01*
X37460458Y-45249528D01*
X37519473Y-45431156D01*
X37614960Y-45596544D01*
X37742747Y-45738466D01*
X37897248Y-45850718D01*
X37903276Y-45853402D01*
X37903278Y-45853403D01*
X37971558Y-45883803D01*
X38071712Y-45928394D01*
X38165113Y-45948247D01*
X38252056Y-45966728D01*
X38252061Y-45966728D01*
X38258513Y-45968100D01*
X38449487Y-45968100D01*
X38455939Y-45966728D01*
X38455944Y-45966728D01*
X38542887Y-45948247D01*
X38636288Y-45928394D01*
X38736442Y-45883803D01*
X38804722Y-45853403D01*
X38804724Y-45853402D01*
X38810752Y-45850718D01*
X38965253Y-45738466D01*
X39093040Y-45596544D01*
X39188527Y-45431156D01*
X39247542Y-45249528D01*
X39248433Y-45241056D01*
X39264309Y-45090000D01*
X45946496Y-45090000D01*
X45966458Y-45279928D01*
X46025473Y-45461556D01*
X46120960Y-45626944D01*
X46248747Y-45768866D01*
X46403248Y-45881118D01*
X46409276Y-45883802D01*
X46409278Y-45883803D01*
X46571681Y-45956109D01*
X46577712Y-45958794D01*
X46671113Y-45978647D01*
X46758056Y-45997128D01*
X46758061Y-45997128D01*
X46764513Y-45998500D01*
X46955487Y-45998500D01*
X46961939Y-45997128D01*
X46961944Y-45997128D01*
X47048887Y-45978647D01*
X47142288Y-45958794D01*
X47148319Y-45956109D01*
X47310722Y-45883803D01*
X47310724Y-45883802D01*
X47316752Y-45881118D01*
X47471253Y-45768866D01*
X47599040Y-45626944D01*
X47694527Y-45461556D01*
X47753542Y-45279928D01*
X47773504Y-45090000D01*
X47757854Y-44941097D01*
X47754232Y-44906635D01*
X47754232Y-44906633D01*
X47753542Y-44900072D01*
X47694527Y-44718444D01*
X47599040Y-44553056D01*
X47471253Y-44411134D01*
X47316752Y-44298882D01*
X47310724Y-44296198D01*
X47310722Y-44296197D01*
X47148319Y-44223891D01*
X47148318Y-44223891D01*
X47142288Y-44221206D01*
X47017193Y-44194616D01*
X46961944Y-44182872D01*
X46961939Y-44182872D01*
X46955487Y-44181500D01*
X46764513Y-44181500D01*
X46758061Y-44182872D01*
X46758056Y-44182872D01*
X46702807Y-44194616D01*
X46577712Y-44221206D01*
X46571682Y-44223891D01*
X46571681Y-44223891D01*
X46409278Y-44296197D01*
X46409276Y-44296198D01*
X46403248Y-44298882D01*
X46248747Y-44411134D01*
X46120960Y-44553056D01*
X46025473Y-44718444D01*
X45966458Y-44900072D01*
X45965768Y-44906633D01*
X45965768Y-44906635D01*
X45962146Y-44941097D01*
X45946496Y-45090000D01*
X39264309Y-45090000D01*
X39266814Y-45066165D01*
X39267504Y-45059600D01*
X39247542Y-44869672D01*
X39188527Y-44688044D01*
X39093040Y-44522656D01*
X38965253Y-44380734D01*
X38810752Y-44268482D01*
X38804724Y-44265798D01*
X38804722Y-44265797D01*
X38642319Y-44193491D01*
X38642318Y-44193491D01*
X38636288Y-44190806D01*
X38542888Y-44170953D01*
X38455944Y-44152472D01*
X38455939Y-44152472D01*
X38449487Y-44151100D01*
X38258513Y-44151100D01*
X38252061Y-44152472D01*
X38252056Y-44152472D01*
X38165112Y-44170953D01*
X38071712Y-44190806D01*
X38065682Y-44193491D01*
X38065681Y-44193491D01*
X37903278Y-44265797D01*
X37903276Y-44265798D01*
X37897248Y-44268482D01*
X37742747Y-44380734D01*
X37614960Y-44522656D01*
X37519473Y-44688044D01*
X37460458Y-44869672D01*
X37459769Y-44876231D01*
X37459768Y-44876234D01*
X37459101Y-44882584D01*
X37432088Y-44948240D01*
X37400988Y-44969943D01*
X37232533Y-44969943D01*
X37247989Y-44959157D01*
X37241777Y-44955491D01*
X37209847Y-44892080D01*
X37208115Y-44872984D01*
X37208481Y-44869500D01*
X37206105Y-44846895D01*
X37189209Y-44686135D01*
X37189209Y-44686133D01*
X37188519Y-44679572D01*
X37129504Y-44497944D01*
X37034017Y-44332556D01*
X36911054Y-44195991D01*
X36880338Y-44131986D01*
X36889102Y-44061532D01*
X36911051Y-44027378D01*
X37019040Y-43907444D01*
X37114527Y-43742056D01*
X37173542Y-43560428D01*
X37193504Y-43370500D01*
X37180839Y-43250000D01*
X42696496Y-43250000D01*
X42697186Y-43256565D01*
X42704334Y-43324570D01*
X42716458Y-43439928D01*
X42775473Y-43621556D01*
X42870960Y-43786944D01*
X42875378Y-43791851D01*
X42875379Y-43791852D01*
X42983873Y-43912347D01*
X42998747Y-43928866D01*
X43153248Y-44041118D01*
X43159276Y-44043802D01*
X43159278Y-44043803D01*
X43318200Y-44114559D01*
X43327712Y-44118794D01*
X43421112Y-44138647D01*
X43508056Y-44157128D01*
X43508061Y-44157128D01*
X43514513Y-44158500D01*
X43705487Y-44158500D01*
X43711939Y-44157128D01*
X43711944Y-44157128D01*
X43798888Y-44138647D01*
X43892288Y-44118794D01*
X43901800Y-44114559D01*
X44060722Y-44043803D01*
X44060724Y-44043802D01*
X44066752Y-44041118D01*
X44221253Y-43928866D01*
X44236127Y-43912347D01*
X44344621Y-43791852D01*
X44344622Y-43791851D01*
X44349040Y-43786944D01*
X44444527Y-43621556D01*
X44503542Y-43439928D01*
X44515667Y-43324570D01*
X44522814Y-43256565D01*
X44523504Y-43250000D01*
X44512544Y-43145720D01*
X44504232Y-43066635D01*
X44504232Y-43066633D01*
X44503542Y-43060072D01*
X44444527Y-42878444D01*
X44349040Y-42713056D01*
X44334174Y-42696545D01*
X44225675Y-42576045D01*
X44225674Y-42576044D01*
X44221253Y-42571134D01*
X44066752Y-42458882D01*
X44060724Y-42456198D01*
X44060722Y-42456197D01*
X43898319Y-42383891D01*
X43898318Y-42383891D01*
X43892288Y-42381206D01*
X43793774Y-42360266D01*
X43711944Y-42342872D01*
X43711939Y-42342872D01*
X43705487Y-42341500D01*
X43514513Y-42341500D01*
X43508061Y-42342872D01*
X43508056Y-42342872D01*
X43426226Y-42360266D01*
X43327712Y-42381206D01*
X43321682Y-42383891D01*
X43321681Y-42383891D01*
X43159278Y-42456197D01*
X43159276Y-42456198D01*
X43153248Y-42458882D01*
X42998747Y-42571134D01*
X42994326Y-42576044D01*
X42994325Y-42576045D01*
X42885827Y-42696545D01*
X42870960Y-42713056D01*
X42775473Y-42878444D01*
X42716458Y-43060072D01*
X42715768Y-43066633D01*
X42715768Y-43066635D01*
X42707456Y-43145720D01*
X42696496Y-43250000D01*
X37180839Y-43250000D01*
X37173542Y-43180572D01*
X37114527Y-42998944D01*
X37019040Y-42833556D01*
X36961865Y-42770056D01*
X36895675Y-42696545D01*
X36895674Y-42696544D01*
X36891253Y-42691634D01*
X36751229Y-42589900D01*
X36742094Y-42583263D01*
X36742093Y-42583262D01*
X36736752Y-42579382D01*
X36730724Y-42576698D01*
X36730722Y-42576697D01*
X36568319Y-42504391D01*
X36568318Y-42504391D01*
X36562288Y-42501706D01*
X36468888Y-42481853D01*
X36381944Y-42463372D01*
X36381939Y-42463372D01*
X36375487Y-42462000D01*
X36184513Y-42462000D01*
X36178061Y-42463372D01*
X36178056Y-42463372D01*
X36091112Y-42481853D01*
X35997712Y-42501706D01*
X35991682Y-42504391D01*
X35991681Y-42504391D01*
X35829278Y-42576697D01*
X35829276Y-42576698D01*
X35823248Y-42579382D01*
X35817907Y-42583262D01*
X35817906Y-42583263D01*
X35808771Y-42589900D01*
X35668747Y-42691634D01*
X35664326Y-42696544D01*
X35664325Y-42696545D01*
X35598136Y-42770056D01*
X35540960Y-42833556D01*
X35445473Y-42998944D01*
X35386458Y-43180572D01*
X35366496Y-43370500D01*
X34003030Y-43370500D01*
X34003869Y-43362522D01*
X34009014Y-43313565D01*
X34009704Y-43307000D01*
X33989742Y-43117072D01*
X33930727Y-42935444D01*
X33925181Y-42925837D01*
X33838541Y-42775774D01*
X33835240Y-42770056D01*
X33792095Y-42722138D01*
X33711875Y-42633045D01*
X33711874Y-42633044D01*
X33707453Y-42628134D01*
X33552952Y-42515882D01*
X33546924Y-42513198D01*
X33546922Y-42513197D01*
X33384519Y-42440891D01*
X33384518Y-42440891D01*
X33378488Y-42438206D01*
X33285088Y-42418353D01*
X33198144Y-42399872D01*
X33198139Y-42399872D01*
X33191687Y-42398500D01*
X33000713Y-42398500D01*
X32994261Y-42399872D01*
X32994256Y-42399872D01*
X32907312Y-42418353D01*
X32813912Y-42438206D01*
X32807882Y-42440891D01*
X32807881Y-42440891D01*
X32645478Y-42513197D01*
X32645476Y-42513198D01*
X32639448Y-42515882D01*
X32484947Y-42628134D01*
X32480526Y-42633044D01*
X32480525Y-42633045D01*
X32400306Y-42722138D01*
X32357160Y-42770056D01*
X32353859Y-42775774D01*
X32267220Y-42925837D01*
X32261673Y-42935444D01*
X32202658Y-43117072D01*
X32182696Y-43307000D01*
X21182202Y-43307000D01*
X21140431Y-43140702D01*
X21051354Y-42935840D01*
X20988883Y-42839274D01*
X20932822Y-42752617D01*
X20932820Y-42752614D01*
X20930014Y-42748277D01*
X20779670Y-42583051D01*
X20775619Y-42579852D01*
X20775615Y-42579848D01*
X20608414Y-42447800D01*
X20608410Y-42447798D01*
X20604359Y-42444598D01*
X20563053Y-42421796D01*
X20513084Y-42371364D01*
X20498312Y-42301921D01*
X20523428Y-42235516D01*
X20550780Y-42208909D01*
X20594603Y-42177650D01*
X20729860Y-42081173D01*
X20888096Y-41923489D01*
X20896986Y-41911118D01*
X21015435Y-41746277D01*
X21018453Y-41742077D01*
X21048442Y-41681400D01*
X24394296Y-41681400D01*
X24394986Y-41687965D01*
X24411038Y-41840688D01*
X24414258Y-41871328D01*
X24473273Y-42052956D01*
X24568760Y-42218344D01*
X24573178Y-42223251D01*
X24573179Y-42223252D01*
X24652905Y-42311797D01*
X24696547Y-42360266D01*
X24751060Y-42399872D01*
X24838460Y-42463372D01*
X24851048Y-42472518D01*
X24857076Y-42475202D01*
X24857078Y-42475203D01*
X25019481Y-42547509D01*
X25025512Y-42550194D01*
X25118912Y-42570047D01*
X25205856Y-42588528D01*
X25205861Y-42588528D01*
X25212313Y-42589900D01*
X25403287Y-42589900D01*
X25409739Y-42588528D01*
X25409744Y-42588528D01*
X25496688Y-42570047D01*
X25590088Y-42550194D01*
X25596119Y-42547509D01*
X25758522Y-42475203D01*
X25758524Y-42475202D01*
X25764552Y-42472518D01*
X25777141Y-42463372D01*
X25864540Y-42399872D01*
X25919053Y-42360266D01*
X25962695Y-42311797D01*
X26042421Y-42223252D01*
X26042422Y-42223251D01*
X26046840Y-42218344D01*
X26142327Y-42052956D01*
X26201342Y-41871328D01*
X26204563Y-41840688D01*
X26220614Y-41687965D01*
X26221304Y-41681400D01*
X29347296Y-41681400D01*
X29347986Y-41687965D01*
X29364038Y-41840688D01*
X29367258Y-41871328D01*
X29426273Y-42052956D01*
X29521760Y-42218344D01*
X29526178Y-42223251D01*
X29526179Y-42223252D01*
X29605905Y-42311797D01*
X29649547Y-42360266D01*
X29704060Y-42399872D01*
X29791460Y-42463372D01*
X29804048Y-42472518D01*
X29810076Y-42475202D01*
X29810078Y-42475203D01*
X29972481Y-42547509D01*
X29978512Y-42550194D01*
X30071912Y-42570047D01*
X30158856Y-42588528D01*
X30158861Y-42588528D01*
X30165313Y-42589900D01*
X30356287Y-42589900D01*
X30362739Y-42588528D01*
X30362744Y-42588528D01*
X30449688Y-42570047D01*
X30543088Y-42550194D01*
X30549119Y-42547509D01*
X30711522Y-42475203D01*
X30711524Y-42475202D01*
X30717552Y-42472518D01*
X30730141Y-42463372D01*
X30817540Y-42399872D01*
X30872053Y-42360266D01*
X30915695Y-42311797D01*
X30995421Y-42223252D01*
X30995422Y-42223251D01*
X30999840Y-42218344D01*
X31045880Y-42138600D01*
X37872296Y-42138600D01*
X37872986Y-42145165D01*
X37890500Y-42311797D01*
X37892258Y-42328528D01*
X37951273Y-42510156D01*
X37954576Y-42515878D01*
X37954577Y-42515879D01*
X37972839Y-42547509D01*
X38046760Y-42675544D01*
X38051178Y-42680451D01*
X38051179Y-42680452D01*
X38085684Y-42718774D01*
X38174547Y-42817466D01*
X38329048Y-42929718D01*
X38335076Y-42932402D01*
X38335078Y-42932403D01*
X38484533Y-42998944D01*
X38503512Y-43007394D01*
X38596913Y-43027247D01*
X38683856Y-43045728D01*
X38683861Y-43045728D01*
X38690313Y-43047100D01*
X38881287Y-43047100D01*
X38887739Y-43045728D01*
X38887744Y-43045728D01*
X38974687Y-43027247D01*
X39068088Y-43007394D01*
X39087067Y-42998944D01*
X39236522Y-42932403D01*
X39236524Y-42932402D01*
X39242552Y-42929718D01*
X39397053Y-42817466D01*
X39485916Y-42718774D01*
X39520421Y-42680452D01*
X39520422Y-42680451D01*
X39524840Y-42675544D01*
X39598761Y-42547509D01*
X39617023Y-42515879D01*
X39617024Y-42515878D01*
X39620327Y-42510156D01*
X39679342Y-42328528D01*
X39681101Y-42311797D01*
X39698614Y-42145165D01*
X39699304Y-42138600D01*
X39679342Y-41948672D01*
X39620327Y-41767044D01*
X39604959Y-41740425D01*
X39559594Y-41661852D01*
X39524840Y-41601656D01*
X39470956Y-41541811D01*
X39401475Y-41464645D01*
X39401474Y-41464644D01*
X39397053Y-41459734D01*
X39242552Y-41347482D01*
X39236524Y-41344798D01*
X39236522Y-41344797D01*
X39074119Y-41272491D01*
X39074118Y-41272491D01*
X39068088Y-41269806D01*
X38974688Y-41249953D01*
X38887744Y-41231472D01*
X38887739Y-41231472D01*
X38881287Y-41230100D01*
X38690313Y-41230100D01*
X38683861Y-41231472D01*
X38683856Y-41231472D01*
X38596912Y-41249953D01*
X38503512Y-41269806D01*
X38497482Y-41272491D01*
X38497481Y-41272491D01*
X38335078Y-41344797D01*
X38335076Y-41344798D01*
X38329048Y-41347482D01*
X38174547Y-41459734D01*
X38170126Y-41464644D01*
X38170125Y-41464645D01*
X38100645Y-41541811D01*
X38046760Y-41601656D01*
X38012006Y-41661852D01*
X37966642Y-41740425D01*
X37951273Y-41767044D01*
X37892258Y-41948672D01*
X37872296Y-42138600D01*
X31045880Y-42138600D01*
X31095327Y-42052956D01*
X31154342Y-41871328D01*
X31157563Y-41840688D01*
X31173614Y-41687965D01*
X31174304Y-41681400D01*
X31154342Y-41491472D01*
X31095327Y-41309844D01*
X31091587Y-41303365D01*
X31003141Y-41150174D01*
X30999840Y-41144456D01*
X30987462Y-41130709D01*
X30982323Y-41120000D01*
X45946496Y-41120000D01*
X45966458Y-41309928D01*
X46025473Y-41491556D01*
X46028776Y-41497278D01*
X46028777Y-41497279D01*
X46051628Y-41536857D01*
X46120960Y-41656944D01*
X46125378Y-41661851D01*
X46125379Y-41661852D01*
X46197614Y-41742077D01*
X46248747Y-41798866D01*
X46403248Y-41911118D01*
X46409276Y-41913802D01*
X46409278Y-41913803D01*
X46571681Y-41986109D01*
X46577712Y-41988794D01*
X46671113Y-42008647D01*
X46758056Y-42027128D01*
X46758061Y-42027128D01*
X46764513Y-42028500D01*
X46955487Y-42028500D01*
X46961939Y-42027128D01*
X46961944Y-42027128D01*
X47048887Y-42008647D01*
X47142288Y-41988794D01*
X47148319Y-41986109D01*
X47310722Y-41913803D01*
X47310724Y-41913802D01*
X47316752Y-41911118D01*
X47471253Y-41798866D01*
X47522386Y-41742077D01*
X47594621Y-41661852D01*
X47594622Y-41661851D01*
X47599040Y-41656944D01*
X47668372Y-41536857D01*
X47691223Y-41497279D01*
X47691224Y-41497278D01*
X47694527Y-41491556D01*
X47753542Y-41309928D01*
X47773504Y-41120000D01*
X47767103Y-41059100D01*
X47754232Y-40936635D01*
X47754232Y-40936633D01*
X47753542Y-40930072D01*
X47694527Y-40748444D01*
X47599040Y-40583056D01*
X47471253Y-40441134D01*
X47316752Y-40328882D01*
X47310724Y-40326198D01*
X47310722Y-40326197D01*
X47148319Y-40253891D01*
X47148318Y-40253891D01*
X47142288Y-40251206D01*
X47048887Y-40231353D01*
X46961944Y-40212872D01*
X46961939Y-40212872D01*
X46955487Y-40211500D01*
X46764513Y-40211500D01*
X46758061Y-40212872D01*
X46758056Y-40212872D01*
X46671113Y-40231353D01*
X46577712Y-40251206D01*
X46571682Y-40253891D01*
X46571681Y-40253891D01*
X46409278Y-40326197D01*
X46409276Y-40326198D01*
X46403248Y-40328882D01*
X46248747Y-40441134D01*
X46120960Y-40583056D01*
X46025473Y-40748444D01*
X45966458Y-40930072D01*
X45965768Y-40936633D01*
X45965768Y-40936635D01*
X45952897Y-41059100D01*
X45946496Y-41120000D01*
X30982323Y-41120000D01*
X30956746Y-41066703D01*
X30965510Y-40996250D01*
X30987461Y-40962093D01*
X30999840Y-40948344D01*
X31095327Y-40782956D01*
X31154342Y-40601328D01*
X31155662Y-40588774D01*
X31173614Y-40417965D01*
X31174304Y-40411400D01*
X31169604Y-40366680D01*
X31155032Y-40228035D01*
X31155032Y-40228033D01*
X31154342Y-40221472D01*
X31095327Y-40039844D01*
X30999840Y-39874456D01*
X30960800Y-39831097D01*
X30876475Y-39737445D01*
X30876474Y-39737444D01*
X30872053Y-39732534D01*
X30717552Y-39620282D01*
X30711524Y-39617598D01*
X30711522Y-39617597D01*
X30549119Y-39545291D01*
X30549118Y-39545291D01*
X30543088Y-39542606D01*
X30430521Y-39518679D01*
X30362744Y-39504272D01*
X30362739Y-39504272D01*
X30356287Y-39502900D01*
X30165313Y-39502900D01*
X30158861Y-39504272D01*
X30158856Y-39504272D01*
X30091079Y-39518679D01*
X29978512Y-39542606D01*
X29972482Y-39545291D01*
X29972481Y-39545291D01*
X29810078Y-39617597D01*
X29810076Y-39617598D01*
X29804048Y-39620282D01*
X29649547Y-39732534D01*
X29645126Y-39737444D01*
X29645125Y-39737445D01*
X29560801Y-39831097D01*
X29521760Y-39874456D01*
X29426273Y-40039844D01*
X29367258Y-40221472D01*
X29366568Y-40228033D01*
X29366568Y-40228035D01*
X29351996Y-40366680D01*
X29347296Y-40411400D01*
X29347986Y-40417965D01*
X29365939Y-40588774D01*
X29367258Y-40601328D01*
X29426273Y-40782956D01*
X29521760Y-40948344D01*
X29534138Y-40962091D01*
X29564854Y-41026097D01*
X29556090Y-41096550D01*
X29534139Y-41130707D01*
X29521760Y-41144456D01*
X29518459Y-41150174D01*
X29430014Y-41303365D01*
X29426273Y-41309844D01*
X29367258Y-41491472D01*
X29347296Y-41681400D01*
X26221304Y-41681400D01*
X26201342Y-41491472D01*
X26142327Y-41309844D01*
X26138587Y-41303365D01*
X26050143Y-41150177D01*
X26050141Y-41150174D01*
X26046840Y-41144456D01*
X26042421Y-41139548D01*
X26038539Y-41134205D01*
X26040721Y-41132620D01*
X26015182Y-41079408D01*
X26023944Y-41008954D01*
X26039524Y-40984711D01*
X26038539Y-40983995D01*
X26042421Y-40978652D01*
X26046840Y-40973744D01*
X26142327Y-40808356D01*
X26201342Y-40626728D01*
X26204078Y-40600702D01*
X26220614Y-40443365D01*
X26221304Y-40436800D01*
X26211227Y-40340920D01*
X26202032Y-40253435D01*
X26202032Y-40253433D01*
X26201342Y-40246872D01*
X26142327Y-40065244D01*
X26046840Y-39899856D01*
X26034462Y-39886109D01*
X26003746Y-39822103D01*
X26012510Y-39751650D01*
X26034461Y-39717493D01*
X26046840Y-39703744D01*
X26142327Y-39538356D01*
X26201342Y-39356728D01*
X26204702Y-39324765D01*
X26220614Y-39173365D01*
X26221304Y-39166800D01*
X26218634Y-39141400D01*
X26553296Y-39141400D01*
X26553986Y-39147965D01*
X26570880Y-39308699D01*
X26573258Y-39331328D01*
X26632273Y-39512956D01*
X26727760Y-39678344D01*
X26732178Y-39683251D01*
X26732179Y-39683252D01*
X26810578Y-39770323D01*
X26855547Y-39820266D01*
X26870455Y-39831097D01*
X26971620Y-39904598D01*
X27010048Y-39932518D01*
X27016076Y-39935202D01*
X27016078Y-39935203D01*
X27119603Y-39981295D01*
X27184512Y-40010194D01*
X27251219Y-40024373D01*
X27364856Y-40048528D01*
X27364861Y-40048528D01*
X27371313Y-40049900D01*
X27562287Y-40049900D01*
X27568739Y-40048528D01*
X27568744Y-40048528D01*
X27682381Y-40024373D01*
X27749088Y-40010194D01*
X27813997Y-39981295D01*
X27917522Y-39935203D01*
X27917524Y-39935202D01*
X27923552Y-39932518D01*
X27961981Y-39904598D01*
X28063145Y-39831097D01*
X28078053Y-39820266D01*
X28123022Y-39770323D01*
X28201421Y-39683252D01*
X28201422Y-39683251D01*
X28205840Y-39678344D01*
X28301327Y-39512956D01*
X28360342Y-39331328D01*
X28362721Y-39308699D01*
X28379614Y-39147965D01*
X28380304Y-39141400D01*
X28365093Y-38996672D01*
X28361032Y-38958035D01*
X28361032Y-38958033D01*
X28360342Y-38951472D01*
X28344987Y-38904214D01*
X37441037Y-38904214D01*
X37441727Y-38910779D01*
X37458240Y-39067887D01*
X37460999Y-39094142D01*
X37520014Y-39275770D01*
X37615501Y-39441158D01*
X37619919Y-39446065D01*
X37619920Y-39446066D01*
X37703018Y-39538356D01*
X37743288Y-39583080D01*
X37792495Y-39618831D01*
X37880670Y-39682894D01*
X37897789Y-39695332D01*
X37903817Y-39698016D01*
X37903819Y-39698017D01*
X38046751Y-39761654D01*
X38072253Y-39773008D01*
X38165654Y-39792861D01*
X38252597Y-39811342D01*
X38252602Y-39811342D01*
X38259054Y-39812714D01*
X38450028Y-39812714D01*
X38456480Y-39811342D01*
X38456485Y-39811342D01*
X38543428Y-39792861D01*
X38636829Y-39773008D01*
X38662331Y-39761654D01*
X38805263Y-39698017D01*
X38805265Y-39698016D01*
X38811293Y-39695332D01*
X38828413Y-39682894D01*
X38916587Y-39618831D01*
X38965794Y-39583080D01*
X39006064Y-39538356D01*
X39089162Y-39446066D01*
X39089163Y-39446065D01*
X39093581Y-39441158D01*
X39094571Y-39439443D01*
X43567479Y-39439443D01*
X43568169Y-39446008D01*
X43586204Y-39617597D01*
X43587441Y-39629371D01*
X43646456Y-39810999D01*
X43649759Y-39816721D01*
X43649760Y-39816722D01*
X43670099Y-39851950D01*
X43741943Y-39976387D01*
X43869730Y-40118309D01*
X44024231Y-40230561D01*
X44030259Y-40233245D01*
X44030261Y-40233246D01*
X44075607Y-40253435D01*
X44198695Y-40308237D01*
X44283190Y-40326197D01*
X44379039Y-40346571D01*
X44379044Y-40346571D01*
X44385496Y-40347943D01*
X44576470Y-40347943D01*
X44582922Y-40346571D01*
X44582927Y-40346571D01*
X44678776Y-40326197D01*
X44763271Y-40308237D01*
X44886359Y-40253435D01*
X44931705Y-40233246D01*
X44931707Y-40233245D01*
X44937735Y-40230561D01*
X45092236Y-40118309D01*
X45220023Y-39976387D01*
X45291867Y-39851950D01*
X45312206Y-39816722D01*
X45312207Y-39816721D01*
X45315510Y-39810999D01*
X45374525Y-39629371D01*
X45375763Y-39617597D01*
X45393797Y-39446008D01*
X45394487Y-39439443D01*
X45382373Y-39324185D01*
X45375215Y-39256078D01*
X45375215Y-39256076D01*
X45374525Y-39249515D01*
X45315510Y-39067887D01*
X45220023Y-38902499D01*
X45177186Y-38854923D01*
X45096658Y-38765488D01*
X45096657Y-38765487D01*
X45092236Y-38760577D01*
X44993140Y-38688579D01*
X44943077Y-38652206D01*
X44943076Y-38652205D01*
X44937735Y-38648325D01*
X44931707Y-38645641D01*
X44931705Y-38645640D01*
X44769302Y-38573334D01*
X44769301Y-38573334D01*
X44763271Y-38570649D01*
X44669871Y-38550796D01*
X44582927Y-38532315D01*
X44582922Y-38532315D01*
X44576470Y-38530943D01*
X44385496Y-38530943D01*
X44379044Y-38532315D01*
X44379039Y-38532315D01*
X44292095Y-38550796D01*
X44198695Y-38570649D01*
X44192665Y-38573334D01*
X44192664Y-38573334D01*
X44030261Y-38645640D01*
X44030259Y-38645641D01*
X44024231Y-38648325D01*
X44018890Y-38652205D01*
X44018889Y-38652206D01*
X43968826Y-38688579D01*
X43869730Y-38760577D01*
X43865309Y-38765487D01*
X43865308Y-38765488D01*
X43784781Y-38854923D01*
X43741943Y-38902499D01*
X43646456Y-39067887D01*
X43587441Y-39249515D01*
X43586751Y-39256076D01*
X43586751Y-39256078D01*
X43579593Y-39324185D01*
X43567479Y-39439443D01*
X39094571Y-39439443D01*
X39189068Y-39275770D01*
X39248083Y-39094142D01*
X39250843Y-39067887D01*
X39267355Y-38910779D01*
X39268045Y-38904214D01*
X39258539Y-38813767D01*
X39248773Y-38720849D01*
X39248773Y-38720847D01*
X39248083Y-38714286D01*
X39189068Y-38532658D01*
X39117174Y-38408134D01*
X46456500Y-38408134D01*
X46463255Y-38470316D01*
X46514385Y-38606705D01*
X46601739Y-38723261D01*
X46718295Y-38810615D01*
X46854684Y-38861745D01*
X46916866Y-38868500D01*
X49013134Y-38868500D01*
X49075316Y-38861745D01*
X49211705Y-38810615D01*
X49328261Y-38723261D01*
X49408725Y-38615898D01*
X49465583Y-38573384D01*
X49536401Y-38568358D01*
X49574726Y-38585576D01*
X49575584Y-38584176D01*
X49642118Y-38624948D01*
X49778037Y-38708240D01*
X49782607Y-38710133D01*
X49782611Y-38710135D01*
X49992833Y-38797211D01*
X49997406Y-38799105D01*
X50045349Y-38810615D01*
X50223476Y-38853380D01*
X50223482Y-38853381D01*
X50228289Y-38854535D01*
X50465000Y-38873165D01*
X50701711Y-38854535D01*
X50706518Y-38853381D01*
X50706524Y-38853380D01*
X50884651Y-38810615D01*
X50932594Y-38799105D01*
X50937167Y-38797211D01*
X51147389Y-38710135D01*
X51147393Y-38710133D01*
X51151963Y-38708240D01*
X51249735Y-38648325D01*
X51350202Y-38586759D01*
X51350208Y-38586755D01*
X51354416Y-38584176D01*
X51534969Y-38429969D01*
X51538177Y-38426213D01*
X51538182Y-38426208D01*
X51619189Y-38331361D01*
X51678639Y-38292551D01*
X51749634Y-38292045D01*
X51810811Y-38331361D01*
X51891818Y-38426208D01*
X51891823Y-38426213D01*
X51895031Y-38429969D01*
X52075584Y-38584176D01*
X52079792Y-38586755D01*
X52079798Y-38586759D01*
X52180265Y-38648325D01*
X52278037Y-38708240D01*
X52282607Y-38710133D01*
X52282611Y-38710135D01*
X52492833Y-38797211D01*
X52497406Y-38799105D01*
X52545349Y-38810615D01*
X52723476Y-38853380D01*
X52723482Y-38853381D01*
X52728289Y-38854535D01*
X52965000Y-38873165D01*
X53201711Y-38854535D01*
X53206518Y-38853381D01*
X53206524Y-38853380D01*
X53384651Y-38810615D01*
X53432594Y-38799105D01*
X53437167Y-38797211D01*
X53647389Y-38710135D01*
X53647393Y-38710133D01*
X53651963Y-38708240D01*
X53749735Y-38648325D01*
X53850202Y-38586759D01*
X53850208Y-38586755D01*
X53854416Y-38584176D01*
X54034969Y-38429969D01*
X54189176Y-38249416D01*
X54191755Y-38245208D01*
X54191759Y-38245202D01*
X54310654Y-38051183D01*
X54313240Y-38046963D01*
X54316899Y-38038131D01*
X54402211Y-37832167D01*
X54402212Y-37832165D01*
X54404105Y-37827594D01*
X54440108Y-37677630D01*
X54458380Y-37601524D01*
X54458381Y-37601518D01*
X54459535Y-37596711D01*
X54478165Y-37360000D01*
X54459535Y-37123289D01*
X54445936Y-37066642D01*
X54412582Y-36927715D01*
X54404105Y-36892406D01*
X54313240Y-36673037D01*
X54310654Y-36668817D01*
X54191759Y-36474798D01*
X54191755Y-36474792D01*
X54189176Y-36470584D01*
X54034969Y-36290031D01*
X53854416Y-36135824D01*
X53850208Y-36133245D01*
X53850202Y-36133241D01*
X53656183Y-36014346D01*
X53651963Y-36011760D01*
X53647393Y-36009867D01*
X53647389Y-36009865D01*
X53437167Y-35922789D01*
X53437165Y-35922788D01*
X53432594Y-35920895D01*
X53352391Y-35901640D01*
X53206524Y-35866620D01*
X53206518Y-35866619D01*
X53201711Y-35865465D01*
X52965000Y-35846835D01*
X52728289Y-35865465D01*
X52723482Y-35866619D01*
X52723476Y-35866620D01*
X52577609Y-35901640D01*
X52497406Y-35920895D01*
X52492835Y-35922788D01*
X52492833Y-35922789D01*
X52282611Y-36009865D01*
X52282607Y-36009867D01*
X52278037Y-36011760D01*
X52273817Y-36014346D01*
X52079798Y-36133241D01*
X52079792Y-36133245D01*
X52075584Y-36135824D01*
X51895031Y-36290031D01*
X51891823Y-36293787D01*
X51891818Y-36293792D01*
X51810811Y-36388639D01*
X51751361Y-36427449D01*
X51680366Y-36427955D01*
X51619189Y-36388639D01*
X51538182Y-36293792D01*
X51538177Y-36293787D01*
X51534969Y-36290031D01*
X51354416Y-36135824D01*
X51350208Y-36133245D01*
X51350202Y-36133241D01*
X51156183Y-36014346D01*
X51151963Y-36011760D01*
X51147393Y-36009867D01*
X51147389Y-36009865D01*
X50937167Y-35922789D01*
X50937165Y-35922788D01*
X50932594Y-35920895D01*
X50852391Y-35901640D01*
X50706524Y-35866620D01*
X50706518Y-35866619D01*
X50701711Y-35865465D01*
X50465000Y-35846835D01*
X50228289Y-35865465D01*
X50223482Y-35866619D01*
X50223476Y-35866620D01*
X50077609Y-35901640D01*
X49997406Y-35920895D01*
X49992835Y-35922788D01*
X49992833Y-35922789D01*
X49782611Y-36009865D01*
X49782607Y-36009867D01*
X49778037Y-36011760D01*
X49575584Y-36135824D01*
X49574314Y-36133752D01*
X49516916Y-36154321D01*
X49447742Y-36138335D01*
X49408724Y-36104101D01*
X49389586Y-36078564D01*
X49328261Y-35996739D01*
X49211705Y-35909385D01*
X49075316Y-35858255D01*
X49013134Y-35851500D01*
X46916866Y-35851500D01*
X46854684Y-35858255D01*
X46718295Y-35909385D01*
X46601739Y-35996739D01*
X46514385Y-36113295D01*
X46463255Y-36249684D01*
X46456500Y-36311866D01*
X46456500Y-38408134D01*
X39117174Y-38408134D01*
X39093581Y-38367270D01*
X39081780Y-38354163D01*
X38970216Y-38230259D01*
X38970215Y-38230258D01*
X38965794Y-38225348D01*
X38811293Y-38113096D01*
X38805265Y-38110412D01*
X38805263Y-38110411D01*
X38642860Y-38038105D01*
X38642859Y-38038105D01*
X38636829Y-38035420D01*
X38543429Y-38015567D01*
X38456485Y-37997086D01*
X38456480Y-37997086D01*
X38450028Y-37995714D01*
X38259054Y-37995714D01*
X38252602Y-37997086D01*
X38252597Y-37997086D01*
X38165653Y-38015567D01*
X38072253Y-38035420D01*
X38066223Y-38038105D01*
X38066222Y-38038105D01*
X37903819Y-38110411D01*
X37903817Y-38110412D01*
X37897789Y-38113096D01*
X37743288Y-38225348D01*
X37738867Y-38230258D01*
X37738866Y-38230259D01*
X37627303Y-38354163D01*
X37615501Y-38367270D01*
X37520014Y-38532658D01*
X37460999Y-38714286D01*
X37460309Y-38720847D01*
X37460309Y-38720849D01*
X37450543Y-38813767D01*
X37441037Y-38904214D01*
X28344987Y-38904214D01*
X28301327Y-38769844D01*
X28292180Y-38754000D01*
X28249653Y-38680342D01*
X28205840Y-38604456D01*
X28200295Y-38598297D01*
X28082475Y-38467445D01*
X28082474Y-38467444D01*
X28078053Y-38462534D01*
X27958512Y-38375682D01*
X27928894Y-38354163D01*
X27928893Y-38354162D01*
X27923552Y-38350282D01*
X27917524Y-38347598D01*
X27917522Y-38347597D01*
X27755119Y-38275291D01*
X27755118Y-38275291D01*
X27749088Y-38272606D01*
X27655688Y-38252753D01*
X27568744Y-38234272D01*
X27568739Y-38234272D01*
X27562287Y-38232900D01*
X27371313Y-38232900D01*
X27364861Y-38234272D01*
X27364856Y-38234272D01*
X27277912Y-38252753D01*
X27184512Y-38272606D01*
X27178482Y-38275291D01*
X27178481Y-38275291D01*
X27016078Y-38347597D01*
X27016076Y-38347598D01*
X27010048Y-38350282D01*
X27004707Y-38354162D01*
X27004706Y-38354163D01*
X26975088Y-38375682D01*
X26855547Y-38462534D01*
X26851126Y-38467444D01*
X26851125Y-38467445D01*
X26733306Y-38598297D01*
X26727760Y-38604456D01*
X26683947Y-38680342D01*
X26641421Y-38754000D01*
X26632273Y-38769844D01*
X26573258Y-38951472D01*
X26572568Y-38958033D01*
X26572568Y-38958035D01*
X26568507Y-38996672D01*
X26553296Y-39141400D01*
X26218634Y-39141400D01*
X26214327Y-39100420D01*
X26202032Y-38983435D01*
X26202032Y-38983433D01*
X26201342Y-38976872D01*
X26142327Y-38795244D01*
X26046840Y-38629856D01*
X26002819Y-38580965D01*
X25923475Y-38492845D01*
X25923474Y-38492844D01*
X25919053Y-38487934D01*
X25764552Y-38375682D01*
X25758524Y-38372998D01*
X25758522Y-38372997D01*
X25596119Y-38300691D01*
X25596118Y-38300691D01*
X25590088Y-38298006D01*
X25483223Y-38275291D01*
X25409744Y-38259672D01*
X25409739Y-38259672D01*
X25403287Y-38258300D01*
X25212313Y-38258300D01*
X25205861Y-38259672D01*
X25205856Y-38259672D01*
X25132377Y-38275291D01*
X25025512Y-38298006D01*
X25019482Y-38300691D01*
X25019481Y-38300691D01*
X24857078Y-38372997D01*
X24857076Y-38372998D01*
X24851048Y-38375682D01*
X24696547Y-38487934D01*
X24692126Y-38492844D01*
X24692125Y-38492845D01*
X24612782Y-38580965D01*
X24568760Y-38629856D01*
X24473273Y-38795244D01*
X24414258Y-38976872D01*
X24413568Y-38983433D01*
X24413568Y-38983435D01*
X24401273Y-39100420D01*
X24394296Y-39166800D01*
X24394986Y-39173365D01*
X24410899Y-39324765D01*
X24414258Y-39356728D01*
X24473273Y-39538356D01*
X24568760Y-39703744D01*
X24581138Y-39717491D01*
X24611854Y-39781497D01*
X24603090Y-39851950D01*
X24581139Y-39886107D01*
X24568760Y-39899856D01*
X24473273Y-40065244D01*
X24414258Y-40246872D01*
X24413568Y-40253433D01*
X24413568Y-40253435D01*
X24404373Y-40340920D01*
X24394296Y-40436800D01*
X24394986Y-40443365D01*
X24411523Y-40600702D01*
X24414258Y-40626728D01*
X24473273Y-40808356D01*
X24568760Y-40973744D01*
X24573179Y-40978652D01*
X24577061Y-40983995D01*
X24574879Y-40985580D01*
X24600418Y-41038792D01*
X24591656Y-41109246D01*
X24576076Y-41133489D01*
X24577061Y-41134205D01*
X24573179Y-41139548D01*
X24568760Y-41144456D01*
X24565459Y-41150174D01*
X24565457Y-41150177D01*
X24477014Y-41303365D01*
X24473273Y-41309844D01*
X24414258Y-41491472D01*
X24394296Y-41681400D01*
X21048442Y-41681400D01*
X21115136Y-41546453D01*
X21115137Y-41546451D01*
X21117430Y-41541811D01*
X21182370Y-41328069D01*
X21211529Y-41106590D01*
X21212504Y-41066703D01*
X21213074Y-41043365D01*
X21213074Y-41043361D01*
X21213156Y-41040000D01*
X21194852Y-40817361D01*
X21140431Y-40600702D01*
X21051354Y-40395840D01*
X20957786Y-40251206D01*
X20932822Y-40212617D01*
X20932820Y-40212614D01*
X20930014Y-40208277D01*
X20779670Y-40043051D01*
X20775619Y-40039852D01*
X20775615Y-40039848D01*
X20608414Y-39907800D01*
X20608410Y-39907798D01*
X20604359Y-39904598D01*
X20562569Y-39881529D01*
X20512598Y-39831097D01*
X20497826Y-39761654D01*
X20522942Y-39695248D01*
X20550294Y-39668641D01*
X20725328Y-39543792D01*
X20733200Y-39537139D01*
X20884052Y-39386812D01*
X20890730Y-39378965D01*
X21015003Y-39206020D01*
X21020313Y-39197183D01*
X21114670Y-39006267D01*
X21118469Y-38996672D01*
X21180377Y-38792910D01*
X21182555Y-38782837D01*
X21183986Y-38771962D01*
X21181775Y-38757778D01*
X21168617Y-38754000D01*
X19722000Y-38754000D01*
X19653879Y-38733998D01*
X19607386Y-38680342D01*
X19596000Y-38628000D01*
X19596000Y-38372000D01*
X19616002Y-38303879D01*
X19669658Y-38257386D01*
X19722000Y-38246000D01*
X21168344Y-38246000D01*
X21181875Y-38242027D01*
X21183180Y-38232947D01*
X21141214Y-38065875D01*
X21137894Y-38056124D01*
X21052972Y-37860814D01*
X21048105Y-37851739D01*
X20932426Y-37672926D01*
X20926136Y-37664757D01*
X20782293Y-37506677D01*
X20751241Y-37442831D01*
X20759635Y-37372333D01*
X20804812Y-37317564D01*
X20831256Y-37303895D01*
X20938297Y-37263767D01*
X20946705Y-37260615D01*
X21063261Y-37173261D01*
X21150615Y-37056705D01*
X21201745Y-36920316D01*
X21208500Y-36858134D01*
X21208500Y-35061866D01*
X21201745Y-34999684D01*
X21150615Y-34863295D01*
X21063261Y-34746739D01*
X20946705Y-34659385D01*
X20810316Y-34608255D01*
X20748134Y-34601500D01*
X18951866Y-34601500D01*
X18889684Y-34608255D01*
X18753295Y-34659385D01*
X18746110Y-34664770D01*
X18746108Y-34664771D01*
X18690065Y-34706773D01*
X18623558Y-34731621D01*
X18554176Y-34716568D01*
X18503946Y-34666394D01*
X18488500Y-34605947D01*
X18488500Y-33657500D01*
X23718389Y-33657500D01*
X23736796Y-33867894D01*
X23738220Y-33873207D01*
X23738220Y-33873209D01*
X23786516Y-34053450D01*
X23791458Y-34071895D01*
X23793780Y-34076876D01*
X23793781Y-34076877D01*
X23863067Y-34225460D01*
X23880714Y-34263305D01*
X24001852Y-34436309D01*
X24151191Y-34585648D01*
X24155699Y-34588805D01*
X24155702Y-34588807D01*
X24256498Y-34659385D01*
X24324194Y-34706786D01*
X24329176Y-34709109D01*
X24329181Y-34709112D01*
X24488968Y-34783621D01*
X24515605Y-34796042D01*
X24520913Y-34797464D01*
X24520915Y-34797465D01*
X24714291Y-34849280D01*
X24714293Y-34849280D01*
X24719606Y-34850704D01*
X24911093Y-34867457D01*
X24913472Y-34867665D01*
X24979590Y-34893528D01*
X25021229Y-34951032D01*
X25025170Y-35021919D01*
X25022328Y-35032106D01*
X24967192Y-35201795D01*
X24966502Y-35208356D01*
X24966502Y-35208358D01*
X24952531Y-35341289D01*
X24947230Y-35391723D01*
X24967192Y-35581651D01*
X25026207Y-35763279D01*
X25121694Y-35928667D01*
X25126112Y-35933574D01*
X25126113Y-35933575D01*
X25245059Y-36065678D01*
X25249481Y-36070589D01*
X25403982Y-36182841D01*
X25410010Y-36185525D01*
X25410012Y-36185526D01*
X25572415Y-36257832D01*
X25578446Y-36260517D01*
X25671846Y-36280370D01*
X25758790Y-36298851D01*
X25758795Y-36298851D01*
X25765247Y-36300223D01*
X25956221Y-36300223D01*
X25962673Y-36298851D01*
X25962678Y-36298851D01*
X26049622Y-36280370D01*
X26143022Y-36260517D01*
X26149053Y-36257832D01*
X26311456Y-36185526D01*
X26311458Y-36185525D01*
X26317486Y-36182841D01*
X26471987Y-36070589D01*
X26476409Y-36065678D01*
X26595355Y-35933575D01*
X26595356Y-35933574D01*
X26599774Y-35928667D01*
X26695261Y-35763279D01*
X26754276Y-35581651D01*
X26774238Y-35391723D01*
X26768937Y-35341289D01*
X26754966Y-35208358D01*
X26754966Y-35208356D01*
X26754276Y-35201795D01*
X26695261Y-35020167D01*
X26689891Y-35010865D01*
X26668167Y-34973239D01*
X33018129Y-34973239D01*
X33031357Y-35202661D01*
X33032492Y-35207698D01*
X33032493Y-35207704D01*
X33055274Y-35308791D01*
X33081878Y-35426842D01*
X33168336Y-35639761D01*
X33171033Y-35644162D01*
X33171034Y-35644164D01*
X33276432Y-35816157D01*
X33288408Y-35835700D01*
X33438869Y-36009398D01*
X33442844Y-36012698D01*
X33442847Y-36012701D01*
X33501635Y-36061507D01*
X33615679Y-36156189D01*
X33814090Y-36272131D01*
X33818910Y-36273971D01*
X33818915Y-36273974D01*
X33925296Y-36314596D01*
X34028774Y-36354110D01*
X34033842Y-36355141D01*
X34033845Y-36355142D01*
X34144534Y-36377662D01*
X34253963Y-36399926D01*
X34259136Y-36400116D01*
X34259139Y-36400116D01*
X34478448Y-36408157D01*
X34478452Y-36408157D01*
X34483612Y-36408346D01*
X34488732Y-36407690D01*
X34488734Y-36407690D01*
X34706425Y-36379804D01*
X34706428Y-36379803D01*
X34711552Y-36379147D01*
X34931663Y-36313110D01*
X35138033Y-36212011D01*
X35218912Y-36154321D01*
X35320916Y-36081562D01*
X35325119Y-36078564D01*
X35329226Y-36074472D01*
X35484237Y-35920000D01*
X35487898Y-35916352D01*
X35621997Y-35729733D01*
X35638837Y-35695661D01*
X35686664Y-35598888D01*
X35723816Y-35523717D01*
X35741065Y-35466944D01*
X35789117Y-35308791D01*
X35789118Y-35308785D01*
X35790621Y-35303839D01*
X35820616Y-35076002D01*
X35820878Y-35065283D01*
X35822208Y-35010865D01*
X35822208Y-35010861D01*
X35822290Y-35007500D01*
X35819473Y-34973239D01*
X37003129Y-34973239D01*
X37016357Y-35202661D01*
X37017492Y-35207698D01*
X37017493Y-35207704D01*
X37040274Y-35308791D01*
X37066878Y-35426842D01*
X37153336Y-35639761D01*
X37156033Y-35644162D01*
X37156034Y-35644164D01*
X37261432Y-35816157D01*
X37273408Y-35835700D01*
X37423869Y-36009398D01*
X37427844Y-36012698D01*
X37427847Y-36012701D01*
X37486635Y-36061507D01*
X37600679Y-36156189D01*
X37799090Y-36272131D01*
X37803910Y-36273971D01*
X37803915Y-36273974D01*
X37910296Y-36314596D01*
X38013774Y-36354110D01*
X38018842Y-36355141D01*
X38018845Y-36355142D01*
X38129534Y-36377662D01*
X38238963Y-36399926D01*
X38244136Y-36400116D01*
X38244139Y-36400116D01*
X38463448Y-36408157D01*
X38463452Y-36408157D01*
X38468612Y-36408346D01*
X38473732Y-36407690D01*
X38473734Y-36407690D01*
X38691425Y-36379804D01*
X38691428Y-36379803D01*
X38696552Y-36379147D01*
X38916663Y-36313110D01*
X39123033Y-36212011D01*
X39203912Y-36154321D01*
X39305916Y-36081562D01*
X39310119Y-36078564D01*
X39314226Y-36074472D01*
X39469237Y-35920000D01*
X39472898Y-35916352D01*
X39534015Y-35831299D01*
X39559195Y-35796257D01*
X39615190Y-35752609D01*
X39685893Y-35746163D01*
X39748858Y-35778966D01*
X39768950Y-35803947D01*
X39788408Y-35835700D01*
X39938869Y-36009398D01*
X39942844Y-36012698D01*
X39942847Y-36012701D01*
X40001635Y-36061507D01*
X40115679Y-36156189D01*
X40314090Y-36272131D01*
X40318910Y-36273971D01*
X40318915Y-36273974D01*
X40425296Y-36314596D01*
X40528774Y-36354110D01*
X40533842Y-36355141D01*
X40533845Y-36355142D01*
X40644534Y-36377662D01*
X40753963Y-36399926D01*
X40759136Y-36400116D01*
X40759139Y-36400116D01*
X40978448Y-36408157D01*
X40978452Y-36408157D01*
X40983612Y-36408346D01*
X40988732Y-36407690D01*
X40988734Y-36407690D01*
X41206425Y-36379804D01*
X41206428Y-36379803D01*
X41211552Y-36379147D01*
X41431663Y-36313110D01*
X41638033Y-36212011D01*
X41718912Y-36154321D01*
X41820916Y-36081562D01*
X41825119Y-36078564D01*
X41829226Y-36074472D01*
X41984237Y-35920000D01*
X41987898Y-35916352D01*
X42121997Y-35729733D01*
X42138837Y-35695661D01*
X42186664Y-35598888D01*
X42223816Y-35523717D01*
X42241065Y-35466944D01*
X42289117Y-35308791D01*
X42289118Y-35308785D01*
X42290621Y-35303839D01*
X42320616Y-35076002D01*
X42320878Y-35065283D01*
X42322208Y-35010865D01*
X42322208Y-35010861D01*
X42322290Y-35007500D01*
X42315918Y-34930000D01*
X42303884Y-34783621D01*
X42303883Y-34783615D01*
X42303460Y-34778470D01*
X42247477Y-34555590D01*
X42155843Y-34344847D01*
X42147443Y-34331862D01*
X42033830Y-34156243D01*
X42033828Y-34156240D01*
X42031020Y-34151900D01*
X42024867Y-34145137D01*
X41879837Y-33985752D01*
X41879835Y-33985751D01*
X41876359Y-33981930D01*
X41872308Y-33978731D01*
X41872304Y-33978727D01*
X41834575Y-33948931D01*
X60956996Y-33948931D01*
X60957686Y-33955496D01*
X60975952Y-34129283D01*
X60976958Y-34138859D01*
X61035973Y-34320487D01*
X61039276Y-34326209D01*
X61039277Y-34326210D01*
X61050037Y-34344847D01*
X61131460Y-34485875D01*
X61135878Y-34490782D01*
X61135879Y-34490783D01*
X61196023Y-34557580D01*
X61259247Y-34627797D01*
X61356010Y-34698100D01*
X61377430Y-34713662D01*
X61413748Y-34740049D01*
X61419776Y-34742733D01*
X61419778Y-34742734D01*
X61534293Y-34793719D01*
X61588212Y-34817725D01*
X61681612Y-34837578D01*
X61768556Y-34856059D01*
X61768561Y-34856059D01*
X61775013Y-34857431D01*
X61965987Y-34857431D01*
X61972439Y-34856059D01*
X61972444Y-34856059D01*
X62059388Y-34837578D01*
X62152788Y-34817725D01*
X62206707Y-34793719D01*
X62321222Y-34742734D01*
X62321224Y-34742733D01*
X62327252Y-34740049D01*
X62363571Y-34713662D01*
X62384990Y-34698100D01*
X62481753Y-34627797D01*
X62544977Y-34557580D01*
X62605121Y-34490783D01*
X62605122Y-34490782D01*
X62609540Y-34485875D01*
X62690963Y-34344847D01*
X62701723Y-34326210D01*
X62701724Y-34326209D01*
X62705027Y-34320487D01*
X62764042Y-34138859D01*
X62765049Y-34129283D01*
X62783314Y-33955496D01*
X62784004Y-33948931D01*
X62766444Y-33781854D01*
X62764732Y-33765566D01*
X62764732Y-33765564D01*
X62764042Y-33759003D01*
X62705027Y-33577375D01*
X62698363Y-33565832D01*
X62681626Y-33496837D01*
X62704847Y-33429745D01*
X62760655Y-33385859D01*
X62831330Y-33379111D01*
X62881543Y-33400898D01*
X62904677Y-33417705D01*
X63000747Y-33487505D01*
X63044101Y-33543728D01*
X63052686Y-33589441D01*
X63052686Y-33592584D01*
X63051996Y-33599149D01*
X63052686Y-33605714D01*
X63071168Y-33781556D01*
X63071958Y-33789077D01*
X63130973Y-33970705D01*
X63134276Y-33976427D01*
X63134277Y-33976428D01*
X63157991Y-34017502D01*
X63226460Y-34136093D01*
X63230878Y-34141000D01*
X63230879Y-34141001D01*
X63294622Y-34211795D01*
X63354247Y-34278015D01*
X63508748Y-34390267D01*
X63514776Y-34392951D01*
X63514778Y-34392952D01*
X63676267Y-34464851D01*
X63683212Y-34467943D01*
X63767575Y-34485875D01*
X63863556Y-34506277D01*
X63863561Y-34506277D01*
X63870013Y-34507649D01*
X64060987Y-34507649D01*
X64067439Y-34506277D01*
X64067444Y-34506277D01*
X64163425Y-34485875D01*
X64247788Y-34467943D01*
X64254733Y-34464851D01*
X64416222Y-34392952D01*
X64416224Y-34392951D01*
X64422252Y-34390267D01*
X64576753Y-34278015D01*
X64636378Y-34211795D01*
X64700121Y-34141001D01*
X64700122Y-34141000D01*
X64704540Y-34136093D01*
X64780636Y-34004291D01*
X64832017Y-33955299D01*
X64901731Y-33941863D01*
X64967642Y-33968249D01*
X64998873Y-34004292D01*
X65075460Y-34136944D01*
X65117600Y-34183745D01*
X65148316Y-34247751D01*
X65139552Y-34318205D01*
X65117602Y-34352361D01*
X65080960Y-34393056D01*
X65058593Y-34431797D01*
X64989856Y-34550853D01*
X64985473Y-34558444D01*
X64926458Y-34740072D01*
X64925768Y-34746633D01*
X64925768Y-34746635D01*
X64920575Y-34796042D01*
X64906496Y-34930000D01*
X64907186Y-34936565D01*
X64920715Y-35065283D01*
X64926458Y-35119928D01*
X64985473Y-35301556D01*
X65080960Y-35466944D01*
X65085378Y-35471851D01*
X65085379Y-35471852D01*
X65204325Y-35603955D01*
X65208747Y-35608866D01*
X65306077Y-35679581D01*
X65328210Y-35695661D01*
X65363248Y-35721118D01*
X65369276Y-35723802D01*
X65369278Y-35723803D01*
X65493177Y-35778966D01*
X65537712Y-35798794D01*
X65619398Y-35816157D01*
X65718056Y-35837128D01*
X65718061Y-35837128D01*
X65724513Y-35838500D01*
X65915487Y-35838500D01*
X65921939Y-35837128D01*
X65921944Y-35837128D01*
X66020602Y-35816157D01*
X66102288Y-35798794D01*
X66146823Y-35778966D01*
X66270722Y-35723803D01*
X66270724Y-35723802D01*
X66276752Y-35721118D01*
X66301085Y-35703439D01*
X66367953Y-35679581D01*
X66437104Y-35695661D01*
X66486584Y-35746575D01*
X66500684Y-35816157D01*
X66493470Y-35848680D01*
X66491238Y-35854780D01*
X66429413Y-36138336D01*
X66429077Y-36142606D01*
X66408215Y-36407690D01*
X66406643Y-36427659D01*
X66423349Y-36717395D01*
X66424174Y-36721600D01*
X66424175Y-36721608D01*
X66435528Y-36779472D01*
X66479222Y-37002184D01*
X66480609Y-37006234D01*
X66480610Y-37006239D01*
X66568783Y-37263768D01*
X66573229Y-37276754D01*
X66612618Y-37355070D01*
X66690418Y-37509759D01*
X66703629Y-37536027D01*
X66745279Y-37596628D01*
X66864815Y-37770554D01*
X66868010Y-37775203D01*
X67063331Y-37989857D01*
X67066620Y-37992607D01*
X67282683Y-38173265D01*
X67282688Y-38173269D01*
X67285975Y-38176017D01*
X67378842Y-38234272D01*
X67528185Y-38327955D01*
X67528189Y-38327957D01*
X67531825Y-38330238D01*
X67535735Y-38332003D01*
X67535736Y-38332004D01*
X67792419Y-38447901D01*
X67792423Y-38447903D01*
X67796331Y-38449667D01*
X67800451Y-38450887D01*
X67800450Y-38450887D01*
X68070484Y-38530875D01*
X68070488Y-38530876D01*
X68074597Y-38532093D01*
X68078834Y-38532741D01*
X68078837Y-38532742D01*
X68311587Y-38568358D01*
X68361475Y-38575992D01*
X68509275Y-38578314D01*
X68647366Y-38580483D01*
X68647372Y-38580483D01*
X68651657Y-38580550D01*
X68939773Y-38545684D01*
X69174704Y-38484051D01*
X69216348Y-38473126D01*
X69216349Y-38473126D01*
X69220491Y-38472039D01*
X69488618Y-38360978D01*
X69686744Y-38245202D01*
X69735487Y-38216719D01*
X69735488Y-38216718D01*
X69739190Y-38214555D01*
X69967573Y-38035480D01*
X70004780Y-37997086D01*
X70166556Y-37830145D01*
X70169539Y-37827067D01*
X70341352Y-37593173D01*
X70386642Y-37509759D01*
X70477782Y-37341900D01*
X70477783Y-37341898D01*
X70479832Y-37338124D01*
X70582416Y-37066642D01*
X70647207Y-36783749D01*
X70673006Y-36494680D01*
X70673474Y-36450000D01*
X70670634Y-36408346D01*
X70654027Y-36164731D01*
X70654026Y-36164725D01*
X70653735Y-36160454D01*
X70648100Y-36133241D01*
X70595753Y-35880473D01*
X70594882Y-35876267D01*
X70498006Y-35602695D01*
X70364897Y-35344803D01*
X70198021Y-35107361D01*
X70181955Y-35090072D01*
X70003384Y-34897907D01*
X70003381Y-34897905D01*
X70000463Y-34894764D01*
X69775881Y-34710946D01*
X69528430Y-34559308D01*
X69519961Y-34555590D01*
X69292953Y-34455940D01*
X69238618Y-34410244D01*
X69217613Y-34342426D01*
X69236608Y-34274017D01*
X69292350Y-34225460D01*
X69340324Y-34204101D01*
X69340326Y-34204100D01*
X69346354Y-34201416D01*
X69500855Y-34089164D01*
X69521185Y-34066585D01*
X69624223Y-33952150D01*
X69624224Y-33952149D01*
X69628642Y-33947242D01*
X69716334Y-33795355D01*
X69720825Y-33787577D01*
X69720826Y-33787576D01*
X69724129Y-33781854D01*
X69780017Y-33609851D01*
X69820090Y-33551246D01*
X69885486Y-33523609D01*
X69955443Y-33535716D01*
X70007749Y-33583722D01*
X70019682Y-33609851D01*
X70033385Y-33652025D01*
X70075473Y-33781556D01*
X70078776Y-33787278D01*
X70078777Y-33787279D01*
X70083440Y-33795355D01*
X70170960Y-33946944D01*
X70175378Y-33951851D01*
X70175379Y-33951852D01*
X70263364Y-34049569D01*
X70298747Y-34088866D01*
X70453248Y-34201118D01*
X70459276Y-34203802D01*
X70459278Y-34203803D01*
X70621681Y-34276109D01*
X70627712Y-34278794D01*
X70721112Y-34298647D01*
X70808056Y-34317128D01*
X70808061Y-34317128D01*
X70814513Y-34318500D01*
X71005487Y-34318500D01*
X71011939Y-34317128D01*
X71011944Y-34317128D01*
X71098888Y-34298647D01*
X71192288Y-34278794D01*
X71198319Y-34276109D01*
X71360722Y-34203803D01*
X71360724Y-34203802D01*
X71366752Y-34201118D01*
X71521253Y-34088866D01*
X71556636Y-34049569D01*
X71644621Y-33951852D01*
X71644622Y-33951851D01*
X71649040Y-33946944D01*
X71736560Y-33795355D01*
X71741223Y-33787279D01*
X71741224Y-33787278D01*
X71744527Y-33781556D01*
X71803542Y-33599928D01*
X71805913Y-33577375D01*
X71822814Y-33416565D01*
X71823504Y-33410000D01*
X71820967Y-33385859D01*
X71804232Y-33226635D01*
X71804232Y-33226633D01*
X71803542Y-33220072D01*
X71744527Y-33038444D01*
X71649040Y-32873056D01*
X71579769Y-32796122D01*
X71525675Y-32736045D01*
X71525674Y-32736044D01*
X71521253Y-32731134D01*
X71366752Y-32618882D01*
X71360724Y-32616198D01*
X71360722Y-32616197D01*
X71198319Y-32543891D01*
X71198318Y-32543891D01*
X71192288Y-32541206D01*
X71087620Y-32518958D01*
X71011944Y-32502872D01*
X71011939Y-32502872D01*
X71005487Y-32501500D01*
X70814513Y-32501500D01*
X70808061Y-32502872D01*
X70808056Y-32502872D01*
X70732380Y-32518958D01*
X70627712Y-32541206D01*
X70621682Y-32543891D01*
X70621681Y-32543891D01*
X70459278Y-32616197D01*
X70459276Y-32616198D01*
X70453248Y-32618882D01*
X70298747Y-32731134D01*
X70294326Y-32736044D01*
X70294325Y-32736045D01*
X70240232Y-32796122D01*
X70170960Y-32873056D01*
X70075473Y-33038444D01*
X70035427Y-33161694D01*
X70019586Y-33210446D01*
X69979512Y-33269052D01*
X69914116Y-33296689D01*
X69844159Y-33284582D01*
X69791853Y-33236576D01*
X69779920Y-33210447D01*
X69739247Y-33085271D01*
X69724129Y-33038742D01*
X69628642Y-32873354D01*
X69500855Y-32731432D01*
X69346354Y-32619180D01*
X69340326Y-32616496D01*
X69340324Y-32616495D01*
X69177921Y-32544189D01*
X69177920Y-32544189D01*
X69171890Y-32541504D01*
X69065820Y-32518958D01*
X68991546Y-32503170D01*
X68991541Y-32503170D01*
X68985089Y-32501798D01*
X68794115Y-32501798D01*
X68787663Y-32503170D01*
X68787658Y-32503170D01*
X68713384Y-32518958D01*
X68607314Y-32541504D01*
X68601284Y-32544189D01*
X68601283Y-32544189D01*
X68438880Y-32616495D01*
X68438878Y-32616496D01*
X68432850Y-32619180D01*
X68278349Y-32731432D01*
X68277619Y-32732242D01*
X68215454Y-32762075D01*
X68145001Y-32753310D01*
X68101517Y-32722031D01*
X68100121Y-32720480D01*
X67976753Y-32583466D01*
X67877657Y-32511468D01*
X67827594Y-32475095D01*
X67827593Y-32475094D01*
X67822252Y-32471214D01*
X67816224Y-32468530D01*
X67816222Y-32468529D01*
X67653819Y-32396223D01*
X67653818Y-32396223D01*
X67647788Y-32393538D01*
X67554387Y-32373685D01*
X67467444Y-32355204D01*
X67467439Y-32355204D01*
X67460987Y-32353832D01*
X67270013Y-32353832D01*
X67263561Y-32355204D01*
X67263556Y-32355204D01*
X67176613Y-32373685D01*
X67083212Y-32393538D01*
X67077182Y-32396223D01*
X67077181Y-32396223D01*
X66914778Y-32468529D01*
X66914776Y-32468530D01*
X66908748Y-32471214D01*
X66903407Y-32475094D01*
X66903406Y-32475095D01*
X66853343Y-32511468D01*
X66754247Y-32583466D01*
X66749826Y-32588376D01*
X66749825Y-32588377D01*
X66637223Y-32713435D01*
X66626460Y-32725388D01*
X66585622Y-32796122D01*
X66557500Y-32844830D01*
X66506117Y-32893823D01*
X66436404Y-32907259D01*
X66374321Y-32883766D01*
X66271252Y-32808882D01*
X66265224Y-32806198D01*
X66265222Y-32806197D01*
X66102819Y-32733891D01*
X66102818Y-32733891D01*
X66096788Y-32731206D01*
X66003388Y-32711353D01*
X65916444Y-32692872D01*
X65916439Y-32692872D01*
X65909987Y-32691500D01*
X65719013Y-32691500D01*
X65712561Y-32692872D01*
X65712556Y-32692872D01*
X65625612Y-32711353D01*
X65532212Y-32731206D01*
X65526182Y-32733891D01*
X65526181Y-32733891D01*
X65363778Y-32806197D01*
X65363776Y-32806198D01*
X65357748Y-32808882D01*
X65203247Y-32921134D01*
X65198826Y-32926044D01*
X65198825Y-32926045D01*
X65081205Y-33056676D01*
X65075460Y-33063056D01*
X65018512Y-33161694D01*
X64999365Y-33194857D01*
X64947983Y-33243850D01*
X64878269Y-33257286D01*
X64812358Y-33230900D01*
X64781127Y-33194857D01*
X64740191Y-33123955D01*
X64704540Y-33062205D01*
X64691021Y-33047190D01*
X64581175Y-32925194D01*
X64581174Y-32925193D01*
X64576753Y-32920283D01*
X64475459Y-32846688D01*
X64454753Y-32831644D01*
X64411399Y-32775421D01*
X64402814Y-32729708D01*
X64402814Y-32726565D01*
X64403504Y-32720000D01*
X64394398Y-32633365D01*
X64384232Y-32536635D01*
X64384232Y-32536633D01*
X64383542Y-32530072D01*
X64324527Y-32348444D01*
X64229040Y-32183056D01*
X64101253Y-32041134D01*
X63946752Y-31928882D01*
X63940724Y-31926198D01*
X63940722Y-31926197D01*
X63778319Y-31853891D01*
X63778318Y-31853891D01*
X63772288Y-31851206D01*
X63678888Y-31831353D01*
X63591944Y-31812872D01*
X63591939Y-31812872D01*
X63585487Y-31811500D01*
X63394513Y-31811500D01*
X63388061Y-31812872D01*
X63388056Y-31812872D01*
X63301112Y-31831353D01*
X63207712Y-31851206D01*
X63201682Y-31853891D01*
X63201681Y-31853891D01*
X63039278Y-31926197D01*
X63039276Y-31926198D01*
X63033248Y-31928882D01*
X62878747Y-32041134D01*
X62750960Y-32183056D01*
X62655473Y-32348444D01*
X62596458Y-32530072D01*
X62595768Y-32536633D01*
X62595768Y-32536635D01*
X62585602Y-32633365D01*
X62576496Y-32720000D01*
X62577186Y-32726565D01*
X62593184Y-32878774D01*
X62596458Y-32909928D01*
X62655473Y-33091556D01*
X62662137Y-33103098D01*
X62678874Y-33172094D01*
X62655653Y-33239186D01*
X62599845Y-33283072D01*
X62529170Y-33289820D01*
X62478956Y-33268033D01*
X62476409Y-33266182D01*
X62399695Y-33210446D01*
X62332594Y-33161694D01*
X62332593Y-33161693D01*
X62327252Y-33157813D01*
X62321224Y-33155129D01*
X62321222Y-33155128D01*
X62158819Y-33082822D01*
X62158818Y-33082822D01*
X62152788Y-33080137D01*
X62059387Y-33060284D01*
X61972444Y-33041803D01*
X61972439Y-33041803D01*
X61965987Y-33040431D01*
X61775013Y-33040431D01*
X61768561Y-33041803D01*
X61768556Y-33041803D01*
X61681613Y-33060284D01*
X61588212Y-33080137D01*
X61582182Y-33082822D01*
X61582181Y-33082822D01*
X61419778Y-33155128D01*
X61419776Y-33155129D01*
X61413748Y-33157813D01*
X61408407Y-33161693D01*
X61408406Y-33161694D01*
X61358343Y-33198067D01*
X61259247Y-33270065D01*
X61254826Y-33274975D01*
X61254825Y-33274976D01*
X61141445Y-33400898D01*
X61131460Y-33411987D01*
X61114253Y-33441791D01*
X61051059Y-33551246D01*
X61035973Y-33577375D01*
X60976958Y-33759003D01*
X60976268Y-33765564D01*
X60976268Y-33765566D01*
X60974556Y-33781854D01*
X60956996Y-33948931D01*
X41834575Y-33948931D01*
X41700073Y-33842708D01*
X41696015Y-33839503D01*
X41494831Y-33728443D01*
X41377611Y-33686933D01*
X41283084Y-33653459D01*
X41283080Y-33653458D01*
X41278209Y-33651733D01*
X41273116Y-33650826D01*
X41273113Y-33650825D01*
X41057056Y-33612339D01*
X41057050Y-33612338D01*
X41051967Y-33611433D01*
X40978784Y-33610539D01*
X40827351Y-33608689D01*
X40827349Y-33608689D01*
X40822181Y-33608626D01*
X40670610Y-33631819D01*
X40600131Y-33642604D01*
X40600128Y-33642605D01*
X40595022Y-33643386D01*
X40564204Y-33653459D01*
X40381504Y-33713175D01*
X40381502Y-33713176D01*
X40376591Y-33714781D01*
X40345538Y-33730946D01*
X40247745Y-33781854D01*
X40172753Y-33820892D01*
X40168620Y-33823995D01*
X40168617Y-33823997D01*
X39993118Y-33955765D01*
X39988983Y-33958870D01*
X39985411Y-33962608D01*
X39860761Y-34093047D01*
X39830216Y-34125010D01*
X39766894Y-34217836D01*
X39711985Y-34262837D01*
X39641460Y-34271008D01*
X39577713Y-34239754D01*
X39557016Y-34215270D01*
X39518830Y-34156243D01*
X39518828Y-34156240D01*
X39516020Y-34151900D01*
X39509867Y-34145137D01*
X39364837Y-33985752D01*
X39364835Y-33985751D01*
X39361359Y-33981930D01*
X39357308Y-33978731D01*
X39357304Y-33978727D01*
X39185073Y-33842708D01*
X39181015Y-33839503D01*
X38979831Y-33728443D01*
X38862611Y-33686933D01*
X38768084Y-33653459D01*
X38768080Y-33653458D01*
X38763209Y-33651733D01*
X38758116Y-33650826D01*
X38758113Y-33650825D01*
X38542056Y-33612339D01*
X38542050Y-33612338D01*
X38536967Y-33611433D01*
X38463784Y-33610539D01*
X38312351Y-33608689D01*
X38312349Y-33608689D01*
X38307181Y-33608626D01*
X38155610Y-33631819D01*
X38085131Y-33642604D01*
X38085128Y-33642605D01*
X38080022Y-33643386D01*
X38049204Y-33653459D01*
X37866504Y-33713175D01*
X37866502Y-33713176D01*
X37861591Y-33714781D01*
X37830538Y-33730946D01*
X37732745Y-33781854D01*
X37657753Y-33820892D01*
X37653620Y-33823995D01*
X37653617Y-33823997D01*
X37478118Y-33955765D01*
X37473983Y-33958870D01*
X37470411Y-33962608D01*
X37345761Y-34093047D01*
X37315216Y-34125010D01*
X37312307Y-34129275D01*
X37312301Y-34129283D01*
X37301486Y-34145137D01*
X37185716Y-34314850D01*
X37149414Y-34393056D01*
X37120225Y-34455940D01*
X37088961Y-34523292D01*
X37027548Y-34744737D01*
X37026999Y-34749871D01*
X37026999Y-34749873D01*
X37022065Y-34796042D01*
X37003129Y-34973239D01*
X35819473Y-34973239D01*
X35815918Y-34930000D01*
X35803884Y-34783621D01*
X35803883Y-34783615D01*
X35803460Y-34778470D01*
X35747477Y-34555590D01*
X35655843Y-34344847D01*
X35647443Y-34331862D01*
X35533830Y-34156243D01*
X35533828Y-34156240D01*
X35531020Y-34151900D01*
X35524867Y-34145137D01*
X35379837Y-33985752D01*
X35379835Y-33985751D01*
X35376359Y-33981930D01*
X35372308Y-33978731D01*
X35372304Y-33978727D01*
X35200073Y-33842708D01*
X35196015Y-33839503D01*
X34994831Y-33728443D01*
X34877611Y-33686933D01*
X34783084Y-33653459D01*
X34783080Y-33653458D01*
X34778209Y-33651733D01*
X34773116Y-33650826D01*
X34773113Y-33650825D01*
X34557056Y-33612339D01*
X34557050Y-33612338D01*
X34551967Y-33611433D01*
X34478784Y-33610539D01*
X34327351Y-33608689D01*
X34327349Y-33608689D01*
X34322181Y-33608626D01*
X34170610Y-33631819D01*
X34100131Y-33642604D01*
X34100128Y-33642605D01*
X34095022Y-33643386D01*
X34064204Y-33653459D01*
X33881504Y-33713175D01*
X33881502Y-33713176D01*
X33876591Y-33714781D01*
X33845538Y-33730946D01*
X33747745Y-33781854D01*
X33672753Y-33820892D01*
X33668620Y-33823995D01*
X33668617Y-33823997D01*
X33493118Y-33955765D01*
X33488983Y-33958870D01*
X33485411Y-33962608D01*
X33360761Y-34093047D01*
X33330216Y-34125010D01*
X33327307Y-34129275D01*
X33327301Y-34129283D01*
X33316486Y-34145137D01*
X33200716Y-34314850D01*
X33164414Y-34393056D01*
X33135225Y-34455940D01*
X33103961Y-34523292D01*
X33042548Y-34744737D01*
X33041999Y-34749871D01*
X33041999Y-34749873D01*
X33037065Y-34796042D01*
X33018129Y-34973239D01*
X26668167Y-34973239D01*
X26609545Y-34871703D01*
X26599774Y-34854779D01*
X26566411Y-34817725D01*
X26476409Y-34717768D01*
X26476408Y-34717767D01*
X26471987Y-34712857D01*
X26360257Y-34631680D01*
X26322828Y-34604486D01*
X26322827Y-34604485D01*
X26317486Y-34600605D01*
X26311458Y-34597921D01*
X26311456Y-34597920D01*
X26149053Y-34525614D01*
X26149052Y-34525614D01*
X26143022Y-34522929D01*
X26028463Y-34498579D01*
X25965991Y-34464851D01*
X25931669Y-34402701D01*
X25936397Y-34331862D01*
X25951448Y-34303062D01*
X25966267Y-34281898D01*
X25979286Y-34263305D01*
X25996934Y-34225460D01*
X26066219Y-34076877D01*
X26066220Y-34076876D01*
X26068542Y-34071895D01*
X26073485Y-34053450D01*
X26121780Y-33873209D01*
X26121780Y-33873207D01*
X26123204Y-33867894D01*
X26141611Y-33657500D01*
X28798389Y-33657500D01*
X28816796Y-33867894D01*
X28818220Y-33873207D01*
X28818220Y-33873209D01*
X28866516Y-34053450D01*
X28871458Y-34071895D01*
X28873780Y-34076876D01*
X28873781Y-34076877D01*
X28943067Y-34225460D01*
X28960714Y-34263305D01*
X29081852Y-34436309D01*
X29231191Y-34585648D01*
X29235699Y-34588805D01*
X29235702Y-34588807D01*
X29336498Y-34659385D01*
X29404194Y-34706786D01*
X29409176Y-34709109D01*
X29409181Y-34709112D01*
X29568968Y-34783621D01*
X29595605Y-34796042D01*
X29600913Y-34797464D01*
X29600915Y-34797465D01*
X29794291Y-34849280D01*
X29794293Y-34849280D01*
X29799606Y-34850704D01*
X30010000Y-34869111D01*
X30220394Y-34850704D01*
X30225707Y-34849280D01*
X30225709Y-34849280D01*
X30419085Y-34797465D01*
X30419087Y-34797464D01*
X30424395Y-34796042D01*
X30451032Y-34783621D01*
X30610819Y-34709112D01*
X30610824Y-34709109D01*
X30615806Y-34706786D01*
X30683502Y-34659385D01*
X30784298Y-34588807D01*
X30784301Y-34588805D01*
X30788809Y-34585648D01*
X30938148Y-34436309D01*
X31059286Y-34263305D01*
X31076934Y-34225460D01*
X31146219Y-34076877D01*
X31146220Y-34076876D01*
X31148542Y-34071895D01*
X31153485Y-34053450D01*
X31201780Y-33873209D01*
X31201780Y-33873207D01*
X31203204Y-33867894D01*
X31221611Y-33657500D01*
X31203204Y-33447106D01*
X31193281Y-33410072D01*
X31149965Y-33248415D01*
X31149964Y-33248413D01*
X31148542Y-33243105D01*
X31145806Y-33237237D01*
X31061609Y-33056676D01*
X31061607Y-33056673D01*
X31059286Y-33051695D01*
X30938148Y-32878691D01*
X30788809Y-32729352D01*
X30784301Y-32726195D01*
X30784298Y-32726193D01*
X30620315Y-32611371D01*
X30620312Y-32611369D01*
X30615806Y-32608214D01*
X30610824Y-32605891D01*
X30610819Y-32605888D01*
X30429377Y-32521281D01*
X30429376Y-32521281D01*
X30424395Y-32518958D01*
X30419087Y-32517536D01*
X30419085Y-32517535D01*
X30225709Y-32465720D01*
X30225707Y-32465720D01*
X30220394Y-32464296D01*
X30010000Y-32445889D01*
X29799606Y-32464296D01*
X29794293Y-32465720D01*
X29794291Y-32465720D01*
X29600915Y-32517535D01*
X29600913Y-32517536D01*
X29595605Y-32518958D01*
X29590624Y-32521280D01*
X29590623Y-32521281D01*
X29409176Y-32605891D01*
X29409173Y-32605893D01*
X29404195Y-32608214D01*
X29231191Y-32729352D01*
X29081852Y-32878691D01*
X28960714Y-33051695D01*
X28958393Y-33056673D01*
X28958391Y-33056676D01*
X28874194Y-33237237D01*
X28871458Y-33243105D01*
X28870036Y-33248413D01*
X28870035Y-33248415D01*
X28826719Y-33410072D01*
X28816796Y-33447106D01*
X28798389Y-33657500D01*
X26141611Y-33657500D01*
X26123204Y-33447106D01*
X26113281Y-33410072D01*
X26069965Y-33248415D01*
X26069964Y-33248413D01*
X26068542Y-33243105D01*
X26065806Y-33237237D01*
X25981609Y-33056676D01*
X25981607Y-33056673D01*
X25979286Y-33051695D01*
X25858148Y-32878691D01*
X25708809Y-32729352D01*
X25704301Y-32726195D01*
X25704298Y-32726193D01*
X25540315Y-32611371D01*
X25540312Y-32611369D01*
X25535806Y-32608214D01*
X25530824Y-32605891D01*
X25530819Y-32605888D01*
X25349377Y-32521281D01*
X25349376Y-32521281D01*
X25344395Y-32518958D01*
X25339087Y-32517536D01*
X25339085Y-32517535D01*
X25145709Y-32465720D01*
X25145707Y-32465720D01*
X25140394Y-32464296D01*
X24930000Y-32445889D01*
X24719606Y-32464296D01*
X24714293Y-32465720D01*
X24714291Y-32465720D01*
X24520915Y-32517535D01*
X24520913Y-32517536D01*
X24515605Y-32518958D01*
X24510624Y-32521280D01*
X24510623Y-32521281D01*
X24329176Y-32605891D01*
X24329173Y-32605893D01*
X24324195Y-32608214D01*
X24151191Y-32729352D01*
X24001852Y-32878691D01*
X23880714Y-33051695D01*
X23878393Y-33056673D01*
X23878391Y-33056676D01*
X23794194Y-33237237D01*
X23791458Y-33243105D01*
X23790036Y-33248413D01*
X23790035Y-33248415D01*
X23746719Y-33410072D01*
X23736796Y-33447106D01*
X23718389Y-33657500D01*
X18488500Y-33657500D01*
X18488500Y-30940000D01*
X20866496Y-30940000D01*
X20886458Y-31129928D01*
X20945473Y-31311556D01*
X21040960Y-31476944D01*
X21045378Y-31481851D01*
X21045379Y-31481852D01*
X21133602Y-31579834D01*
X21168747Y-31618866D01*
X21220129Y-31656197D01*
X21289647Y-31706705D01*
X21323248Y-31731118D01*
X21329276Y-31733802D01*
X21329278Y-31733803D01*
X21491681Y-31806109D01*
X21497712Y-31808794D01*
X21565774Y-31823261D01*
X21678056Y-31847128D01*
X21678061Y-31847128D01*
X21684513Y-31848500D01*
X21875487Y-31848500D01*
X21881939Y-31847128D01*
X21881944Y-31847128D01*
X21994226Y-31823261D01*
X22062288Y-31808794D01*
X22068319Y-31806109D01*
X22230722Y-31733803D01*
X22230724Y-31733802D01*
X22236752Y-31731118D01*
X22270354Y-31706705D01*
X22339871Y-31656197D01*
X22391253Y-31618866D01*
X22426398Y-31579834D01*
X22490957Y-31508134D01*
X43356500Y-31508134D01*
X43363255Y-31570316D01*
X43414385Y-31706705D01*
X43501739Y-31823261D01*
X43618295Y-31910615D01*
X43754684Y-31961745D01*
X43816866Y-31968500D01*
X45913134Y-31968500D01*
X45975316Y-31961745D01*
X46111705Y-31910615D01*
X46228261Y-31823261D01*
X46315615Y-31706705D01*
X46366745Y-31570316D01*
X46373500Y-31508134D01*
X54556500Y-31508134D01*
X54563255Y-31570316D01*
X54614385Y-31706705D01*
X54701739Y-31823261D01*
X54818295Y-31910615D01*
X54954684Y-31961745D01*
X55016866Y-31968500D01*
X57113134Y-31968500D01*
X57175316Y-31961745D01*
X57311705Y-31910615D01*
X57428261Y-31823261D01*
X57515615Y-31706705D01*
X57566745Y-31570316D01*
X57573500Y-31508134D01*
X57573500Y-28211866D01*
X57566745Y-28149684D01*
X57515615Y-28013295D01*
X57428261Y-27896739D01*
X57311705Y-27809385D01*
X57175316Y-27758255D01*
X57113134Y-27751500D01*
X55016866Y-27751500D01*
X54954684Y-27758255D01*
X54818295Y-27809385D01*
X54701739Y-27896739D01*
X54614385Y-28013295D01*
X54563255Y-28149684D01*
X54556500Y-28211866D01*
X54556500Y-31508134D01*
X46373500Y-31508134D01*
X46373500Y-28211866D01*
X46366745Y-28149684D01*
X46315615Y-28013295D01*
X46228261Y-27896739D01*
X46111705Y-27809385D01*
X45975316Y-27758255D01*
X45913134Y-27751500D01*
X43816866Y-27751500D01*
X43754684Y-27758255D01*
X43618295Y-27809385D01*
X43501739Y-27896739D01*
X43414385Y-28013295D01*
X43363255Y-28149684D01*
X43356500Y-28211866D01*
X43356500Y-31508134D01*
X22490957Y-31508134D01*
X22514621Y-31481852D01*
X22514622Y-31481851D01*
X22519040Y-31476944D01*
X22614527Y-31311556D01*
X22673542Y-31129928D01*
X22693504Y-30940000D01*
X22691048Y-30916635D01*
X22674232Y-30756635D01*
X22674232Y-30756633D01*
X22673542Y-30750072D01*
X22614527Y-30568444D01*
X22519040Y-30403056D01*
X22434246Y-30308882D01*
X22395675Y-30266045D01*
X22395674Y-30266044D01*
X22391253Y-30261134D01*
X22236752Y-30148882D01*
X22230724Y-30146198D01*
X22230722Y-30146197D01*
X22068319Y-30073891D01*
X22068318Y-30073891D01*
X22062288Y-30071206D01*
X21968888Y-30051353D01*
X21881944Y-30032872D01*
X21881939Y-30032872D01*
X21875487Y-30031500D01*
X21684513Y-30031500D01*
X21678061Y-30032872D01*
X21678056Y-30032872D01*
X21591112Y-30051353D01*
X21497712Y-30071206D01*
X21491682Y-30073891D01*
X21491681Y-30073891D01*
X21329278Y-30146197D01*
X21329276Y-30146198D01*
X21323248Y-30148882D01*
X21168747Y-30261134D01*
X21164326Y-30266044D01*
X21164325Y-30266045D01*
X21125755Y-30308882D01*
X21040960Y-30403056D01*
X20945473Y-30568444D01*
X20886458Y-30750072D01*
X20885768Y-30756633D01*
X20885768Y-30756635D01*
X20868952Y-30916635D01*
X20866496Y-30940000D01*
X18488500Y-30940000D01*
X18488500Y-29805389D01*
X18508502Y-29737268D01*
X18562158Y-29690775D01*
X18632432Y-29680671D01*
X18697012Y-29710165D01*
X18721585Y-29738990D01*
X18776674Y-29827840D01*
X18781055Y-29832473D01*
X18781056Y-29832474D01*
X18818014Y-29871556D01*
X18910466Y-29969322D01*
X19069975Y-30081011D01*
X19075838Y-30083548D01*
X19242825Y-30155810D01*
X19242829Y-30155811D01*
X19248684Y-30158345D01*
X19254931Y-30159650D01*
X19254934Y-30159651D01*
X19434557Y-30197176D01*
X19434562Y-30197177D01*
X19439293Y-30198165D01*
X19445685Y-30198500D01*
X19588663Y-30198500D01*
X19657951Y-30191462D01*
X19727378Y-30184410D01*
X19727379Y-30184410D01*
X19733727Y-30183765D01*
X19820080Y-30156704D01*
X19913451Y-30127444D01*
X19913456Y-30127442D01*
X19919541Y-30125535D01*
X20020027Y-30069834D01*
X20084271Y-30034223D01*
X20084274Y-30034221D01*
X20089850Y-30031130D01*
X20094691Y-30026981D01*
X20094695Y-30026978D01*
X20232855Y-29908560D01*
X20237698Y-29904409D01*
X20263182Y-29871556D01*
X20336424Y-29777133D01*
X20357046Y-29750547D01*
X20362732Y-29738993D01*
X20440200Y-29581556D01*
X20443018Y-29575829D01*
X20468084Y-29479599D01*
X20490492Y-29393575D01*
X20490492Y-29393572D01*
X20492102Y-29387393D01*
X20497848Y-29277749D01*
X20501959Y-29199317D01*
X20501959Y-29199313D01*
X20502293Y-29192936D01*
X20473175Y-29000401D01*
X20470972Y-28994415D01*
X20470971Y-28994409D01*
X20408140Y-28823640D01*
X20408138Y-28823635D01*
X20405937Y-28817654D01*
X20325101Y-28687279D01*
X20306688Y-28657582D01*
X20306687Y-28657581D01*
X20303326Y-28652160D01*
X20249227Y-28594951D01*
X20173919Y-28515315D01*
X20169534Y-28510678D01*
X20163148Y-28506206D01*
X20015259Y-28402654D01*
X20010025Y-28398989D01*
X19922547Y-28361134D01*
X19837175Y-28324190D01*
X19837171Y-28324189D01*
X19831316Y-28321655D01*
X19825069Y-28320350D01*
X19825066Y-28320349D01*
X19645443Y-28282824D01*
X19645438Y-28282823D01*
X19640707Y-28281835D01*
X19634315Y-28281500D01*
X19491337Y-28281500D01*
X19422049Y-28288538D01*
X19352622Y-28295590D01*
X19352621Y-28295590D01*
X19346273Y-28296235D01*
X19289939Y-28313889D01*
X19166549Y-28352556D01*
X19166544Y-28352558D01*
X19160459Y-28354465D01*
X19084713Y-28396452D01*
X18995729Y-28445777D01*
X18995726Y-28445779D01*
X18990150Y-28448870D01*
X18985309Y-28453019D01*
X18985305Y-28453022D01*
X18918037Y-28510678D01*
X18842302Y-28575591D01*
X18838391Y-28580633D01*
X18838390Y-28580634D01*
X18729210Y-28721388D01*
X18722954Y-28729453D01*
X18720893Y-28733642D01*
X18668289Y-28780403D01*
X18598149Y-28791396D01*
X18533200Y-28762723D01*
X18494063Y-28703487D01*
X18488500Y-28666461D01*
X18488500Y-26805389D01*
X18508502Y-26737268D01*
X18562158Y-26690775D01*
X18632432Y-26680671D01*
X18697012Y-26710165D01*
X18721585Y-26738990D01*
X18776674Y-26827840D01*
X18781055Y-26832473D01*
X18781056Y-26832474D01*
X18906081Y-26964685D01*
X18910466Y-26969322D01*
X19069975Y-27081011D01*
X19117987Y-27101788D01*
X19242825Y-27155810D01*
X19242829Y-27155811D01*
X19248684Y-27158345D01*
X19254931Y-27159650D01*
X19254934Y-27159651D01*
X19434557Y-27197176D01*
X19434562Y-27197177D01*
X19439293Y-27198165D01*
X19445685Y-27198500D01*
X19588663Y-27198500D01*
X19657951Y-27191462D01*
X19727378Y-27184410D01*
X19727379Y-27184410D01*
X19733727Y-27183765D01*
X19814843Y-27158345D01*
X19913451Y-27127444D01*
X19913456Y-27127442D01*
X19919541Y-27125535D01*
X20011214Y-27074719D01*
X20084271Y-27034223D01*
X20084274Y-27034221D01*
X20089850Y-27031130D01*
X20094691Y-27026981D01*
X20094695Y-27026978D01*
X20232855Y-26908560D01*
X20237698Y-26904409D01*
X20357046Y-26750547D01*
X20362732Y-26738993D01*
X20440200Y-26581556D01*
X20443018Y-26575829D01*
X20457613Y-26519798D01*
X20490492Y-26393575D01*
X20490492Y-26393572D01*
X20492102Y-26387393D01*
X20497267Y-26288837D01*
X20501959Y-26199317D01*
X20501959Y-26199313D01*
X20502293Y-26192936D01*
X20478786Y-26037500D01*
X23718389Y-26037500D01*
X23736796Y-26247894D01*
X23738220Y-26253207D01*
X23738220Y-26253209D01*
X23754917Y-26315521D01*
X23791458Y-26451895D01*
X23793780Y-26456876D01*
X23793781Y-26456877D01*
X23846368Y-26569649D01*
X23880714Y-26643305D01*
X24001852Y-26816309D01*
X24151191Y-26965648D01*
X24155699Y-26968805D01*
X24155702Y-26968807D01*
X24319685Y-27083629D01*
X24324194Y-27086786D01*
X24329176Y-27089109D01*
X24329181Y-27089112D01*
X24472217Y-27155810D01*
X24515605Y-27176042D01*
X24520913Y-27177464D01*
X24520915Y-27177465D01*
X24714291Y-27229280D01*
X24714293Y-27229280D01*
X24719606Y-27230704D01*
X24930000Y-27249111D01*
X25140394Y-27230704D01*
X25145707Y-27229280D01*
X25145709Y-27229280D01*
X25339085Y-27177465D01*
X25339087Y-27177464D01*
X25344395Y-27176042D01*
X25387783Y-27155810D01*
X25530819Y-27089112D01*
X25530824Y-27089109D01*
X25535806Y-27086786D01*
X25540315Y-27083629D01*
X25704298Y-26968807D01*
X25704301Y-26968805D01*
X25708809Y-26965648D01*
X25858148Y-26816309D01*
X25979286Y-26643305D01*
X26013633Y-26569649D01*
X26066219Y-26456877D01*
X26066220Y-26456876D01*
X26068542Y-26451895D01*
X26105084Y-26315521D01*
X26121780Y-26253209D01*
X26121780Y-26253207D01*
X26123204Y-26247894D01*
X26141611Y-26037500D01*
X28798389Y-26037500D01*
X28816796Y-26247894D01*
X28818220Y-26253207D01*
X28818220Y-26253209D01*
X28834917Y-26315521D01*
X28871458Y-26451895D01*
X28873780Y-26456876D01*
X28873781Y-26456877D01*
X28926368Y-26569649D01*
X28960714Y-26643305D01*
X29081852Y-26816309D01*
X29231191Y-26965648D01*
X29235699Y-26968805D01*
X29235702Y-26968807D01*
X29399685Y-27083629D01*
X29404194Y-27086786D01*
X29409176Y-27089109D01*
X29409181Y-27089112D01*
X29552217Y-27155810D01*
X29595605Y-27176042D01*
X29600913Y-27177464D01*
X29600915Y-27177465D01*
X29794291Y-27229280D01*
X29794293Y-27229280D01*
X29799606Y-27230704D01*
X30010000Y-27249111D01*
X30220394Y-27230704D01*
X30225707Y-27229280D01*
X30225709Y-27229280D01*
X30419085Y-27177465D01*
X30419087Y-27177464D01*
X30424395Y-27176042D01*
X30467783Y-27155810D01*
X30610819Y-27089112D01*
X30610824Y-27089109D01*
X30615806Y-27086786D01*
X30620315Y-27083629D01*
X30784298Y-26968807D01*
X30784301Y-26968805D01*
X30788809Y-26965648D01*
X30938148Y-26816309D01*
X31059286Y-26643305D01*
X31093633Y-26569649D01*
X31146219Y-26456877D01*
X31146220Y-26456876D01*
X31148542Y-26451895D01*
X31185084Y-26315521D01*
X31201780Y-26253209D01*
X31201780Y-26253207D01*
X31203204Y-26247894D01*
X31221611Y-26037500D01*
X31203204Y-25827106D01*
X31170617Y-25705491D01*
X31149965Y-25628415D01*
X31149964Y-25628413D01*
X31148542Y-25623105D01*
X31129317Y-25581876D01*
X31061609Y-25436676D01*
X31061607Y-25436673D01*
X31059286Y-25431695D01*
X30938148Y-25258691D01*
X30788809Y-25109352D01*
X30784301Y-25106195D01*
X30784298Y-25106193D01*
X30620315Y-24991371D01*
X30620312Y-24991369D01*
X30615806Y-24988214D01*
X30610824Y-24985891D01*
X30610819Y-24985888D01*
X30429377Y-24901281D01*
X30429376Y-24901281D01*
X30424395Y-24898958D01*
X30419087Y-24897536D01*
X30419085Y-24897535D01*
X30225709Y-24845720D01*
X30225707Y-24845720D01*
X30220394Y-24844296D01*
X30010000Y-24825889D01*
X29799606Y-24844296D01*
X29794293Y-24845720D01*
X29794291Y-24845720D01*
X29600915Y-24897535D01*
X29600913Y-24897536D01*
X29595605Y-24898958D01*
X29590624Y-24901280D01*
X29590623Y-24901281D01*
X29409176Y-24985891D01*
X29409173Y-24985893D01*
X29404195Y-24988214D01*
X29231191Y-25109352D01*
X29081852Y-25258691D01*
X28960714Y-25431695D01*
X28958393Y-25436673D01*
X28958391Y-25436676D01*
X28890683Y-25581876D01*
X28871458Y-25623105D01*
X28870036Y-25628413D01*
X28870035Y-25628415D01*
X28849383Y-25705491D01*
X28816796Y-25827106D01*
X28798389Y-26037500D01*
X26141611Y-26037500D01*
X26123204Y-25827106D01*
X26090617Y-25705491D01*
X26069965Y-25628415D01*
X26069964Y-25628413D01*
X26068542Y-25623105D01*
X26049317Y-25581876D01*
X25981609Y-25436676D01*
X25981607Y-25436673D01*
X25979286Y-25431695D01*
X25858148Y-25258691D01*
X25708809Y-25109352D01*
X25704301Y-25106195D01*
X25704298Y-25106193D01*
X25540315Y-24991371D01*
X25540312Y-24991369D01*
X25535806Y-24988214D01*
X25530824Y-24985891D01*
X25530819Y-24985888D01*
X25349377Y-24901281D01*
X25349376Y-24901281D01*
X25344395Y-24898958D01*
X25339087Y-24897536D01*
X25339085Y-24897535D01*
X25145709Y-24845720D01*
X25145707Y-24845720D01*
X25140394Y-24844296D01*
X24930000Y-24825889D01*
X24719606Y-24844296D01*
X24714293Y-24845720D01*
X24714291Y-24845720D01*
X24520915Y-24897535D01*
X24520913Y-24897536D01*
X24515605Y-24898958D01*
X24510624Y-24901280D01*
X24510623Y-24901281D01*
X24329176Y-24985891D01*
X24329173Y-24985893D01*
X24324195Y-24988214D01*
X24151191Y-25109352D01*
X24001852Y-25258691D01*
X23880714Y-25431695D01*
X23878393Y-25436673D01*
X23878391Y-25436676D01*
X23810683Y-25581876D01*
X23791458Y-25623105D01*
X23790036Y-25628413D01*
X23790035Y-25628415D01*
X23769383Y-25705491D01*
X23736796Y-25827106D01*
X23718389Y-26037500D01*
X20478786Y-26037500D01*
X20473175Y-26000401D01*
X20470972Y-25994415D01*
X20470971Y-25994409D01*
X20408140Y-25823640D01*
X20408138Y-25823635D01*
X20405937Y-25817654D01*
X20303326Y-25652160D01*
X20265496Y-25612155D01*
X20173919Y-25515315D01*
X20169534Y-25510678D01*
X20159926Y-25503950D01*
X20015259Y-25402654D01*
X20010025Y-25398989D01*
X19925371Y-25362356D01*
X19837175Y-25324190D01*
X19837171Y-25324189D01*
X19831316Y-25321655D01*
X19825069Y-25320350D01*
X19825066Y-25320349D01*
X19645443Y-25282824D01*
X19645438Y-25282823D01*
X19640707Y-25281835D01*
X19634315Y-25281500D01*
X19491337Y-25281500D01*
X19422049Y-25288538D01*
X19352622Y-25295590D01*
X19352621Y-25295590D01*
X19346273Y-25296235D01*
X19297013Y-25311672D01*
X19166549Y-25352556D01*
X19166544Y-25352558D01*
X19160459Y-25354465D01*
X19084713Y-25396452D01*
X18995729Y-25445777D01*
X18995726Y-25445779D01*
X18990150Y-25448870D01*
X18985309Y-25453019D01*
X18985305Y-25453022D01*
X18871521Y-25550547D01*
X18842302Y-25575591D01*
X18838391Y-25580633D01*
X18838390Y-25580634D01*
X18752372Y-25691528D01*
X18722954Y-25729453D01*
X18720893Y-25733642D01*
X18668289Y-25780403D01*
X18598149Y-25791396D01*
X18533200Y-25762723D01*
X18494063Y-25703487D01*
X18488500Y-25666461D01*
X18488500Y-23825200D01*
X25045296Y-23825200D01*
X25045986Y-23831765D01*
X25062906Y-23992746D01*
X25065258Y-24015128D01*
X25124273Y-24196756D01*
X25127576Y-24202478D01*
X25127577Y-24202479D01*
X25142476Y-24228284D01*
X25219760Y-24362144D01*
X25224178Y-24367051D01*
X25224179Y-24367052D01*
X25269102Y-24416944D01*
X25347547Y-24504066D01*
X25502048Y-24616318D01*
X25508076Y-24619002D01*
X25508078Y-24619003D01*
X25670481Y-24691309D01*
X25676512Y-24693994D01*
X25769913Y-24713847D01*
X25856856Y-24732328D01*
X25856861Y-24732328D01*
X25863313Y-24733700D01*
X26054287Y-24733700D01*
X26060739Y-24732328D01*
X26060744Y-24732328D01*
X26147687Y-24713847D01*
X26241088Y-24693994D01*
X26247119Y-24691309D01*
X26287705Y-24673239D01*
X33018129Y-24673239D01*
X33018426Y-24678392D01*
X33018426Y-24678395D01*
X33022485Y-24748794D01*
X33031357Y-24902661D01*
X33032492Y-24907698D01*
X33032493Y-24907704D01*
X33077936Y-25109352D01*
X33081878Y-25126842D01*
X33168336Y-25339761D01*
X33171033Y-25344162D01*
X33171034Y-25344164D01*
X33270830Y-25507015D01*
X33288408Y-25535700D01*
X33438869Y-25709398D01*
X33442844Y-25712698D01*
X33442847Y-25712701D01*
X33468396Y-25733912D01*
X33615679Y-25856189D01*
X33814090Y-25972131D01*
X33818910Y-25973971D01*
X33818915Y-25973974D01*
X33960177Y-26027916D01*
X34028774Y-26054110D01*
X34033842Y-26055141D01*
X34033845Y-26055142D01*
X34137028Y-26076135D01*
X34253963Y-26099926D01*
X34259136Y-26100116D01*
X34259139Y-26100116D01*
X34478448Y-26108157D01*
X34478452Y-26108157D01*
X34483612Y-26108346D01*
X34488732Y-26107690D01*
X34488734Y-26107690D01*
X34706425Y-26079804D01*
X34706428Y-26079803D01*
X34711552Y-26079147D01*
X34721592Y-26076135D01*
X34926710Y-26014596D01*
X34931663Y-26013110D01*
X35138033Y-25912011D01*
X35162963Y-25894229D01*
X35320916Y-25781562D01*
X35325119Y-25778564D01*
X35341016Y-25762723D01*
X35484237Y-25620000D01*
X35487898Y-25616352D01*
X35512672Y-25581876D01*
X35618979Y-25433933D01*
X35621997Y-25429733D01*
X35638446Y-25396452D01*
X35676195Y-25320072D01*
X35723816Y-25223717D01*
X35751463Y-25132721D01*
X35789117Y-25008791D01*
X35789118Y-25008785D01*
X35790621Y-25003839D01*
X35813869Y-24827251D01*
X35820179Y-24779323D01*
X35820179Y-24779319D01*
X35820616Y-24776002D01*
X35822012Y-24718882D01*
X35822208Y-24710865D01*
X35822208Y-24710861D01*
X35822290Y-24707500D01*
X35819473Y-24673239D01*
X37003129Y-24673239D01*
X37003426Y-24678392D01*
X37003426Y-24678395D01*
X37007485Y-24748794D01*
X37016357Y-24902661D01*
X37017492Y-24907698D01*
X37017493Y-24907704D01*
X37062936Y-25109352D01*
X37066878Y-25126842D01*
X37153336Y-25339761D01*
X37156033Y-25344162D01*
X37156034Y-25344164D01*
X37255830Y-25507015D01*
X37273408Y-25535700D01*
X37423869Y-25709398D01*
X37427844Y-25712698D01*
X37427847Y-25712701D01*
X37453396Y-25733912D01*
X37600679Y-25856189D01*
X37799090Y-25972131D01*
X37803910Y-25973971D01*
X37803915Y-25973974D01*
X37945177Y-26027916D01*
X38013774Y-26054110D01*
X38018842Y-26055141D01*
X38018845Y-26055142D01*
X38122028Y-26076135D01*
X38238963Y-26099926D01*
X38244136Y-26100116D01*
X38244139Y-26100116D01*
X38463448Y-26108157D01*
X38463452Y-26108157D01*
X38468612Y-26108346D01*
X38473732Y-26107690D01*
X38473734Y-26107690D01*
X38691425Y-26079804D01*
X38691428Y-26079803D01*
X38696552Y-26079147D01*
X38706592Y-26076135D01*
X38911710Y-26014596D01*
X38916663Y-26013110D01*
X39123033Y-25912011D01*
X39147963Y-25894229D01*
X39305916Y-25781562D01*
X39310119Y-25778564D01*
X39326016Y-25762723D01*
X39469237Y-25620000D01*
X39472898Y-25616352D01*
X39475914Y-25612155D01*
X39559195Y-25496257D01*
X39615190Y-25452609D01*
X39685893Y-25446163D01*
X39748858Y-25478966D01*
X39768950Y-25503947D01*
X39788408Y-25535700D01*
X39938869Y-25709398D01*
X39942844Y-25712698D01*
X39942847Y-25712701D01*
X39968396Y-25733912D01*
X40115679Y-25856189D01*
X40314090Y-25972131D01*
X40318910Y-25973971D01*
X40318915Y-25973974D01*
X40460177Y-26027916D01*
X40528774Y-26054110D01*
X40533842Y-26055141D01*
X40533845Y-26055142D01*
X40637028Y-26076135D01*
X40753963Y-26099926D01*
X40759136Y-26100116D01*
X40759139Y-26100116D01*
X40978448Y-26108157D01*
X40978452Y-26108157D01*
X40983612Y-26108346D01*
X40988732Y-26107690D01*
X40988734Y-26107690D01*
X41206425Y-26079804D01*
X41206428Y-26079803D01*
X41211552Y-26079147D01*
X41221592Y-26076135D01*
X41426710Y-26014596D01*
X41431663Y-26013110D01*
X41638033Y-25912011D01*
X41662963Y-25894229D01*
X41820916Y-25781562D01*
X41825119Y-25778564D01*
X41841016Y-25762723D01*
X41984237Y-25620000D01*
X41987898Y-25616352D01*
X42012672Y-25581876D01*
X42070356Y-25501600D01*
X56211096Y-25501600D01*
X56211786Y-25508165D01*
X56224425Y-25628415D01*
X56231058Y-25691528D01*
X56290073Y-25873156D01*
X56293376Y-25878878D01*
X56293377Y-25878879D01*
X56310774Y-25909011D01*
X56385560Y-26038544D01*
X56389978Y-26043451D01*
X56389979Y-26043452D01*
X56469852Y-26132160D01*
X56513347Y-26180466D01*
X56539087Y-26199167D01*
X56661261Y-26287932D01*
X56667848Y-26292718D01*
X56673876Y-26295402D01*
X56673878Y-26295403D01*
X56728026Y-26319511D01*
X56842312Y-26370394D01*
X56922286Y-26387393D01*
X57022656Y-26408728D01*
X57022661Y-26408728D01*
X57029113Y-26410100D01*
X57220087Y-26410100D01*
X57226539Y-26408728D01*
X57226544Y-26408728D01*
X57326914Y-26387393D01*
X57406888Y-26370394D01*
X57521174Y-26319511D01*
X57575322Y-26295403D01*
X57575324Y-26295402D01*
X57581352Y-26292718D01*
X57587940Y-26287932D01*
X57710113Y-26199167D01*
X57776980Y-26175309D01*
X57846132Y-26191389D01*
X57895612Y-26242303D01*
X57909484Y-26287932D01*
X57925768Y-26442865D01*
X57926458Y-26449428D01*
X57985473Y-26631056D01*
X58080960Y-26796444D01*
X58085378Y-26801351D01*
X58085379Y-26801352D01*
X58204325Y-26933455D01*
X58208747Y-26938366D01*
X58268043Y-26981447D01*
X58311396Y-27037670D01*
X58317471Y-27108406D01*
X58284339Y-27171198D01*
X58268042Y-27185319D01*
X58218747Y-27221134D01*
X58214326Y-27226044D01*
X58214325Y-27226045D01*
X58144818Y-27303241D01*
X58090960Y-27363056D01*
X57995473Y-27528444D01*
X57936458Y-27710072D01*
X57935768Y-27716633D01*
X57935768Y-27716635D01*
X57934767Y-27726157D01*
X57916496Y-27900000D01*
X57917186Y-27906565D01*
X57933456Y-28061362D01*
X57936458Y-28089928D01*
X57995473Y-28271556D01*
X57998776Y-28277278D01*
X57998777Y-28277279D01*
X58009349Y-28295590D01*
X58090960Y-28436944D01*
X58095378Y-28441851D01*
X58095379Y-28441852D01*
X58214325Y-28573955D01*
X58218747Y-28578866D01*
X58240171Y-28594432D01*
X58283524Y-28650652D01*
X58289601Y-28721388D01*
X58256470Y-28784180D01*
X58240171Y-28798303D01*
X58208747Y-28821134D01*
X58204326Y-28826044D01*
X58204325Y-28826045D01*
X58099949Y-28941967D01*
X58080960Y-28963056D01*
X58048046Y-29020065D01*
X57989546Y-29121390D01*
X57985473Y-29128444D01*
X57926458Y-29310072D01*
X57925768Y-29316633D01*
X57925768Y-29316635D01*
X57915033Y-29418774D01*
X57906496Y-29500000D01*
X57907186Y-29506565D01*
X57915243Y-29583219D01*
X57926458Y-29689928D01*
X57985473Y-29871556D01*
X57988776Y-29877278D01*
X57988777Y-29877279D01*
X58016626Y-29925515D01*
X58080960Y-30036944D01*
X58085378Y-30041851D01*
X58085379Y-30041852D01*
X58185244Y-30152763D01*
X58208747Y-30178866D01*
X58235310Y-30198165D01*
X58240171Y-30201697D01*
X58283525Y-30257920D01*
X58289600Y-30328656D01*
X58256468Y-30391447D01*
X58240176Y-30405565D01*
X58218747Y-30421134D01*
X58214326Y-30426044D01*
X58214325Y-30426045D01*
X58155188Y-30491724D01*
X58090960Y-30563056D01*
X57995473Y-30728444D01*
X57936458Y-30910072D01*
X57916496Y-31100000D01*
X57917186Y-31106565D01*
X57919642Y-31129928D01*
X57936458Y-31289928D01*
X57995473Y-31471556D01*
X57998776Y-31477278D01*
X57998777Y-31477279D01*
X58016591Y-31508134D01*
X58090960Y-31636944D01*
X58095378Y-31641851D01*
X58095379Y-31641852D01*
X58178172Y-31733803D01*
X58218747Y-31778866D01*
X58373248Y-31891118D01*
X58379276Y-31893802D01*
X58379278Y-31893803D01*
X58533795Y-31962598D01*
X58547712Y-31968794D01*
X58641112Y-31988647D01*
X58728056Y-32007128D01*
X58728061Y-32007128D01*
X58734513Y-32008500D01*
X58925487Y-32008500D01*
X58931939Y-32007128D01*
X58931944Y-32007128D01*
X59018888Y-31988647D01*
X59112288Y-31968794D01*
X59126205Y-31962598D01*
X59280722Y-31893803D01*
X59280724Y-31893802D01*
X59286752Y-31891118D01*
X59441253Y-31778866D01*
X59481828Y-31733803D01*
X59564621Y-31641852D01*
X59564622Y-31641851D01*
X59569040Y-31636944D01*
X59643409Y-31508134D01*
X59661223Y-31477279D01*
X59661224Y-31477278D01*
X59664527Y-31471556D01*
X59723542Y-31289928D01*
X59740359Y-31129928D01*
X59742814Y-31106565D01*
X59743504Y-31100000D01*
X59723542Y-30910072D01*
X59664527Y-30728444D01*
X59569040Y-30563056D01*
X59504813Y-30491724D01*
X59445675Y-30426045D01*
X59445674Y-30426044D01*
X59441253Y-30421134D01*
X59409829Y-30398303D01*
X59366475Y-30342080D01*
X59360400Y-30271344D01*
X59393532Y-30208553D01*
X59409824Y-30194435D01*
X59431253Y-30178866D01*
X59454756Y-30152763D01*
X59554621Y-30041852D01*
X59554622Y-30041851D01*
X59559040Y-30036944D01*
X59609237Y-29950000D01*
X66376496Y-29950000D01*
X66377186Y-29956565D01*
X66390266Y-30081011D01*
X66396458Y-30139928D01*
X66455473Y-30321556D01*
X66458776Y-30327278D01*
X66458777Y-30327279D01*
X66492686Y-30386010D01*
X66550960Y-30486944D01*
X66555378Y-30491851D01*
X66555379Y-30491852D01*
X66615072Y-30558148D01*
X66678747Y-30628866D01*
X66833248Y-30741118D01*
X66839276Y-30743802D01*
X66839278Y-30743803D01*
X67001681Y-30816109D01*
X67007712Y-30818794D01*
X67101113Y-30838647D01*
X67188056Y-30857128D01*
X67188061Y-30857128D01*
X67194513Y-30858500D01*
X67385487Y-30858500D01*
X67391939Y-30857128D01*
X67391944Y-30857128D01*
X67478887Y-30838647D01*
X67572288Y-30818794D01*
X67578319Y-30816109D01*
X67740722Y-30743803D01*
X67740724Y-30743802D01*
X67746752Y-30741118D01*
X67901253Y-30628866D01*
X67964928Y-30558148D01*
X68024621Y-30491852D01*
X68024622Y-30491851D01*
X68029040Y-30486944D01*
X68087314Y-30386010D01*
X68121223Y-30327279D01*
X68121224Y-30327278D01*
X68124527Y-30321556D01*
X68183542Y-30139928D01*
X68194508Y-30035592D01*
X68221521Y-29969935D01*
X68235044Y-29960498D01*
X69576496Y-29960498D01*
X69577186Y-29967063D01*
X69595355Y-30139928D01*
X69596458Y-30150426D01*
X69655473Y-30332054D01*
X69658776Y-30337776D01*
X69658777Y-30337777D01*
X69689764Y-30391447D01*
X69750960Y-30497442D01*
X69755378Y-30502349D01*
X69755379Y-30502350D01*
X69872791Y-30632749D01*
X69878747Y-30639364D01*
X69977843Y-30711362D01*
X70001355Y-30728444D01*
X70033248Y-30751616D01*
X70039276Y-30754300D01*
X70039278Y-30754301D01*
X70201681Y-30826607D01*
X70207712Y-30829292D01*
X70301112Y-30849145D01*
X70388056Y-30867626D01*
X70388061Y-30867626D01*
X70394513Y-30868998D01*
X70585487Y-30868998D01*
X70591939Y-30867626D01*
X70591944Y-30867626D01*
X70678888Y-30849145D01*
X70772288Y-30829292D01*
X70778319Y-30826607D01*
X70940722Y-30754301D01*
X70940724Y-30754300D01*
X70946752Y-30751616D01*
X70978646Y-30728444D01*
X71002157Y-30711362D01*
X71101253Y-30639364D01*
X71107209Y-30632749D01*
X71224621Y-30502350D01*
X71224622Y-30502349D01*
X71229040Y-30497442D01*
X71290236Y-30391447D01*
X71321223Y-30337777D01*
X71321224Y-30337776D01*
X71324527Y-30332054D01*
X71383542Y-30150426D01*
X71384646Y-30139928D01*
X71402814Y-29967063D01*
X71403504Y-29960498D01*
X71397079Y-29899366D01*
X71384232Y-29777133D01*
X71384232Y-29777131D01*
X71383542Y-29770570D01*
X71324527Y-29588942D01*
X71229040Y-29423554D01*
X71215169Y-29408148D01*
X71105675Y-29286543D01*
X71105674Y-29286542D01*
X71101253Y-29281632D01*
X70979174Y-29192936D01*
X70952094Y-29173261D01*
X70952093Y-29173260D01*
X70946752Y-29169380D01*
X70940724Y-29166696D01*
X70940722Y-29166695D01*
X70778319Y-29094389D01*
X70778318Y-29094389D01*
X70772288Y-29091704D01*
X70678887Y-29071851D01*
X70591944Y-29053370D01*
X70591939Y-29053370D01*
X70585487Y-29051998D01*
X70394513Y-29051998D01*
X70388061Y-29053370D01*
X70388056Y-29053370D01*
X70301113Y-29071851D01*
X70207712Y-29091704D01*
X70201682Y-29094389D01*
X70201681Y-29094389D01*
X70039278Y-29166695D01*
X70039276Y-29166696D01*
X70033248Y-29169380D01*
X70027907Y-29173260D01*
X70027906Y-29173261D01*
X70000826Y-29192936D01*
X69878747Y-29281632D01*
X69874326Y-29286542D01*
X69874325Y-29286543D01*
X69764832Y-29408148D01*
X69750960Y-29423554D01*
X69655473Y-29588942D01*
X69596458Y-29770570D01*
X69595768Y-29777131D01*
X69595768Y-29777133D01*
X69582921Y-29899366D01*
X69576496Y-29960498D01*
X68235044Y-29960498D01*
X68279743Y-29929305D01*
X68293615Y-29925517D01*
X68372288Y-29908794D01*
X68393464Y-29899366D01*
X68540722Y-29833803D01*
X68540724Y-29833802D01*
X68546752Y-29831118D01*
X68701253Y-29718866D01*
X68705675Y-29713955D01*
X68824621Y-29581852D01*
X68824622Y-29581851D01*
X68829040Y-29576944D01*
X68877254Y-29493435D01*
X68921224Y-29417278D01*
X68921226Y-29417273D01*
X68924527Y-29411556D01*
X68924592Y-29411355D01*
X68969034Y-29359067D01*
X69011965Y-29341163D01*
X69170644Y-29307435D01*
X69178822Y-29303794D01*
X69339078Y-29232444D01*
X69339080Y-29232443D01*
X69345108Y-29229759D01*
X69387684Y-29198826D01*
X69415255Y-29178794D01*
X69499609Y-29117507D01*
X69522842Y-29091704D01*
X69622977Y-28980493D01*
X69622978Y-28980492D01*
X69627396Y-28975585D01*
X69718809Y-28817253D01*
X69719579Y-28815920D01*
X69719580Y-28815919D01*
X69722883Y-28810197D01*
X69781898Y-28628569D01*
X69784723Y-28601697D01*
X69801170Y-28445206D01*
X69801860Y-28438641D01*
X69789831Y-28324190D01*
X69782588Y-28255276D01*
X69782588Y-28255274D01*
X69781898Y-28248713D01*
X69722883Y-28067085D01*
X69627396Y-27901697D01*
X69499609Y-27759775D01*
X69345108Y-27647523D01*
X69339080Y-27644839D01*
X69339078Y-27644838D01*
X69176675Y-27572532D01*
X69176674Y-27572532D01*
X69170644Y-27569847D01*
X69077243Y-27549994D01*
X68990300Y-27531513D01*
X68990295Y-27531513D01*
X68983843Y-27530141D01*
X68792869Y-27530141D01*
X68786417Y-27531513D01*
X68786412Y-27531513D01*
X68699468Y-27549994D01*
X68606068Y-27569847D01*
X68600038Y-27572532D01*
X68600037Y-27572532D01*
X68437634Y-27644838D01*
X68437632Y-27644839D01*
X68431604Y-27647523D01*
X68277103Y-27759775D01*
X68149316Y-27901697D01*
X68146015Y-27907415D01*
X68057132Y-28061363D01*
X68057130Y-28061368D01*
X68053829Y-28067085D01*
X68053764Y-28067286D01*
X68009322Y-28119574D01*
X67966391Y-28137478D01*
X67807712Y-28171206D01*
X67801682Y-28173891D01*
X67801681Y-28173891D01*
X67639278Y-28246197D01*
X67639276Y-28246198D01*
X67633248Y-28248882D01*
X67627907Y-28252762D01*
X67627906Y-28252763D01*
X67602040Y-28271556D01*
X67478747Y-28361134D01*
X67474326Y-28366044D01*
X67474325Y-28366045D01*
X67414871Y-28432076D01*
X67350960Y-28503056D01*
X67310026Y-28573955D01*
X67264875Y-28652160D01*
X67255473Y-28668444D01*
X67196458Y-28850072D01*
X67195768Y-28856633D01*
X67195768Y-28856635D01*
X67185492Y-28954408D01*
X67158479Y-29020065D01*
X67100257Y-29060695D01*
X67086385Y-29064483D01*
X67007712Y-29081206D01*
X67001682Y-29083891D01*
X67001681Y-29083891D01*
X66839278Y-29156197D01*
X66839276Y-29156198D01*
X66833248Y-29158882D01*
X66827907Y-29162762D01*
X66827906Y-29162763D01*
X66803953Y-29180166D01*
X66678747Y-29271134D01*
X66674326Y-29276044D01*
X66674325Y-29276045D01*
X66664404Y-29287064D01*
X66550960Y-29413056D01*
X66455473Y-29578444D01*
X66396458Y-29760072D01*
X66395768Y-29766633D01*
X66395768Y-29766635D01*
X66394665Y-29777133D01*
X66376496Y-29950000D01*
X59609237Y-29950000D01*
X59623374Y-29925515D01*
X59651223Y-29877279D01*
X59651224Y-29877278D01*
X59654527Y-29871556D01*
X59713542Y-29689928D01*
X59724758Y-29583219D01*
X59732814Y-29506565D01*
X59733504Y-29500000D01*
X59724967Y-29418774D01*
X59714232Y-29316635D01*
X59714232Y-29316633D01*
X59713542Y-29310072D01*
X59654527Y-29128444D01*
X59650455Y-29121390D01*
X59591954Y-29020065D01*
X59559040Y-28963056D01*
X59540052Y-28941967D01*
X59435675Y-28826045D01*
X59435674Y-28826044D01*
X59431253Y-28821134D01*
X59409829Y-28805568D01*
X59366476Y-28749348D01*
X59360399Y-28678612D01*
X59393530Y-28615820D01*
X59409829Y-28601697D01*
X59428147Y-28588388D01*
X59441253Y-28578866D01*
X59445675Y-28573955D01*
X59564621Y-28441852D01*
X59564622Y-28441851D01*
X59569040Y-28436944D01*
X59587470Y-28405023D01*
X61531519Y-28405023D01*
X61532209Y-28411588D01*
X61550199Y-28582749D01*
X61551481Y-28594951D01*
X61610496Y-28776579D01*
X61613799Y-28782301D01*
X61613800Y-28782302D01*
X61623038Y-28798303D01*
X61705983Y-28941967D01*
X61710401Y-28946874D01*
X61710402Y-28946875D01*
X61829348Y-29078978D01*
X61833770Y-29083889D01*
X61903745Y-29134729D01*
X61956780Y-29173261D01*
X61988271Y-29196141D01*
X61994299Y-29198825D01*
X61994301Y-29198826D01*
X62069809Y-29232444D01*
X62162735Y-29273817D01*
X62256136Y-29293670D01*
X62343079Y-29312151D01*
X62343084Y-29312151D01*
X62349536Y-29313523D01*
X62540510Y-29313523D01*
X62546962Y-29312151D01*
X62546967Y-29312151D01*
X62633910Y-29293670D01*
X62727311Y-29273817D01*
X62820237Y-29232444D01*
X62895745Y-29198826D01*
X62895747Y-29198825D01*
X62901775Y-29196141D01*
X62933267Y-29173261D01*
X62986301Y-29134729D01*
X63056276Y-29083889D01*
X63060698Y-29078978D01*
X63179644Y-28946875D01*
X63179645Y-28946874D01*
X63184063Y-28941967D01*
X63267008Y-28798303D01*
X63276246Y-28782302D01*
X63276247Y-28782301D01*
X63279550Y-28776579D01*
X63338565Y-28594951D01*
X63339848Y-28582749D01*
X63357837Y-28411588D01*
X63358527Y-28405023D01*
X63345553Y-28281585D01*
X63339255Y-28221658D01*
X63339255Y-28221656D01*
X63338565Y-28215095D01*
X63279550Y-28033467D01*
X63184063Y-27868079D01*
X63093854Y-27767891D01*
X63060698Y-27731068D01*
X63060697Y-27731067D01*
X63056276Y-27726157D01*
X62948046Y-27647523D01*
X62907117Y-27617786D01*
X62907116Y-27617785D01*
X62901775Y-27613905D01*
X62895745Y-27611220D01*
X62891791Y-27609460D01*
X62886518Y-27607112D01*
X62832422Y-27561133D01*
X62811772Y-27493207D01*
X62831123Y-27424898D01*
X62886517Y-27376898D01*
X63051952Y-27303242D01*
X63051954Y-27303241D01*
X63057982Y-27300557D01*
X63101922Y-27268633D01*
X63156086Y-27229280D01*
X63212483Y-27188305D01*
X63241742Y-27155810D01*
X63335851Y-27051291D01*
X63335852Y-27051290D01*
X63340270Y-27046383D01*
X63422239Y-26904409D01*
X63432453Y-26886718D01*
X63432454Y-26886717D01*
X63435757Y-26880995D01*
X63494772Y-26699367D01*
X63514734Y-26509439D01*
X63494772Y-26319511D01*
X63435757Y-26137883D01*
X63420347Y-26111191D01*
X63392520Y-26062994D01*
X63375782Y-25993998D01*
X63392520Y-25936994D01*
X63421223Y-25887279D01*
X63421224Y-25887278D01*
X63424527Y-25881556D01*
X63472500Y-25733912D01*
X64200408Y-25733912D01*
X64201098Y-25740477D01*
X64209210Y-25817654D01*
X64220370Y-25923840D01*
X64279385Y-26105468D01*
X64282688Y-26111190D01*
X64282689Y-26111191D01*
X64312876Y-26163477D01*
X64364684Y-26253209D01*
X64365219Y-26254136D01*
X64381957Y-26323131D01*
X64365219Y-26380136D01*
X64320913Y-26456877D01*
X64284585Y-26519798D01*
X64225570Y-26701426D01*
X64224880Y-26707987D01*
X64224880Y-26707989D01*
X64211796Y-26832474D01*
X64205608Y-26891354D01*
X64206298Y-26897919D01*
X64215798Y-26988302D01*
X64225570Y-27081282D01*
X64284585Y-27262910D01*
X64287888Y-27268632D01*
X64287889Y-27268633D01*
X64307870Y-27303241D01*
X64380072Y-27428298D01*
X64384490Y-27433205D01*
X64384491Y-27433206D01*
X64428877Y-27482502D01*
X64507859Y-27570220D01*
X64513199Y-27574100D01*
X64513207Y-27574107D01*
X64537690Y-27591894D01*
X64581045Y-27648116D01*
X64587121Y-27718852D01*
X64565566Y-27767891D01*
X64565380Y-27768147D01*
X64560960Y-27773056D01*
X64465473Y-27938444D01*
X64406458Y-28120072D01*
X64405768Y-28126633D01*
X64405768Y-28126635D01*
X64389457Y-28281823D01*
X64386496Y-28310000D01*
X64387186Y-28316565D01*
X64401092Y-28448870D01*
X64406458Y-28499928D01*
X64465473Y-28681556D01*
X64468776Y-28687278D01*
X64468777Y-28687279D01*
X64474836Y-28697774D01*
X64560960Y-28846944D01*
X64565378Y-28851851D01*
X64565379Y-28851852D01*
X64670656Y-28968774D01*
X64688747Y-28988866D01*
X64704624Y-29000401D01*
X64831534Y-29092607D01*
X64843248Y-29101118D01*
X64849276Y-29103802D01*
X64849278Y-29103803D01*
X65011681Y-29176109D01*
X65017712Y-29178794D01*
X65084245Y-29192936D01*
X65198056Y-29217128D01*
X65198061Y-29217128D01*
X65204513Y-29218500D01*
X65395487Y-29218500D01*
X65401939Y-29217128D01*
X65401944Y-29217128D01*
X65515755Y-29192936D01*
X65582288Y-29178794D01*
X65588319Y-29176109D01*
X65750722Y-29103803D01*
X65750724Y-29103802D01*
X65756752Y-29101118D01*
X65768467Y-29092607D01*
X65895376Y-29000401D01*
X65911253Y-28988866D01*
X65929344Y-28968774D01*
X66034621Y-28851852D01*
X66034622Y-28851851D01*
X66039040Y-28846944D01*
X66125164Y-28697774D01*
X66131223Y-28687279D01*
X66131224Y-28687278D01*
X66134527Y-28681556D01*
X66193542Y-28499928D01*
X66198909Y-28448870D01*
X66212814Y-28316565D01*
X66213504Y-28310000D01*
X66210543Y-28281823D01*
X66194232Y-28126635D01*
X66194232Y-28126633D01*
X66193542Y-28120072D01*
X66134527Y-27938444D01*
X66039040Y-27773056D01*
X66034390Y-27767891D01*
X65915675Y-27636045D01*
X65915674Y-27636044D01*
X65911253Y-27631134D01*
X65905913Y-27627254D01*
X65905905Y-27627247D01*
X65881422Y-27609460D01*
X65838067Y-27553238D01*
X65831991Y-27482502D01*
X65853546Y-27433463D01*
X65853733Y-27433206D01*
X65858152Y-27428298D01*
X65930354Y-27303241D01*
X65950335Y-27268633D01*
X65950336Y-27268632D01*
X65953639Y-27262910D01*
X66012654Y-27081282D01*
X66022427Y-26988302D01*
X66031926Y-26897919D01*
X66032616Y-26891354D01*
X66026428Y-26832474D01*
X66013344Y-26707989D01*
X66013344Y-26707987D01*
X66012654Y-26701426D01*
X65953639Y-26519798D01*
X65867805Y-26371129D01*
X65851067Y-26302135D01*
X65867805Y-26245130D01*
X65945135Y-26111191D01*
X65945136Y-26111190D01*
X65948439Y-26105468D01*
X66007454Y-25923840D01*
X66018615Y-25817654D01*
X66026726Y-25740477D01*
X66027416Y-25733912D01*
X66020327Y-25666461D01*
X66008144Y-25550547D01*
X66008144Y-25550545D01*
X66007454Y-25543984D01*
X65948439Y-25362356D01*
X65927816Y-25326635D01*
X65871075Y-25228358D01*
X65852952Y-25196968D01*
X65798353Y-25136329D01*
X65729587Y-25059957D01*
X65729586Y-25059956D01*
X65725165Y-25055046D01*
X65612316Y-24973056D01*
X65576006Y-24946675D01*
X65576005Y-24946674D01*
X65570664Y-24942794D01*
X65564636Y-24940110D01*
X65564634Y-24940109D01*
X65402231Y-24867803D01*
X65402230Y-24867803D01*
X65396200Y-24865118D01*
X65295987Y-24843817D01*
X65215856Y-24826784D01*
X65215851Y-24826784D01*
X65209399Y-24825412D01*
X65018425Y-24825412D01*
X65011973Y-24826784D01*
X65011968Y-24826784D01*
X64931837Y-24843817D01*
X64831624Y-24865118D01*
X64825594Y-24867803D01*
X64825593Y-24867803D01*
X64663190Y-24940109D01*
X64663188Y-24940110D01*
X64657160Y-24942794D01*
X64651819Y-24946674D01*
X64651818Y-24946675D01*
X64615508Y-24973056D01*
X64502659Y-25055046D01*
X64498238Y-25059956D01*
X64498237Y-25059957D01*
X64429472Y-25136329D01*
X64374872Y-25196968D01*
X64356749Y-25228358D01*
X64300009Y-25326635D01*
X64279385Y-25362356D01*
X64220370Y-25543984D01*
X64219680Y-25550545D01*
X64219680Y-25550547D01*
X64207497Y-25666461D01*
X64200408Y-25733912D01*
X63472500Y-25733912D01*
X63483542Y-25699928D01*
X63487060Y-25666461D01*
X63502814Y-25516565D01*
X63503504Y-25510000D01*
X63499705Y-25473852D01*
X63484232Y-25326635D01*
X63484232Y-25326633D01*
X63483542Y-25320072D01*
X63424527Y-25138444D01*
X63409980Y-25113247D01*
X63374135Y-25051163D01*
X63329040Y-24973056D01*
X63317058Y-24959748D01*
X63205675Y-24836045D01*
X63205674Y-24836044D01*
X63201253Y-24831134D01*
X63046752Y-24718882D01*
X63040724Y-24716198D01*
X63040722Y-24716197D01*
X62878319Y-24643891D01*
X62878318Y-24643891D01*
X62872288Y-24641206D01*
X62755200Y-24616318D01*
X62691944Y-24602872D01*
X62691939Y-24602872D01*
X62685487Y-24601500D01*
X62494513Y-24601500D01*
X62488061Y-24602872D01*
X62488056Y-24602872D01*
X62424800Y-24616318D01*
X62307712Y-24641206D01*
X62301682Y-24643891D01*
X62301681Y-24643891D01*
X62139278Y-24716197D01*
X62139276Y-24716198D01*
X62133248Y-24718882D01*
X61978747Y-24831134D01*
X61974326Y-24836044D01*
X61974325Y-24836045D01*
X61862943Y-24959748D01*
X61850960Y-24973056D01*
X61805865Y-25051163D01*
X61770021Y-25113247D01*
X61755473Y-25138444D01*
X61696458Y-25320072D01*
X61695768Y-25326633D01*
X61695768Y-25326635D01*
X61680295Y-25473852D01*
X61676496Y-25510000D01*
X61677186Y-25516565D01*
X61692941Y-25666461D01*
X61696458Y-25699928D01*
X61755473Y-25881556D01*
X61758776Y-25887278D01*
X61758777Y-25887279D01*
X61798710Y-25956445D01*
X61815448Y-26025441D01*
X61798710Y-26082445D01*
X61782114Y-26111191D01*
X61766703Y-26137883D01*
X61707688Y-26319511D01*
X61687726Y-26509439D01*
X61707688Y-26699367D01*
X61766703Y-26880995D01*
X61770006Y-26886717D01*
X61770007Y-26886718D01*
X61780221Y-26904409D01*
X61862190Y-27046383D01*
X61866608Y-27051290D01*
X61866609Y-27051291D01*
X61960718Y-27155810D01*
X61989977Y-27188305D01*
X62046374Y-27229280D01*
X62100539Y-27268633D01*
X62144478Y-27300557D01*
X62150505Y-27303240D01*
X62150506Y-27303241D01*
X62153432Y-27304544D01*
X62159735Y-27307350D01*
X62213831Y-27353329D01*
X62234481Y-27421255D01*
X62215130Y-27489564D01*
X62159736Y-27537564D01*
X61994301Y-27611220D01*
X61994299Y-27611221D01*
X61988271Y-27613905D01*
X61982930Y-27617785D01*
X61982929Y-27617786D01*
X61942000Y-27647523D01*
X61833770Y-27726157D01*
X61829349Y-27731067D01*
X61829348Y-27731068D01*
X61796193Y-27767891D01*
X61705983Y-27868079D01*
X61610496Y-28033467D01*
X61551481Y-28215095D01*
X61550791Y-28221656D01*
X61550791Y-28221658D01*
X61544493Y-28281585D01*
X61531519Y-28405023D01*
X59587470Y-28405023D01*
X59650651Y-28295590D01*
X59661223Y-28277279D01*
X59661224Y-28277278D01*
X59664527Y-28271556D01*
X59723542Y-28089928D01*
X59726545Y-28061362D01*
X59742814Y-27906565D01*
X59743504Y-27900000D01*
X59725233Y-27726157D01*
X59724232Y-27716635D01*
X59724232Y-27716633D01*
X59723542Y-27710072D01*
X59664527Y-27528444D01*
X59569040Y-27363056D01*
X59515183Y-27303241D01*
X59445675Y-27226045D01*
X59445674Y-27226044D01*
X59441253Y-27221134D01*
X59381957Y-27178052D01*
X59338604Y-27121830D01*
X59332529Y-27051094D01*
X59365661Y-26988302D01*
X59381958Y-26974181D01*
X59425909Y-26942249D01*
X59425911Y-26942247D01*
X59431253Y-26938366D01*
X59435675Y-26933455D01*
X59554621Y-26801352D01*
X59554622Y-26801351D01*
X59559040Y-26796444D01*
X59654527Y-26631056D01*
X59713542Y-26449428D01*
X59717676Y-26410100D01*
X59732814Y-26266065D01*
X59733504Y-26259500D01*
X59717617Y-26108346D01*
X59714232Y-26076135D01*
X59714232Y-26076133D01*
X59713542Y-26069572D01*
X59654527Y-25887944D01*
X59642361Y-25866871D01*
X59582230Y-25762723D01*
X59559040Y-25722556D01*
X59432369Y-25581873D01*
X59401653Y-25517868D01*
X59410417Y-25447414D01*
X59451943Y-25395631D01*
X59455904Y-25392753D01*
X59455908Y-25392749D01*
X59461253Y-25388866D01*
X59517286Y-25326635D01*
X59584621Y-25251852D01*
X59584622Y-25251851D01*
X59589040Y-25246944D01*
X59684527Y-25081556D01*
X59743542Y-24899928D01*
X59746919Y-24867803D01*
X59762814Y-24716565D01*
X59763504Y-24710000D01*
X59759101Y-24668106D01*
X59744232Y-24526635D01*
X59744232Y-24526633D01*
X59743542Y-24520072D01*
X59684527Y-24338444D01*
X59589040Y-24173056D01*
X59581561Y-24164749D01*
X59465675Y-24036045D01*
X59465674Y-24036044D01*
X59461253Y-24031134D01*
X59335480Y-23939754D01*
X59312094Y-23922763D01*
X59312093Y-23922762D01*
X59306752Y-23918882D01*
X59300724Y-23916198D01*
X59300722Y-23916197D01*
X59138319Y-23843891D01*
X59138318Y-23843891D01*
X59132288Y-23841206D01*
X59038511Y-23821273D01*
X58951944Y-23802872D01*
X58951939Y-23802872D01*
X58945487Y-23801500D01*
X58754513Y-23801500D01*
X58748061Y-23802872D01*
X58748056Y-23802872D01*
X58661489Y-23821273D01*
X58567712Y-23841206D01*
X58561682Y-23843891D01*
X58561681Y-23843891D01*
X58399278Y-23916197D01*
X58399276Y-23916198D01*
X58393248Y-23918882D01*
X58387907Y-23922762D01*
X58387906Y-23922763D01*
X58364520Y-23939754D01*
X58238747Y-24031134D01*
X58234326Y-24036044D01*
X58234325Y-24036045D01*
X58118440Y-24164749D01*
X58110960Y-24173056D01*
X58015473Y-24338444D01*
X57956458Y-24520072D01*
X57955768Y-24526633D01*
X57955768Y-24526635D01*
X57940899Y-24668106D01*
X57936496Y-24710000D01*
X57937186Y-24716565D01*
X57937186Y-24721943D01*
X57917184Y-24790064D01*
X57863528Y-24836557D01*
X57793254Y-24846661D01*
X57737450Y-24820536D01*
X57735853Y-24822734D01*
X57586694Y-24714363D01*
X57586693Y-24714362D01*
X57581352Y-24710482D01*
X57575324Y-24707798D01*
X57575322Y-24707797D01*
X57412919Y-24635491D01*
X57412918Y-24635491D01*
X57406888Y-24632806D01*
X57311060Y-24612437D01*
X57226544Y-24594472D01*
X57226539Y-24594472D01*
X57220087Y-24593100D01*
X57029113Y-24593100D01*
X57022661Y-24594472D01*
X57022656Y-24594472D01*
X56938140Y-24612437D01*
X56842312Y-24632806D01*
X56836282Y-24635491D01*
X56836281Y-24635491D01*
X56673878Y-24707797D01*
X56673876Y-24707798D01*
X56667848Y-24710482D01*
X56662507Y-24714362D01*
X56662506Y-24714363D01*
X56656286Y-24718882D01*
X56513347Y-24822734D01*
X56508926Y-24827644D01*
X56508925Y-24827645D01*
X56405245Y-24942794D01*
X56385560Y-24964656D01*
X56377409Y-24978774D01*
X56299770Y-25113249D01*
X56290073Y-25130044D01*
X56231058Y-25311672D01*
X56230368Y-25318233D01*
X56230368Y-25318235D01*
X56219137Y-25425094D01*
X56211096Y-25501600D01*
X42070356Y-25501600D01*
X42118979Y-25433933D01*
X42121997Y-25429733D01*
X42138446Y-25396452D01*
X42176195Y-25320072D01*
X42223816Y-25223717D01*
X42251463Y-25132721D01*
X42289117Y-25008791D01*
X42289118Y-25008785D01*
X42290621Y-25003839D01*
X42313869Y-24827251D01*
X42320179Y-24779323D01*
X42320179Y-24779319D01*
X42320616Y-24776002D01*
X42322012Y-24718882D01*
X42322208Y-24710865D01*
X42322208Y-24710861D01*
X42322290Y-24707500D01*
X42312997Y-24594472D01*
X42303884Y-24483621D01*
X42303883Y-24483615D01*
X42303460Y-24478470D01*
X42247477Y-24255590D01*
X42155843Y-24044847D01*
X42144460Y-24027251D01*
X42033830Y-23856243D01*
X42033828Y-23856240D01*
X42031020Y-23851900D01*
X42023733Y-23843891D01*
X41879837Y-23685752D01*
X41879835Y-23685751D01*
X41876359Y-23681930D01*
X41872308Y-23678731D01*
X41872304Y-23678727D01*
X41700073Y-23542708D01*
X41696015Y-23539503D01*
X41494831Y-23428443D01*
X41377611Y-23386933D01*
X41283084Y-23353459D01*
X41283080Y-23353458D01*
X41278209Y-23351733D01*
X41273116Y-23350826D01*
X41273113Y-23350825D01*
X41057056Y-23312339D01*
X41057050Y-23312338D01*
X41051967Y-23311433D01*
X40978784Y-23310539D01*
X40827351Y-23308689D01*
X40827349Y-23308689D01*
X40822181Y-23308626D01*
X40698224Y-23327594D01*
X40600131Y-23342604D01*
X40600128Y-23342605D01*
X40595022Y-23343386D01*
X40590110Y-23344991D01*
X40590112Y-23344991D01*
X40381504Y-23413175D01*
X40381502Y-23413176D01*
X40376591Y-23414781D01*
X40172753Y-23520892D01*
X40168620Y-23523995D01*
X40168617Y-23523997D01*
X39993118Y-23655765D01*
X39988983Y-23658870D01*
X39985411Y-23662608D01*
X39851372Y-23802872D01*
X39830216Y-23825010D01*
X39766894Y-23917836D01*
X39711985Y-23962837D01*
X39641460Y-23971008D01*
X39577713Y-23939754D01*
X39557016Y-23915270D01*
X39518830Y-23856243D01*
X39518828Y-23856240D01*
X39516020Y-23851900D01*
X39508733Y-23843891D01*
X39364837Y-23685752D01*
X39364835Y-23685751D01*
X39361359Y-23681930D01*
X39357308Y-23678731D01*
X39357304Y-23678727D01*
X39185073Y-23542708D01*
X39181015Y-23539503D01*
X38979831Y-23428443D01*
X38862611Y-23386933D01*
X38768084Y-23353459D01*
X38768080Y-23353458D01*
X38763209Y-23351733D01*
X38758116Y-23350826D01*
X38758113Y-23350825D01*
X38542056Y-23312339D01*
X38542050Y-23312338D01*
X38536967Y-23311433D01*
X38463784Y-23310539D01*
X38312351Y-23308689D01*
X38312349Y-23308689D01*
X38307181Y-23308626D01*
X38183224Y-23327594D01*
X38085131Y-23342604D01*
X38085128Y-23342605D01*
X38080022Y-23343386D01*
X38075110Y-23344991D01*
X38075112Y-23344991D01*
X37866504Y-23413175D01*
X37866502Y-23413176D01*
X37861591Y-23414781D01*
X37657753Y-23520892D01*
X37653620Y-23523995D01*
X37653617Y-23523997D01*
X37478118Y-23655765D01*
X37473983Y-23658870D01*
X37470411Y-23662608D01*
X37336372Y-23802872D01*
X37315216Y-23825010D01*
X37312307Y-23829275D01*
X37312301Y-23829283D01*
X37236943Y-23939754D01*
X37185716Y-24014850D01*
X37164637Y-24060261D01*
X37101279Y-24196756D01*
X37088961Y-24223292D01*
X37027548Y-24444737D01*
X37003129Y-24673239D01*
X35819473Y-24673239D01*
X35812997Y-24594472D01*
X35803884Y-24483621D01*
X35803883Y-24483615D01*
X35803460Y-24478470D01*
X35747477Y-24255590D01*
X35655843Y-24044847D01*
X35644460Y-24027251D01*
X35533830Y-23856243D01*
X35533828Y-23856240D01*
X35531020Y-23851900D01*
X35523733Y-23843891D01*
X35379837Y-23685752D01*
X35379835Y-23685751D01*
X35376359Y-23681930D01*
X35372308Y-23678731D01*
X35372304Y-23678727D01*
X35200073Y-23542708D01*
X35196015Y-23539503D01*
X34994831Y-23428443D01*
X34877611Y-23386933D01*
X34783084Y-23353459D01*
X34783080Y-23353458D01*
X34778209Y-23351733D01*
X34773116Y-23350826D01*
X34773113Y-23350825D01*
X34557056Y-23312339D01*
X34557050Y-23312338D01*
X34551967Y-23311433D01*
X34478784Y-23310539D01*
X34327351Y-23308689D01*
X34327349Y-23308689D01*
X34322181Y-23308626D01*
X34198224Y-23327594D01*
X34100131Y-23342604D01*
X34100128Y-23342605D01*
X34095022Y-23343386D01*
X34090110Y-23344991D01*
X34090112Y-23344991D01*
X33881504Y-23413175D01*
X33881502Y-23413176D01*
X33876591Y-23414781D01*
X33672753Y-23520892D01*
X33668620Y-23523995D01*
X33668617Y-23523997D01*
X33493118Y-23655765D01*
X33488983Y-23658870D01*
X33485411Y-23662608D01*
X33351372Y-23802872D01*
X33330216Y-23825010D01*
X33327307Y-23829275D01*
X33327301Y-23829283D01*
X33251943Y-23939754D01*
X33200716Y-24014850D01*
X33179637Y-24060261D01*
X33116279Y-24196756D01*
X33103961Y-24223292D01*
X33042548Y-24444737D01*
X33018129Y-24673239D01*
X26287705Y-24673239D01*
X26409522Y-24619003D01*
X26409524Y-24619002D01*
X26415552Y-24616318D01*
X26570053Y-24504066D01*
X26648498Y-24416944D01*
X26693421Y-24367052D01*
X26693422Y-24367051D01*
X26697840Y-24362144D01*
X26775124Y-24228284D01*
X26790023Y-24202479D01*
X26790024Y-24202478D01*
X26793327Y-24196756D01*
X26852342Y-24015128D01*
X26854695Y-23992746D01*
X26871614Y-23831765D01*
X26872304Y-23825200D01*
X26863642Y-23742783D01*
X26853032Y-23641835D01*
X26853032Y-23641833D01*
X26852342Y-23635272D01*
X26793327Y-23453644D01*
X26697840Y-23288256D01*
X26570053Y-23146334D01*
X26470957Y-23074336D01*
X26420894Y-23037963D01*
X26420893Y-23037962D01*
X26415552Y-23034082D01*
X26409524Y-23031398D01*
X26409522Y-23031397D01*
X26247119Y-22959091D01*
X26247118Y-22959091D01*
X26241088Y-22956406D01*
X26147688Y-22936553D01*
X26060744Y-22918072D01*
X26060739Y-22918072D01*
X26054287Y-22916700D01*
X25863313Y-22916700D01*
X25856861Y-22918072D01*
X25856856Y-22918072D01*
X25769912Y-22936553D01*
X25676512Y-22956406D01*
X25670482Y-22959091D01*
X25670481Y-22959091D01*
X25508078Y-23031397D01*
X25508076Y-23031398D01*
X25502048Y-23034082D01*
X25496707Y-23037962D01*
X25496706Y-23037963D01*
X25446643Y-23074336D01*
X25347547Y-23146334D01*
X25219760Y-23288256D01*
X25124273Y-23453644D01*
X25065258Y-23635272D01*
X25064568Y-23641833D01*
X25064568Y-23641835D01*
X25053958Y-23742783D01*
X25045296Y-23825200D01*
X18488500Y-23825200D01*
X18488500Y-21904500D01*
X18508502Y-21836379D01*
X18562158Y-21789886D01*
X18614500Y-21778500D01*
X46633572Y-21778500D01*
X46701693Y-21798502D01*
G37*
%TD.AperFunction*%
%TD*%
M02*
